<svg width="255" height="83" viewBox="0 0 255 83" fill="none" xmlns="http://www.w3.org/2000/svg">
<path d="M93.3404 67.5469V57.0469H94.9304V66.2869H99.7004V67.5469H93.3404ZM103.872 67.7269C103.242 67.7269 102.722 67.6219 102.312 67.4119C101.902 67.2019 101.597 66.9269 101.397 66.5869C101.197 66.2369 101.097 65.8569 101.097 65.4469C101.097 64.7269 101.377 64.1569 101.937 63.7369C102.497 63.3169 103.297 63.1069 104.337 63.1069H106.287V62.9719C106.287 62.3919 106.127 61.9569 105.807 61.6669C105.497 61.3769 105.092 61.2319 104.592 61.2319C104.152 61.2319 103.767 61.3419 103.437 61.5619C103.117 61.7719 102.922 62.0869 102.852 62.5069H101.262C101.312 61.9669 101.492 61.5069 101.802 61.1269C102.122 60.7369 102.522 60.4419 103.002 60.2419C103.492 60.0319 104.027 59.9269 104.607 59.9269C105.647 59.9269 106.452 60.2019 107.022 60.7519C107.592 61.2919 107.877 62.0319 107.877 62.9719V67.5469H106.497L106.362 66.2719C106.152 66.6819 105.847 67.0269 105.447 67.3069C105.047 67.5869 104.522 67.7269 103.872 67.7269ZM104.187 66.4369C104.617 66.4369 104.977 66.3369 105.267 66.1369C105.567 65.9269 105.797 65.6519 105.957 65.3119C106.127 64.9719 106.232 64.5969 106.272 64.1869H104.502C103.872 64.1869 103.422 64.2969 103.152 64.5169C102.892 64.7369 102.762 65.0119 102.762 65.3419C102.762 65.6819 102.887 65.9519 103.137 66.1519C103.397 66.3419 103.747 66.4369 104.187 66.4369ZM112.701 67.7269C111.761 67.7269 110.986 67.4969 110.376 67.0369C109.766 66.5769 109.416 65.9669 109.326 65.2069H110.931C111.011 65.5469 111.201 65.8419 111.501 66.0919C111.801 66.3319 112.196 66.4519 112.686 66.4519C113.166 66.4519 113.516 66.3519 113.736 66.1519C113.956 65.9519 114.066 65.7219 114.066 65.4619C114.066 65.0819 113.911 64.8269 113.601 64.6969C113.301 64.5569 112.881 64.4319 112.341 64.3219C111.921 64.2319 111.501 64.1119 111.081 63.9619C110.671 63.8119 110.326 63.6019 110.046 63.3319C109.776 63.0519 109.641 62.6769 109.641 62.2069C109.641 61.5569 109.891 61.0169 110.391 60.5869C110.891 60.1469 111.591 59.9269 112.491 59.9269C113.321 59.9269 113.991 60.1269 114.501 60.5269C115.021 60.9269 115.326 61.4919 115.416 62.2219H113.886C113.836 61.9019 113.686 61.6519 113.436 61.4719C113.196 61.2919 112.871 61.2019 112.461 61.2019C112.061 61.2019 111.751 61.2869 111.531 61.4569C111.311 61.6169 111.201 61.8269 111.201 62.0869C111.201 62.3469 111.351 62.5519 111.651 62.7019C111.961 62.8519 112.366 62.9869 112.866 63.1069C113.366 63.2169 113.826 63.3469 114.246 63.4969C114.676 63.6369 115.021 63.8469 115.281 64.1269C115.541 64.4069 115.671 64.8169 115.671 65.3569C115.681 66.0369 115.416 66.6019 114.876 67.0519C114.346 67.5019 113.621 67.7269 112.701 67.7269ZM117.406 67.5469V56.7469H118.996V63.1819L121.846 60.1069H123.751L120.586 63.4819L124.216 67.5469H122.206L118.996 63.7369V67.5469H117.406ZM127.807 67.7269C127.177 67.7269 126.657 67.6219 126.247 67.4119C125.837 67.2019 125.532 66.9269 125.332 66.5869C125.132 66.2369 125.032 65.8569 125.032 65.4469C125.032 64.7269 125.312 64.1569 125.872 63.7369C126.432 63.3169 127.232 63.1069 128.272 63.1069H130.222V62.9719C130.222 62.3919 130.062 61.9569 129.742 61.6669C129.432 61.3769 129.027 61.2319 128.527 61.2319C128.087 61.2319 127.702 61.3419 127.372 61.5619C127.052 61.7719 126.857 62.0869 126.787 62.5069H125.197C125.247 61.9669 125.427 61.5069 125.737 61.1269C126.057 60.7369 126.457 60.4419 126.937 60.2419C127.427 60.0319 127.962 59.9269 128.542 59.9269C129.582 59.9269 130.387 60.2019 130.957 60.7519C131.527 61.2919 131.812 62.0319 131.812 62.9719V67.5469H130.432L130.297 66.2719C130.087 66.6819 129.782 67.0269 129.382 67.3069C128.982 67.5869 128.457 67.7269 127.807 67.7269ZM128.122 66.4369C128.552 66.4369 128.912 66.3369 129.202 66.1369C129.502 65.9269 129.732 65.6519 129.892 65.3119C130.062 64.9719 130.167 64.5969 130.207 64.1869H128.437C127.807 64.1869 127.357 64.2969 127.087 64.5169C126.827 64.7369 126.697 65.0119 126.697 65.3419C126.697 65.6819 126.822 65.9519 127.072 66.1519C127.332 66.3419 127.682 66.4369 128.122 66.4369ZM133.666 67.5469V60.1069H135.091L135.226 61.5169C135.486 61.0269 135.846 60.6419 136.306 60.3619C136.776 60.0719 137.341 59.9269 138.001 59.9269V61.5919H137.566C137.126 61.5919 136.731 61.6669 136.381 61.8169C136.041 61.9569 135.766 62.2019 135.556 62.5519C135.356 62.8919 135.256 63.3669 135.256 63.9769V67.5469H133.666Z" fill="#27AEA1"/>
<path d="M143.204 67.5469V57.0469H149.879V58.3369H144.794V61.6069H149.429V62.8669H144.794V66.2569H149.879V67.5469H143.204ZM151.713 67.5469V56.7469H153.303V63.1819L156.153 60.1069H158.058L154.893 63.4819L158.523 67.5469H156.513L153.303 63.7369V67.5469H151.713ZM162.664 67.7269C161.954 67.7269 161.314 67.5669 160.744 67.2469C160.184 66.9169 159.739 66.4619 159.409 65.8819C159.079 65.2919 158.914 64.6069 158.914 63.8269C158.914 63.0469 159.079 62.3669 159.409 61.7869C159.749 61.1969 160.204 60.7419 160.774 60.4219C161.344 60.0919 161.979 59.9269 162.679 59.9269C163.389 59.9269 164.024 60.0919 164.584 60.4219C165.154 60.7419 165.604 61.1969 165.934 61.7869C166.274 62.3669 166.444 63.0469 166.444 63.8269C166.444 64.6069 166.274 65.2919 165.934 65.8819C165.604 66.4619 165.154 66.9169 164.584 67.2469C164.014 67.5669 163.374 67.7269 162.664 67.7269ZM162.664 66.3619C163.044 66.3619 163.394 66.2669 163.714 66.0769C164.044 65.8869 164.309 65.6069 164.509 65.2369C164.709 64.8569 164.809 64.3869 164.809 63.8269C164.809 63.2669 164.709 62.8019 164.509 62.4319C164.319 62.0519 164.059 61.7669 163.729 61.5769C163.409 61.3869 163.059 61.2919 162.679 61.2919C162.299 61.2919 161.944 61.3869 161.614 61.5769C161.294 61.7669 161.034 62.0519 160.834 62.4319C160.634 62.8019 160.534 63.2669 160.534 63.8269C160.534 64.3869 160.634 64.8569 160.834 65.2369C161.034 65.6069 161.294 65.8869 161.614 66.0769C161.934 66.2669 162.284 66.3619 162.664 66.3619ZM171.133 67.7269C170.193 67.7269 169.418 67.4969 168.808 67.0369C168.198 66.5769 167.848 65.9669 167.758 65.2069H169.363C169.443 65.5469 169.633 65.8419 169.933 66.0919C170.233 66.3319 170.628 66.4519 171.118 66.4519C171.598 66.4519 171.948 66.3519 172.168 66.1519C172.388 65.9519 172.498 65.7219 172.498 65.4619C172.498 65.0819 172.343 64.8269 172.033 64.6969C171.733 64.5569 171.313 64.4319 170.773 64.3219C170.353 64.2319 169.933 64.1119 169.513 63.9619C169.103 63.8119 168.758 63.6019 168.478 63.3319C168.208 63.0519 168.073 62.6769 168.073 62.2069C168.073 61.5569 168.323 61.0169 168.823 60.5869C169.323 60.1469 170.023 59.9269 170.923 59.9269C171.753 59.9269 172.423 60.1269 172.933 60.5269C173.453 60.9269 173.758 61.4919 173.848 62.2219H172.318C172.268 61.9019 172.118 61.6519 171.868 61.4719C171.628 61.2919 171.303 61.2019 170.893 61.2019C170.493 61.2019 170.183 61.2869 169.963 61.4569C169.743 61.6169 169.633 61.8269 169.633 62.0869C169.633 62.3469 169.783 62.5519 170.083 62.7019C170.393 62.8519 170.798 62.9869 171.298 63.1069C171.798 63.2169 172.258 63.3469 172.678 63.4969C173.108 63.6369 173.453 63.8469 173.713 64.1269C173.973 64.4069 174.103 64.8169 174.103 65.3569C174.113 66.0369 173.848 66.6019 173.308 67.0519C172.778 67.5019 172.053 67.7269 171.133 67.7269ZM176.739 58.6969C176.439 58.6969 176.189 58.6069 175.989 58.4269C175.799 58.2369 175.704 58.0019 175.704 57.7219C175.704 57.4419 175.799 57.2119 175.989 57.0319C176.189 56.8419 176.439 56.7469 176.739 56.7469C177.039 56.7469 177.284 56.8419 177.474 57.0319C177.674 57.2119 177.774 57.4419 177.774 57.7219C177.774 58.0019 177.674 58.2369 177.474 58.4269C177.284 58.6069 177.039 58.6969 176.739 58.6969ZM175.944 67.5469V60.1069H177.534V67.5469H175.944ZM182.603 67.7269C181.663 67.7269 180.888 67.4969 180.278 67.0369C179.668 66.5769 179.318 65.9669 179.228 65.2069H180.833C180.913 65.5469 181.103 65.8419 181.403 66.0919C181.703 66.3319 182.098 66.4519 182.588 66.4519C183.068 66.4519 183.418 66.3519 183.638 66.1519C183.858 65.9519 183.968 65.7219 183.968 65.4619C183.968 65.0819 183.813 64.8269 183.503 64.6969C183.203 64.5569 182.783 64.4319 182.243 64.3219C181.823 64.2319 181.403 64.1119 180.983 63.9619C180.573 63.8119 180.228 63.6019 179.948 63.3319C179.678 63.0519 179.543 62.6769 179.543 62.2069C179.543 61.5569 179.793 61.0169 180.293 60.5869C180.793 60.1469 181.493 59.9269 182.393 59.9269C183.223 59.9269 183.893 60.1269 184.403 60.5269C184.923 60.9269 185.228 61.4919 185.318 62.2219H183.788C183.738 61.9019 183.588 61.6519 183.338 61.4719C183.098 61.2919 182.773 61.2019 182.363 61.2019C181.963 61.2019 181.653 61.2869 181.433 61.4569C181.213 61.6169 181.103 61.8269 181.103 62.0869C181.103 62.3469 181.253 62.5519 181.553 62.7019C181.863 62.8519 182.268 62.9869 182.768 63.1069C183.268 63.2169 183.728 63.3469 184.148 63.4969C184.578 63.6369 184.923 63.8469 185.183 64.1269C185.443 64.4069 185.573 64.8169 185.573 65.3569C185.583 66.0369 185.318 66.6019 184.778 67.0519C184.248 67.5019 183.523 67.7269 182.603 67.7269ZM190.15 67.5469C189.42 67.5469 188.84 67.3719 188.41 67.0219C187.98 66.6619 187.765 66.0269 187.765 65.1169V61.4419H186.49V60.1069H187.765L187.96 58.2169H189.355V60.1069H191.455V61.4419H189.355V65.1169C189.355 65.5269 189.44 65.8119 189.61 65.9719C189.79 66.1219 190.095 66.1969 190.525 66.1969H191.38V67.5469H190.15ZM196.384 67.7269C195.654 67.7269 195.004 67.5669 194.434 67.2469C193.874 66.9169 193.434 66.4619 193.114 65.8819C192.794 65.3019 192.634 64.6269 192.634 63.8569C192.634 63.0769 192.789 62.3919 193.099 61.8019C193.419 61.2119 193.859 60.7519 194.419 60.4219C194.989 60.0919 195.649 59.9269 196.399 59.9269C197.129 59.9269 197.764 60.0919 198.304 60.4219C198.844 60.7419 199.264 61.1719 199.564 61.7119C199.864 62.2519 200.014 62.8469 200.014 63.4969C200.014 63.5969 200.009 63.7069 199.999 63.8269C199.999 63.9369 199.994 64.0619 199.984 64.2019H194.194C194.244 64.9219 194.479 65.4719 194.899 65.8519C195.329 66.2219 195.824 66.4069 196.384 66.4069C196.834 66.4069 197.209 66.3069 197.509 66.1069C197.819 65.8969 198.049 65.6169 198.199 65.2669H199.789C199.589 65.9669 199.189 66.5519 198.589 67.0219C197.999 67.4919 197.264 67.7269 196.384 67.7269ZM196.384 61.2319C195.854 61.2319 195.384 61.3919 194.974 61.7119C194.564 62.0219 194.314 62.4919 194.224 63.1219H198.424C198.394 62.5419 198.189 62.0819 197.809 61.7419C197.429 61.4019 196.954 61.2319 196.384 61.2319ZM201.664 67.5469V60.1069H203.074L203.209 61.1569C203.449 60.7769 203.764 60.4769 204.154 60.2569C204.554 60.0369 205.014 59.9269 205.534 59.9269C206.714 59.9269 207.534 60.3919 207.994 61.3219C208.264 60.8919 208.624 60.5519 209.074 60.3019C209.534 60.0519 210.029 59.9269 210.559 59.9269C211.489 59.9269 212.219 60.2069 212.749 60.7669C213.279 61.3269 213.544 62.1619 213.544 63.2719V67.5469H211.954V63.4369C211.954 61.9969 211.404 61.2769 210.304 61.2769C209.744 61.2769 209.284 61.4869 208.924 61.9069C208.574 62.3269 208.399 62.9269 208.399 63.7069V67.5469H206.809V63.4369C206.809 61.9969 206.254 61.2769 205.144 61.2769C204.594 61.2769 204.139 61.4869 203.779 61.9069C203.429 62.3269 203.254 62.9269 203.254 63.7069V67.5469H201.664ZM219.244 67.5469V57.0469H223.204C224.294 57.0469 225.119 57.3019 225.679 57.8119C226.239 58.3219 226.519 58.9619 226.519 59.7319C226.519 60.4019 226.339 60.9369 225.979 61.3369C225.619 61.7269 225.184 61.9919 224.674 62.1319C225.074 62.2119 225.429 62.3719 225.739 62.6119C226.059 62.8519 226.309 63.1519 226.489 63.5119C226.669 63.8719 226.759 64.2619 226.759 64.6819C226.759 65.2219 226.624 65.7119 226.354 66.1519C226.094 66.5819 225.709 66.9219 225.199 67.1719C224.689 67.4219 224.064 67.5469 223.324 67.5469H219.244ZM220.834 61.5469H223.009C223.619 61.5469 224.084 61.4069 224.404 61.1269C224.724 60.8369 224.884 60.4419 224.884 59.9419C224.884 59.4519 224.724 59.0619 224.404 58.7719C224.094 58.4819 223.619 58.3369 222.979 58.3369H220.834V61.5469ZM220.834 66.2419H223.114C223.754 66.2419 224.249 66.0919 224.599 65.7919C224.959 65.4919 225.139 65.0719 225.139 64.5319C225.139 63.9919 224.954 63.5669 224.584 63.2569C224.214 62.9369 223.714 62.7769 223.084 62.7769H220.834V66.2419ZM231.187 67.7269C230.287 67.7269 229.577 67.4469 229.057 66.8869C228.547 66.3269 228.292 65.4919 228.292 64.3819V60.1069H229.882V64.2169C229.882 65.6569 230.472 66.3769 231.652 66.3769C232.242 66.3769 232.727 66.1669 233.107 65.7469C233.487 65.3269 233.677 64.7269 233.677 63.9469V60.1069H235.267V67.5469H233.857L233.737 66.2419C233.507 66.7019 233.167 67.0669 232.717 67.3369C232.277 67.5969 231.767 67.7269 231.187 67.7269ZM237.289 67.5469V60.1069H238.699L238.834 61.1569C239.074 60.7769 239.389 60.4769 239.779 60.2569C240.179 60.0369 240.639 59.9269 241.159 59.9269C242.339 59.9269 243.159 60.3919 243.619 61.3219C243.889 60.8919 244.249 60.5519 244.699 60.3019C245.159 60.0519 245.654 59.9269 246.184 59.9269C247.114 59.9269 247.844 60.2069 248.374 60.7669C248.904 61.3269 249.169 62.1619 249.169 63.2719V67.5469H247.579V63.4369C247.579 61.9969 247.029 61.2769 245.929 61.2769C245.369 61.2769 244.909 61.4869 244.549 61.9069C244.199 62.3269 244.024 62.9269 244.024 63.7069V67.5469H242.434V63.4369C242.434 61.9969 241.879 61.2769 240.769 61.2769C240.219 61.2769 239.764 61.4869 239.404 61.9069C239.054 62.3269 238.879 62.9269 238.879 63.7069V67.5469H237.289ZM251.929 58.6969C251.629 58.6969 251.379 58.6069 251.179 58.4269C250.989 58.2369 250.894 58.0019 250.894 57.7219C250.894 57.4419 250.989 57.2119 251.179 57.0319C251.379 56.8419 251.629 56.7469 251.929 56.7469C252.229 56.7469 252.474 56.8419 252.664 57.0319C252.864 57.2119 252.964 57.4419 252.964 57.7219C252.964 58.0019 252.864 58.2369 252.664 58.4269C252.474 58.6069 252.229 58.6969 251.929 58.6969ZM251.134 67.5469V60.1069H252.724V67.5469H251.134Z" fill="#1E1E1E"/>
<g filter="url(#filter0_d_283_67)">
<path d="M48.1498 8.768C46.202 6.79986 39.3848 9.28025 39.3848 9.28025C39.3848 9.28025 43.605 6 46.5267 6C49.7824 6 51.9504 6.48586 53.6685 9.28024C54.9671 11.3922 55.192 13.8749 57.5641 15.6565C59.4115 17.044 64.3814 17.4809 64.3814 17.4809C64.3814 17.4809 59.2985 19.7785 57.2395 19.5928C52.7469 19.1877 51.3392 11.9907 48.1498 8.768Z" fill="url(#paint0_linear_283_67)"/>
<path d="M47.1045 47.7628C47.1045 47.7628 55.2912 46.8184 59.1867 43.8662C61.6344 42.0113 62.3535 39.8855 64.7055 38.2898C67.4144 36.1008 70.5488 36.3217 70.5488 36.3217C70.5488 36.3217 70.6764 46.6467 67.0654 51.7619C64.332 55.634 62.1338 57.8524 57.6872 59.4124C53.781 60.7829 49.7724 60.7797 47.5 60.1236C41.5043 58.3927 37.9263 55.3537 31.7037 55.7611C27.8807 56.0114 25.6136 56.4809 21.8953 57.4129C18.9324 58.1555 16.66 58.8115 13.6357 57.7606C12.9481 57.5217 11.1413 56.6765 9.51813 54.2192C7.89497 51.7619 6.58054 48.9799 6.58054 48.9799C6.58054 48.9799 11.252 51.445 13.6357 51.7619C15.799 52.0495 17.7655 50.1971 17.7655 50.1971C17.7655 50.1971 12.1691 50.1926 9.50584 48.1975C6.6385 46.0496 4.51562 40.4601 4.51562 40.4601C4.51562 40.4601 10.5848 44.9808 15.0983 44.9808C20.0885 44.9808 23.0589 43.1231 28.0901 43.9376C33.7001 44.8458 36.2756 47.4304 41.2539 50.1971C42.9747 51.1534 47.3786 54.2023 51.4925 53.4138C54.3915 52.8581 58.3755 49.7624 58.3755 49.7624C58.3755 49.7624 54.5465 51.1123 52.2668 50.8056C50.0326 50.5051 47.1045 47.7628 47.1045 47.7628Z" fill="url(#paint1_linear_283_67)"/>
<path d="M21.8545 65.0445C18.4234 64.6978 13.4141 60.9778 13.4141 60.9778C13.4141 60.9778 17.8519 61.3223 20.4721 60.9778C25.1008 60.3692 25.61 59.373 28.9899 59.0652C31.7674 58.8122 34.7911 58.7208 37.4368 59.6119C39.5017 60.3074 43.1176 61.9168 46.8511 63.5482C49.1033 64.5323 51.3959 64.1514 53.0191 63.8762C56.705 63.2512 59.5117 61.9081 59.5117 61.9081C59.5117 61.9081 58.0826 64.4862 55.2915 66.5004C52.7665 68.3226 51.8754 69.0405 48.7786 69.2369C43.59 69.5659 41.2375 66.2237 36.131 65.2377C30.3885 64.1289 25.296 65.3923 21.8545 65.0445Z" fill="url(#paint2_linear_283_67)"/>
<path d="M28.3473 71.2769C23.4564 70.0772 16.3359 64.8477 16.3359 64.8477C16.3359 64.8477 20.6067 67.1059 22.8993 67.1059C28.4398 67.1059 34.8399 65.8909 38.4127 68.026C41.6572 69.9648 46.8513 70.8697 46.8513 70.8697C46.8513 70.8697 44.7328 71.5257 44.2089 71.7897C41.0551 73.3789 31.7568 72.1133 28.3473 71.2769Z" fill="url(#paint3_linear_283_67)"/>
<ellipse cx="29.1704" cy="13.2021" rx="6.49263" ry="6.56049" fill="url(#paint4_linear_283_67)"/>
<ellipse cx="13.2063" cy="38.374" rx="3.52756" ry="3.56444" fill="#50A858"/>
<ellipse cx="42.7165" cy="42.8077" rx="3.95776" ry="3.99912" fill="#50A858"/>
<path d="M63.4075 21.417C68.1396 20.8825 69.9002 32.7137 69.9002 32.7137C69.9002 32.7137 67.5514 32.7918 65.3452 33.2446C60.0626 34.3287 59.6902 40.8191 54.3323 41.4167C50.3746 41.8581 47.7381 31.8616 41.7707 32.2013C35.8034 32.541 34.6567 40.0607 28.6929 40.4604C24.7352 40.7257 21.6378 32.3752 15.0129 29.4193C10.6469 27.4713 4 35.5919 4 35.5919C4 35.5919 7.95775 18.6391 17.7661 18.2044C21.6579 18.0319 24.6302 27.7199 30.4997 26.2026C34.1994 25.2463 39.1808 16.2578 42.1149 14.2053C43.2334 13.4228 44.7355 13.2493 46.6749 14.2053C50.2025 15.944 49.8583 23.7684 53.2999 24.29C56.1852 24.7273 60.508 21.7446 63.4075 21.417Z" fill="url(#paint5_linear_283_67)"/>
</g>
<path d="M93.2504 43.5469V18.3469H98.2204V39.2069H108.335V43.5469H93.2504ZM120.53 43.9669C117.613 43.9669 115.408 43.4885 113.915 42.5319C112.445 41.5752 111.71 40.0235 111.71 37.8769C111.71 36.5002 112.048 35.3685 112.725 34.4819C113.425 33.5952 114.393 32.9419 115.63 32.5219C116.89 32.0785 118.336 31.8569 119.97 31.8569C120.973 31.8569 121.848 31.9385 122.595 32.1019C123.341 32.2419 124.018 32.3935 124.625 32.5569V35.7069C124.158 35.5435 123.563 35.4035 122.84 35.2869C122.116 35.1469 121.416 35.0769 120.74 35.0769C119.223 35.0769 118.091 35.2869 117.345 35.7069C116.621 36.1269 116.26 36.8385 116.26 37.8419C116.26 38.7985 116.621 39.4869 117.345 39.9069C118.068 40.3269 119.106 40.5369 120.46 40.5369C121.276 40.5369 122.058 40.4669 122.805 40.3269C123.575 40.1635 124.251 39.9185 124.835 39.5919L124.135 40.9569C124.041 40.6769 123.96 40.3969 123.89 40.1169C123.82 39.8369 123.761 39.5452 123.715 39.2419C123.691 38.9385 123.668 38.6002 123.645 38.2269C123.645 37.8302 123.645 37.3519 123.645 36.7919V31.9969C123.645 30.8069 123.458 29.9085 123.085 29.3019C122.711 28.6952 122.163 28.2985 121.44 28.1119C120.716 27.9019 119.818 27.7969 118.745 27.7969C117.765 27.7969 116.82 27.9019 115.91 28.1119C115 28.2985 114.265 28.5202 113.705 28.7769H113.355V24.8919C114.195 24.5885 115.14 24.3669 116.19 24.2269C117.24 24.0635 118.29 23.9819 119.34 23.9819C120.646 23.9819 121.848 24.0985 122.945 24.3319C124.065 24.5652 125.033 24.9735 125.85 25.5569C126.666 26.1402 127.296 26.9685 127.74 28.0419C128.206 29.0919 128.44 30.4569 128.44 32.1369V36.5469C128.44 37.0369 128.44 37.6552 128.44 38.4019C128.463 39.1252 128.498 39.8369 128.545 40.5369C128.591 41.2369 128.661 41.7969 128.755 42.2169L128.65 42.4969C127.856 42.8002 126.993 43.0685 126.06 43.3019C125.15 43.5119 124.216 43.6752 123.26 43.7919C122.303 43.9085 121.393 43.9669 120.53 43.9669ZM138.961 43.5469H134.061V22.8619C134.061 22.3952 134.049 21.8002 134.026 21.0769C134.003 20.3302 133.968 19.6069 133.921 18.9069C133.898 18.2069 133.828 17.6469 133.711 17.2269L133.816 16.9469H138.961V43.5469ZM138.156 33.5369L146.206 24.4369H151.456V24.8569C151.223 25.0435 150.943 25.3119 150.616 25.6619C150.313 25.9885 149.986 26.3385 149.636 26.7119C149.286 27.0852 148.948 27.4469 148.621 27.7969L142.041 34.8319L142.076 31.7519L148.866 40.0819C149.309 40.6185 149.799 41.1902 150.336 41.7969C150.896 42.4035 151.339 42.8469 151.666 43.1269V43.5469H146.031L138.156 33.5369ZM153.585 38.7169H153.865C154.705 39.0669 155.685 39.3702 156.805 39.6269C157.948 39.8835 159.091 40.0119 160.235 40.0119C160.631 40.0119 161.063 40.0002 161.53 39.9769C161.996 39.9302 162.428 39.8485 162.825 39.7319C163.245 39.6152 163.583 39.4052 163.84 39.1019C164.12 38.7985 164.26 38.3902 164.26 37.8769C164.26 37.2235 163.991 36.7685 163.455 36.5119C162.918 36.2552 162.09 36.0335 160.97 35.8469L159.325 35.5669C157.458 35.2402 156.023 34.6802 155.02 33.8869C154.016 33.0702 153.515 31.8685 153.515 30.2819C153.515 29.1385 153.818 28.1002 154.425 27.1669C155.055 26.2335 156.023 25.4985 157.33 24.9619C158.66 24.4019 160.398 24.1219 162.545 24.1219C163.548 24.1219 164.47 24.1919 165.31 24.3319C166.173 24.4485 166.99 24.6235 167.76 24.8569V28.8819H167.48C166.593 28.5319 165.741 28.2869 164.925 28.1469C164.108 28.0069 163.268 27.9369 162.405 27.9369C161.098 27.9369 160.071 28.1002 159.325 28.4269C158.601 28.7302 158.24 29.2785 158.24 30.0719C158.24 30.6785 158.508 31.1102 159.045 31.3669C159.605 31.6235 160.41 31.8452 161.46 32.0319L163.07 32.3119C164.166 32.4752 165.158 32.7669 166.045 33.1869C166.955 33.6069 167.678 34.1902 168.215 34.9369C168.751 35.6602 169.02 36.5935 169.02 37.7369C169.02 39.7669 168.261 41.2952 166.745 42.3219C165.251 43.3252 162.988 43.8269 159.955 43.8269C158.835 43.8269 157.715 43.7335 156.595 43.5469C155.475 43.3602 154.471 43.1269 153.585 42.8469V38.7169Z" fill="#1E1E1E"/>
<path d="M173.197 43.5469V31.6119C173.197 31.1452 173.185 30.5502 173.162 29.8269C173.138 29.0802 173.103 28.3569 173.057 27.6569C173.033 26.9335 172.963 26.3619 172.847 25.9419L172.952 25.6619C173.652 25.3585 174.48 25.0902 175.437 24.8569C176.393 24.6002 177.385 24.3902 178.412 24.2269C179.462 24.0635 180.465 23.9819 181.422 23.9819C182.518 23.9819 183.58 24.1102 184.607 24.3669C185.657 24.6002 186.59 25.0319 187.407 25.6619C188.247 26.2919 188.912 27.1669 189.402 28.2869C189.892 29.3835 190.137 30.7952 190.137 32.5219V43.5469H185.237V32.7319C185.237 31.4485 185.05 30.4685 184.677 29.7919C184.327 29.0919 183.825 28.6135 183.172 28.3569C182.542 28.0769 181.807 27.9369 180.967 27.9369C180.267 27.9369 179.555 28.0185 178.832 28.1819C178.132 28.3452 177.513 28.5319 176.977 28.7419L177.712 27.5169C177.828 27.8669 177.922 28.3219 177.992 28.8819C178.062 29.4419 178.097 30.0835 178.097 30.8069V43.5469H173.197ZM196.962 43.5469V32.7319C196.962 31.4485 196.787 30.4685 196.437 29.7919C196.11 29.0919 195.608 28.6135 194.932 28.3569C194.278 28.0769 193.485 27.9369 192.552 27.9369C191.968 27.9369 191.373 28.0069 190.767 28.1469C190.183 28.2635 189.612 28.4269 189.052 28.6369L186.392 25.4869C187.442 25.0435 188.55 24.6819 189.717 24.4019C190.907 24.1219 192.085 23.9819 193.252 23.9819C194.372 23.9819 195.445 24.0985 196.472 24.3319C197.498 24.5652 198.42 24.9969 199.237 25.6269C200.053 26.2335 200.695 27.0969 201.162 28.2169C201.628 29.3135 201.862 30.7485 201.862 32.5219V43.5469H196.962ZM210.134 21.4269C209.341 21.4269 208.676 21.1935 208.139 20.7269C207.626 20.2369 207.369 19.5602 207.369 18.6969C207.369 17.8569 207.626 17.2035 208.139 16.7369C208.676 16.2469 209.341 16.0019 210.134 16.0019C210.951 16.0019 211.616 16.2469 212.129 16.7369C212.642 17.2035 212.899 17.8569 212.899 18.6969C212.899 19.5602 212.642 20.2369 212.129 20.7269C211.616 21.1935 210.951 21.4269 210.134 21.4269ZM207.684 43.5469V30.3519C207.684 29.8852 207.672 29.2902 207.649 28.5669C207.626 27.8435 207.591 27.1319 207.544 26.4319C207.521 25.7085 207.451 25.1369 207.334 24.7169L207.439 24.4369H212.584V43.5469H207.684Z" fill="#27AEA1"/>
<defs>
<filter id="filter0_d_283_67" x="0" y="0" width="82.5498" height="82.5498" filterUnits="userSpaceOnUse" color-interpolation-filters="sRGB">
<feFlood flood-opacity="0" result="BackgroundImageFix"/>
<feColorMatrix in="SourceAlpha" type="matrix" values="0 0 0 0 0 0 0 0 0 0 0 0 0 0 0 0 0 0 127 0" result="hardAlpha"/>
<feOffset dx="4" dy="2"/>
<feGaussianBlur stdDeviation="4"/>
<feComposite in2="hardAlpha" operator="out"/>
<feColorMatrix type="matrix" values="0 0 0 0 0.188235 0 0 0 0 0.188235 0 0 0 0 0.188235 0 0 0 0.15 0"/>
<feBlend mode="normal" in2="BackgroundImageFix" result="effect1_dropShadow_283_67"/>
<feBlend mode="normal" in="SourceGraphic" in2="effect1_dropShadow_283_67" result="shape"/>
</filter>
<linearGradient id="paint0_linear_283_67" x1="51.8831" y1="6" x2="37.9851" y2="16.1744" gradientUnits="userSpaceOnUse">
<stop stop-color="#FFA231"/>
<stop offset="1" stop-color="#FFA231" stop-opacity="0"/>
</linearGradient>
<linearGradient id="paint1_linear_283_67" x1="36.4625" y1="54.035" x2="-6.91141" y2="31.12" gradientUnits="userSpaceOnUse">
<stop stop-color="#25C9C2"/>
<stop offset="1" stop-color="#27CDC7" stop-opacity="0"/>
</linearGradient>
<linearGradient id="paint2_linear_283_67" x1="58.5378" y1="71.0928" x2="2.77255" y2="41.7235" gradientUnits="userSpaceOnUse">
<stop stop-color="#D83F31" stop-opacity="0.88"/>
<stop offset="0.457759" stop-color="#FC831F"/>
<stop offset="1" stop-color="#FC831F" stop-opacity="0"/>
</linearGradient>
<linearGradient id="paint3_linear_283_67" x1="48.7991" y1="75.029" x2="14.8498" y2="54.6763" gradientUnits="userSpaceOnUse">
<stop stop-color="#D83F31" stop-opacity="0.88"/>
<stop offset="0.553162" stop-color="#FFA231"/>
<stop offset="1" stop-color="#FFA231" stop-opacity="0"/>
</linearGradient>
<linearGradient id="paint4_linear_283_67" x1="32.5671" y1="6.47163" x2="15.8529" y2="21.7156" gradientUnits="userSpaceOnUse">
<stop stop-color="#FCC21A"/>
<stop offset="1" stop-color="#FCC21A" stop-opacity="0"/>
</linearGradient>
<linearGradient id="paint5_linear_283_67" x1="44.5789" y1="27.4653" x2="16.5779" y2="70.4994" gradientUnits="userSpaceOnUse">
<stop stop-color="#50A858"/>
<stop offset="1" stop-color="#C6E2E1"/>
</linearGradient>
</defs>
</svg>
