<svg width="190" height="47" viewBox="0 0 190 47" fill="none" xmlns="http://www.w3.org/2000/svg">
<path d="M31.3296 2.48236C29.9792 1.16275 25.2529 2.82581 25.2529 2.82581C25.2529 2.82581 28.1787 0.626465 30.2043 0.626465C32.4614 0.626465 33.9645 0.952224 35.1556 2.82581C36.0558 4.24183 36.2118 5.90645 37.8563 7.10098C39.1371 8.03124 42.5826 8.32416 42.5826 8.32416C42.5826 8.32416 39.0587 9.86467 37.6313 9.74018C34.5167 9.46856 33.5407 4.6431 31.3296 2.48236Z" fill="url(#paint0_linear_590_48)"/>
<path d="M30.6271 29.3589C30.6271 29.3589 36.394 28.7192 39.1382 26.7194C40.8624 25.4629 41.369 24.0229 43.0258 22.9419C44.9341 21.4591 47.1421 21.6087 47.1421 21.6087C47.1421 21.6087 47.2319 28.6028 44.6882 32.0679C42.7627 34.6909 41.2142 36.1936 38.0819 37.2504C35.3302 38.1787 32.5064 38.1765 30.9057 37.7321C26.6821 36.5596 24.1616 34.501 19.7782 34.7769C17.0852 34.9465 15.4882 35.2646 12.8688 35.8959C10.7817 36.3989 9.18091 36.8433 7.05045 36.1314C6.56611 35.9696 5.29332 35.397 4.14991 33.7325C3.0065 32.0679 2.08058 30.1834 2.08058 30.1834C2.08058 30.1834 5.37131 31.8533 7.05045 32.0679C8.57435 32.2628 9.95965 31.0079 9.95965 31.0079C9.95965 31.0079 6.01737 31.0049 4.14126 29.6534C2.1214 28.1984 0.625977 24.4121 0.625977 24.4121C0.625977 24.4121 4.9013 27.4744 8.0808 27.4744C11.5961 27.4744 13.6885 26.216 17.2326 26.7677C21.1845 27.3829 22.9988 29.1337 26.5057 31.0079C27.7179 31.6557 30.8202 33.721 33.7181 33.1869C35.7603 32.8105 38.5668 30.7134 38.5668 30.7134C38.5668 30.7134 35.8695 31.6278 34.2636 31.4201C32.6897 31.2166 30.6271 29.3589 30.6271 29.3589Z" fill="url(#paint1_linear_590_48)"/>
<path d="M13.0228 41.4406C10.5789 41.1966 7.01074 38.5786 7.01074 38.5786C7.01074 38.5786 10.1718 38.821 12.0381 38.5786C15.3352 38.1503 15.6978 37.4491 18.1053 37.2325C20.0837 37.0545 22.2375 36.9901 24.122 37.6173C25.5929 38.1068 28.1684 39.2394 30.8278 40.3875C32.432 41.0801 34.0651 40.8121 35.2212 40.6184C37.8467 40.1786 39.8459 39.2333 39.8459 39.2333C39.8459 39.2333 38.828 41.0477 36.8399 42.4652C35.0413 43.7476 34.4066 44.2529 32.2008 44.3911C28.5049 44.6227 26.8293 42.2705 23.1919 41.5766C19.1016 40.7962 15.4742 41.6854 13.0228 41.4406Z" fill="url(#paint2_linear_590_48)"/>
<path d="M17.4513 45.4771C13.9428 44.7667 8.83496 41.6704 8.83496 41.6704C8.83496 41.6704 11.8986 43.0075 13.5432 43.0075C17.5176 43.0075 22.1088 42.2881 24.6717 43.5522C26.9991 44.7002 30.7251 45.2359 30.7251 45.2359C30.7251 45.2359 29.2054 45.6244 28.8296 45.7807C26.5672 46.7216 19.8971 45.9723 17.4513 45.4771Z" fill="url(#paint3_linear_590_48)"/>
<circle cx="17.9559" cy="5.1869" r="4.56044" fill="url(#paint4_linear_590_48)"/>
<ellipse cx="7.01068" cy="22.9726" rx="2.73626" ry="2.28022" fill="#50A858"/>
<circle cx="27.9892" cy="26.165" r="2.73626" fill="#50A858"/>
<path d="M42.5596 10.848C45.8998 10.4633 47.1425 18.9787 47.1425 18.9787C47.1425 18.9787 45.4845 19.035 43.9273 19.3609C40.1985 20.1411 39.9357 24.8126 36.1537 25.2427C33.3601 25.5604 31.4991 18.3655 27.2869 18.61C23.0748 18.8545 22.2654 24.2667 18.0558 24.5544C15.2622 24.7453 13.0759 18.7351 8.39956 16.6076C5.31781 15.2056 0.625977 21.0503 0.625977 21.0503C0.625977 21.0503 3.41961 8.84858 10.343 8.53573C13.09 8.4116 15.1881 15.3845 19.3312 14.2924C21.9426 13.6041 25.4588 7.13468 27.5299 5.65736C28.3194 5.09421 29.3797 4.96934 30.7486 5.65736C33.2386 6.90881 32.9957 12.5404 35.4249 12.9158C37.4616 13.2306 40.5129 11.0838 42.5596 10.848Z" fill="url(#paint5_linear_590_48)"/>
<path d="M61.9944 33.9233V8.72334H66.9644V29.5833H77.0794V33.9233H61.9944ZM89.2736 34.3433C86.3569 34.3433 84.1519 33.865 82.6586 32.9083C81.1886 31.9517 80.4536 30.4 80.4536 28.2533C80.4536 26.8767 80.7919 25.745 81.4686 24.8583C82.1686 23.9717 83.1369 23.3183 84.3736 22.8983C85.6336 22.455 87.0803 22.2333 88.7136 22.2333C89.7169 22.2333 90.5919 22.315 91.3386 22.4783C92.0853 22.6183 92.7619 22.77 93.3686 22.9333V26.0833C92.9019 25.92 92.3069 25.78 91.5836 25.6633C90.8603 25.5233 90.1603 25.4533 89.4836 25.4533C87.9669 25.4533 86.8353 25.6633 86.0886 26.0833C85.3653 26.5033 85.0036 27.215 85.0036 28.2183C85.0036 29.175 85.3653 29.8633 86.0886 30.2833C86.8119 30.7033 87.8503 30.9133 89.2036 30.9133C90.0203 30.9133 90.8019 30.8433 91.5486 30.7033C92.3186 30.54 92.9953 30.295 93.5786 29.9683L92.8786 31.3333C92.7853 31.0533 92.7036 30.7733 92.6336 30.4933C92.5636 30.2133 92.5053 29.9217 92.4586 29.6183C92.4353 29.315 92.4119 28.9767 92.3886 28.6033C92.3886 28.2067 92.3886 27.7283 92.3886 27.1683V22.3733C92.3886 21.1833 92.2019 20.285 91.8286 19.6783C91.4553 19.0717 90.9069 18.675 90.1836 18.4883C89.4603 18.2783 88.5619 18.1733 87.4886 18.1733C86.5086 18.1733 85.5636 18.2783 84.6536 18.4883C83.7436 18.675 83.0086 18.8967 82.4486 19.1533H82.0986V15.2683C82.9386 14.965 83.8836 14.7433 84.9336 14.6033C85.9836 14.44 87.0336 14.3583 88.0836 14.3583C89.3903 14.3583 90.5919 14.475 91.6886 14.7083C92.8086 14.9417 93.7769 15.35 94.5936 15.9333C95.4103 16.5167 96.0403 17.345 96.4836 18.4183C96.9503 19.4683 97.1836 20.8333 97.1836 22.5133V26.9233C97.1836 27.4133 97.1836 28.0317 97.1836 28.7783C97.2069 29.5017 97.2419 30.2133 97.2886 30.9133C97.3353 31.6133 97.4053 32.1733 97.4986 32.5933L97.3936 32.8733C96.6003 33.1767 95.7369 33.445 94.8036 33.6783C93.8936 33.8883 92.9603 34.0517 92.0036 34.1683C91.0469 34.285 90.1369 34.3433 89.2736 34.3433ZM107.705 33.9233H102.805V13.2383C102.805 12.7717 102.793 12.1767 102.77 11.4533C102.747 10.7067 102.712 9.98334 102.665 9.28334C102.642 8.58334 102.572 8.02334 102.455 7.60334L102.56 7.32334H107.705V33.9233ZM106.9 23.9133L114.95 14.8133H120.2V15.2333C119.967 15.42 119.687 15.6883 119.36 16.0383C119.057 16.365 118.73 16.715 118.38 17.0883C118.03 17.4617 117.692 17.8233 117.365 18.1733L110.785 25.2083L110.82 22.1283L117.61 30.4583C118.053 30.995 118.543 31.5667 119.08 32.1733C119.64 32.78 120.083 33.2233 120.41 33.5033V33.9233H114.775L106.9 23.9133ZM122.329 29.0933H122.609C123.449 29.4433 124.429 29.7467 125.549 30.0033C126.692 30.26 127.835 30.3883 128.979 30.3883C129.375 30.3883 129.807 30.3767 130.274 30.3533C130.74 30.3067 131.172 30.225 131.569 30.1083C131.989 29.9917 132.327 29.7817 132.584 29.4783C132.864 29.175 133.004 28.7667 133.004 28.2533C133.004 27.6 132.735 27.145 132.199 26.8883C131.662 26.6317 130.834 26.41 129.714 26.2233L128.069 25.9433C126.202 25.6167 124.767 25.0567 123.764 24.2633C122.76 23.4467 122.259 22.245 122.259 20.6583C122.259 19.515 122.562 18.4767 123.169 17.5433C123.799 16.61 124.767 15.875 126.074 15.3383C127.404 14.7783 129.142 14.4983 131.289 14.4983C132.292 14.4983 133.214 14.5683 134.054 14.7083C134.917 14.825 135.734 15 136.504 15.2333V19.2583H136.224C135.337 18.9083 134.485 18.6633 133.669 18.5233C132.852 18.3833 132.012 18.3133 131.149 18.3133C129.842 18.3133 128.815 18.4767 128.069 18.8033C127.345 19.1067 126.984 19.655 126.984 20.4483C126.984 21.055 127.252 21.4867 127.789 21.7433C128.349 22 129.154 22.2217 130.204 22.4083L131.814 22.6883C132.91 22.8517 133.902 23.1433 134.789 23.5633C135.699 23.9833 136.422 24.5667 136.959 25.3133C137.495 26.0367 137.764 26.97 137.764 28.1133C137.764 30.1433 137.005 31.6717 135.489 32.6983C133.995 33.7017 131.732 34.2033 128.699 34.2033C127.579 34.2033 126.459 34.11 125.339 33.9233C124.219 33.7367 123.215 33.5033 122.329 33.2233V29.0933Z" fill="#1E1E1E" fill-opacity="0.9"/>
<path d="M141.941 33.9233V21.9883C141.941 21.5217 141.929 20.9267 141.906 20.2033C141.882 19.4567 141.847 18.7333 141.801 18.0333C141.777 17.31 141.707 16.7383 141.591 16.3183L141.696 16.0383C142.396 15.735 143.224 15.4667 144.181 15.2333C145.137 14.9767 146.129 14.7667 147.156 14.6033C148.206 14.44 149.209 14.3583 150.166 14.3583C151.262 14.3583 152.324 14.4867 153.351 14.7433C154.401 14.9767 155.334 15.4083 156.151 16.0383C156.991 16.6683 157.656 17.5433 158.146 18.6633C158.636 19.76 158.881 21.1717 158.881 22.8983V33.9233H153.981V23.1083C153.981 21.825 153.794 20.845 153.421 20.1683C153.071 19.4683 152.569 18.99 151.916 18.7333C151.286 18.4533 150.551 18.3133 149.711 18.3133C149.011 18.3133 148.299 18.395 147.576 18.5583C146.876 18.7217 146.257 18.9083 145.721 19.1183L146.456 17.8933C146.572 18.2433 146.666 18.6983 146.736 19.2583C146.806 19.8183 146.841 20.46 146.841 21.1833V33.9233H141.941ZM165.706 33.9233V23.1083C165.706 21.825 165.531 20.845 165.181 20.1683C164.854 19.4683 164.352 18.99 163.676 18.7333C163.022 18.4533 162.229 18.3133 161.296 18.3133C160.712 18.3133 160.117 18.3833 159.511 18.5233C158.927 18.64 158.356 18.8033 157.796 19.0133L155.136 15.8633C156.186 15.42 157.294 15.0583 158.461 14.7783C159.651 14.4983 160.829 14.3583 161.996 14.3583C163.116 14.3583 164.189 14.475 165.216 14.7083C166.242 14.9417 167.164 15.3733 167.981 16.0033C168.797 16.61 169.439 17.4733 169.906 18.5933C170.372 19.69 170.606 21.125 170.606 22.8983V33.9233H165.706ZM178.878 11.8033C178.085 11.8033 177.42 11.57 176.883 11.1033C176.37 10.6133 176.113 9.93667 176.113 9.07334C176.113 8.23334 176.37 7.58 176.883 7.11334C177.42 6.62334 178.085 6.37834 178.878 6.37834C179.695 6.37834 180.36 6.62334 180.873 7.11334C181.386 7.58 181.643 8.23334 181.643 9.07334C181.643 9.93667 181.386 10.6133 180.873 11.1033C180.36 11.57 179.695 11.8033 178.878 11.8033ZM176.428 33.9233V20.7283C176.428 20.2617 176.416 19.6667 176.393 18.9433C176.37 18.22 176.335 17.5083 176.288 16.8083C176.265 16.085 176.195 15.5133 176.078 15.0933L176.183 14.8133H181.328V33.9233H176.428Z" fill="#27AEA1"/>
<defs>
<linearGradient id="paint0_linear_590_48" x1="33.9178" y1="0.626465" x2="24.5096" y2="7.74815" gradientUnits="userSpaceOnUse">
<stop stop-color="#FFA231"/>
<stop offset="1" stop-color="#FFA231" stop-opacity="0"/>
</linearGradient>
<linearGradient id="paint1_linear_590_48" x1="23.1305" y1="33.6077" x2="-6.89027" y2="17.1143" gradientUnits="userSpaceOnUse">
<stop stop-color="#25C9C2"/>
<stop offset="1" stop-color="#27CDC7" stop-opacity="0"/>
</linearGradient>
<linearGradient id="paint2_linear_590_48" x1="39.1522" y1="45.6972" x2="-0.360142" y2="24.6357" gradientUnits="userSpaceOnUse">
<stop stop-color="#D83F31" stop-opacity="0.88"/>
<stop offset="0.457759" stop-color="#FC831F"/>
<stop offset="1" stop-color="#FC831F" stop-opacity="0"/>
</linearGradient>
<linearGradient id="paint3_linear_590_48" x1="32.1223" y1="47.6986" x2="10.4499" y2="31.9571" gradientUnits="userSpaceOnUse">
<stop stop-color="#D83F31" stop-opacity="0.88"/>
<stop offset="0.553162" stop-color="#FFA231"/>
<stop offset="1" stop-color="#FFA231" stop-opacity="0"/>
</linearGradient>
<linearGradient id="paint4_linear_590_48" x1="20.3418" y1="0.508308" x2="8.71268" y2="11.2253" gradientUnits="userSpaceOnUse">
<stop stop-color="#FCC21A"/>
<stop offset="1" stop-color="#FCC21A" stop-opacity="0"/>
</linearGradient>
<linearGradient id="paint5_linear_590_48" x1="29.2691" y1="15.2012" x2="8.95903" y2="45.8132" gradientUnits="userSpaceOnUse">
<stop stop-color="#50A858"/>
<stop offset="1" stop-color="#C6E2E1"/>
</linearGradient>
</defs>
</svg>
