<svg width="329" height="53" viewBox="0 0 329 53" fill="none" xmlns="http://www.w3.org/2000/svg">
<g style="mix-blend-mode:luminosity" clip-path="url(#clip0_279_1499)">
<mask id="mask0_279_1499" style="mask-type:luminance" maskUnits="userSpaceOnUse" x="-39" y="-1517" width="1208" height="1605">
<path d="M-38.6602 87.9727H1168.45V-1516.88H-38.6602V87.9727Z" fill="white"/>
</mask>
<g mask="url(#mask0_279_1499)">
<path d="M167.891 25.8323C166.559 21.9228 165.225 18.0148 163.893 14.1052L160.881 17.8801V25.8461C160.881 27.7894 159.798 29.0395 157.443 29.0273H156.031C156.031 19.7607 156.033 10.4941 156.033 1.22594H157.068C157.573 1.22594 157.986 1.21829 158.477 1.31316C160.125 1.62684 160.892 2.77292 160.892 4.41018V4.46221V13.0785L169.489 2.66122C170.685 1.21064 171.392 1.22441 173.358 1.22594H174.023C171.754 4.15312 169.485 7.07877 167.217 10.0059C169.538 16.3438 171.859 22.6817 174.18 29.0196H173.427C172.312 29.0196 171.237 29.0624 170.212 28.5927C169.515 28.2714 168.952 27.7832 168.524 27.1635C168.232 26.7381 168.052 26.3066 167.891 25.8323Z" fill="#009F3C"/>
<path d="M192.238 25.4418C191.023 28.0782 188.141 29.0713 185.06 29.0713C180.29 29.0713 177.691 26.441 176.522 23.015C175.706 20.631 175.448 17.664 175.883 14.8853C176.547 10.6376 179.122 6.12055 184.451 6.12055C192.165 6.12055 193.037 12.1218 193.3 17.5064H180.389C180.246 20.7258 180.902 26.6521 185.724 26.6521C187.002 26.6521 187.969 26.4257 188.625 25.9758C189.785 25.2903 190.742 24.6828 192.238 25.4418ZM188.898 15.5142C188.809 14.2089 188.664 13.1057 188.465 12.2044C187.323 7.07537 182.023 7.6048 180.794 12.1692C180.55 13.0705 180.409 14.1844 180.369 15.5142H188.898Z" fill="#009F3C"/>
<path d="M200.274 25.7209C201.135 26.2932 202.165 26.5778 203.365 26.5778C204.616 26.5778 205.55 26.2809 206.163 25.6842C206.776 25.0905 207.082 24.3285 207.082 23.4012C207.082 22.757 206.977 22.2169 206.768 21.7762C206.56 21.3355 206.292 20.9606 205.967 20.6515C205.641 20.3409 205.263 20.0854 204.832 19.8834C204.402 19.6799 203.965 19.4962 203.521 19.3295C202.531 18.9729 201.625 18.5858 200.802 18.1696C199.981 17.7534 199.271 17.2821 198.671 16.7588C198.071 16.2355 197.601 15.6341 197.262 14.9548C196.922 14.2784 196.754 13.4858 196.754 12.5815C196.754 11.5104 196.942 10.5693 197.321 9.75989C197.7 8.95197 198.227 8.28024 198.904 7.74315C199.584 7.2076 200.385 6.80364 201.312 6.52974C202.238 6.25585 203.248 6.11966 204.344 6.11966C205.673 6.11966 206.919 6.33848 208.079 6.77916C209.24 7.21984 210.095 8.03541 210.642 9.22587C209.074 10.3306 208.047 9.53955 207.062 9.17232C206.878 9.07285 206.688 8.9887 206.492 8.91678C205.946 8.71786 205.345 8.6184 204.695 8.6184C204.174 8.6184 203.67 8.67655 203.188 8.7959C202.706 8.91678 202.282 9.1004 201.917 9.34981C201.552 9.60076 201.266 9.91597 201.056 10.297C200.848 10.6765 200.744 11.1416 200.744 11.6894C200.744 12.5937 201.018 13.2961 201.566 13.7964C202.113 14.2953 202.799 14.713 203.62 15.045C204.442 15.3786 205.328 15.6938 206.28 15.9907C207.232 16.289 208.119 16.6884 208.94 17.1872C209.761 17.6861 210.446 18.3425 210.995 19.152C211.542 19.9614 211.816 21.0555 211.816 22.4357C211.816 23.4838 211.614 24.4249 211.209 25.2573C210.805 26.0897 210.251 26.792 209.547 27.3643C208.843 27.9335 208 28.3742 207.022 28.6848C206.044 28.9939 204.995 29.1484 203.874 29.1484C201.996 29.1484 200.391 28.8026 199.062 28.1125C197.731 27.424 196.754 26.3636 196.127 24.9359C196.643 24.6146 197.477 24.128 198.545 24.5182C199.26 24.7783 199.671 25.32 200.274 25.7209Z" fill="#009F3C"/>
<path d="M248.54 12.1801C248.54 11.0432 248.272 10.269 247.737 9.85735C247.203 9.44574 246.362 9.23917 245.215 9.23917C244.275 9.23917 243.401 9.44574 242.592 9.85735C241.783 10.269 241.197 10.728 240.832 11.2376V25.9454V25.9928C240.832 27.549 240.104 28.6369 238.539 28.9383C238.072 29.0256 237.679 29.0194 237.199 29.0194H236.215V1.22577H237.199C237.679 1.22577 238.072 1.21812 238.539 1.3084C240.104 1.60678 240.832 2.69625 240.832 4.25241V4.30138V6.30893V8.87806C241.431 8.15277 242.318 7.5101 243.492 6.95313C244.666 6.39768 246.035 6.11919 247.6 6.11919C249.478 6.11919 250.874 6.58436 251.787 7.51775C252.699 8.44808 253.156 9.89408 253.156 11.8527V29.0194H252.172C251.693 29.0194 251.299 29.0256 250.833 28.9383C249.267 28.6369 248.54 27.549 248.54 25.9928V25.9454V12.1801Z" fill="#009F3C"/>
<path d="M268.241 16.3554C267.719 16.617 267.106 16.8236 266.402 16.9781C265.696 17.1312 265.02 17.3041 264.367 17.4923C263.064 17.8718 262.124 18.4532 261.55 19.2336C260.976 20.017 260.69 21.0361 260.69 22.2924C260.69 23.7123 260.97 24.7498 261.531 25.4016C262.092 26.0535 262.971 26.3779 264.172 26.3779C265.085 26.3779 265.893 26.1652 266.598 25.7383C267.302 25.3129 267.85 24.7192 268.241 23.9618V16.3554ZM268.594 25.9173C268.07 26.8889 267.289 27.6525 266.245 28.2095C265.202 28.7664 263.976 29.0449 262.568 29.0449C260.428 29.0449 258.831 28.5048 257.774 27.426C256.719 26.3488 256.189 24.8508 256.189 22.932C256.189 21.0116 256.608 19.5427 257.443 18.5236C258.278 17.5045 259.569 16.7226 261.316 16.1779C261.888 15.9881 262.496 15.8412 263.135 15.7341C263.774 15.627 264.401 15.5199 265.013 15.4128C265.625 15.3072 266.213 15.1772 266.773 15.0226C268.055 14.6707 268.18 14.334 268.201 13.4221C268.21 13.0013 268.201 12.5805 268.201 12.1612C268.201 10.9998 267.941 10.1246 267.419 9.5309C266.896 8.93873 265.906 8.64342 264.446 8.64342C263.35 8.64342 262.404 8.86223 261.61 9.30138C260.068 10.1491 259.388 10.8361 257.403 9.8507C258.159 8.52406 259.196 7.57078 260.513 6.99085C261.83 6.4094 263.258 6.1202 264.798 6.1202C265.893 6.1202 266.93 6.19517 267.908 6.35125C268.886 6.50426 269.734 6.79958 270.451 7.23874C271.167 7.67636 271.736 8.29301 272.152 9.08716C272.569 9.88131 272.779 10.9172 272.779 12.198V16.9751V25.241V25.27V29.0281C272.673 29.0296 272.049 29.0327 271.526 29.0327C269.331 29.0342 268.648 27.8575 268.594 25.9173Z" fill="#009F3C"/>
<path d="M289.161 27.559C288.431 28.0915 287.681 28.471 286.912 28.702C286.142 28.9316 285.131 29.0479 283.879 29.0479C281.898 29.0479 280.346 28.4848 279.224 27.3586C278.103 26.2339 277.542 24.667 277.542 22.6579V8.37551H276.789C275.507 8.33725 274.83 8.13527 274.83 6.12465H277.531V1.22511H278.515C278.994 1.22511 279.388 1.21899 279.853 1.30774C281.42 1.60765 282.147 2.69559 282.147 4.25175V4.30071V6.12465H284.856C286.138 6.16444 286.814 6.36489 286.814 8.37551H282.12V22.6579C282.12 23.8928 282.387 24.8552 282.921 25.5438C283.455 26.2339 284.311 26.5782 285.484 26.5782C285.913 26.5782 286.291 26.5537 286.618 26.5017C287.976 26.289 288.644 26.4864 289.161 27.559Z" fill="#009F3C"/>
<path d="M323.167 12.1801C323.167 11.0432 322.899 10.269 322.365 9.85735C321.83 9.44574 320.987 9.23917 319.841 9.23917C318.902 9.23917 318.028 9.44574 317.219 9.85735C316.411 10.269 315.824 10.728 315.459 11.2376V25.9454V25.9928C315.459 27.549 314.732 28.6369 313.164 28.9383C312.699 29.0256 312.306 29.0194 311.826 29.0194H310.842V6.11919H311.826C312.306 6.11919 312.699 6.11308 313.164 6.20335C314.641 6.4849 315.371 7.46726 315.452 8.88112L315.459 8.87806C316.06 8.15277 316.945 7.5101 318.119 6.95313C319.293 6.39768 320.662 6.11919 322.227 6.11919C324.105 6.11919 325.501 6.58436 326.414 7.51775C327.326 8.44808 327.783 9.89408 327.783 11.8527V29.0194H326.799C326.318 29.0194 325.927 29.0256 325.46 28.9383C323.894 28.6369 323.167 27.549 323.167 25.9928V25.9454V12.1801Z" fill="#009F3C"/>
<path d="M231.383 25.4418C230.168 28.0782 227.286 29.0713 224.206 29.0713C219.436 29.0713 216.836 26.441 215.666 23.015C214.851 20.631 214.592 17.664 215.027 14.8853C215.692 10.6376 218.268 6.12055 223.594 6.12055C231.31 6.12055 232.183 12.1218 232.444 17.5064H219.532C219.391 20.7258 220.046 26.6521 224.869 26.6521C226.148 26.6521 227.114 26.4257 227.771 25.9758C228.931 25.2903 229.886 24.6828 231.383 25.4418ZM228.043 15.5142C227.953 14.2089 227.809 13.1057 227.608 12.2044C226.469 7.07537 221.169 7.6048 219.938 12.1692C219.695 13.0705 219.553 14.1844 219.514 15.5142H228.043Z" fill="#009F3C"/>
<path d="M302.879 16.3554C302.358 16.617 301.743 16.8236 301.041 16.9781C300.337 17.1312 299.657 17.3041 299.006 17.4923C297.701 17.8718 296.763 18.4532 296.188 19.2336C295.614 20.017 295.328 21.0361 295.328 22.2924C295.328 23.7123 295.608 24.7498 296.169 25.4016C296.731 26.0535 297.61 26.3779 298.81 26.3779C299.724 26.3779 300.531 26.1652 301.235 25.7383C301.94 25.3129 302.487 24.7192 302.879 23.9618V16.3554ZM303.231 25.9173C302.709 26.8889 301.927 27.6525 300.884 28.2095C299.841 28.7664 298.613 29.0449 297.205 29.0449C295.068 29.0449 293.47 28.5048 292.413 27.426C291.356 26.3488 290.828 24.8508 290.828 22.932C290.828 21.0116 291.246 19.5427 292.08 18.5236C292.915 17.5045 294.206 16.7226 295.955 16.1779C296.527 15.9881 297.134 15.8412 297.774 15.7341C298.413 15.627 299.038 15.5199 299.651 15.4128C300.265 15.3072 300.851 15.1772 301.412 15.0226C302.694 14.6707 302.819 14.334 302.84 13.4221C302.849 13.0013 302.84 12.5805 302.84 12.1612C302.84 10.9998 302.578 10.1246 302.057 9.5309C301.535 8.93873 300.545 8.64342 299.083 8.64342C297.988 8.64342 297.042 8.86223 296.247 9.30138C294.706 10.1491 294.026 10.8361 292.042 9.8507C292.798 8.52406 293.835 7.57078 295.152 6.99085C296.467 6.4094 297.897 6.1202 299.436 6.1202C300.531 6.1202 301.568 6.19517 302.546 6.35125C303.524 6.50426 304.371 6.79958 305.088 7.23874C305.807 7.67636 306.374 8.29301 306.791 9.08716C307.208 9.88131 307.418 10.9172 307.418 12.198V16.9751V25.241V25.27V29.0281C307.31 29.0296 306.688 29.0327 306.164 29.0327C303.97 29.0342 303.286 27.8575 303.231 25.9173Z" fill="#009F3C"/>
<path d="M84.9965 13.8078C88.0489 13.7098 88.896 11.0336 88.896 8.80417C88.896 6.46151 88.6588 3.79752 85.4939 3.79752H81.4286V13.8078H84.9965ZM84.9463 26.684C86.4596 26.684 87.5729 26.2601 88.2892 25.414C89.007 24.5678 89.3644 23.2014 89.3644 21.3162C89.3644 18.9231 89.0451 16.4733 85.7676 15.9836H81.4286V26.684H84.9463ZM76.5801 29.0771V24.652V1.29572H86.0748C91.4404 1.29572 93.8251 4.74621 93.3476 9.28158C93.1286 11.3687 92.3453 13.5262 90.2572 14.6417C95.3688 16.2116 95.3795 23.7339 92.356 26.9931C91.0663 28.3825 89.001 29.0771 86.1585 29.0771H76.5801Z" fill="#2B3078"/>
<path d="M99.4688 1.29566H100.048H103.178H108.851C110.259 1.29566 111.458 1.43949 112.449 1.73175C113.439 2.02095 114.235 2.45551 114.834 3.03697C115.433 3.61689 115.87 4.34831 116.143 5.22968C116.417 6.11257 116.554 7.14695 116.554 8.33129C116.554 10.218 116.411 11.7956 116.124 13.064C115.838 14.3341 115.356 15.3562 114.677 16.1305C113.999 16.9032 113.108 17.4586 111.999 17.7968C110.892 18.1365 109.517 18.3048 107.875 18.3048H104.317V25.8959C104.317 27.8377 103.236 29.0878 100.882 29.0771H99.4703C99.4703 19.8166 99.4688 10.5561 99.4688 1.29566ZM107.367 15.8397C108.148 15.8397 108.805 15.7357 109.341 15.5307C109.874 15.3241 110.319 14.9813 110.67 14.4963C111.021 14.0143 111.277 13.3731 111.433 12.5744C111.589 11.7772 111.668 10.7857 111.668 9.59979C111.668 8.43993 111.601 7.48512 111.471 6.73687C111.341 5.9871 111.138 5.3934 110.866 4.95884C110.592 4.52427 110.233 4.22131 109.791 4.05299C109.347 3.88314 108.799 3.79745 108.148 3.79745H104.317V15.8397H107.367Z" fill="#2B3078"/>
<path d="M121.721 1.28602H122.746C123.245 1.28602 123.654 1.2799 124.139 1.37324C125.771 1.68539 126.53 2.81923 126.53 4.43813V4.49016V22.1603C126.53 26.7783 123.818 29.0889 118.398 29.0889C118.139 29.0889 117.888 29.0827 117.645 29.072C115.872 29.046 114.311 28.6375 112.964 27.8464C111.569 27.0293 110.547 25.8602 109.895 24.3408C111.025 23.8802 111.995 23.6446 113.028 24.402C113.447 24.708 113.796 25.0906 114.235 25.3936C114.72 25.7256 115.271 25.9658 115.887 26.1173C117.199 26.4371 119.061 26.4524 120.326 25.7516C121.614 25.0401 121.721 23.6783 121.721 22.4143V1.28602Z" fill="#2B3078"/>
<path d="M134.982 25.4058C135.868 26.0148 136.975 26.3178 138.305 26.3178C138.93 26.3178 139.53 26.2183 140.104 26.0194C140.677 25.8205 141.178 25.5404 141.608 25.1778C142.038 24.8167 142.378 24.3714 142.625 23.8466C142.872 23.3202 142.997 22.7311 142.997 22.0747C142.997 21.4901 142.905 20.9775 142.723 20.5338C142.54 20.0885 142.292 19.6922 141.981 19.3418C141.667 18.9899 141.295 18.6701 140.866 18.3763C140.435 18.084 139.973 17.7872 139.477 17.4827C138.356 16.8278 137.321 16.1912 136.37 15.573C135.418 14.9533 134.591 14.2923 133.887 13.5915C133.182 12.8907 132.629 12.1149 132.226 11.2611C131.821 10.4073 131.619 9.39582 131.619 8.22679C131.619 7.22301 131.795 6.2988 132.147 5.45721C132.5 4.61716 133.02 3.88575 133.71 3.26604C134.402 2.64786 135.243 2.1628 136.232 1.81239C137.223 1.46199 138.356 1.28755 139.634 1.28755C141.302 1.28755 142.735 1.63031 143.935 2.3204C145.133 3.0105 145.942 3.9745 146.359 5.21239C144.965 5.82139 143.955 5.49394 142.82 4.63399C142.104 4.15505 141.251 3.91635 140.259 3.91635C138.878 3.91635 137.803 4.25451 137.033 4.93237C136.265 5.61023 135.88 6.5681 135.88 7.80752C135.88 8.83578 136.174 9.68808 136.761 10.3659C137.347 11.0438 138.077 11.6574 138.95 12.2067C139.823 12.756 140.775 13.2824 141.804 13.7843C142.834 14.2862 143.784 14.8707 144.657 15.5378C145.532 16.2035 146.26 17.0037 146.847 17.9387C147.434 18.8736 147.726 20.0426 147.726 21.4442C147.726 22.5429 147.518 23.5589 147.101 24.4954C146.685 25.4303 146.085 26.2351 145.302 26.913C144.52 27.5908 143.564 28.1233 142.429 28.5089C141.295 28.8945 140.011 29.0889 138.578 29.0889C136.728 29.0889 135.105 28.6773 133.71 27.8602C132.316 27.0415 131.294 25.8725 130.643 24.3546C131.771 23.8925 132.743 23.6584 133.776 24.4143C134.194 24.7203 134.542 25.1044 134.982 25.4058Z" fill="#2B3078"/>
<path d="M184.37 48.6903V42.8604C184.373 42.5957 184.359 42.3341 184.33 42.0801C184.304 41.8261 184.248 41.5812 184.167 41.3471C184.082 41.1145 183.962 40.8911 183.801 40.6846C183.585 40.3831 183.3 40.1628 182.946 40.0205C182.592 39.8797 182.178 39.8093 181.702 39.8124C181.331 39.817 181.01 39.869 180.733 39.973C180.456 40.0756 180.228 40.2026 180.038 40.354C179.851 40.5025 179.707 40.6509 179.602 40.7963C179.497 40.9416 179.428 41.0579 179.396 41.1451V40.0021H177.707V48.6903H179.396V43.3363C179.393 43.1558 179.407 42.9553 179.433 42.7426C179.457 42.5269 179.512 42.3142 179.597 42.1061C179.681 41.8964 179.809 41.7082 179.98 41.543C180.126 41.4037 180.291 41.3012 180.475 41.2278C180.657 41.1513 180.875 41.1145 181.133 41.1145C181.51 41.1161 181.804 41.1773 182.02 41.2936C182.236 41.4114 182.391 41.569 182.491 41.7679C182.592 41.9653 182.654 42.1887 182.677 42.4351C182.703 42.6814 182.716 42.9308 182.712 43.194V48.6903H184.37ZM174.352 43.6546H170.705C170.703 43.6393 170.705 43.5674 170.706 43.4388C170.712 43.3088 170.728 43.145 170.756 42.9461C170.785 42.7503 170.839 42.5406 170.913 42.3234C170.989 42.1061 171.096 41.9056 171.235 41.7144C171.375 41.5261 171.558 41.3762 171.785 41.266C172.008 41.1513 172.286 41.1008 172.615 41.1145C172.911 41.1222 173.165 41.188 173.368 41.3058C173.573 41.4282 173.737 41.5843 173.865 41.7725C173.993 41.9622 174.092 42.1612 174.159 42.3708C174.227 42.5835 174.276 42.7855 174.302 42.9752C174.327 43.1649 174.344 43.3225 174.349 43.445C174.352 43.5704 174.355 43.6423 174.352 43.6546ZM176.026 44.8144V44.7349V44.5467V44.3233C176.028 44.0937 176.017 43.829 175.991 43.523C175.967 43.217 175.917 42.8926 175.844 42.5529C175.768 42.2117 175.654 41.8781 175.505 41.5537C175.354 41.2278 175.155 40.934 174.902 40.6677C174.651 40.4076 174.338 40.198 173.965 40.0404C173.588 39.8858 173.138 39.8093 172.615 39.8124C172.081 39.8139 171.614 39.8935 171.223 40.0465C170.831 40.201 170.496 40.4076 170.226 40.6662C169.955 40.9263 169.73 41.2201 169.56 41.543C169.389 41.8643 169.254 42.2009 169.163 42.5452C169.071 42.891 169.004 43.2231 168.971 43.5475C168.936 43.8703 168.918 44.1611 168.921 44.4181C168.918 44.6584 168.933 44.9338 168.971 45.2414C169.004 45.5459 169.071 45.8626 169.17 46.1931C169.267 46.5221 169.41 46.8434 169.601 47.1525C169.789 47.4647 170.037 47.7462 170.34 47.9941C170.647 48.2435 171.023 48.444 171.473 48.5893C171.921 48.7377 172.454 48.8143 173.073 48.8173C173.474 48.8143 173.827 48.7837 174.133 48.724C174.438 48.6674 174.695 48.5954 174.904 48.5159C175.114 48.4363 175.275 48.3613 175.39 48.2955C175.506 48.2267 175.576 48.1838 175.599 48.1655L175.835 46.6414C175.812 46.6598 175.746 46.7103 175.635 46.7914C175.527 46.871 175.372 46.9597 175.17 47.0546C174.968 47.151 174.712 47.229 174.41 47.2933C174.107 47.3591 173.751 47.3851 173.342 47.3713C172.854 47.3606 172.449 47.2902 172.128 47.1586C171.804 47.027 171.547 46.8633 171.357 46.6629C171.166 46.4624 171.021 46.2543 170.927 46.0386C170.832 45.8213 170.773 45.6224 170.743 45.4387C170.715 45.2567 170.703 45.1159 170.705 45.021V44.8649V44.8144H176.026ZM167.017 36.9036H165.374V48.6903H167.017V36.9036ZM161.862 43.6546H158.215C158.212 43.6393 158.215 43.5674 158.217 43.4388C158.223 43.3088 158.238 43.145 158.267 42.9461C158.296 42.7503 158.349 42.5406 158.424 42.3234C158.498 42.1061 158.608 41.9056 158.746 41.7144C158.886 41.5261 159.067 41.3762 159.294 41.266C159.517 41.1513 159.797 41.1008 160.126 41.1145C160.422 41.1222 160.675 41.188 160.878 41.3058C161.082 41.4282 161.25 41.5843 161.374 41.7725C161.503 41.9622 161.601 42.1612 161.671 42.3708C161.739 42.5835 161.786 42.7855 161.812 42.9752C161.838 43.1649 161.853 43.3225 161.859 43.445C161.862 43.5704 161.864 43.6423 161.862 43.6546ZM163.534 44.8144V44.7349V44.5467V44.3233C163.537 44.0937 163.528 43.829 163.502 43.523C163.478 43.217 163.427 42.8926 163.353 42.5529C163.277 42.2117 163.164 41.8781 163.015 41.5537C162.865 41.2278 162.664 40.934 162.411 40.6677C162.162 40.4076 161.849 40.198 161.475 40.0404C161.099 39.8858 160.649 39.8093 160.126 39.8124C159.59 39.8139 159.125 39.8935 158.732 40.0465C158.342 40.201 158.007 40.4076 157.736 40.6662C157.466 40.9263 157.242 41.2201 157.07 41.543C156.898 41.8643 156.766 42.2009 156.673 42.5452C156.582 42.891 156.515 43.2231 156.482 43.5475C156.447 43.8703 156.428 44.1611 156.431 44.4181C156.428 44.6584 156.444 44.9338 156.482 45.2414C156.515 45.5459 156.582 45.8626 156.681 46.1931C156.778 46.5221 156.92 46.8434 157.11 47.1525C157.3 47.4647 157.546 47.7462 157.852 47.9941C158.158 48.2435 158.533 48.444 158.983 48.5893C159.431 48.7377 159.964 48.8143 160.583 48.8173C160.986 48.8143 161.338 48.7837 161.643 48.724C161.948 48.6674 162.206 48.5954 162.414 48.5159C162.624 48.4363 162.786 48.3613 162.901 48.2955C163.017 48.2267 163.085 48.1838 163.108 48.1655L163.345 46.6414C163.322 46.6598 163.257 46.7103 163.146 46.7914C163.038 46.871 162.883 46.9597 162.679 47.0546C162.477 47.151 162.223 47.229 161.92 47.2933C161.618 47.3591 161.262 47.3851 160.851 47.3713C160.364 47.3606 159.96 47.2902 159.639 47.1586C159.315 47.027 159.058 46.8633 158.868 46.6629C158.676 46.4624 158.53 46.2543 158.439 46.0386C158.343 45.8213 158.284 45.6224 158.255 45.4387C158.226 45.2567 158.212 45.1159 158.215 45.021V44.8649V44.8144H163.534ZM155.917 40.0021H154.275L152.397 46.7363L150.486 40.0021H148.781L151.528 48.6582L151.402 49.2458C151.37 49.4187 151.318 49.5747 151.244 49.7155C151.171 49.8563 151.072 49.968 150.949 50.0537C150.822 50.1378 150.67 50.1822 150.486 50.1837C150.263 50.1822 150.065 50.1531 149.892 50.1072C149.72 50.0567 149.583 50.0078 149.486 49.9603C149.387 49.9098 149.337 49.8838 149.334 49.8823L149.507 51.2793C149.51 51.2839 149.568 51.313 149.68 51.362C149.796 51.4125 149.96 51.4599 150.17 51.5043C150.378 51.5517 150.625 51.5701 150.912 51.5655C151.268 51.5639 151.568 51.4997 151.81 51.3681C152.048 51.2426 152.249 51.0651 152.41 50.8402C152.57 50.6122 152.707 50.3505 152.819 50.0506C152.933 49.7522 153.038 49.4324 153.139 49.0866L155.917 40.0021ZM147.683 48.6903V42.8604C147.685 42.5957 147.673 42.3341 147.644 42.0801C147.618 41.8261 147.562 41.5812 147.481 41.3471C147.396 41.1145 147.276 40.8911 147.115 40.6846C146.899 40.3831 146.616 40.1628 146.26 40.0205C145.904 39.8797 145.492 39.8093 145.014 39.8124C144.643 39.817 144.322 39.869 144.047 39.973C143.772 40.0756 143.542 40.2026 143.352 40.354C143.165 40.5025 143.02 40.6509 142.916 40.7963C142.811 40.9416 142.742 41.0579 142.71 41.1451V40.0021H141.021V48.6903H142.71V43.3363C142.707 43.1558 142.721 42.9553 142.747 42.7426C142.771 42.5269 142.826 42.3142 142.909 42.1061C142.995 41.8964 143.124 41.7082 143.294 41.543C143.442 41.4037 143.604 41.3012 143.788 41.2278C143.971 41.1513 144.188 41.1145 144.447 41.1145C144.823 41.1161 145.118 41.1773 145.334 41.2936C145.55 41.4114 145.705 41.569 145.804 41.7679C145.904 41.9653 145.968 42.1887 145.991 42.4351C146.018 42.6814 146.03 42.9308 146.026 43.194V48.6903H147.683ZM137.666 43.6546H134.018C134.015 43.6393 134.018 43.5674 134.022 43.4388C134.026 43.3088 134.041 43.145 134.07 42.9461C134.099 42.7503 134.152 42.5406 134.225 42.3234C134.303 42.1061 134.411 41.9056 134.549 41.7144C134.689 41.5261 134.87 41.3762 135.097 41.266C135.32 41.1513 135.6 41.1008 135.929 41.1145C136.225 41.1222 136.478 41.188 136.681 41.3058C136.887 41.4282 137.053 41.5843 137.179 41.7725C137.307 41.9622 137.404 42.1612 137.472 42.3708C137.542 42.5835 137.589 42.7855 137.615 42.9752C137.641 43.1649 137.656 43.3225 137.662 43.445C137.666 43.5704 137.667 43.6423 137.666 43.6546ZM139.338 44.8144V44.7349V44.5467V44.3233C139.341 44.0937 139.331 43.829 139.305 43.523C139.281 43.217 139.23 42.8926 139.157 42.5529C139.081 42.2117 138.967 41.8781 138.818 41.5537C138.668 41.2278 138.467 40.934 138.215 40.6677C137.965 40.4076 137.652 40.198 137.278 40.0404C136.902 39.8858 136.452 39.8093 135.929 39.8124C135.395 39.8139 134.928 39.8935 134.536 40.0465C134.145 40.201 133.81 40.4076 133.539 40.6662C133.269 40.9263 133.044 41.2201 132.873 41.543C132.701 41.8643 132.569 42.2009 132.476 42.5452C132.384 42.891 132.318 43.2231 132.285 43.5475C132.25 43.8703 132.231 44.1611 132.235 44.4181C132.231 44.6584 132.248 44.9338 132.285 45.2414C132.318 45.5459 132.384 45.8626 132.484 46.1931C132.581 46.5221 132.724 46.8434 132.913 47.1525C133.101 47.4647 133.349 47.7462 133.655 47.9941C133.961 48.2435 134.336 48.444 134.787 48.5893C135.234 48.7377 135.767 48.8143 136.385 48.8173C136.789 48.8143 137.141 48.7837 137.446 48.724C137.752 48.6674 138.011 48.5954 138.218 48.5159C138.427 48.4363 138.589 48.3613 138.704 48.2955C138.82 48.2267 138.888 48.1838 138.913 48.1655L139.15 46.6414C139.126 46.6598 139.06 46.7103 138.949 46.7914C138.841 46.871 138.686 46.9597 138.484 47.0546C138.281 47.151 138.026 47.229 137.723 47.2933C137.421 47.3591 137.066 47.3851 136.654 47.3713C136.167 47.3606 135.763 47.2902 135.442 47.1586C135.118 47.027 134.86 46.8633 134.671 46.6629C134.479 46.4624 134.335 46.2543 134.242 46.0386C134.146 45.8213 134.087 45.6224 134.058 45.4387C134.029 45.2567 134.015 45.1159 134.018 45.021V44.8649V44.8144H139.338ZM129.115 40.9875C129.115 41.3655 129.077 41.6883 128.997 41.9561C128.918 42.2224 128.799 42.4504 128.642 42.6386C128.505 42.8115 128.358 42.9477 128.197 43.0471C128.038 43.1466 127.885 43.2216 127.731 43.2659C127.581 43.3103 127.447 43.3394 127.333 43.3531C127.22 43.3654 127.141 43.3715 127.094 43.37H125.327V38.5393H127.094C127.219 38.5378 127.366 38.5485 127.534 38.5745C127.705 38.602 127.885 38.6571 128.066 38.7413C128.247 38.8285 128.419 38.9586 128.575 39.136C128.737 39.3135 128.866 39.5538 128.963 39.8537C129.062 40.1521 129.114 40.5315 129.115 40.9875ZM131.12 40.9875C131.118 40.3449 131.044 39.7955 130.893 39.335C130.747 38.8729 130.542 38.4873 130.279 38.1797C130.017 37.8706 129.713 37.6258 129.365 37.4468C129.018 37.2662 128.642 37.1407 128.242 37.0627C127.839 36.9862 127.426 36.9495 127 36.9525H123.385V48.6903H125.327V44.9583H127.064C127.406 44.9598 127.749 44.9384 128.095 44.8909C128.438 44.8405 128.779 44.741 129.115 44.5895C129.451 44.4396 129.778 44.21 130.095 43.9086C130.413 43.6072 130.662 43.2093 130.843 42.7212C131.025 42.2331 131.118 41.6531 131.12 40.9875ZM221.071 46.1013C221.07 46.3125 221.019 46.5007 220.922 46.6629C220.826 46.8266 220.695 46.9674 220.533 47.0852C220.37 47.2015 220.184 47.2979 219.982 47.3713C219.868 47.4188 219.753 47.4509 219.635 47.4723C219.517 47.4922 219.416 47.4999 219.336 47.4999C219.053 47.4999 218.799 47.4509 218.568 47.3514C218.343 47.2504 218.162 47.0959 218.028 46.8863C217.889 46.6736 217.823 46.4027 217.819 46.0692C217.819 45.9865 217.824 45.8978 217.832 45.8029C217.842 45.705 217.859 45.6178 217.882 45.5459C217.964 45.2811 218.105 45.0654 218.314 44.8986C218.519 44.7318 218.775 44.6109 219.083 44.5329C219.391 44.4549 219.737 44.4181 220.124 44.4181C220.302 44.4181 220.46 44.4243 220.6 44.4426C220.746 44.4564 220.858 44.4732 220.943 44.4885C221.025 44.5023 221.07 44.5099 221.071 44.513V46.1013ZM222.761 48.6903V42.989C222.764 42.6095 222.743 42.2836 222.703 42.0112C222.66 41.7373 222.587 41.494 222.482 41.2798C222.376 41.0625 222.227 40.8544 222.035 40.6524C221.781 40.3877 221.442 40.1766 221.012 40.0205C220.58 39.8644 220.054 39.7818 219.43 39.7787C219.059 39.7818 218.732 39.8124 218.448 39.869C218.166 39.9241 217.927 39.9929 217.734 40.0649C217.546 40.1398 217.401 40.2056 217.304 40.2622C217.207 40.3189 217.156 40.3495 217.156 40.351L216.855 41.8765C216.855 41.8704 216.904 41.8306 216.998 41.7572C217.091 41.6807 217.229 41.5935 217.416 41.4894C217.604 41.39 217.832 41.2982 218.108 41.2201C218.385 41.1405 218.705 41.0916 219.067 41.0824C219.521 41.0839 219.889 41.1344 220.169 41.2354C220.446 41.3318 220.648 41.468 220.771 41.6378C220.884 41.7832 220.96 41.9316 221.003 42.0831C221.045 42.2361 221.07 42.3815 221.071 42.5223C221.074 42.663 221.074 42.7855 221.071 42.8926V43.3363C221.07 43.3363 221.025 43.3287 220.94 43.3164C220.852 43.3027 220.737 43.2919 220.587 43.2782C220.437 43.2659 220.27 43.2583 220.076 43.2583C219.748 43.2583 219.416 43.2782 219.085 43.3256C218.752 43.3715 218.429 43.448 218.122 43.5536C217.812 43.6576 217.527 43.8015 217.269 43.9759C217.009 44.1504 216.788 44.3676 216.603 44.6247C216.458 44.8389 216.349 45.047 216.277 45.2567C216.203 45.4632 216.157 45.6514 216.133 45.8228C216.107 45.9957 216.096 46.1365 216.098 46.2451C216.096 46.4242 216.118 46.6261 216.162 46.848C216.203 47.0684 216.277 47.2933 216.382 47.5152C216.487 47.7401 216.632 47.9497 216.817 48.141C217.003 48.3323 217.239 48.4883 217.521 48.6107C217.804 48.7332 218.145 48.802 218.545 48.8173C218.972 48.825 219.351 48.7775 219.686 48.6735C220.019 48.571 220.311 48.4256 220.559 48.2359C220.806 48.0431 221.013 47.8197 221.182 47.5626V48.0706C221.179 48.1532 221.185 48.2359 221.197 48.32C221.211 48.4072 221.248 48.4807 221.308 48.548C221.359 48.6 221.421 48.6352 221.498 48.6551C221.574 48.6735 221.644 48.6842 221.713 48.6873C221.781 48.6903 221.832 48.6903 221.86 48.6903H222.761ZM216.011 41.7802L215.774 40.1934C215.692 40.1398 215.622 40.097 215.564 40.0649C215.506 40.0342 215.452 40.0067 215.395 39.9853C215.34 39.9639 215.277 39.944 215.205 39.9225C215.112 39.8981 215.032 39.8828 214.963 39.8721C214.893 39.8644 214.816 39.8583 214.732 39.8583C214.591 39.8568 214.452 39.8675 214.322 39.8828C214.191 39.9011 214.061 39.9378 213.938 39.9945C213.815 40.0465 213.695 40.1276 213.579 40.2408C213.449 40.3648 213.341 40.4887 213.255 40.6142C213.17 40.7366 213.103 40.8513 213.056 40.9523C213.011 41.0533 212.98 41.1268 212.963 41.1773V40.0021H211.274V48.6903H212.963V43.751C212.962 43.5995 212.966 43.4358 212.974 43.2506C212.982 43.067 213.009 42.8788 213.047 42.6814C213.088 42.4855 213.155 42.2897 213.248 42.0984C213.338 41.9423 213.449 41.8016 213.581 41.6807C213.713 41.5567 213.871 41.4573 214.051 41.3838C214.232 41.3119 214.439 41.2721 214.67 41.2721C214.951 41.2752 215.201 41.3196 215.417 41.4129C215.634 41.5063 215.832 41.6271 216.011 41.7802ZM207.666 46.1013C207.663 46.3125 207.613 46.5007 207.516 46.6629C207.421 46.8266 207.291 46.9674 207.126 47.0852C206.964 47.2015 206.78 47.2979 206.577 47.3713C206.465 47.4188 206.349 47.4509 206.231 47.4723C206.11 47.4922 206.012 47.4999 205.929 47.4999C205.648 47.4999 205.393 47.4509 205.163 47.3514C204.938 47.2504 204.755 47.0959 204.621 46.8863C204.485 46.6736 204.418 46.4027 204.415 46.0692C204.415 45.9865 204.419 45.8978 204.427 45.8029C204.437 45.705 204.454 45.6178 204.477 45.5459C204.559 45.2811 204.702 45.0654 204.909 44.8986C205.114 44.7318 205.368 44.6109 205.677 44.5329C205.984 44.4549 206.332 44.4181 206.719 44.4181C206.895 44.4181 207.053 44.4243 207.195 44.4426C207.339 44.4564 207.453 44.4732 207.537 44.4885C207.622 44.5023 207.663 44.5099 207.666 44.513V46.1013ZM209.354 48.6903V42.989C209.359 42.6095 209.338 42.2836 209.298 42.0112C209.256 41.7373 209.181 41.494 209.076 41.2798C208.971 41.0625 208.822 40.8544 208.629 40.6524C208.376 40.3877 208.037 40.1766 207.605 40.0205C207.175 39.8644 206.647 39.7818 206.024 39.7787C205.653 39.7818 205.327 39.8124 205.043 39.869C204.761 39.9241 204.521 39.9929 204.331 40.0649C204.141 40.1398 203.996 40.2056 203.898 40.2622C203.802 40.3189 203.752 40.3495 203.752 40.351L203.45 41.8765C203.45 41.8704 203.498 41.8306 203.593 41.7572C203.685 41.6807 203.825 41.5935 204.012 41.4894C204.199 41.39 204.427 41.2982 204.704 41.2201C204.98 41.1405 205.298 41.0916 205.662 41.0824C206.116 41.0839 206.484 41.1344 206.764 41.2354C207.04 41.3318 207.243 41.468 207.365 41.6378C207.479 41.7832 207.555 41.9316 207.598 42.0831C207.64 42.2361 207.663 42.3815 207.666 42.5223C207.669 42.663 207.669 42.7855 207.666 42.8926V43.3363C207.663 43.3363 207.622 43.3287 207.535 43.3164C207.449 43.3027 207.333 43.2919 207.183 43.2782C207.032 43.2659 206.863 43.2583 206.672 43.2583C206.343 43.2583 206.012 43.2782 205.68 43.3256C205.345 43.3715 205.024 43.448 204.717 43.5536C204.405 43.6576 204.121 43.8015 203.864 43.9759C203.604 44.1504 203.382 44.3676 203.198 44.6247C203.053 44.8389 202.944 45.047 202.872 45.2567C202.799 45.4632 202.751 45.6514 202.728 45.8228C202.701 45.9957 202.691 46.1365 202.693 46.2451C202.691 46.4242 202.711 46.6261 202.757 46.848C202.799 47.0684 202.872 47.2933 202.977 47.5152C203.082 47.7401 203.228 47.9497 203.411 48.141C203.598 48.3323 203.832 48.4883 204.117 48.6107C204.398 48.7332 204.74 48.802 205.14 48.8173C205.566 48.825 205.946 48.7775 206.279 48.6735C206.614 48.571 206.906 48.4256 207.154 48.2359C207.4 48.0431 207.608 47.8197 207.777 47.5626V48.0706C207.774 48.1532 207.779 48.2359 207.792 48.32C207.806 48.4072 207.843 48.4807 207.903 48.548C207.952 48.6 208.016 48.6352 208.092 48.6551C208.17 48.6735 208.24 48.6842 208.308 48.6873C208.376 48.6903 208.427 48.6903 208.456 48.6903H209.354ZM199.907 49.4202C199.911 49.6191 199.858 49.792 199.75 49.9374C199.642 50.0828 199.499 50.2052 199.314 50.3C199.133 50.3964 198.929 50.4638 198.711 50.5127C198.494 50.5571 198.273 50.5801 198.059 50.5801C197.641 50.5801 197.279 50.5311 196.978 50.4301C196.672 50.3322 196.438 50.1929 196.272 50.017C196.109 49.8379 196.024 49.6314 196.022 49.3881C196.024 49.2213 196.053 49.0713 196.112 48.9367C196.167 48.802 196.232 48.6873 196.305 48.5893C196.38 48.4945 196.445 48.4225 196.502 48.369C196.558 48.32 196.588 48.2925 196.591 48.2925H196.73H197.083H197.556H198.059C198.427 48.3017 198.733 48.3384 198.974 48.4042C199.213 48.4715 199.403 48.5557 199.54 48.6612C199.674 48.7668 199.771 48.8831 199.826 49.0162C199.882 49.1448 199.908 49.281 199.907 49.4202ZM199.701 42.8604C199.701 43.2506 199.635 43.5811 199.507 43.8596C199.378 44.1335 199.186 44.3462 198.927 44.4931C198.669 44.6415 198.348 44.7165 197.963 44.7196C197.638 44.7165 197.359 44.6369 197.128 44.4809C196.899 44.3248 196.722 44.1075 196.602 43.829C196.48 43.5505 196.416 43.2292 196.416 42.8604C196.416 42.4764 196.474 42.152 196.588 41.8842C196.704 41.6164 196.88 41.4129 197.119 41.2752C197.356 41.1375 197.659 41.0702 198.027 41.0824C198.342 41.0916 198.606 41.1482 198.822 41.2507C199.038 41.3548 199.209 41.4925 199.338 41.6623C199.467 41.8306 199.562 42.0189 199.616 42.2254C199.674 42.432 199.703 42.6432 199.701 42.8604ZM201.595 49.3406C201.609 48.5342 201.321 47.9344 200.74 47.5519C200.159 47.1648 199.301 46.9735 198.17 46.975C198.041 46.975 197.889 46.9796 197.712 46.9842C197.536 46.9873 197.353 46.9857 197.169 46.9765C196.981 46.9689 196.809 46.9505 196.649 46.9169C196.485 46.8817 196.357 46.8296 196.257 46.7562C196.156 46.6812 196.105 46.5818 196.102 46.4517C196.105 46.3033 196.155 46.1885 196.257 46.112C196.357 46.034 196.495 45.9835 196.672 45.9529C196.851 45.9253 197.055 45.91 197.288 45.91C197.518 45.9085 197.764 45.9085 198.027 45.91C198.746 45.9085 199.353 45.783 199.854 45.5367C200.354 45.2934 200.734 44.943 200.996 44.4809C201.256 44.0234 201.387 43.471 201.39 42.8283V40.0021H200.536C200.469 39.9975 200.395 39.9975 200.319 40.0036C200.246 40.0067 200.17 40.0251 200.092 40.0572C200.016 40.0924 199.943 40.1521 199.875 40.2408C199.814 40.3296 199.776 40.4229 199.764 40.5208C199.75 40.6157 199.746 40.6983 199.749 40.7641V40.8758C199.749 40.8728 199.727 40.8391 199.68 40.7703C199.635 40.6999 199.558 40.6172 199.455 40.5178C199.35 40.4168 199.212 40.3173 199.04 40.2179C198.867 40.1153 198.654 40.0312 198.401 39.9639C198.149 39.895 197.848 39.8613 197.505 39.8583C197.285 39.8568 197.051 39.8828 196.804 39.9363C196.556 39.9883 196.314 40.0817 196.077 40.2087C195.838 40.3387 195.623 40.5147 195.429 40.7412C195.236 40.9646 195.083 41.2507 194.97 41.5935C194.859 41.9378 194.804 42.3478 194.806 42.8283C194.809 43.1588 194.854 43.4511 194.938 43.7051C195.022 43.9591 195.127 44.1779 195.251 44.36C195.375 44.5421 195.501 44.6905 195.624 44.8068C195.749 44.9231 195.854 45.0103 195.937 45.0654C196.022 45.122 196.067 45.148 196.07 45.148C196.064 45.145 196.012 45.1526 195.907 45.1725C195.8 45.1893 195.67 45.2276 195.515 45.2842C195.359 45.3393 195.201 45.4204 195.046 45.5321C194.891 45.6423 194.759 45.7922 194.654 45.9758C194.549 46.1625 194.497 46.3951 194.491 46.6736C194.48 46.8878 194.503 47.0684 194.559 47.2183C194.614 47.3667 194.689 47.4922 194.783 47.5886C194.877 47.6896 194.981 47.7661 195.09 47.8242C195.201 47.8824 195.306 47.9283 195.407 47.9589C195.403 47.9589 195.372 47.9773 195.312 48.0186C195.251 48.0538 195.175 48.1165 195.086 48.1976C194.993 48.2818 194.905 48.3873 194.815 48.5189C194.722 48.6505 194.646 48.8066 194.585 48.9902C194.524 49.1738 194.494 49.3865 194.491 49.6268C194.494 50.043 194.631 50.4133 194.905 50.7346C195.178 51.0544 195.581 51.3099 196.109 51.492C196.641 51.6741 197.291 51.769 198.059 51.7705C198.533 51.7705 198.978 51.7246 199.393 51.6313C199.809 51.5364 200.179 51.391 200.503 51.1952C200.824 50.9963 201.082 50.7438 201.274 50.4377C201.466 50.1317 201.572 49.7645 201.595 49.3406ZM191.468 49.4202C191.472 49.6191 191.42 49.792 191.311 49.9374C191.203 50.0828 191.058 50.2052 190.874 50.3C190.693 50.3964 190.491 50.4638 190.272 50.5127C190.053 50.5571 189.836 50.5801 189.62 50.5801C189.201 50.5801 188.841 50.5311 188.538 50.4301C188.233 50.3322 187.998 50.1929 187.833 50.017C187.67 49.8379 187.585 49.6314 187.583 49.3881C187.585 49.2213 187.615 49.0713 187.673 48.9367C187.728 48.802 187.793 48.6873 187.866 48.5893C187.941 48.4945 188.006 48.4225 188.062 48.369C188.12 48.32 188.149 48.2925 188.152 48.2925H188.29H188.643H189.118H189.62C189.988 48.3017 190.293 48.3384 190.535 48.4042C190.774 48.4715 190.964 48.5557 191.101 48.6612C191.235 48.7668 191.332 48.8831 191.388 49.0162C191.443 49.1448 191.469 49.281 191.468 49.4202ZM191.262 42.8604C191.262 43.2506 191.195 43.5811 191.068 43.8596C190.938 44.1335 190.745 44.3462 190.488 44.4931C190.23 44.6415 189.909 44.7165 189.524 44.7196C189.198 44.7165 188.92 44.6369 188.689 44.4809C188.459 44.3248 188.283 44.1075 188.163 43.829C188.041 43.5505 187.979 43.2292 187.979 42.8604C187.979 42.4764 188.036 42.152 188.149 41.8842C188.265 41.6164 188.441 41.4129 188.681 41.2752C188.917 41.1375 189.22 41.0702 189.588 41.0824C189.904 41.0916 190.167 41.1482 190.383 41.2507C190.598 41.3548 190.769 41.4925 190.899 41.6623C191.026 41.8306 191.122 42.0189 191.177 42.2254C191.235 42.432 191.264 42.6432 191.262 42.8604ZM193.156 49.3406C193.169 48.5342 192.882 47.9344 192.301 47.5519C191.72 47.1648 190.862 46.9735 189.731 46.975C189.601 46.975 189.448 46.9796 189.273 46.9842C189.095 46.9873 188.914 46.9857 188.73 46.9765C188.543 46.9689 188.37 46.9505 188.21 46.9169C188.046 46.8817 187.918 46.8296 187.817 46.7562C187.717 46.6812 187.664 46.5818 187.662 46.4517C187.664 46.3033 187.714 46.1885 187.817 46.112C187.918 46.034 188.056 45.9835 188.233 45.9529C188.412 45.9253 188.616 45.91 188.849 45.91C189.078 45.9085 189.325 45.9085 189.588 45.91C190.306 45.9085 190.914 45.783 191.414 45.5367C191.913 45.2934 192.296 44.943 192.556 44.4809C192.818 44.0234 192.949 43.471 192.95 42.8283V40.0021H192.099C192.029 39.9975 191.956 39.9975 191.88 40.0036C191.807 40.0067 191.729 40.0251 191.653 40.0572C191.577 40.0924 191.504 40.1521 191.436 40.2408C191.375 40.3296 191.338 40.4229 191.325 40.5208C191.311 40.6157 191.306 40.6983 191.308 40.7641V40.8758C191.308 40.8728 191.288 40.8391 191.241 40.7703C191.195 40.6999 191.119 40.6172 191.017 40.5178C190.911 40.4168 190.772 40.3173 190.602 40.2179C190.427 40.1153 190.214 40.0312 189.962 39.9639C189.709 39.895 189.408 39.8613 189.066 39.8583C188.846 39.8568 188.613 39.8828 188.365 39.9363C188.117 39.9883 187.875 40.0817 187.638 40.2087C187.399 40.3387 187.183 40.5147 186.992 40.7412C186.795 40.9646 186.643 41.2507 186.531 41.5935C186.42 41.9378 186.365 42.3478 186.368 42.8283C186.37 43.1588 186.415 43.4511 186.499 43.7051C186.583 43.9591 186.689 44.1779 186.812 44.36C186.935 44.5421 187.063 44.6905 187.186 44.8068C187.309 44.9231 187.414 45.0103 187.5 45.0654C187.583 45.122 187.627 45.148 187.629 45.148C187.624 45.145 187.573 45.1526 187.468 45.1725C187.361 45.1893 187.23 45.2276 187.075 45.2842C186.92 45.3393 186.762 45.4204 186.607 45.5321C186.452 45.6423 186.321 45.7922 186.214 45.9758C186.11 46.1625 186.058 46.3951 186.052 46.6736C186.041 46.8878 186.065 47.0684 186.12 47.2183C186.175 47.3667 186.248 47.4922 186.344 47.5886C186.438 47.6896 186.541 47.7661 186.651 47.8242C186.762 47.8824 186.867 47.9283 186.967 47.9589C186.964 47.9589 186.934 47.9773 186.873 48.0186C186.812 48.0538 186.736 48.1165 186.646 48.1976C186.554 48.2818 186.464 48.3873 186.374 48.5189C186.283 48.6505 186.207 48.8066 186.146 48.9902C186.085 49.1738 186.055 49.3865 186.052 49.6268C186.055 50.043 186.192 50.4133 186.464 50.7346C186.738 51.0544 187.141 51.3099 187.67 51.492C188.201 51.6741 188.852 51.769 189.62 51.7705C190.094 51.7705 190.538 51.7246 190.953 51.6313C191.37 51.5364 191.74 51.391 192.064 51.1952C192.385 50.9963 192.643 50.7438 192.835 50.4377C193.028 50.1317 193.131 49.7645 193.156 49.3406ZM118.358 48.6903V42.8604C118.36 42.5957 118.346 42.3341 118.317 42.0801C118.291 41.8261 118.236 41.5812 118.154 41.3471C118.071 41.1145 117.949 40.8911 117.789 40.6846C117.573 40.3831 117.289 40.1628 116.933 40.0205C116.579 39.8797 116.165 39.8093 115.689 39.8124C115.318 39.817 114.997 39.869 114.722 39.973C114.445 40.0756 114.215 40.2026 114.027 40.354C113.84 40.5025 113.695 40.6509 113.59 40.7963C113.484 40.9416 113.415 41.0579 113.383 41.1451V40.0021H111.695V48.6903H113.383V43.3363C113.382 43.1558 113.396 42.9553 113.421 42.7426C113.444 42.5269 113.501 42.3142 113.584 42.1061C113.668 41.8964 113.797 41.7082 113.969 41.543C114.116 41.4037 114.279 41.3012 114.463 41.2278C114.644 41.1513 114.863 41.1145 115.12 41.1145C115.497 41.1161 115.792 41.1773 116.008 41.2936C116.223 41.4114 116.38 41.569 116.478 41.7679C116.579 41.9653 116.641 42.1887 116.665 42.4351C116.691 42.6814 116.705 42.9308 116.7 43.194V48.6903H118.358ZM108.071 46.1013C108.068 46.3125 108.018 46.5007 107.92 46.6629C107.826 46.8266 107.694 46.9674 107.531 47.0852C107.368 47.2015 107.184 47.2979 106.982 47.3713C106.868 47.4188 106.752 47.4509 106.634 47.4723C106.517 47.4922 106.416 47.4999 106.334 47.4999C106.053 47.4999 105.797 47.4509 105.569 47.3514C105.343 47.2504 105.16 47.0959 105.026 46.8863C104.891 46.6736 104.821 46.4027 104.819 46.0692C104.819 45.9865 104.824 45.8978 104.832 45.8029C104.842 45.705 104.857 45.6178 104.882 45.5459C104.964 45.2811 105.105 45.0654 105.314 44.8986C105.519 44.7318 105.775 44.6109 106.082 44.5329C106.39 44.4549 106.737 44.4181 107.124 44.4181C107.3 44.4181 107.458 44.4243 107.6 44.4426C107.746 44.4564 107.858 44.4732 107.942 44.4885C108.027 44.5023 108.068 44.5099 108.071 44.513V46.1013ZM109.761 48.6903V42.989C109.762 42.6095 109.741 42.2836 109.703 42.0112C109.66 41.7373 109.587 41.494 109.481 41.2798C109.376 41.0625 109.225 40.8544 109.034 40.6524C108.781 40.3877 108.442 40.1766 108.01 40.0205C107.578 39.8644 107.052 39.7818 106.429 39.7787C106.057 39.7818 105.732 39.8124 105.448 39.869C105.166 39.9241 104.926 39.9929 104.734 40.0649C104.546 40.1398 104.4 40.2056 104.302 40.2622C104.205 40.3189 104.156 40.3495 104.156 40.351L103.855 41.8765C103.855 41.8704 103.904 41.8306 103.998 41.7572C104.089 41.6807 104.229 41.5935 104.416 41.4894C104.603 41.39 104.832 41.2982 105.108 41.2201C105.384 41.1405 105.703 41.0916 106.065 41.0824C106.521 41.0839 106.889 41.1344 107.169 41.2354C107.444 41.3318 107.648 41.468 107.771 41.6378C107.884 41.7832 107.96 41.9316 108.003 42.0831C108.045 42.2361 108.068 42.3815 108.071 42.5223C108.074 42.663 108.074 42.7855 108.071 42.8926V43.3363C108.068 43.3363 108.027 43.3287 107.939 43.3164C107.852 43.3027 107.736 43.2919 107.587 43.2782C107.437 43.2659 107.268 43.2583 107.076 43.2583C106.748 43.2583 106.416 43.2782 106.085 43.3256C105.75 43.3715 105.429 43.448 105.122 43.5536C104.81 43.6576 104.526 43.8015 104.269 43.9759C104.009 44.1504 103.788 44.3676 103.603 44.6247C103.458 44.8389 103.347 45.047 103.276 45.2567C103.203 45.4632 103.156 45.6514 103.133 45.8228C103.105 45.9957 103.095 46.1365 103.098 46.2451C103.095 46.4242 103.116 46.6261 103.16 46.848C103.203 47.0684 103.276 47.2933 103.382 47.5152C103.487 47.7401 103.632 47.9497 103.816 48.141C104.003 48.3323 104.237 48.4883 104.521 48.6107C104.803 48.7332 105.145 48.802 105.545 48.8173C105.971 48.825 106.349 48.7775 106.684 48.6735C107.019 48.571 107.311 48.4256 107.557 48.2359C107.805 48.0431 108.013 47.8197 108.182 47.5626V48.0706C108.179 48.1532 108.184 48.2359 108.197 48.32C108.211 48.4072 108.247 48.4807 108.308 48.548C108.357 48.6 108.421 48.6352 108.497 48.6551C108.573 48.6735 108.644 48.6842 108.713 48.6873C108.781 48.6903 108.831 48.6903 108.86 48.6903H109.761ZM99.647 46.6414C99.5679 46.747 99.4736 46.848 99.3611 46.9429C99.25 47.0408 99.1177 47.1265 98.9687 47.1984C98.7892 47.2841 98.6189 47.3453 98.4562 47.382C98.2919 47.4188 98.1216 47.4356 97.9421 47.4356C97.5999 47.4325 97.311 47.3545 97.0752 47.1999C96.8395 47.0469 96.6494 46.8296 96.5079 46.5542C96.3635 46.2788 96.2585 45.9559 96.1901 45.5856C96.1247 45.2169 96.0851 44.8175 96.0806 44.386C96.076 44.1412 96.0867 43.8765 96.1064 43.5873C96.1262 43.2981 96.1688 43.0089 96.2311 42.7181C96.2981 42.4289 96.3984 42.1642 96.5292 41.9209C96.6631 41.6807 96.8425 41.4864 97.0661 41.3395C97.2897 41.1926 97.571 41.1161 97.9102 41.1145C98.2113 41.1145 98.4683 41.1589 98.6812 41.2461C98.8972 41.3318 99.0721 41.4527 99.2059 41.6057C99.3322 41.7419 99.4234 41.8919 99.4903 42.0586C99.5527 42.2285 99.5953 42.4029 99.6181 42.5804C99.6394 42.761 99.65 42.9308 99.647 43.0991V46.6414ZM101.337 48.6903V36.9036H99.647V40.8131C99.647 40.8085 99.6287 40.7733 99.5892 40.709C99.5466 40.6387 99.4827 40.5576 99.39 40.4596C99.2957 40.3617 99.171 40.2622 99.0128 40.1628C98.8561 40.0649 98.6615 39.9807 98.4257 39.9134C98.1915 39.8491 97.9163 39.8139 97.5954 39.8124C97.1482 39.8139 96.7558 39.8858 96.4167 40.0281C96.076 40.172 95.784 40.3648 95.5376 40.6081C95.2928 40.8544 95.0874 41.1314 94.9247 41.442C94.7589 41.7541 94.6266 42.0801 94.5323 42.4243C94.435 42.7656 94.3666 43.1053 94.324 43.4404C94.2829 43.7755 94.2647 44.0922 94.2647 44.386C94.2647 44.8588 94.2981 45.3148 94.3711 45.7555C94.4456 46.1931 94.5612 46.6017 94.7194 46.975C94.8806 47.3514 95.0844 47.6758 95.343 47.9543C95.5969 48.2359 95.9087 48.4485 96.2722 48.6C96.6372 48.7515 97.063 48.825 97.5467 48.8173C97.8554 48.8143 98.1368 48.7745 98.3877 48.6934C98.6371 48.6107 98.8714 48.4975 99.0873 48.3491C99.3063 48.2037 99.5177 48.0278 99.7261 47.8334V48.6903H101.337ZM90.8762 46.1013C90.8731 46.3125 90.8245 46.5007 90.7271 46.6629C90.6328 46.8266 90.5005 46.9674 90.3378 47.0852C90.1751 47.2015 89.991 47.2979 89.7872 47.3713C89.6747 47.4188 89.5576 47.4509 89.4405 47.4723C89.3219 47.4922 89.2215 47.4999 89.1394 47.4999C88.858 47.4999 88.6025 47.4509 88.3744 47.3514C88.1478 47.2504 87.9668 47.0959 87.8329 46.8863C87.6945 46.6736 87.6276 46.4027 87.6246 46.0692C87.6246 45.9865 87.6291 45.8978 87.6367 45.8029C87.6474 45.705 87.6641 45.6178 87.6869 45.5459C87.7691 45.2811 87.9105 45.0654 88.1189 44.8986C88.3242 44.7318 88.5797 44.6109 88.8869 44.5329C89.1956 44.4549 89.5424 44.4181 89.9287 44.4181C90.1051 44.4181 90.2633 44.4243 90.4062 44.4426C90.5507 44.4564 90.6633 44.4732 90.7469 44.4885C90.8321 44.5023 90.8731 44.5099 90.8762 44.513V46.1013ZM92.5659 48.6903V42.989C92.5689 42.6095 92.5476 42.2836 92.5081 42.0112C92.4655 41.7373 92.3925 41.494 92.2875 41.2798C92.1811 41.0625 92.032 40.8544 91.8389 40.6524C91.5879 40.3877 91.2473 40.1766 90.8169 40.0205C90.3849 39.8644 89.8587 39.7818 89.2352 39.7787C88.8641 39.7818 88.5371 39.8124 88.2527 39.869C87.9713 39.9241 87.7326 39.9929 87.5394 40.0649C87.3508 40.1398 87.2063 40.2056 87.109 40.2622C87.0117 40.3189 86.9615 40.3495 86.9615 40.351L86.6619 41.8765C86.6619 41.8704 86.709 41.8306 86.8033 41.7572C86.8961 41.6807 87.0345 41.5935 87.2216 41.4894C87.4086 41.39 87.6367 41.2982 87.9135 41.2201C88.1903 41.1405 88.5082 41.0916 88.8717 41.0824C89.3279 41.0839 89.6945 41.1344 89.9743 41.2354C90.2511 41.3318 90.4534 41.468 90.5766 41.6378C90.6906 41.7832 90.7652 41.9316 90.8077 42.0831C90.8503 42.2361 90.8731 42.3815 90.8762 42.5223C90.8792 42.663 90.8792 42.7855 90.8762 42.8926V43.3363C90.8731 43.3363 90.8321 43.3287 90.7454 43.3164C90.6587 43.3027 90.5416 43.2919 90.3925 43.2782C90.242 43.2659 90.0747 43.2583 89.8815 43.2583C89.553 43.2583 89.2215 43.2782 88.8899 43.3256C88.5553 43.3715 88.236 43.448 87.9272 43.5536C87.617 43.6576 87.3326 43.8015 87.074 43.9759C86.814 44.1504 86.5934 44.3676 86.4079 44.6247C86.2634 44.8389 86.1539 45.047 86.0824 45.2567C86.0094 45.4632 85.9623 45.6514 85.9379 45.8228C85.9106 45.9957 85.9014 46.1365 85.903 46.2451C85.9014 46.4242 85.9212 46.6261 85.9668 46.848C86.0094 47.0684 86.0824 47.2933 86.1874 47.5152C86.2923 47.7401 86.4383 47.9497 86.6223 48.141C86.8094 48.3323 87.0421 48.4883 87.3265 48.6107C87.6094 48.7332 87.95 48.802 88.35 48.8173C88.7774 48.825 89.1546 48.7775 89.4907 48.6735C89.8237 48.571 90.1157 48.4256 90.3637 48.2359C90.6116 48.0431 90.8184 47.8197 90.9872 47.5626V48.0706C90.9842 48.1532 90.9902 48.2359 91.0024 48.32C91.0161 48.4072 91.0526 48.4807 91.1134 48.548C91.1636 48.6 91.226 48.6352 91.302 48.6551C91.3796 48.6735 91.4511 48.6842 91.518 48.6873C91.5879 48.6903 91.6366 48.6903 91.6655 48.6903H92.5659ZM82.627 45.1801C82.627 45.4969 82.5875 45.7647 82.5114 45.985C82.4339 46.2038 82.3198 46.3783 82.1693 46.5144C81.9928 46.6858 81.7875 46.8052 81.5563 46.874C81.3221 46.9429 81.0849 46.9857 80.8431 46.9964C80.5982 47.0071 80.3716 47.0087 80.1632 47.0071H78.4903V43.4006H80.1632C80.4294 43.3975 80.6879 43.4067 80.9404 43.4266C81.1959 43.448 81.4301 43.497 81.6461 43.5704C81.8605 43.6454 82.0461 43.7648 82.2012 43.9254C82.3381 44.0738 82.44 44.2513 82.513 44.4564C82.5905 44.6614 82.627 44.9017 82.627 45.1801ZM82.2012 40.1934C82.1981 40.5208 82.1434 40.7917 82.0354 41.0013C81.9274 41.214 81.7875 41.3777 81.6187 41.4971C81.4499 41.6195 81.2765 41.7036 81.0925 41.7587C80.9085 41.8123 80.7396 41.8475 80.5845 41.8597C80.4294 41.8735 80.3077 41.8781 80.2271 41.8765H78.4903V38.5393H80.2271C80.2955 38.5378 80.3898 38.5393 80.5054 38.5454C80.6241 38.5485 80.7503 38.5622 80.8872 38.5821C81.021 38.602 81.1564 38.6357 81.2856 38.6801C81.4134 38.726 81.5244 38.7918 81.6156 38.8729C81.8149 39.0198 81.9609 39.1988 82.0567 39.4084C82.1525 39.615 82.2012 39.8766 82.2012 40.1934ZM84.6315 45.148C84.6315 44.9231 84.6102 44.7012 84.56 44.4793C84.5144 44.2559 84.4353 44.0417 84.3243 43.8367C84.2133 43.6316 84.0627 43.4434 83.8741 43.2736C83.643 43.0624 83.3875 42.9063 83.1107 42.8008C82.8323 42.6937 82.551 42.6202 82.2635 42.5743C82.4567 42.5116 82.6422 42.432 82.8263 42.3371C83.0133 42.2407 83.1852 42.1321 83.3433 42.0081C83.5 41.8842 83.6354 41.745 83.7479 41.5904C83.8848 41.3701 83.9958 41.1161 84.0764 40.8284C84.1601 40.5392 84.2026 40.2056 84.2057 39.8277C84.2026 39.3977 84.1342 39.0198 83.9973 38.6938C83.8635 38.3679 83.6795 38.0925 83.4498 37.8676C83.2217 37.6426 82.9616 37.4712 82.6742 37.3488C82.3137 37.1882 81.9381 37.078 81.5427 37.026C81.1503 36.9724 80.7214 36.9449 80.259 36.9525H76.5801V48.6903H80.2271C80.5085 48.6934 80.8035 48.6842 81.1107 48.6674C81.4195 48.6475 81.7267 48.6107 82.0324 48.5495C82.3396 48.4883 82.6346 48.3935 82.916 48.2665C83.1973 48.1425 83.4528 47.9711 83.6855 47.7539C83.935 47.5014 84.1296 47.2321 84.2665 46.9429C84.4064 46.6537 84.4992 46.3568 84.5555 46.0539C84.6072 45.7494 84.6346 45.4479 84.6315 45.148ZM266.823 48.6903V42.8604C266.825 42.5957 266.811 42.3341 266.782 42.0801C266.756 41.8261 266.7 41.5812 266.619 41.3471C266.536 41.1145 266.414 40.8911 266.254 40.6846C266.038 40.3831 265.754 40.1628 265.398 40.0205C265.044 39.8797 264.63 39.8093 264.154 39.8124C263.783 39.817 263.462 39.869 263.185 39.973C262.91 40.0756 262.68 40.2026 262.492 40.354C262.305 40.5025 262.159 40.6509 262.054 40.7963C261.949 40.9416 261.88 41.0579 261.848 41.1451V40.0021H260.16V48.6903H261.848V43.3363C261.845 43.1558 261.861 42.9553 261.885 42.7426C261.909 42.5269 261.964 42.3142 262.048 42.1061C262.133 41.8964 262.262 41.7082 262.432 41.543C262.58 41.4037 262.744 41.3012 262.927 41.2278C263.111 41.1513 263.328 41.1145 263.587 41.1145C263.962 41.1161 264.256 41.1773 264.473 41.2936C264.688 41.4114 264.843 41.569 264.943 41.7679C265.044 41.9653 265.106 42.1887 265.13 42.4351C265.156 42.6814 265.17 42.9308 265.164 43.194V48.6903H266.823ZM258.13 40.0021H256.457V48.6903H258.13V40.0021ZM258.273 37.7773C258.27 37.609 258.227 37.459 258.141 37.3335C258.054 37.2081 257.938 37.1101 257.788 37.0413C257.639 36.9724 257.47 36.9357 257.278 36.9357C257.087 36.9388 256.918 36.9785 256.772 37.0581C256.626 37.1361 256.51 37.2402 256.428 37.3672C256.344 37.4942 256.3 37.6319 256.299 37.7773C256.299 37.9471 256.335 38.1001 256.41 38.2333C256.484 38.3679 256.591 38.472 256.735 38.5485C256.881 38.625 257.061 38.6648 257.278 38.6678C257.474 38.6648 257.646 38.625 257.797 38.5485C257.943 38.472 258.058 38.3679 258.144 38.2333C258.227 38.1001 258.27 37.9471 258.273 37.7773ZM254.491 48.6903V42.8926C254.494 42.6906 254.481 42.4718 254.462 42.2315C254.44 41.9913 254.396 41.748 254.328 41.5063C254.259 41.2584 254.156 41.0258 254.018 40.8039C253.879 40.5805 253.697 40.3877 253.465 40.224C253.248 40.0756 253.012 39.9669 252.754 39.9027C252.498 39.8399 252.246 39.8093 251.996 39.8124C251.654 39.8139 251.348 39.8613 251.085 39.9516C250.822 40.0404 250.597 40.1521 250.404 40.2883C250.214 40.426 250.059 40.5622 249.936 40.7029C249.812 40.8437 249.72 40.9646 249.657 41.0702C249.593 41.1773 249.557 41.2446 249.549 41.2721C249.539 41.2278 249.51 41.1451 249.46 41.0288C249.406 40.9126 249.33 40.7825 249.222 40.6371C249.117 40.4902 248.98 40.354 248.807 40.224C248.656 40.1245 248.498 40.0434 248.328 39.9838C248.158 39.9225 247.986 39.8766 247.812 39.8506C247.642 39.8246 247.478 39.8124 247.323 39.8124C246.961 39.8139 246.646 39.8644 246.377 39.9593C246.109 40.0557 245.884 40.1766 245.7 40.3219C245.517 40.4673 245.373 40.6157 245.268 40.7703C245.16 40.9233 245.089 41.0579 245.049 41.1773V40.0021H243.376V48.6903H245.049V43.37C245.052 43.0073 245.078 42.709 245.134 42.4748C245.189 42.2407 245.262 42.051 245.355 41.9056C245.443 41.7587 245.542 41.6409 245.65 41.543C245.773 41.4206 245.914 41.3257 246.073 41.2522C246.232 41.1819 246.418 41.1451 246.629 41.1451C246.883 41.1451 247.092 41.1742 247.247 41.2354C247.402 41.2936 247.533 41.3731 247.638 41.4787C247.764 41.5935 247.864 41.7266 247.939 41.8811C248.012 42.0342 248.065 42.2178 248.097 42.432C248.127 42.6462 248.144 42.9018 248.144 43.194V48.6903H249.786V43.37C249.782 43.1649 249.788 42.9584 249.806 42.7441C249.823 42.5284 249.87 42.3203 249.949 42.1153C250.028 41.9087 250.158 41.7174 250.339 41.543C250.475 41.4068 250.628 41.3058 250.802 41.2446C250.971 41.1773 251.149 41.1451 251.332 41.1451C251.539 41.1405 251.724 41.162 251.893 41.2033C252.062 41.2446 252.217 41.3303 252.358 41.4634C252.478 41.5843 252.562 41.6991 252.617 41.8062C252.675 41.9133 252.71 42.0005 252.723 42.0663C252.743 42.1428 252.764 42.2407 252.784 42.3631C252.804 42.4825 252.818 42.6171 252.83 42.761C252.843 42.9063 252.848 43.0486 252.848 43.194V48.6903H254.491ZM239.72 46.1013C239.717 46.3125 239.667 46.5007 239.571 46.6629C239.475 46.8266 239.344 46.9674 239.18 47.0852C239.017 47.2015 238.833 47.2979 238.631 47.3713C238.517 47.4188 238.403 47.4509 238.283 47.4723C238.166 47.4922 238.067 47.4999 237.983 47.4999C237.702 47.4999 237.446 47.4509 237.218 47.3514C236.991 47.2504 236.81 47.0959 236.677 46.8863C236.538 46.6736 236.471 46.4027 236.468 46.0692C236.468 45.9865 236.473 45.8978 236.482 45.8029C236.491 45.705 236.508 45.6178 236.531 45.5459C236.613 45.2811 236.756 45.0654 236.963 44.8986C237.168 44.7318 237.423 44.6109 237.731 44.5329C238.039 44.4549 238.386 44.4181 238.774 44.4181C238.949 44.4181 239.107 44.4243 239.25 44.4426C239.394 44.4564 239.507 44.4732 239.592 44.4885C239.676 44.5023 239.717 44.5099 239.72 44.513V46.1013ZM241.41 48.6903V42.989C241.413 42.6095 241.391 42.2836 241.352 42.0112C241.309 41.7373 241.236 41.494 241.131 41.2798C241.026 41.0625 240.876 40.8544 240.683 40.6524C240.43 40.3877 240.091 40.1766 239.659 40.0205C239.229 39.8644 238.702 39.7818 238.077 39.7787C237.708 39.7818 237.381 39.8124 237.096 39.869C236.815 39.9241 236.576 39.9929 236.385 40.0649C236.195 40.1398 236.05 40.2056 235.953 40.2622C235.855 40.3189 235.805 40.3495 235.805 40.351L235.506 41.8765C235.506 41.8704 235.553 41.8306 235.647 41.7572C235.74 41.6807 235.878 41.5935 236.065 41.4894C236.252 41.39 236.482 41.2982 236.757 41.2201C237.034 41.1405 237.352 41.0916 237.715 41.0824C238.172 41.0839 238.54 41.1344 238.818 41.2354C239.095 41.3318 239.296 41.468 239.42 41.6378C239.534 41.7832 239.61 41.9316 239.651 42.0831C239.694 42.2361 239.717 42.3815 239.72 42.5223C239.723 42.663 239.723 42.7855 239.72 42.8926V43.3363C239.717 43.3363 239.676 43.3287 239.589 43.3164C239.501 43.3027 239.385 43.2919 239.236 43.2782C239.086 43.2659 238.918 43.2583 238.725 43.2583C238.397 43.2583 238.067 43.2782 237.734 43.3256C237.399 43.3715 237.078 43.448 236.769 43.5536C236.461 43.6576 236.176 43.8015 235.918 43.9759C235.658 44.1504 235.436 44.3676 235.253 44.6247C235.107 44.8389 234.998 45.047 234.926 45.2567C234.852 45.4632 234.806 45.6514 234.782 45.8228C234.754 45.9957 234.745 46.1365 234.747 46.2451C234.745 46.4242 234.765 46.6261 234.811 46.848C234.852 47.0684 234.926 47.2933 235.031 47.5152C235.136 47.7401 235.282 47.9497 235.465 48.141C235.653 48.3323 235.886 48.4883 236.17 48.6107C236.452 48.7332 236.794 48.802 237.195 48.8173C237.621 48.825 238 48.7775 238.334 48.6735C238.667 48.571 238.959 48.4256 239.207 48.2359C239.455 48.0431 239.662 47.8197 239.831 47.5626V48.0706C239.828 48.1532 239.834 48.2359 239.848 48.32C239.86 48.4072 239.896 48.4807 239.957 48.548C240.007 48.6 240.07 48.6352 240.147 48.6551C240.223 48.6735 240.293 48.6842 240.362 48.6873C240.43 48.6903 240.48 48.6903 240.509 48.6903H241.41ZM233.271 44.4181V36.9525H231.329V44.4181C231.331 44.6844 231.323 44.9583 231.308 45.2398C231.293 45.5168 231.255 45.7861 231.197 46.0432C231.141 46.3033 231.053 46.5328 230.934 46.7363C230.768 46.9842 230.554 47.1739 230.297 47.304C230.037 47.4325 229.734 47.4999 229.386 47.4999C229.129 47.4968 228.888 47.4708 228.666 47.4188C228.443 47.3698 228.245 47.3086 228.073 47.2413C227.904 47.1739 227.767 47.1143 227.672 47.0561C227.571 47.001 227.518 46.9689 227.507 46.9597L227.935 48.6582C227.935 48.6612 227.977 48.6827 228.061 48.724C228.145 48.7668 228.263 48.8173 228.42 48.8739C228.578 48.929 228.771 48.9795 228.995 49.0224C229.215 49.0637 229.468 49.0851 229.749 49.0866C229.86 49.0897 230.009 49.0851 230.198 49.0713C230.386 49.0591 230.598 49.0269 230.826 48.9765C231.054 48.926 231.284 48.8464 231.515 48.7377C231.745 48.6291 231.957 48.4807 232.149 48.2925C232.347 48.1058 232.516 47.8992 232.657 47.6712C232.8 47.4432 232.916 47.1785 233.007 46.8801C233.097 46.5818 233.163 46.2314 233.208 45.8289C233.25 45.4265 233.271 44.9552 233.271 44.4181ZM283.732 48.6903V42.8604C283.735 42.5957 283.721 42.3341 283.693 42.0801C283.667 41.8261 283.61 41.5812 283.53 41.3471C283.446 41.1145 283.325 40.8911 283.163 40.6846C282.947 40.3831 282.663 40.1628 282.309 40.0205C281.953 39.8797 281.541 39.8093 281.065 39.8124C280.693 39.817 280.373 39.869 280.096 39.973C279.819 40.0756 279.591 40.2026 279.401 40.354C279.215 40.5025 279.069 40.6509 278.964 40.7963C278.859 40.9416 278.791 41.0579 278.759 41.1451V40.0021H277.069V48.6903H278.759V43.3363C278.756 43.1558 278.77 42.9553 278.795 42.7426C278.82 42.5269 278.874 42.3142 278.958 42.1061C279.043 41.8964 279.173 41.7082 279.343 41.543C279.49 41.4037 279.653 41.3012 279.839 41.2278C280.02 41.1513 280.237 41.1145 280.496 41.1145C280.873 41.1161 281.166 41.1773 281.382 41.2936C281.598 41.4114 281.753 41.569 281.852 41.7679C281.953 41.9653 282.015 42.1887 282.039 42.4351C282.067 42.6814 282.079 42.9308 282.076 43.194V48.6903H283.732ZM273.447 46.1013C273.443 46.3125 273.393 46.5007 273.294 46.6629C273.202 46.8266 273.069 46.9674 272.907 47.0852C272.744 47.2015 272.558 47.2979 272.356 47.3713C272.244 47.4188 272.126 47.4509 272.009 47.4723C271.891 47.4922 271.79 47.4999 271.708 47.4999C271.427 47.4999 271.171 47.4509 270.943 47.3514C270.718 47.2504 270.536 47.0959 270.4 46.8863C270.265 46.6736 270.196 46.4027 270.193 46.0692C270.193 45.9865 270.198 45.8978 270.206 45.8029C270.218 45.705 270.233 45.6178 270.257 45.5459C270.338 45.2811 270.479 45.0654 270.689 44.8986C270.893 44.7318 271.149 44.6109 271.456 44.5329C271.763 44.4549 272.111 44.4181 272.498 44.4181C272.675 44.4181 272.834 44.4243 272.975 44.4426C273.12 44.4564 273.234 44.4732 273.317 44.4885C273.401 44.5023 273.443 44.5099 273.447 44.513V46.1013ZM275.135 48.6903V42.989C275.138 42.6095 275.116 42.2836 275.077 42.0112C275.036 41.7373 274.961 41.494 274.855 41.2798C274.751 41.0625 274.601 40.8544 274.409 40.6524C274.155 40.3877 273.818 40.1766 273.386 40.0205C272.954 39.8644 272.428 39.7818 271.804 39.7787C271.433 39.7818 271.106 39.8124 270.822 39.869C270.54 39.9241 270.301 39.9929 270.11 40.0649C269.92 40.1398 269.775 40.2056 269.678 40.2622C269.581 40.3189 269.53 40.3495 269.53 40.351L269.231 41.8765C269.231 41.8704 269.278 41.8306 269.374 41.7572C269.465 41.6807 269.605 41.5935 269.79 41.4894C269.979 41.39 270.206 41.2982 270.482 41.2201C270.759 41.1405 271.077 41.0916 271.441 41.0824C271.895 41.0839 272.265 41.1344 272.543 41.2354C272.82 41.3318 273.022 41.468 273.145 41.6378C273.259 41.7832 273.336 41.9316 273.378 42.0831C273.419 42.2361 273.443 42.3815 273.447 42.5223C273.448 42.663 273.448 42.7855 273.447 42.8926V43.3363C273.443 43.3363 273.401 43.3287 273.314 43.3164C273.228 43.3027 273.112 43.2919 272.961 43.2782C272.811 43.2659 272.644 43.2583 272.452 43.2583C272.122 43.2583 271.79 43.2782 271.459 43.3256C271.126 43.3715 270.805 43.448 270.496 43.5536C270.186 43.6576 269.901 43.8015 269.643 43.9759C269.383 44.1504 269.162 44.3676 268.978 44.6247C268.834 44.8389 268.723 45.047 268.651 45.2567C268.578 45.4632 268.531 45.6514 268.507 45.8228C268.481 45.9957 268.47 46.1365 268.473 46.2451C268.47 46.4242 268.492 46.6261 268.534 46.848C268.578 47.0684 268.651 47.2933 268.756 47.5152C268.861 47.7401 269.007 47.9497 269.191 48.141C269.378 48.3323 269.612 48.4883 269.897 48.6107C270.177 48.7332 270.519 48.802 270.92 48.8173C271.346 48.825 271.725 48.7775 272.06 48.6735C272.394 48.571 272.686 48.4256 272.932 48.2359C273.18 48.0431 273.389 47.8197 273.556 47.5626V48.0706C273.553 48.1532 273.559 48.2359 273.571 48.32C273.586 48.4072 273.621 48.4807 273.682 48.548C273.732 48.6 273.795 48.6352 273.872 48.6551C273.947 48.6735 274.02 48.6842 274.087 48.6873C274.155 48.6903 274.207 48.6903 274.234 48.6903H275.135ZM327.784 36.9036H326.143V48.6903H327.784V36.9036ZM322.361 46.1013C322.357 46.3125 322.307 46.5007 322.21 46.6629C322.116 46.8266 321.983 46.9674 321.821 47.0852C321.658 47.2015 321.474 47.2979 321.272 47.3713C321.159 47.4188 321.042 47.4509 320.925 47.4723C320.805 47.4922 320.704 47.4999 320.624 47.4999C320.342 47.4999 320.087 47.4509 319.857 47.3514C319.632 47.2504 319.45 47.0959 319.316 46.8863C319.18 46.6736 319.11 46.4027 319.107 46.0692C319.107 45.9865 319.113 45.8978 319.121 45.8029C319.132 45.705 319.147 45.6178 319.171 45.5459C319.253 45.2811 319.395 45.0654 319.602 44.8986C319.808 44.7318 320.064 44.6109 320.371 44.5329C320.678 44.4549 321.027 44.4181 321.413 44.4181C321.589 44.4181 321.746 44.4243 321.889 44.4426C322.033 44.4564 322.148 44.4732 322.231 44.4885C322.315 44.5023 322.357 44.5099 322.361 44.513V46.1013ZM324.049 48.6903V42.989C324.052 42.6095 324.032 42.2836 323.992 42.0112C323.948 41.7373 323.875 41.494 323.77 41.2798C323.665 41.0625 323.515 40.8544 323.323 40.6524C323.071 40.3877 322.732 40.1766 322.3 40.0205C321.868 39.8644 321.342 39.7818 320.718 39.7787C320.348 39.7818 320.021 39.8124 319.736 39.869C319.456 39.9241 319.215 39.9929 319.024 40.0649C318.835 40.1398 318.689 40.2056 318.592 40.2622C318.494 40.3189 318.446 40.3495 318.446 40.351L318.145 41.8765C318.145 41.8704 318.193 41.8306 318.286 41.7572C318.379 41.6807 318.519 41.5935 318.706 41.4894C318.891 41.39 319.121 41.2982 319.398 41.2201C319.673 41.1405 319.991 41.0916 320.354 41.0824C320.811 41.0839 321.179 41.1344 321.457 41.2354C321.734 41.3318 321.936 41.468 322.059 41.6378C322.173 41.7832 322.249 41.9316 322.292 42.0831C322.335 42.2361 322.357 42.3815 322.361 42.5223C322.364 42.663 322.364 42.7855 322.361 42.8926V43.3363C322.357 43.3363 322.315 43.3287 322.228 43.3164C322.141 43.3027 322.026 43.2919 321.877 43.2782C321.726 43.2659 321.557 43.2583 321.366 43.2583C321.036 43.2583 320.704 43.2782 320.373 43.3256C320.04 43.3715 319.719 43.448 319.412 43.5536C319.1 43.6576 318.817 43.8015 318.557 43.9759C318.298 44.1504 318.076 44.3676 317.892 44.6247C317.748 44.8389 317.638 45.047 317.567 45.2567C317.492 45.4632 317.445 45.6514 317.421 45.8228C317.395 45.9957 317.384 46.1365 317.386 46.2451C317.384 46.4242 317.406 46.6261 317.451 46.848C317.492 47.0684 317.567 47.2933 317.67 47.5152C317.777 47.7401 317.921 47.9497 318.105 48.141C318.292 48.3323 318.526 48.4883 318.811 48.6107C319.092 48.7332 319.434 48.802 319.833 48.8173C320.26 48.825 320.64 48.7775 320.973 48.6735C321.308 48.571 321.6 48.4256 321.846 48.2359C322.094 48.0431 322.303 47.8197 322.472 47.5626V48.0706C322.468 48.1532 322.475 48.2359 322.487 48.32C322.5 48.4072 322.537 48.4807 322.598 48.548C322.646 48.6 322.71 48.6352 322.786 48.6551C322.862 48.6735 322.934 48.6842 323.002 48.6873C323.071 48.6903 323.121 48.6903 323.15 48.6903H324.049ZM315.705 40.0021H314.032V48.6903H315.705V40.0021ZM315.847 37.7773C315.845 37.609 315.803 37.459 315.716 37.3335C315.629 37.2081 315.514 37.1101 315.363 37.0413C315.212 36.9724 315.044 36.9357 314.852 36.9357C314.66 36.9388 314.493 36.9785 314.347 37.0581C314.2 37.1361 314.085 37.2402 314.003 37.3672C313.918 37.4942 313.876 37.6319 313.874 37.7773C313.874 37.9471 313.911 38.1001 313.985 38.2333C314.057 38.3679 314.166 38.472 314.309 38.5485C314.455 38.625 314.636 38.6648 314.852 38.6678C315.05 38.6648 315.22 38.625 315.371 38.5485C315.518 38.472 315.634 38.3679 315.719 38.2333C315.803 38.1001 315.845 37.9471 315.847 37.7773ZM312.413 46.2283C312.408 45.806 312.315 45.4449 312.131 45.1434C311.95 44.8389 311.702 44.5788 311.389 44.36C311.076 44.1412 310.724 43.9484 310.329 43.7816C310.137 43.7036 309.94 43.6179 309.736 43.5276C309.537 43.4388 309.35 43.3363 309.176 43.2216C309.003 43.1068 308.863 42.9752 308.758 42.8268C308.65 42.6753 308.594 42.5024 308.592 42.305C308.594 41.9531 308.715 41.6822 308.95 41.494C309.187 41.3058 309.521 41.2109 309.949 41.2094C310.296 41.2033 310.595 41.2354 310.852 41.2982C311.111 41.3655 311.325 41.442 311.5 41.5292C311.67 41.6195 311.803 41.6991 311.889 41.7679C311.976 41.8368 312.019 41.8704 312.019 41.8765L311.781 40.4459C311.781 40.4443 311.743 40.4122 311.666 40.354C311.587 40.2928 311.46 40.2255 311.287 40.1505C311.112 40.0756 310.884 40.0098 310.603 39.9562C310.321 39.9027 309.976 39.8828 309.572 39.8904C309.194 39.8904 308.842 39.9394 308.513 40.0434C308.186 40.1444 307.9 40.2944 307.651 40.4964C307.401 40.6953 307.207 40.9416 307.068 41.2385C306.93 41.5323 306.858 41.8704 306.855 42.256C306.858 42.6539 306.93 42.9905 307.062 43.272C307.197 43.549 307.375 43.7846 307.597 43.979C307.818 44.1702 308.063 44.3386 308.329 44.4793C308.594 44.6155 308.861 44.7425 309.123 44.8588C309.389 44.9797 309.634 45.0975 309.854 45.2245C310.076 45.3515 310.256 45.4969 310.388 45.6637C310.524 45.8305 310.595 46.034 310.597 46.2773C310.597 46.6736 310.473 46.9643 310.226 47.154C309.979 47.3423 309.602 47.4386 309.097 47.4356C308.794 47.4295 308.499 47.3897 308.213 47.3116C307.929 47.2321 307.667 47.1418 307.439 47.0393C307.21 46.9352 307.027 46.845 306.889 46.7654C306.755 46.6858 306.683 46.6476 306.682 46.6414L306.918 48.2925C307.029 48.3598 307.187 48.4394 307.395 48.5296C307.605 48.6184 307.874 48.6964 308.2 48.7622C308.527 48.825 308.921 48.854 309.381 48.8494C309.826 48.8494 310.239 48.7837 310.626 48.6475C311.01 48.5159 311.353 48.3185 311.655 48.0538C311.886 47.8564 312.07 47.6039 312.206 47.2979C312.341 46.9903 312.41 46.6323 312.413 46.2283ZM303.721 44.4181C303.721 45.0317 303.655 45.5657 303.523 46.0263C303.392 46.49 303.189 46.848 302.919 47.1066C302.647 47.3637 302.305 47.4953 301.888 47.4999C301.418 47.5014 301.033 47.3927 300.737 47.1739C300.442 46.9536 300.227 46.6185 300.089 46.1625C299.951 45.7065 299.882 45.1235 299.885 44.4181C299.882 43.9866 299.905 43.5704 299.958 43.1787C300.01 42.7855 300.106 42.432 300.247 42.1229C300.389 41.8123 300.592 41.569 300.859 41.39C301.12 41.2094 301.465 41.1161 301.888 41.1145C302.223 41.1222 302.5 41.1926 302.723 41.3257C302.945 41.4573 303.123 41.6348 303.258 41.8597C303.392 42.0831 303.493 42.3371 303.557 42.6171C303.625 42.9018 303.671 43.194 303.692 43.5031C303.713 43.8122 303.724 44.1152 303.721 44.4181ZM305.505 44.386C305.508 43.9071 305.47 43.4434 305.394 42.9982C305.318 42.5513 305.198 42.1367 305.026 41.7541C304.855 41.3731 304.632 41.0365 304.349 40.7473C304.068 40.4596 303.721 40.2347 303.31 40.0694C302.9 39.9072 302.416 39.8185 301.858 39.8124C301.304 39.8139 300.824 39.895 300.405 40.0557C299.99 40.2179 299.634 40.4382 299.342 40.7274C299.047 41.012 298.81 41.3486 298.627 41.7327C298.445 42.1168 298.311 42.533 298.226 42.9828C298.142 43.4327 298.101 43.9009 298.101 44.386C298.098 45.0516 298.164 45.6545 298.3 46.1962C298.434 46.7394 298.647 47.2061 298.942 47.5963C299.237 47.9864 299.627 48.2879 300.106 48.4975C300.585 48.7102 301.169 48.8143 301.858 48.8173C302.434 48.8204 302.95 48.7102 303.4 48.4807C303.853 48.2573 304.233 47.9375 304.547 47.532C304.857 47.1219 305.097 46.6522 305.26 46.1135C305.424 45.578 305.505 45.0026 305.505 44.386ZM296.892 45.3071C296.892 44.9277 296.834 44.588 296.723 44.285C296.611 43.982 296.453 43.7081 296.244 43.4648C296.024 43.194 295.771 42.9584 295.487 42.761C295.202 42.5636 294.906 42.3892 294.596 42.2392C294.282 42.0877 293.974 41.9439 293.671 41.8153C293.365 41.6838 293.085 41.5506 292.821 41.4129C292.561 41.2767 292.34 41.1252 292.155 40.9539C292.045 40.8391 291.962 40.7289 291.898 40.6295C291.835 40.527 291.791 40.4198 291.767 40.3112C291.739 40.2026 291.729 40.0832 291.729 39.9531C291.727 39.7343 291.776 39.5171 291.876 39.2998C291.978 39.0825 292.15 38.8912 292.392 38.7306C292.558 38.6204 292.771 38.5362 293.038 38.4796C293.303 38.423 293.624 38.3985 294.002 38.3985C294.203 38.3985 294.396 38.4108 294.587 38.4398C294.778 38.4658 294.958 38.498 295.123 38.5393C295.371 38.5928 295.578 38.651 295.747 38.7107C295.916 38.7703 296.044 38.827 296.136 38.8759C296.231 38.9279 296.287 38.9601 296.308 38.9846L295.913 37.3014C295.911 37.2907 295.864 37.2616 295.771 37.2172C295.678 37.1683 295.534 37.1163 295.341 37.0581C295.148 37.003 294.895 36.9525 294.587 36.9066C294.276 36.8638 293.902 36.8439 293.466 36.8393C293.13 36.8378 292.795 36.8668 292.468 36.928C292.143 36.9892 291.826 37.0872 291.527 37.2249C291.227 37.3611 290.946 37.5447 290.687 37.7773C290.456 37.9793 290.272 38.1996 290.129 38.4322C289.987 38.6648 289.884 38.9065 289.819 39.1514C289.756 39.3977 289.724 39.6441 289.724 39.8904C289.721 40.1674 289.75 40.4413 289.806 40.7029C289.861 40.9676 289.955 41.214 290.088 41.4481C290.243 41.7082 290.435 41.9347 290.669 42.129C290.903 42.3203 291.165 42.4947 291.447 42.6493C291.735 42.8023 292.031 42.9507 292.337 43.093C292.646 43.2369 292.95 43.3883 293.25 43.5475C293.551 43.7081 293.834 43.8933 294.097 44.0999C294.266 44.2238 294.406 44.3539 294.518 44.487C294.632 44.6171 294.716 44.7655 294.772 44.9261C294.825 45.0868 294.856 45.272 294.856 45.4816C294.856 45.8044 294.792 46.0768 294.666 46.3033C294.541 46.5267 294.349 46.7241 294.097 46.8954C293.969 46.9903 293.815 47.0622 293.639 47.1158C293.463 47.1678 293.286 47.2061 293.108 47.229C292.927 47.2535 292.769 47.2657 292.626 47.2719C292.486 47.278 292.387 47.278 292.328 47.278C292.149 47.278 291.966 47.2657 291.787 47.2459C291.61 47.2229 291.437 47.1984 291.271 47.1648C290.909 47.0944 290.606 47.0255 290.362 46.9536C290.117 46.8863 289.93 46.8266 289.803 46.7792C289.677 46.7302 289.609 46.7088 289.598 46.7042L290.024 48.3567C290.032 48.3598 290.088 48.3843 290.19 48.4363C290.293 48.4868 290.451 48.5465 290.664 48.6107C290.876 48.6765 291.148 48.7362 291.481 48.7867C291.814 48.8357 292.211 48.8617 292.676 48.8648C293.032 48.8678 293.403 48.8387 293.787 48.7775C294.173 48.7179 294.55 48.6123 294.918 48.4639C295.285 48.3139 295.616 48.1058 295.913 47.835C296.211 47.5687 296.447 47.226 296.621 46.8098C296.796 46.3981 296.886 45.8963 296.892 45.3071Z" fill="#2B3078"/>
<path d="M5.30475 25.7236C6.01651 20.7461 10.9654 19.4087 11.4445 14.8672C9.21032 15.8649 6.53817 15.5512 4.58082 13.9231C2.41207 17.8556 2.29496 21.7192 5.30475 25.7236Z" fill="#2B3078"/>
<path d="M14.8688 11.3027C17.401 10.9263 19.5668 9.14063 21.6397 7.3779C24.5096 4.93731 28.5018 1.92597 32.307 2.21823C25.5057 0.106619 18.1493 1.6077 13.6582 4.38798C15.3844 6.31444 15.7874 9.01516 14.8688 11.3027Z" fill="#2B3078"/>
<path d="M47.3741 27.2747C46.6623 32.2507 41.7119 33.5896 41.2344 38.1311C43.467 37.1319 46.1407 37.4456 48.098 39.0752C50.2668 35.1396 50.3839 31.2791 47.3741 27.2747Z" fill="#2B3078"/>
<path d="M37.8093 41.6956C35.2771 42.072 33.1114 43.8577 31.0369 45.6204C28.1686 48.0595 24.1763 51.0723 20.3711 50.7816C27.1724 52.8932 34.5288 51.3906 39.0199 48.6103C37.2937 46.6839 36.8907 43.9816 37.8093 41.6956Z" fill="#2B3078"/>
<path d="M27.1113 5.33547C32.0572 6.05159 33.3879 11.0322 37.9003 11.5127C36.9072 9.26643 37.2205 6.57643 38.8387 4.60865C34.9286 2.42513 31.0899 2.30884 27.1113 5.33547Z" fill="#009F3C"/>
<path d="M41.4434 14.9582C41.819 17.5059 43.5923 19.6849 45.3444 21.772C47.7701 24.6594 50.7632 28.676 50.4742 32.5029C52.573 25.6601 51.0795 18.2603 48.3161 13.7402C46.4014 15.4769 43.7186 15.884 41.4434 14.9582Z" fill="#009F3C"/>
<path d="M25.5672 47.663C20.6214 46.9468 19.2906 41.9662 14.7767 41.4842C15.7698 43.732 15.458 46.422 13.8398 48.3913C17.75 50.5748 21.5886 50.6911 25.5672 47.663Z" fill="#009F3C"/>
<path d="M11.2354 38.0398C10.8598 35.4906 9.08646 33.3116 7.33291 31.226C4.90865 28.3402 1.91559 24.3235 2.20456 20.4951C0.105769 27.3379 1.59926 34.7393 4.36266 39.2578C6.27743 37.5211 8.96175 37.1141 11.2354 38.0398Z" fill="#009F3C"/>
<path d="M47.8006 4.90544C49.9009 7.01858 49.9009 10.4446 47.8006 12.5577C45.7018 14.6709 42.2966 14.6709 40.1963 12.5577C38.096 10.4446 38.096 7.01858 40.1963 4.90544C42.2966 2.7923 45.7018 2.7923 47.8006 4.90544Z" fill="#009F3C"/>
<path d="M12.4827 40.4423C14.5814 42.5554 14.5814 45.9799 12.4827 48.0931C10.3823 50.2047 6.97714 50.2047 4.87683 48.0931C2.77804 45.9799 2.77804 42.5554 4.87683 40.4423C6.97714 38.3292 10.3823 38.3292 12.4827 40.4423Z" fill="#009F3C"/>
<path d="M47.8006 48.0931C45.7018 50.2047 42.2966 50.2047 40.1963 48.0931C38.096 45.9799 38.096 42.5554 40.1963 40.4423C42.2966 38.3292 45.7018 38.3292 47.8006 40.4423C49.9009 42.5554 49.9009 45.9799 47.8006 48.0931Z" fill="#2B3078"/>
<path d="M12.4827 12.5579C10.3823 14.6695 6.97714 14.6695 4.87683 12.5579C2.77804 10.4448 2.77804 7.01722 4.87683 4.90561C6.97714 2.79247 10.3823 2.79247 12.4827 4.90561C14.5814 7.01722 14.5814 10.4448 12.4827 12.5579Z" fill="#2B3078"/>
<path d="M24.0497 31.0596V32.9631H28.629V28.8026L32.5665 32.6311C32.8981 32.9493 32.8707 33.1268 32.8752 33.4222V34.7304C32.8752 34.7488 32.8737 34.7687 32.8737 34.7886V34.8054C32.8722 34.8192 32.8722 34.8345 32.8722 34.8498L32.8707 34.8651C32.8692 34.8835 32.8692 34.9033 32.8676 34.9217L32.8661 34.9263C32.8661 34.9447 32.8646 34.9615 32.8616 34.9783L32.86 34.9967C32.8585 35.0105 32.857 35.0242 32.8555 35.0395L32.8539 35.0518C32.8509 35.0717 32.8494 35.09 32.8463 35.1069L32.8448 35.1206C32.8418 35.1359 32.8387 35.1497 32.8372 35.165L32.8342 35.1803C32.8311 35.1956 32.8281 35.2094 32.8266 35.2247L32.8235 35.2384C32.819 35.2553 32.8159 35.2736 32.8114 35.2905L32.8083 35.3042C32.8053 35.318 32.8022 35.3333 32.7977 35.3471L32.7931 35.3624C32.7901 35.3777 32.7855 35.3945 32.7809 35.4114L32.7794 35.4159C32.7749 35.4343 32.7703 35.4511 32.7642 35.468L32.7597 35.4848C32.7551 35.497 32.7505 35.5108 32.7475 35.5231L32.7414 35.5384C32.7353 35.5552 32.7292 35.5705 32.7247 35.5858L32.7201 35.598C32.7155 35.6103 32.7095 35.6271 32.7034 35.6409L32.6973 35.6577C32.6927 35.6715 32.6882 35.6822 32.6821 35.6944L32.6775 35.7097C32.6699 35.725 32.6623 35.7419 32.6547 35.7572L32.6517 35.7694C32.6441 35.7817 32.6395 35.7954 32.6334 35.8077L32.6243 35.8245C32.6182 35.8352 32.6121 35.8474 32.6076 35.8597L32.6 35.8735C32.5924 35.8888 32.5848 35.9041 32.5756 35.9194L32.568 35.9347C32.5619 35.9454 32.5559 35.9561 32.5498 35.9668L32.5391 35.9852C32.533 35.9959 32.527 36.0051 32.5209 36.0158L32.5118 36.0326C32.5041 36.0448 32.495 36.0601 32.4859 36.0739L32.4737 36.0923C32.4676 36.1015 32.4631 36.1091 32.457 36.1183L32.4433 36.1382C32.4372 36.1474 32.4311 36.1565 32.4235 36.1657L32.4099 36.1871C32.4007 36.1994 32.3931 36.2101 32.384 36.2208L32.3703 36.2407C32.3658 36.2468 32.3581 36.256 32.3536 36.2636L32.3384 36.282C32.3308 36.2912 32.3216 36.3019 32.314 36.3126C32.308 36.3187 32.3019 36.3279 32.2958 36.3356C32.2882 36.3432 32.2821 36.3509 32.2745 36.3616L32.2593 36.3799C32.2517 36.3861 32.2456 36.3937 32.238 36.3998C32.2334 36.4075 32.2274 36.4136 32.2228 36.4197C32.2137 36.4289 32.2045 36.4381 32.1954 36.4488C32.1878 36.4564 32.1802 36.4641 32.1726 36.4717C32.168 36.4779 32.162 36.4855 32.1544 36.4901L32.1361 36.51L32.1163 36.5299C32.1102 36.5345 32.1042 36.5406 32.0981 36.5467H32.0966C32.0859 36.5574 32.0753 36.5681 32.0646 36.5773C32.0585 36.5835 32.0509 36.5911 32.0448 36.5957C32.0372 36.6018 32.0312 36.6079 32.0251 36.6141L32.0053 36.6309L31.9855 36.6492C31.9734 36.66 31.9597 36.6691 31.9475 36.6798L31.9293 36.6936C31.9217 36.6997 31.9156 36.7059 31.908 36.712L31.8882 36.7273C31.8806 36.7319 31.873 36.7365 31.8654 36.7426C31.8593 36.7472 31.8532 36.7518 31.8471 36.7564C31.8319 36.7671 31.8182 36.7778 31.8015 36.7885L31.7863 36.7992C31.7787 36.8053 31.7696 36.8114 31.7604 36.816L31.7437 36.8283C31.7346 36.8329 31.7255 36.839 31.7179 36.8451L31.6996 36.8558C31.6859 36.865 31.6707 36.8742 31.6555 36.8818L31.6357 36.8956C31.6266 36.9017 31.6175 36.9048 31.6099 36.9109L31.5901 36.9216C31.581 36.9262 31.5719 36.9308 31.5643 36.9354L31.5536 36.9415C31.5338 36.9507 31.5171 36.9614 31.4973 36.969L31.4776 36.9813L31.4517 36.9935C31.4441 36.9966 31.4365 36.9997 31.4289 37.0042C31.111 37.1511 30.7582 37.2322 30.3856 37.2322H24.0497V39.1357L19.9996 35.0977L24.0497 31.0596ZM28.629 24.1953H32.7642V28.8026H30.8723L34.8858 32.879L38.8994 28.8026H37.0074V22.428C37.0074 22.0531 36.9268 21.6981 36.7793 21.3783C36.7762 21.3707 36.7717 21.363 36.7686 21.3554L36.7565 21.3294L36.7458 21.3095C36.7367 21.2911 36.7276 21.2728 36.7185 21.2544L36.7124 21.2437C36.7078 21.2345 36.7032 21.2253 36.6972 21.2161L36.6865 21.1963C36.682 21.1886 36.6774 21.1794 36.6728 21.1733L36.6607 21.1503C36.6515 21.135 36.6424 21.1197 36.6333 21.106L36.6226 21.0891C36.6166 21.0784 36.6105 21.0708 36.6044 21.0616L36.5937 21.0448C36.5877 21.0356 36.5831 21.0264 36.577 21.0188L36.5664 21.0035C36.5557 20.9866 36.5451 20.9728 36.5344 20.9575C36.5299 20.953 36.5253 20.9453 36.5207 20.9407C36.5162 20.9331 36.5101 20.9254 36.504 20.9178L36.4888 20.8963C36.4827 20.8887 36.4782 20.8826 36.4721 20.8749L36.4569 20.8581C36.4477 20.8443 36.4371 20.8305 36.4265 20.8198L36.4097 20.7999L36.393 20.78C36.3869 20.7724 36.3808 20.7663 36.3747 20.7602C36.3687 20.7525 36.3626 20.7449 36.3565 20.7403V20.7387C36.3458 20.728 36.3367 20.7158 36.3261 20.7051C36.32 20.7005 36.3139 20.6928 36.3078 20.6867L36.2896 20.6683L36.2698 20.6485C36.2637 20.6408 36.2576 20.6362 36.25 20.6301C36.2424 20.6224 36.2363 20.6148 36.2287 20.6087C36.2196 20.5995 36.209 20.5888 36.1998 20.5796C36.1922 20.575 36.1862 20.5689 36.1816 20.5643C36.1725 20.5566 36.1664 20.5505 36.1588 20.5444L36.1405 20.5291C36.1314 20.5215 36.1238 20.5138 36.1147 20.5077C36.1071 20.5 36.101 20.4939 36.0934 20.4878C36.0827 20.4786 36.0721 20.4725 36.063 20.4633L36.0447 20.4495C36.0371 20.4419 36.028 20.4358 36.0204 20.4312L36.0021 20.4159C35.9915 20.4082 35.9793 20.399 35.9687 20.3929L35.9474 20.3776C35.9383 20.3715 35.9291 20.3638 35.92 20.3577L35.8987 20.3455C35.8911 20.3394 35.8835 20.3332 35.8744 20.3287L35.8546 20.3149C35.8409 20.3072 35.8272 20.2965 35.8135 20.2889L35.7983 20.2797C35.7877 20.2736 35.7786 20.269 35.7679 20.2613L35.7497 20.2506C35.739 20.246 35.7284 20.2384 35.7177 20.2338L35.701 20.2246C35.6873 20.217 35.6721 20.2078 35.6569 20.2017L35.6432 20.194C35.631 20.1864 35.6189 20.1802 35.6067 20.1756L35.5915 20.168C35.5778 20.1619 35.5656 20.1557 35.5535 20.1496L35.5428 20.145C35.5261 20.1374 35.5094 20.1313 35.4942 20.1236L35.479 20.116C35.4668 20.1114 35.4546 20.1083 35.4425 20.1022L35.4257 20.0945C35.412 20.09 35.3968 20.0838 35.3831 20.0777L35.371 20.0746C35.3558 20.0685 35.3406 20.0639 35.3238 20.0578L35.3071 20.0517C35.2949 20.0486 35.2828 20.044 35.2706 20.041L35.2554 20.0364C35.2371 20.0303 35.2189 20.0242 35.2022 20.0196H35.1976C35.1809 20.0134 35.1641 20.0089 35.1489 20.0058L35.1337 20.0012C35.1185 19.9966 35.1048 19.9951 35.0896 19.9905L35.079 19.9874C35.0607 19.9844 35.0425 19.9798 35.0242 19.9767L35.0121 19.9737C34.9968 19.9706 34.9832 19.9675 34.9695 19.9645L34.9512 19.9614C34.9375 19.9599 34.9238 19.9568 34.9086 19.9538L34.8965 19.9522C34.8767 19.9492 34.8584 19.9461 34.8402 19.9446L34.828 19.9431C34.8143 19.9415 34.7976 19.94 34.7839 19.94L34.7672 19.9369C34.7505 19.9354 34.7337 19.9339 34.7155 19.9323H34.7109C34.6912 19.9308 34.6714 19.9293 34.6531 19.9278L34.6379 19.9262C34.6242 19.9262 34.609 19.9247 34.5953 19.9247H34.5771C34.5588 19.9247 34.5391 19.9247 34.5208 19.9247H33.2205C32.9254 19.9278 32.7505 19.9002 32.4342 20.2338L28.629 24.1953ZM24.0497 28.8026H19.916V24.1953H21.8064L17.7929 20.1206L13.7793 24.1953H15.6712V30.57C15.6712 30.9464 15.7534 31.3014 15.8994 31.6212C15.9024 31.6273 15.907 31.6349 15.91 31.6426L15.9222 31.6701L15.9328 31.69C15.942 31.7069 15.9511 31.7268 15.9602 31.7451L15.9663 31.7543C15.9709 31.765 15.9769 31.7742 15.9815 31.7818L15.9922 31.8017C15.9967 31.8109 16.0013 31.8186 16.0074 31.8277L16.0195 31.8492C16.0271 31.8645 16.0363 31.8798 16.0469 31.8935L16.0575 31.9104C16.0621 31.918 16.0682 31.9272 16.0743 31.9364L16.0849 31.9547C16.091 31.9624 16.0971 31.9716 16.1032 31.9792L16.1138 31.9961C16.1229 32.0114 16.1336 32.0251 16.1442 32.0404C16.1488 32.0466 16.1534 32.0527 16.1579 32.0588C16.164 32.0664 16.1686 32.0741 16.1747 32.0817L16.1899 32.1016C16.1959 32.1078 16.2005 32.1154 16.2066 32.1231L16.2218 32.1414C16.2309 32.1537 16.2416 32.1674 16.2537 32.1812L16.2689 32.1996L16.2872 32.2195C16.2933 32.2271 16.2978 32.2317 16.3039 32.2409C16.31 32.2455 16.3161 32.2531 16.3222 32.2592C16.3313 32.2715 16.3419 32.2822 16.3526 32.2929C16.3587 32.299 16.3648 32.3051 16.3708 32.3113L16.3891 32.3296L16.4089 32.3495C16.415 32.3572 16.4226 32.3633 16.4286 32.3694C16.4362 32.3771 16.4423 32.3847 16.4515 32.3908C16.4606 32.4 16.4697 32.4092 16.4803 32.4184C16.4864 32.423 16.4925 32.4291 16.4986 32.4352C16.5062 32.4413 16.5123 32.449 16.5199 32.4551L16.5381 32.4704C16.5457 32.4765 16.5549 32.4842 16.564 32.4903C16.5716 32.4979 16.5792 32.5041 16.5868 32.5102C16.5959 32.5178 16.6066 32.527 16.6172 32.5347L16.6355 32.55C16.6431 32.5546 16.6507 32.5622 16.6583 32.5683L16.6765 32.5821C16.6887 32.5898 16.6994 32.5989 16.71 32.6066L16.7313 32.6204C16.7404 32.628 16.7511 32.6341 16.7587 32.6403L16.78 32.654C16.7876 32.6601 16.7967 32.6647 16.8043 32.6709L16.8241 32.6831C16.8378 32.6923 16.8514 32.7015 16.8651 32.7091L16.8803 32.7183C16.891 32.7244 16.9016 32.7305 16.9108 32.7366L16.929 32.7474C16.9396 32.7535 16.9518 32.7596 16.9609 32.7657L16.9777 32.7734C16.9914 32.781 17.0066 32.7902 17.0218 32.7963L17.037 32.8055C17.0476 32.8116 17.0598 32.8177 17.072 32.8239L17.0872 32.8315C17.1009 32.8376 17.113 32.8422 17.1267 32.8484L17.1374 32.8529C17.1541 32.8621 17.1693 32.8682 17.186 32.8759L17.2012 32.882C17.2119 32.8866 17.224 32.8912 17.2362 32.8958L17.2529 32.9034C17.2682 32.9096 17.2818 32.9141 17.2971 32.9203L17.3077 32.9233C17.3244 32.9294 17.3381 32.9356 17.3548 32.9402L17.3716 32.9463C17.3837 32.9493 17.3959 32.9539 17.4081 32.9585L17.4248 32.9631C17.4415 32.9692 17.4598 32.9738 17.4765 32.9799H17.4826C17.4978 32.9845 17.5145 32.9891 17.5297 32.9937L17.545 32.9983C17.5602 33.0014 17.5738 33.0044 17.5891 33.0075L17.6012 33.0105C17.6195 33.0151 17.6362 33.0197 17.6545 33.0228L17.6681 33.0243C17.6818 33.0289 17.6955 33.0304 17.7107 33.0335L17.7275 33.0366C17.7427 33.0396 17.7548 33.0412 17.77 33.0442L17.7837 33.0457C17.8005 33.0488 17.8202 33.0503 17.8385 33.0534L17.8506 33.0549C17.8659 33.0565 17.8811 33.058 17.8947 33.061L17.9115 33.0626C17.9282 33.0626 17.9449 33.0656 17.9632 33.0672H17.9678C17.9875 33.0687 18.0073 33.0702 18.0255 33.0702H18.0408C18.056 33.0733 18.0696 33.0733 18.0849 33.0733H18.1016H18.1594H19.4597C19.7532 33.0702 19.9281 33.0993 20.246 32.7657L24.0497 28.8026ZM24.0497 24.1938L20.1122 20.3684C19.7806 20.0486 19.808 19.8727 19.805 19.5758V18.2675C19.805 18.2492 19.805 18.2308 19.805 18.2109V18.1941C19.8065 18.1788 19.8065 18.165 19.808 18.1513V18.1359C19.8095 18.1161 19.811 18.0946 19.811 18.0778L19.8126 18.0717C19.8141 18.0533 19.8156 18.038 19.8171 18.0197L19.8186 18.0044C19.8202 17.9891 19.8217 17.9738 19.8232 17.96L19.8262 17.9462C19.8278 17.9278 19.8293 17.9095 19.8323 17.8911L19.8338 17.8774C19.8369 17.8636 19.8399 17.8483 19.843 17.8345L19.8445 17.8161C19.8475 17.8024 19.8506 17.7886 19.8536 17.7733L19.8567 17.7611C19.8597 17.7442 19.8627 17.7243 19.8673 17.7075L19.8703 17.6953C19.8734 17.68 19.878 17.6647 19.881 17.6509L19.884 17.6356C19.8886 17.6203 19.8932 17.6035 19.8977 17.5882L19.8992 17.5836C19.9038 17.5652 19.9099 17.5468 19.916 17.53L19.919 17.5132C19.9236 17.5009 19.9281 17.4887 19.9312 17.4765L19.9373 17.4596C19.9434 17.4428 19.9479 17.4275 19.954 17.4137L19.9586 17.4015C19.9631 17.3862 19.9692 17.3724 19.9753 17.3586L19.9814 17.3403C19.9859 17.328 19.9905 17.3158 19.9966 17.3035L20.0027 17.2898C20.0103 17.2745 20.0164 17.2576 20.024 17.2393L20.0285 17.2301C20.0346 17.2163 20.0407 17.2041 20.0468 17.1903L20.0544 17.175C20.0605 17.1628 20.0665 17.1521 20.0711 17.1398L20.0787 17.1245C20.0863 17.1092 20.0954 17.0939 20.103 17.0786L20.1122 17.0648C20.1167 17.0526 20.1228 17.0419 20.1289 17.0312L20.1395 17.0128C20.1456 17.0036 20.1517 16.9914 20.1578 16.9837L20.1669 16.9669C20.176 16.9531 20.1836 16.9394 20.1928 16.9256L20.2049 16.9072C20.211 16.8981 20.2171 16.8889 20.2232 16.8797L20.2354 16.8598C20.2414 16.8522 20.249 16.843 20.2551 16.8323L20.2703 16.8108C20.2779 16.7986 20.2855 16.7879 20.2947 16.7787L20.3084 16.7588C20.3144 16.7512 20.3205 16.7435 20.3266 16.7359L20.3403 16.7175C20.3479 16.7068 20.357 16.6976 20.3646 16.6869C20.3707 16.6792 20.3768 16.6716 20.3829 16.6639C20.3905 16.6548 20.3981 16.6471 20.4057 16.6379L20.4194 16.6196C20.427 16.6134 20.4331 16.6043 20.4407 16.5981C20.4452 16.592 20.4513 16.5844 20.4559 16.5798C20.4665 16.5691 20.4741 16.5599 20.4833 16.5507C20.4909 16.5415 20.4985 16.5354 20.5045 16.5278C20.5122 16.5201 20.5182 16.514 20.5243 16.5079L20.5441 16.488L20.5623 16.4711C20.5699 16.4635 20.5745 16.4574 20.5821 16.4513C20.5928 16.4421 20.6034 16.4314 20.614 16.4222V16.4206C20.6217 16.4145 20.6277 16.4084 20.6338 16.4023C20.6414 16.3962 20.6475 16.39 20.6536 16.3855L20.6734 16.3686L20.6931 16.3518C20.7068 16.3411 20.719 16.3304 20.7327 16.3181L20.7494 16.3044C20.757 16.2982 20.7646 16.2936 20.7707 16.2891L20.792 16.2722C20.7996 16.2676 20.8057 16.26 20.8133 16.2554C20.8194 16.2508 20.8255 16.2462 20.8315 16.2432C20.8467 16.2309 20.862 16.2217 20.8772 16.211L20.8924 16.2003C20.9 16.1942 20.9091 16.1881 20.9182 16.1819L20.935 16.1712C20.9441 16.1651 20.9532 16.159 20.9608 16.1529L20.9791 16.1437C20.9943 16.1345 21.008 16.1238 21.0232 16.1146L21.0429 16.1039C21.0521 16.0993 21.0612 16.0932 21.0688 16.0886L21.0886 16.0764C21.0977 16.0718 21.1068 16.0672 21.1159 16.0626L21.1266 16.0565C21.1448 16.0473 21.1616 16.0381 21.1813 16.0274L21.2011 16.0197L21.227 16.006C21.2346 16.0014 21.2422 15.9983 21.2498 15.9953C21.5676 15.8468 21.9205 15.7642 22.2931 15.7642H28.629V13.8622L32.6806 17.9003L28.629 21.9384V20.0364H24.0497V24.1938Z" fill="#009F3C"/>
</g>
<path d="M24.0653 32.9189V28.7875H19.959V24.2109H24.0653V20.081H28.6142V24.2109H32.719V28.7875H28.6142V32.9189H24.0653Z" fill="white"/>
</g>
<defs>
<clipPath id="clip0_279_1499">
<rect width="329" height="53" fill="white"/>
</clipPath>
</defs>
</svg>
