<svg width="192" height="63" viewBox="0 0 192 63" fill="none" xmlns="http://www.w3.org/2000/svg">
<g style="mix-blend-mode:luminosity" clip-path="url(#clip0_654_212)">
<mask id="mask0_654_212" style="mask-type:luminance" maskUnits="userSpaceOnUse" x="-21" y="-842" width="695" height="909">
<path d="M-20.209 66.7959H673.237V-841.611H-20.209V66.7959Z" fill="white"/>
</mask>
<g mask="url(#mask0_654_212)">
<path d="M98.4478 31.6231C97.6824 29.4102 96.9162 27.1981 96.1509 24.9852L94.421 27.1219V31.6309C94.421 32.7309 93.7989 33.4385 92.4455 33.4316H91.6348C91.6348 28.1863 91.6356 22.9411 91.6356 17.695H92.2306C92.5207 17.695 92.7575 17.6907 93.0397 17.7444C93.9867 17.9219 94.4271 18.5706 94.4271 19.4974V19.5268V24.404L99.366 18.5074C100.053 17.6863 100.459 17.6941 101.589 17.695H101.97C100.667 19.3519 99.3634 21.0079 98.0607 22.6648C99.394 26.2523 100.727 29.8398 102.06 33.4273H101.628C100.988 33.4273 100.37 33.4515 99.781 33.1856C99.3809 33.0037 99.0576 32.7274 98.8112 32.3767C98.6435 32.1359 98.5404 31.8916 98.4478 31.6231Z" fill="#009F3C"/>
<path d="M112.436 31.4016C111.738 32.8939 110.082 33.4561 108.312 33.4561C105.572 33.4561 104.079 31.9672 103.407 30.0279C102.939 28.6785 102.79 26.9991 103.04 25.4262C103.422 23.0219 104.901 20.4651 107.962 20.4651C112.394 20.4651 112.894 23.862 113.045 26.9099H105.629C105.547 28.7322 105.923 32.0867 108.694 32.0867C109.428 32.0867 109.983 31.9585 110.36 31.7039C111.026 31.3159 111.576 30.972 112.436 31.4016ZM110.517 25.7822C110.465 25.0434 110.382 24.4189 110.268 23.9088C109.612 21.0055 106.567 21.3052 105.861 23.8889C105.721 24.399 105.64 25.0295 105.617 25.7822H110.517Z" fill="#009F3C"/>
<path d="M117.051 31.5599C117.545 31.8838 118.137 32.0449 118.826 32.0449C119.545 32.0449 120.081 31.8769 120.433 31.5391C120.786 31.203 120.961 30.7717 120.961 30.2468C120.961 29.8822 120.901 29.5765 120.781 29.327C120.661 29.0776 120.508 28.8654 120.321 28.6904C120.134 28.5146 119.916 28.37 119.669 28.2556C119.422 28.1404 119.171 28.0365 118.916 27.9421C118.347 27.7403 117.826 27.5212 117.354 27.2856C116.882 27.05 116.474 26.7832 116.13 26.487C115.785 26.1908 115.515 25.8504 115.32 25.4658C115.125 25.083 115.028 24.6344 115.028 24.1225C115.028 23.5162 115.136 22.9835 115.354 22.5254C115.571 22.068 115.875 21.6878 116.263 21.3838C116.654 21.0807 117.114 20.852 117.646 20.697C118.178 20.5419 118.759 20.4648 119.388 20.4648C120.152 20.4648 120.868 20.5887 121.534 20.8381C122.201 21.0876 122.692 21.5492 123.006 22.2231C122.106 22.8484 121.516 22.4006 120.95 22.1928C120.844 22.1365 120.735 22.0888 120.622 22.0481C120.308 21.9355 119.963 21.8792 119.59 21.8792C119.291 21.8792 119.001 21.9121 118.724 21.9797C118.448 22.0481 118.204 22.1521 117.994 22.2932C117.784 22.4353 117.62 22.6137 117.5 22.8294C117.38 23.0442 117.32 23.3075 117.32 23.6175C117.32 24.1294 117.478 24.527 117.792 24.8102C118.107 25.0925 118.501 25.329 118.973 25.5169C119.444 25.7058 119.954 25.8842 120.501 26.0522C121.048 26.2211 121.557 26.4472 122.029 26.7295C122.501 27.0119 122.894 27.3834 123.209 27.8416C123.524 28.2998 123.681 28.9191 123.681 29.7003C123.681 30.2936 123.565 30.8263 123.332 31.2974C123.1 31.7686 122.782 32.1662 122.377 32.4901C121.973 32.8123 121.489 33.0617 120.927 33.2376C120.365 33.4125 119.762 33.5 119.119 33.5C118.04 33.5 117.118 33.3043 116.354 32.9136C115.59 32.5239 115.028 31.9237 114.668 31.1156C114.964 30.9337 115.444 30.6582 116.057 30.8791C116.468 31.0264 116.704 31.333 117.051 31.5599Z" fill="#009F3C"/>
<path d="M144.78 23.895C144.78 23.2515 144.626 22.8132 144.318 22.5802C144.012 22.3473 143.528 22.2303 142.87 22.2303C142.33 22.2303 141.827 22.3473 141.363 22.5802C140.898 22.8132 140.561 23.0731 140.352 23.3615V31.6867V31.7135C140.352 32.5944 139.933 33.2102 139.034 33.3808C138.766 33.4302 138.541 33.4267 138.264 33.4267H137.699V17.6944H138.264C138.541 17.6944 138.766 17.6901 139.034 17.7412C139.933 17.9101 140.352 18.5268 140.352 19.4076V19.4353V20.5717V22.0259C140.696 21.6154 141.205 21.2516 141.88 20.9363C142.554 20.6219 143.341 20.4643 144.24 20.4643C145.319 20.4643 146.121 20.7276 146.645 21.2559C147.169 21.7825 147.431 22.601 147.431 23.7097V33.4267H146.866C146.591 33.4267 146.364 33.4302 146.097 33.3808C145.197 33.2102 144.78 32.5944 144.78 31.7135V31.6867V23.895Z" fill="#009F3C"/>
<path d="M156.097 26.2586C155.797 26.4068 155.445 26.5237 155.041 26.6112C154.635 26.6978 154.246 26.7956 153.872 26.9022C153.123 27.117 152.583 27.4461 152.254 27.8878C151.923 28.3313 151.759 28.9081 151.759 29.6192C151.759 30.423 151.92 31.0102 152.242 31.3792C152.565 31.7481 153.07 31.9318 153.76 31.9318C154.284 31.9318 154.748 31.8114 155.153 31.5697C155.558 31.3289 155.872 30.9929 156.097 30.5641V26.2586ZM156.3 31.6711C155.999 32.221 155.55 32.6532 154.951 32.9685C154.351 33.2838 153.647 33.4414 152.838 33.4414C151.609 33.4414 150.691 33.1357 150.084 32.525C149.478 31.9153 149.174 31.0674 149.174 29.9812C149.174 28.8943 149.414 28.0628 149.894 27.4859C150.373 26.9091 151.115 26.4665 152.119 26.1582C152.448 26.0508 152.797 25.9676 153.164 25.907C153.531 25.8464 153.891 25.7857 154.243 25.7251C154.594 25.6654 154.932 25.5917 155.254 25.5043C155.99 25.305 156.062 25.1145 156.074 24.5983C156.079 24.3601 156.074 24.1219 156.074 23.8846C156.074 23.2272 155.925 22.7318 155.625 22.3957C155.325 22.0605 154.756 21.8934 153.917 21.8934C153.287 21.8934 152.744 22.0172 152.288 22.2658C151.402 22.7456 151.011 23.1345 149.871 22.5768C150.305 21.8258 150.901 21.2862 151.658 20.958C152.414 20.6288 153.235 20.4651 154.119 20.4651C154.748 20.4651 155.344 20.5076 155.906 20.5959C156.467 20.6825 156.955 20.8497 157.366 21.0983C157.778 21.346 158.105 21.695 158.344 22.1446C158.583 22.5941 158.704 23.1804 158.704 23.9054V26.6094V31.2882V31.3047V33.4319C158.643 33.4327 158.285 33.4345 157.984 33.4345C156.723 33.4353 156.331 32.7693 156.3 31.6711Z" fill="#009F3C"/>
<path d="M168.114 32.6006C167.694 32.902 167.264 33.1168 166.821 33.2476C166.379 33.3775 165.798 33.4434 165.079 33.4434C163.941 33.4434 163.05 33.1246 162.405 32.4872C161.761 31.8506 161.439 30.9636 161.439 29.8264V21.742H161.006C160.27 21.7204 159.881 21.6061 159.881 20.468H161.433V17.6946H161.998C162.273 17.6946 162.499 17.6912 162.767 17.7414C163.667 17.9112 164.084 18.527 164.084 19.4078V19.4355V20.468H165.64C166.377 20.4905 166.766 20.6039 166.766 21.742H164.068V29.8264C164.068 30.5254 164.222 31.0702 164.529 31.4599C164.836 31.8506 165.327 32.0454 166.001 32.0454C166.247 32.0454 166.465 32.0316 166.653 32.0021C167.433 31.8817 167.817 31.9935 168.114 32.6006Z" fill="#009F3C"/>
<path d="M187.649 23.895C187.649 23.2515 187.495 22.8132 187.188 22.5802C186.881 22.3473 186.397 22.2303 185.738 22.2303C185.199 22.2303 184.697 22.3473 184.232 22.5802C183.768 22.8132 183.431 23.0731 183.221 23.3615V31.6867V31.7135C183.221 32.5944 182.803 33.2102 181.902 33.3808C181.635 33.4302 181.41 33.4267 181.134 33.4267H180.568V20.4643H181.134C181.41 20.4643 181.635 20.4608 181.902 20.5119C182.751 20.6713 183.17 21.2274 183.217 22.0277L183.221 22.0259C183.566 21.6154 184.074 21.2516 184.749 20.9363C185.423 20.6219 186.21 20.4643 187.109 20.4643C188.188 20.4643 188.99 20.7276 189.514 21.2559C190.038 21.7825 190.3 22.601 190.3 23.7097V33.4267H189.735C189.459 33.4267 189.234 33.4302 188.966 33.3808C188.066 33.2102 187.649 32.5944 187.649 31.7135V31.6867V23.895Z" fill="#009F3C"/>
<path d="M134.922 31.4016C134.224 32.8939 132.568 33.4561 130.799 33.4561C128.059 33.4561 126.565 31.9672 125.893 30.0279C125.425 28.6785 125.276 26.9991 125.526 25.4262C125.908 23.0219 127.388 20.4651 130.448 20.4651C134.88 20.4651 135.382 23.862 135.532 26.9099H128.114C128.033 28.7322 128.41 32.0867 131.18 32.0867C131.915 32.0867 132.47 31.9585 132.847 31.7039C133.514 31.3159 134.062 30.972 134.922 31.4016ZM133.003 25.7822C132.952 25.0434 132.869 24.4189 132.753 23.9088C132.099 21.0055 129.054 21.3052 128.347 23.8889C128.208 24.399 128.126 25.0295 128.104 25.7822H133.003Z" fill="#009F3C"/>
<path d="M175.995 26.2586C175.696 26.4068 175.343 26.5237 174.939 26.6112C174.535 26.6978 174.144 26.7956 173.77 26.9022C173.02 27.117 172.481 27.4461 172.151 27.8878C171.822 28.3313 171.658 28.9081 171.658 29.6192C171.658 30.423 171.818 31.0102 172.141 31.3792C172.463 31.7481 172.968 31.9318 173.657 31.9318C174.182 31.9318 174.646 31.8114 175.051 31.5697C175.455 31.3289 175.77 30.9929 175.995 30.5641V26.2586ZM176.197 31.6711C175.898 32.221 175.448 32.6532 174.849 32.9685C174.25 33.2838 173.545 33.4414 172.736 33.4414C171.508 33.4414 170.59 33.1357 169.983 32.525C169.375 31.9153 169.072 31.0674 169.072 29.9812C169.072 28.8943 169.313 28.0628 169.791 27.4859C170.271 26.9091 171.013 26.4665 172.017 26.1582C172.346 26.0508 172.695 25.9676 173.062 25.907C173.429 25.8464 173.788 25.7857 174.141 25.7251C174.493 25.6654 174.83 25.5917 175.152 25.5043C175.889 25.305 175.96 25.1145 175.973 24.5983C175.978 24.3601 175.973 24.1219 175.973 23.8846C175.973 23.2272 175.822 22.7318 175.523 22.3957C175.223 22.0605 174.654 21.8934 173.815 21.8934C173.186 21.8934 172.642 22.0172 172.185 22.2658C171.3 22.7456 170.91 23.1345 169.769 22.5768C170.204 21.8258 170.8 21.2862 171.556 20.958C172.312 20.6288 173.133 20.4651 174.017 20.4651C174.646 20.4651 175.242 20.5076 175.804 20.5959C176.366 20.6825 176.852 20.8497 177.264 21.0983C177.677 21.346 178.003 21.695 178.242 22.1446C178.482 22.5941 178.602 23.1804 178.602 23.9054V26.6094V31.2882V31.3047V33.4319C178.54 33.4327 178.183 33.4345 177.883 33.4345C176.622 33.4353 176.229 32.7693 176.197 31.6711Z" fill="#009F3C"/>
<path d="M50.8272 24.8169C52.5807 24.7615 53.0673 23.2466 53.0673 21.9847C53.0673 20.6587 52.931 19.1507 51.1129 19.1507H48.7775V24.8169H50.8272ZM50.7983 32.1053C51.6677 32.1053 52.3072 31.8654 52.7187 31.3865C53.1311 30.9075 53.3364 30.134 53.3364 29.067C53.3364 27.7124 53.1529 26.3257 51.2701 26.0485H48.7775V32.1053H50.7983ZM45.9922 33.46V30.9551V17.7346H51.4466C54.529 17.7346 55.8989 19.6877 55.6246 22.2549C55.4988 23.4363 55.0488 24.6576 53.8493 25.289C56.7857 26.1776 56.7918 30.4355 55.0549 32.2803C54.3141 33.0667 53.1276 33.46 51.4947 33.46H45.9922Z" fill="#2B3078"/>
<path d="M59.1426 17.7346H59.4755H61.2735H64.5324C65.3414 17.7346 66.0299 17.816 66.5995 17.9814C67.1683 18.1451 67.6252 18.3911 67.9694 18.7202C68.3137 19.0485 68.5644 19.4625 68.7217 19.9614C68.8789 20.4611 68.9576 21.0466 68.9576 21.717C68.9576 22.785 68.8754 23.6779 68.7103 24.3959C68.5461 25.1148 68.2691 25.6934 67.8794 26.1317C67.4898 26.569 66.9778 26.8834 66.3409 27.0749C65.7048 27.2671 64.915 27.3624 63.9714 27.3624H61.9279V31.6593C61.9279 32.7584 61.3067 33.466 59.9542 33.4599H59.1435C59.1435 28.2181 59.1426 22.9764 59.1426 17.7346ZM63.6796 25.9671C64.1287 25.9671 64.5061 25.9082 64.8137 25.7921C65.1203 25.6752 65.3755 25.4812 65.5773 25.2066C65.7791 24.9338 65.9259 24.5709 66.0159 24.1188C66.105 23.6675 66.1504 23.1063 66.1504 22.435C66.1504 21.7785 66.112 21.2381 66.0377 20.8145C65.9626 20.3901 65.8464 20.0541 65.69 19.8081C65.5327 19.5621 65.3265 19.3906 65.0723 19.2953C64.8172 19.1992 64.5026 19.1507 64.1287 19.1507H61.9279V25.9671H63.6796Z" fill="#2B3078"/>
<path d="M71.9246 17.7284H72.5135C72.8001 17.7284 73.0351 17.7249 73.3138 17.7777C74.2513 17.9544 74.6872 18.5962 74.6872 19.5126V19.542V29.544C74.6872 32.158 73.1295 33.4658 70.0156 33.4658C69.8671 33.4658 69.723 33.4624 69.5832 33.4563C68.5644 33.4416 67.668 33.2103 66.894 32.7625C66.0928 32.3 65.5057 31.6383 65.1309 30.7782C65.78 30.5175 66.3374 30.3842 66.9307 30.8129C67.1718 30.9861 67.3719 31.2026 67.6244 31.3741C67.9031 31.5621 68.2193 31.6981 68.5732 31.7838C69.3272 31.9648 70.3966 31.9735 71.1235 31.5768C71.8635 31.1741 71.9246 30.4032 71.9246 29.6878V17.7284Z" fill="#2B3078"/>
<path d="M79.5434 31.3811C80.0528 31.7258 80.6888 31.8973 81.4524 31.8973C81.8115 31.8973 82.1566 31.841 82.486 31.7284C82.8154 31.6158 83.1028 31.4573 83.3501 31.252C83.5973 31.0476 83.7921 30.7956 83.9346 30.4985C84.0761 30.2005 84.1477 29.8671 84.1477 29.4955C84.1477 29.1647 84.0953 28.8745 83.9905 28.6233C83.8856 28.3713 83.7432 28.147 83.5641 27.9486C83.3841 27.7494 83.1701 27.5684 82.9237 27.4021C82.6765 27.2367 82.4109 27.0686 82.126 26.8963C81.4821 26.5256 80.8871 26.1653 80.3411 25.8154C79.7942 25.4646 79.3189 25.0904 78.9144 24.6937C78.5098 24.297 78.1918 23.8579 77.9603 23.3746C77.7279 22.8913 77.6117 22.3188 77.6117 21.6571C77.6117 21.0889 77.713 20.5658 77.9149 20.0894C78.1176 19.6139 78.4164 19.1999 78.813 18.8491C79.2105 18.4992 79.6937 18.2246 80.2616 18.0263C80.8312 17.828 81.4821 17.7292 82.216 17.7292C83.1745 17.7292 83.9975 17.9232 84.6868 18.3139C85.3753 18.7045 85.8401 19.2501 86.0795 19.9508C85.2783 20.2955 84.6982 20.1102 84.0464 19.6234C83.6349 19.3523 83.1447 19.2172 82.5751 19.2172C81.7818 19.2172 81.1641 19.4086 80.722 19.7923C80.2808 20.176 80.0598 20.7182 80.0598 21.4198C80.0598 22.0018 80.2284 22.4842 80.5656 22.8679C80.902 23.2516 81.3214 23.5989 81.8229 23.9099C82.3244 24.2208 82.8713 24.5188 83.4628 24.8029C84.0543 25.0869 84.6003 25.4178 85.1018 25.7954C85.6042 26.1722 86.0227 26.6252 86.3599 27.1544C86.6972 27.6836 86.8649 28.3453 86.8649 29.1387C86.8649 29.7605 86.7452 30.3357 86.5058 30.8657C86.2664 31.3949 85.9222 31.8505 85.4722 32.2342C85.0232 32.6179 84.4736 32.9193 83.8219 33.1376C83.1701 33.3558 82.4327 33.4658 81.6097 33.4658C80.5464 33.4658 79.6142 33.2328 78.813 32.7703C78.0118 32.3069 77.4247 31.6452 77.0508 30.786C77.6991 30.5245 78.2573 30.3919 78.8506 30.8198C79.0908 30.993 79.2909 31.2104 79.5434 31.3811Z" fill="#2B3078"/>
<path d="M107.914 44.5612V41.2613C107.916 41.1114 107.908 40.9633 107.891 40.8195C107.876 40.6758 107.844 40.5372 107.798 40.4047C107.749 40.273 107.68 40.1466 107.587 40.0296C107.463 39.859 107.3 39.7343 107.096 39.6537C106.893 39.574 106.655 39.5342 106.381 39.5359C106.168 39.5385 105.984 39.568 105.825 39.6269C105.666 39.6849 105.535 39.7568 105.426 39.8425C105.318 39.9266 105.235 40.0106 105.175 40.0929C105.115 40.1751 105.075 40.241 105.057 40.2903V39.6433H104.086V44.5612H105.057V41.5306C105.055 41.4284 105.063 41.315 105.078 41.1946C105.092 41.0724 105.123 40.952 105.172 40.8343C105.22 40.7156 105.294 40.6091 105.392 40.5155C105.476 40.4367 105.571 40.3787 105.676 40.3371C105.781 40.2938 105.906 40.273 106.055 40.273C106.271 40.2739 106.44 40.3085 106.564 40.3743C106.688 40.441 106.777 40.5302 106.835 40.6428C106.893 40.7546 106.928 40.881 106.941 41.0205C106.956 41.1599 106.964 41.3011 106.962 41.4501V44.5612H107.914ZM102.159 41.7108H100.064C100.063 41.7021 100.064 41.6614 100.065 41.5886C100.068 41.515 100.077 41.4224 100.093 41.3098C100.11 41.1989 100.141 41.0802 100.183 40.9572C100.227 40.8343 100.288 40.7208 100.369 40.6125C100.449 40.506 100.554 40.4211 100.684 40.3588C100.813 40.2938 100.972 40.2652 101.161 40.273C101.331 40.2773 101.477 40.3146 101.594 40.3813C101.712 40.4506 101.806 40.5389 101.879 40.6454C101.953 40.7528 102.009 40.8654 102.048 40.9841C102.087 41.1045 102.115 41.2188 102.13 41.3262C102.145 41.4336 102.155 41.5228 102.157 41.5921C102.159 41.6631 102.161 41.7038 102.159 41.7108ZM103.121 42.3673V42.3223V42.2157V42.0893C103.122 41.9593 103.116 41.8095 103.101 41.6363C103.087 41.4631 103.058 41.2794 103.016 41.0872C102.972 40.894 102.907 40.7052 102.821 40.5216C102.735 40.3371 102.62 40.1708 102.475 40.0201C102.331 39.8729 102.151 39.7542 101.937 39.665C101.72 39.5775 101.462 39.5342 101.161 39.5359C100.854 39.5368 100.586 39.5818 100.362 39.6685C100.136 39.7559 99.9441 39.8729 99.7886 40.0192C99.6331 40.1665 99.5037 40.3328 99.4059 40.5155C99.308 40.6974 99.2303 40.888 99.1779 41.0828C99.1254 41.2786 99.087 41.4665 99.0678 41.6501C99.0477 41.8329 99.0372 41.9975 99.0389 42.143C99.0372 42.2789 99.0459 42.4348 99.0678 42.6089C99.087 42.7813 99.1254 42.9606 99.1822 43.1477C99.2381 43.3339 99.3203 43.5158 99.4295 43.6907C99.5378 43.8674 99.6802 44.0268 99.8541 44.1671C100.031 44.3083 100.246 44.4217 100.505 44.504C100.763 44.588 101.069 44.6313 101.424 44.6331C101.655 44.6313 101.857 44.614 102.033 44.5802C102.209 44.5482 102.356 44.5075 102.476 44.4624C102.597 44.4174 102.689 44.375 102.756 44.3377C102.822 44.2987 102.862 44.2745 102.875 44.2641L103.011 43.4014C102.998 43.4118 102.96 43.4404 102.896 43.4863C102.834 43.5314 102.745 43.5816 102.629 43.6353C102.513 43.6899 102.366 43.734 102.192 43.7704C102.018 43.8077 101.814 43.8224 101.579 43.8146C101.298 43.8085 101.066 43.7687 100.882 43.6942C100.695 43.6197 100.548 43.527 100.439 43.4136C100.329 43.3001 100.246 43.1823 100.191 43.0602C100.137 42.9372 100.103 42.8246 100.086 42.7207C100.07 42.6176 100.063 42.5379 100.064 42.4842V42.3959V42.3673H103.121ZM97.9451 37.8894H97.0015V44.5612H97.9451V37.8894ZM94.9842 41.7108H92.8891C92.8873 41.7021 92.8891 41.6614 92.8899 41.5886C92.8934 41.515 92.9022 41.4224 92.9188 41.3098C92.9354 41.1989 92.966 41.0802 93.0088 40.9572C93.0516 40.8343 93.1145 40.7208 93.194 40.6125C93.2744 40.506 93.3783 40.4211 93.5085 40.3588C93.6369 40.2938 93.7977 40.2652 93.9864 40.273C94.1568 40.2773 94.3018 40.3146 94.4189 40.3813C94.536 40.4506 94.6321 40.5389 94.7037 40.6454C94.778 40.7528 94.8339 40.8654 94.8741 40.9841C94.9134 41.1045 94.9405 41.2188 94.9553 41.3262C94.9702 41.4336 94.9789 41.5228 94.9824 41.5921C94.9842 41.6631 94.985 41.7038 94.9842 41.7108ZM95.9443 42.3673V42.3223V42.2157V42.0893C95.9461 41.9593 95.9409 41.8095 95.926 41.6363C95.912 41.4631 95.8832 41.2794 95.8404 41.0872C95.7967 40.894 95.732 40.7052 95.6464 40.5216C95.5599 40.3371 95.4446 40.1708 95.2996 40.0201C95.1563 39.8729 94.9763 39.7542 94.7614 39.665C94.5456 39.5775 94.287 39.5342 93.9864 39.5359C93.6789 39.5368 93.4115 39.5818 93.1861 39.6685C92.9616 39.7559 92.7694 39.8729 92.6139 40.0192C92.4583 40.1665 92.3299 40.3328 92.2312 40.5155C92.1325 40.6974 92.0564 40.888 92.0031 41.0828C91.9507 41.2786 91.9123 41.4665 91.8931 41.6501C91.873 41.8329 91.8625 41.9975 91.8642 42.143C91.8625 42.2789 91.8712 42.4348 91.8931 42.6089C91.9123 42.7813 91.9507 42.9606 92.0075 43.1477C92.0634 43.3339 92.1447 43.5158 92.2539 43.6907C92.3631 43.8674 92.5046 44.0268 92.6803 44.1671C92.8559 44.3083 93.0717 44.4217 93.3303 44.504C93.5871 44.588 93.8938 44.6313 94.2494 44.6331C94.4809 44.6313 94.6827 44.614 94.8584 44.5802C95.0331 44.5482 95.1816 44.5075 95.3013 44.4624C95.4219 44.4174 95.5145 44.375 95.5809 44.3377C95.6473 44.2987 95.6866 44.2745 95.6997 44.2641L95.836 43.4014C95.8229 43.4118 95.7853 43.4404 95.7216 43.4863C95.6595 43.5314 95.5704 43.5816 95.4533 43.6353C95.3371 43.6899 95.1912 43.734 95.0174 43.7704C94.8435 43.8077 94.6391 43.8224 94.4032 43.8146C94.1236 43.8085 93.8912 43.7687 93.7068 43.6942C93.5207 43.6197 93.3731 43.527 93.2639 43.4136C93.1538 43.3001 93.0699 43.1823 93.0175 43.0602C92.9625 42.9372 92.9284 42.8246 92.9118 42.7207C92.8952 42.6176 92.8873 42.5379 92.8891 42.4842V42.3959V42.3673H95.9443ZM91.5689 39.6433H90.6253L89.5463 43.4551L88.449 39.6433H87.4696L89.0475 44.543L88.9749 44.8756C88.9566 44.9735 88.9269 45.0618 88.8841 45.1415C88.8421 45.2212 88.7854 45.2844 88.7146 45.3329C88.6421 45.3805 88.5547 45.4057 88.449 45.4065C88.3206 45.4057 88.207 45.3892 88.1074 45.3632C88.0087 45.3346 87.93 45.3069 87.8741 45.2801C87.8173 45.2515 87.7885 45.2368 87.7867 45.2359L87.8863 46.0267C87.8881 46.0293 87.9213 46.0457 87.9859 46.0734C88.0523 46.102 88.1467 46.1289 88.2673 46.154C88.387 46.1808 88.5285 46.1912 88.6936 46.1886C88.8981 46.1878 89.0702 46.1514 89.2091 46.0769C89.3463 46.0059 89.4616 45.9054 89.5542 45.7781C89.6459 45.649 89.7246 45.5009 89.7892 45.3312C89.8547 45.1623 89.915 44.9813 89.9727 44.7855L91.5689 39.6433ZM86.8388 44.5612V41.2613C86.8397 41.1114 86.8327 40.9633 86.8161 40.8195C86.8012 40.6758 86.7689 40.5372 86.7226 40.4047C86.6737 40.273 86.6046 40.1466 86.512 40.0296C86.388 39.859 86.2255 39.7343 86.021 39.6537C85.8166 39.574 85.5798 39.5342 85.3055 39.5359C85.0923 39.5385 84.9079 39.568 84.7498 39.6269C84.5917 39.6849 84.4597 39.7568 84.3505 39.8425C84.2431 39.9266 84.1601 40.0106 84.0998 40.0929C84.0395 40.1751 84.0002 40.241 83.9818 40.2903V39.6433H83.0112V44.5612H83.9818V41.5306C83.9801 41.4284 83.9879 41.315 84.0028 41.1946C84.0168 41.0724 84.0482 40.952 84.0963 40.8343C84.1452 40.7156 84.2195 40.6091 84.3173 40.5155C84.4021 40.4367 84.4956 40.3787 84.6013 40.3371C84.7061 40.2938 84.8311 40.273 84.9796 40.273C85.1954 40.2739 85.3649 40.3085 85.4889 40.3743C85.613 40.441 85.7021 40.5302 85.7589 40.6428C85.8166 40.7546 85.8533 40.881 85.8664 41.0205C85.8821 41.1599 85.8891 41.3011 85.8865 41.4501V44.5612H86.8388ZM81.0838 41.7108H78.9887C78.987 41.7021 78.9887 41.6614 78.9905 41.5886C78.9931 41.515 79.0018 41.4224 79.0184 41.3098C79.035 41.1989 79.0656 41.0802 79.1075 40.9572C79.1521 40.8343 79.2141 40.7208 79.2936 40.6125C79.374 40.506 79.478 40.4211 79.6082 40.3588C79.7366 40.2938 79.8973 40.2652 80.0861 40.273C80.2564 40.2773 80.4015 40.3146 80.5185 40.3813C80.6365 40.4506 80.7317 40.5389 80.8042 40.6454C80.8776 40.7528 80.9335 40.8654 80.9729 40.9841C81.013 41.1045 81.0401 41.2188 81.055 41.3262C81.0698 41.4336 81.0786 41.5228 81.0821 41.5921C81.0838 41.6631 81.0847 41.7038 81.0838 41.7108ZM82.0449 42.3673V42.3223V42.2157V42.0893C82.0466 41.9593 82.0405 41.8095 82.0256 41.6363C82.0117 41.4631 81.9828 41.2794 81.9409 41.0872C81.8972 40.894 81.8317 40.7052 81.7461 40.5216C81.6596 40.3371 81.5442 40.1708 81.3992 40.0201C81.2559 39.8729 81.0759 39.7542 80.861 39.665C80.6452 39.5775 80.3866 39.5342 80.0861 39.5359C79.7794 39.5368 79.5112 39.5818 79.2858 39.6685C79.0612 39.7559 78.869 39.8729 78.7135 40.0192C78.558 40.1665 78.4287 40.3328 78.3308 40.5155C78.2321 40.6974 78.1561 40.888 78.1028 41.0828C78.0495 41.2786 78.0119 41.4665 77.9927 41.6501C77.9726 41.8329 77.9621 41.9975 77.9639 42.143C77.9621 42.2789 77.9717 42.4348 77.9927 42.6089C78.0119 42.7813 78.0495 42.9606 78.1072 43.1477C78.1631 43.3339 78.2452 43.5158 78.3535 43.6907C78.4619 43.8674 78.6043 44.0268 78.7799 44.1671C78.9555 44.3083 79.1713 44.4217 79.4299 44.504C79.6868 44.588 79.9934 44.6313 80.3482 44.6331C80.5806 44.6313 80.7824 44.614 80.958 44.5802C81.1336 44.5482 81.2821 44.5075 81.401 44.4624C81.5215 44.4174 81.6141 44.375 81.6805 44.3377C81.7469 44.2987 81.7863 44.2745 81.8002 44.2641L81.9365 43.4014C81.9225 43.4118 81.885 43.4404 81.8212 43.4863C81.7592 43.5314 81.6701 43.5816 81.5539 43.6353C81.4377 43.6899 81.2909 43.734 81.117 43.7704C80.9431 43.8077 80.7396 43.8224 80.5028 43.8146C80.2232 43.8085 79.9908 43.7687 79.8065 43.6942C79.6204 43.6197 79.4719 43.527 79.3635 43.4136C79.2534 43.3001 79.1704 43.1823 79.1171 43.0602C79.0621 42.9372 79.028 42.8246 79.0114 42.7207C78.9948 42.6176 78.987 42.5379 78.9887 42.4842V42.3959V42.3673H82.0449ZM76.1719 40.2011C76.1719 40.415 76.1501 40.5978 76.1038 40.7494C76.0584 40.9001 75.9902 41.0291 75.9002 41.1357C75.8216 41.2335 75.7368 41.3106 75.6442 41.3669C75.5534 41.4232 75.4651 41.4657 75.3769 41.4908C75.2904 41.5159 75.2135 41.5323 75.148 41.5401C75.0833 41.5471 75.0379 41.5505 75.0108 41.5497H73.9956V38.8153H75.0108C75.0825 38.8145 75.1672 38.8205 75.2633 38.8352C75.362 38.8508 75.4651 38.882 75.5691 38.9296C75.6731 38.979 75.7718 39.0526 75.8618 39.1531C75.9544 39.2536 76.0287 39.3896 76.0846 39.5593C76.1414 39.7282 76.1711 39.943 76.1719 40.2011ZM77.3235 40.2011C77.3226 39.8373 77.2798 39.5264 77.1933 39.2657C77.1094 39.0041 76.9915 38.7859 76.8403 38.6118C76.69 38.4368 76.5153 38.2982 76.3152 38.1969C76.116 38.0947 75.9002 38.0237 75.6704 37.9795C75.4389 37.9362 75.2013 37.9154 74.9566 37.9171H72.8799V44.5612H73.9956V42.4487H74.9933C75.1899 42.4496 75.3874 42.4374 75.5857 42.4106C75.7832 42.382 75.9789 42.3257 76.1719 42.24C76.365 42.1551 76.5529 42.0252 76.7346 41.8545C76.9172 41.6839 77.0605 41.4587 77.1645 41.1824C77.2693 40.9061 77.3226 40.5779 77.3235 40.2011ZM128.998 43.0957C128.997 43.2152 128.968 43.3218 128.912 43.4136C128.857 43.5062 128.782 43.5859 128.688 43.6526C128.595 43.7184 128.488 43.773 128.372 43.8146C128.307 43.8414 128.24 43.8596 128.173 43.8717C128.105 43.883 128.047 43.8873 128.001 43.8873C127.838 43.8873 127.692 43.8596 127.56 43.8033C127.43 43.7462 127.326 43.6587 127.249 43.54C127.17 43.4196 127.131 43.2663 127.13 43.0775C127.13 43.0307 127.132 42.9805 127.137 42.9268C127.143 42.8714 127.152 42.822 127.166 42.7813C127.213 42.6315 127.294 42.5093 127.414 42.4149C127.532 42.3205 127.678 42.2521 127.856 42.2079C128.032 42.1638 128.231 42.143 128.453 42.143C128.556 42.143 128.646 42.1464 128.727 42.1568C128.811 42.1646 128.875 42.1741 128.924 42.1828C128.971 42.1906 128.997 42.1949 128.998 42.1967V43.0957ZM129.968 44.5612V41.334C129.97 41.1192 129.958 40.9347 129.935 40.7806C129.911 40.6255 129.869 40.4878 129.808 40.3665C129.747 40.2436 129.662 40.1258 129.552 40.0114C129.406 39.8616 129.211 39.7421 128.964 39.6537C128.715 39.5654 128.413 39.5186 128.055 39.5169C127.842 39.5186 127.654 39.5359 127.491 39.568C127.329 39.5992 127.192 39.6381 127.081 39.6788C126.972 39.7213 126.889 39.7585 126.834 39.7906C126.778 39.8226 126.749 39.8399 126.749 39.8408L126.576 40.7043C126.576 40.7009 126.604 40.6784 126.658 40.6368C126.711 40.5935 126.791 40.5441 126.898 40.4852C127.006 40.4289 127.137 40.3769 127.296 40.3328C127.455 40.2877 127.638 40.26 127.846 40.2548C128.107 40.2557 128.319 40.2843 128.48 40.3414C128.639 40.396 128.755 40.4731 128.826 40.5692C128.89 40.6515 128.934 40.7355 128.958 40.8213C128.983 40.9079 128.997 40.9902 128.998 41.0698C128.999 41.1495 128.999 41.2188 128.998 41.2794V41.5306C128.997 41.5306 128.971 41.5263 128.923 41.5194C128.872 41.5116 128.805 41.5055 128.72 41.4977C128.633 41.4908 128.537 41.4864 128.426 41.4864C128.238 41.4864 128.047 41.4977 127.857 41.5246C127.665 41.5505 127.48 41.5938 127.304 41.6536C127.125 41.7125 126.962 41.7939 126.813 41.8927C126.664 41.9914 126.537 42.1144 126.431 42.2599C126.348 42.3811 126.285 42.4989 126.244 42.6176C126.201 42.7345 126.175 42.8411 126.161 42.9381C126.146 43.0359 126.14 43.1156 126.141 43.1771C126.14 43.2785 126.152 43.3928 126.177 43.5184C126.201 43.6431 126.244 43.7704 126.304 43.896C126.364 44.0233 126.447 44.142 126.554 44.2502C126.661 44.3585 126.796 44.4469 126.958 44.5161C127.121 44.5854 127.317 44.6244 127.546 44.6331C127.792 44.6374 128.01 44.6106 128.202 44.5517C128.393 44.4936 128.561 44.4113 128.703 44.3039C128.846 44.1948 128.964 44.0684 129.061 43.9228V44.2104C129.06 44.2572 129.063 44.3039 129.07 44.3516C129.078 44.4009 129.099 44.4425 129.134 44.4806C129.163 44.5101 129.199 44.53 129.243 44.5413C129.287 44.5517 129.327 44.5577 129.366 44.5594C129.406 44.5612 129.435 44.5612 129.451 44.5612H129.968ZM126.091 40.6498L125.955 39.7516C125.907 39.7213 125.867 39.697 125.834 39.6788C125.801 39.6615 125.769 39.6459 125.737 39.6338C125.706 39.6217 125.669 39.6104 125.628 39.5983C125.575 39.5844 125.528 39.5758 125.489 39.5697C125.449 39.5654 125.404 39.5619 125.356 39.5619C125.275 39.5611 125.195 39.5671 125.12 39.5758C125.045 39.5862 124.971 39.607 124.9 39.639C124.829 39.6685 124.76 39.7144 124.694 39.7784C124.619 39.8486 124.557 39.9188 124.508 39.9898C124.459 40.0591 124.42 40.124 124.393 40.1812C124.367 40.2384 124.35 40.2799 124.34 40.3085V39.6433H123.369V44.5612H124.34V41.7653C124.339 41.6796 124.342 41.5869 124.346 41.4821C124.351 41.3782 124.366 41.2716 124.388 41.1599C124.412 41.0491 124.45 40.9382 124.503 40.8299C124.555 40.7416 124.619 40.6619 124.695 40.5935C124.771 40.5233 124.862 40.467 124.965 40.4254C125.069 40.3847 125.188 40.3622 125.32 40.3622C125.482 40.3639 125.625 40.3891 125.749 40.4419C125.874 40.4947 125.988 40.5632 126.091 40.6498ZM121.297 43.0957C121.295 43.2152 121.266 43.3218 121.21 43.4136C121.156 43.5062 121.081 43.5859 120.987 43.6526C120.893 43.7184 120.788 43.773 120.671 43.8146C120.607 43.8414 120.54 43.8596 120.472 43.8717C120.403 43.883 120.346 43.8873 120.299 43.8873C120.138 43.8873 119.991 43.8596 119.859 43.8033C119.73 43.7462 119.625 43.6587 119.548 43.54C119.469 43.4196 119.431 43.2663 119.429 43.0775C119.429 43.0307 119.432 42.9805 119.436 42.9268C119.442 42.8714 119.452 42.822 119.465 42.7813C119.512 42.6315 119.594 42.5093 119.713 42.4149C119.831 42.3205 119.977 42.2521 120.154 42.2079C120.331 42.1638 120.531 42.143 120.753 42.143C120.854 42.143 120.945 42.1464 121.026 42.1568C121.109 42.1646 121.175 42.1741 121.223 42.1828C121.272 42.1906 121.295 42.1949 121.297 42.1967V43.0957ZM122.267 44.5612V41.334C122.269 41.1192 122.257 40.9347 122.234 40.7806C122.21 40.6255 122.167 40.4878 122.107 40.3665C122.047 40.2436 121.961 40.1258 121.85 40.0114C121.705 39.8616 121.51 39.7421 121.262 39.6537C121.015 39.5654 120.712 39.5186 120.353 39.5169C120.14 39.5186 119.953 39.5359 119.79 39.568C119.628 39.5992 119.49 39.6381 119.381 39.6788C119.272 39.7213 119.189 39.7585 119.132 39.7906C119.077 39.8226 119.048 39.8399 119.048 39.8408L118.875 40.7043C118.875 40.7009 118.902 40.6784 118.957 40.6368C119.01 40.5935 119.09 40.5441 119.198 40.4852C119.305 40.4289 119.436 40.3769 119.595 40.3328C119.754 40.2877 119.937 40.26 120.145 40.2548C120.407 40.2557 120.618 40.2843 120.779 40.3414C120.937 40.396 121.054 40.4731 121.124 40.5692C121.19 40.6515 121.233 40.7355 121.258 40.8213C121.282 40.9079 121.295 40.9902 121.297 41.0698C121.299 41.1495 121.299 41.2188 121.297 41.2794V41.5306C121.295 41.5306 121.272 41.5263 121.222 41.5194C121.172 41.5116 121.106 41.5055 121.019 41.4977C120.933 41.4908 120.836 41.4864 120.726 41.4864C120.537 41.4864 120.346 41.4977 120.156 41.5246C119.964 41.5505 119.779 41.5938 119.603 41.6536C119.424 41.7125 119.26 41.7939 119.113 41.8927C118.963 41.9914 118.836 42.1144 118.73 42.2599C118.647 42.3811 118.584 42.4989 118.543 42.6176C118.501 42.7345 118.473 42.8411 118.46 42.9381C118.444 43.0359 118.439 43.1156 118.44 43.1771C118.439 43.2785 118.451 43.3928 118.477 43.5184C118.501 43.6431 118.543 43.7704 118.603 43.896C118.664 44.0233 118.748 44.142 118.852 44.2502C118.96 44.3585 119.094 44.4469 119.258 44.5161C119.419 44.5854 119.616 44.6244 119.846 44.6331C120.09 44.6374 120.309 44.6106 120.5 44.5517C120.692 44.4936 120.86 44.4113 121.003 44.3039C121.144 44.1948 121.264 44.0684 121.361 43.9228V44.2104C121.359 44.2572 121.362 44.3039 121.37 44.3516C121.377 44.4009 121.398 44.4425 121.433 44.4806C121.461 44.5101 121.498 44.53 121.542 44.5413C121.586 44.5517 121.626 44.5577 121.666 44.5594C121.705 44.5612 121.734 44.5612 121.75 44.5612H122.267ZM116.839 44.9743C116.842 45.0869 116.811 45.1848 116.749 45.2671C116.687 45.3494 116.605 45.4186 116.499 45.4723C116.395 45.5269 116.278 45.565 116.153 45.5927C116.028 45.6179 115.901 45.6308 115.778 45.6308C115.538 45.6308 115.33 45.6031 115.157 45.546C114.981 45.4905 114.847 45.4117 114.751 45.3121C114.658 45.2108 114.609 45.0938 114.608 44.9561C114.609 44.8617 114.626 44.7768 114.66 44.7006C114.691 44.6244 114.729 44.5594 114.771 44.504C114.813 44.4503 114.851 44.4096 114.883 44.3793C114.916 44.3516 114.933 44.336 114.935 44.336H115.014H115.217H115.489H115.778C115.989 44.3412 116.165 44.362 116.304 44.3992C116.441 44.4373 116.55 44.485 116.629 44.5447C116.706 44.6045 116.762 44.6703 116.793 44.7457C116.825 44.8184 116.84 44.8955 116.839 44.9743ZM116.721 41.2613C116.721 41.4821 116.683 41.6692 116.61 41.8268C116.535 41.9819 116.425 42.1023 116.277 42.1854C116.128 42.2694 115.944 42.3119 115.723 42.3136C115.536 42.3119 115.376 42.2668 115.243 42.1785C115.111 42.0901 115.01 41.9671 114.941 41.8095C114.871 41.6519 114.834 41.47 114.834 41.2613C114.834 41.0439 114.868 40.8602 114.933 40.7087C114.999 40.5571 115.101 40.4419 115.238 40.3639C115.374 40.286 115.548 40.2479 115.76 40.2548C115.94 40.26 116.092 40.2921 116.216 40.3501C116.341 40.409 116.438 40.4869 116.513 40.5831C116.587 40.6784 116.641 40.7849 116.673 40.9018C116.706 41.0187 116.722 41.1383 116.721 41.2613ZM117.809 44.9293C117.817 44.4728 117.652 44.1333 117.318 43.9168C116.984 43.6977 116.492 43.5894 115.842 43.5903C115.767 43.5903 115.68 43.5929 115.579 43.5955C115.477 43.5972 115.373 43.5963 115.267 43.5911C115.158 43.5868 115.06 43.5764 114.968 43.5573C114.874 43.5374 114.8 43.508 114.743 43.4664C114.685 43.424 114.655 43.3677 114.653 43.294C114.655 43.21 114.684 43.1451 114.743 43.1018C114.8 43.0576 114.88 43.029 114.981 43.0117C115.084 42.9961 115.201 42.9874 115.335 42.9874C115.467 42.9866 115.608 42.9866 115.76 42.9874C116.173 42.9866 116.521 42.9155 116.809 42.7761C117.096 42.6384 117.315 42.44 117.465 42.1785C117.614 41.9195 117.69 41.6068 117.691 41.2431V39.6433H117.201C117.163 39.6407 117.12 39.6407 117.076 39.6442C117.034 39.6459 116.991 39.6563 116.946 39.6745C116.902 39.6944 116.86 39.7282 116.821 39.7784C116.786 39.8287 116.764 39.8815 116.757 39.9369C116.749 39.9906 116.747 40.0374 116.749 40.0747V40.1379C116.749 40.1362 116.736 40.1171 116.709 40.0781C116.683 40.0383 116.639 39.9915 116.58 39.9352C116.52 39.8781 116.44 39.8218 116.341 39.7655C116.242 39.7074 116.12 39.6598 115.974 39.6217C115.829 39.5827 115.656 39.5636 115.46 39.5619C115.333 39.5611 115.199 39.5758 115.057 39.6061C114.915 39.6355 114.776 39.6884 114.639 39.7603C114.502 39.8339 114.378 39.9335 114.267 40.0617C114.156 40.1881 114.068 40.3501 114.003 40.5441C113.94 40.739 113.908 40.9711 113.909 41.2431C113.911 41.4301 113.937 41.5956 113.985 41.7394C114.033 41.8831 114.093 42.007 114.165 42.1101C114.236 42.2131 114.308 42.2971 114.379 42.363C114.451 42.4288 114.511 42.4782 114.559 42.5093C114.608 42.5414 114.633 42.5561 114.635 42.5561C114.632 42.5544 114.602 42.5587 114.542 42.57C114.48 42.5795 114.405 42.6011 114.316 42.6332C114.227 42.6644 114.136 42.7103 114.047 42.7735C113.958 42.8359 113.882 42.9207 113.822 43.0247C113.761 43.1303 113.732 43.262 113.728 43.4196C113.722 43.5409 113.735 43.6431 113.768 43.728C113.799 43.812 113.842 43.883 113.896 43.9376C113.95 43.9947 114.01 44.038 114.072 44.071C114.136 44.1039 114.197 44.1299 114.254 44.1472C114.252 44.1472 114.234 44.1576 114.2 44.181C114.165 44.2009 114.121 44.2364 114.07 44.2823C114.017 44.3299 113.966 44.3897 113.914 44.4642C113.861 44.5387 113.817 44.627 113.782 44.7309C113.747 44.8349 113.73 44.9553 113.728 45.0912C113.73 45.3268 113.809 45.5364 113.966 45.7183C114.123 45.8993 114.355 46.044 114.658 46.1471C114.964 46.2501 115.337 46.3038 115.778 46.3047C116.05 46.3047 116.306 46.2787 116.544 46.2259C116.784 46.1722 116.996 46.0899 117.182 45.979C117.366 45.8664 117.515 45.7235 117.625 45.5503C117.735 45.3771 117.796 45.1692 117.809 44.9293ZM111.991 44.9743C111.994 45.0869 111.964 45.1848 111.901 45.2671C111.839 45.3494 111.756 45.4186 111.651 45.4723C111.547 45.5269 111.43 45.565 111.305 45.5927C111.179 45.6179 111.054 45.6308 110.93 45.6308C110.69 45.6308 110.482 45.6031 110.309 45.546C110.133 45.4905 109.998 45.4117 109.903 45.3121C109.81 45.2108 109.761 45.0938 109.76 44.9561C109.761 44.8617 109.778 44.7768 109.811 44.7006C109.843 44.6244 109.881 44.5594 109.922 44.504C109.965 44.4503 110.003 44.4096 110.035 44.3793C110.068 44.3516 110.085 44.336 110.087 44.336H110.166H110.369H110.642H110.93C111.141 44.3412 111.317 44.362 111.456 44.3992C111.593 44.4373 111.702 44.485 111.781 44.5447C111.858 44.6045 111.914 44.6703 111.946 44.7457C111.977 44.8184 111.992 44.8955 111.991 44.9743ZM111.873 41.2613C111.873 41.4821 111.835 41.6692 111.762 41.8268C111.687 41.9819 111.576 42.1023 111.429 42.1854C111.28 42.2694 111.096 42.3119 110.875 42.3136C110.688 42.3119 110.528 42.2668 110.395 42.1785C110.263 42.0901 110.162 41.9671 110.093 41.8095C110.023 41.6519 109.987 41.47 109.987 41.2613C109.987 41.0439 110.02 40.8602 110.085 40.7087C110.151 40.5571 110.253 40.4419 110.391 40.3639C110.526 40.286 110.7 40.2479 110.911 40.2548C111.093 40.26 111.244 40.2921 111.368 40.3501C111.492 40.409 111.59 40.4869 111.665 40.5831C111.738 40.6784 111.793 40.7849 111.824 40.9018C111.858 41.0187 111.874 41.1383 111.873 41.2613ZM112.961 44.9293C112.969 44.4728 112.804 44.1333 112.47 43.9168C112.136 43.6977 111.644 43.5894 110.994 43.5903C110.919 43.5903 110.831 43.5929 110.731 43.5955C110.628 43.5972 110.524 43.5963 110.419 43.5911C110.311 43.5868 110.212 43.5764 110.12 43.5573C110.026 43.5374 109.952 43.508 109.894 43.4664C109.837 43.424 109.806 43.3677 109.805 43.294C109.806 43.21 109.835 43.1451 109.894 43.1018C109.952 43.0576 110.032 43.029 110.133 43.0117C110.236 42.9961 110.353 42.9874 110.487 42.9874C110.619 42.9866 110.76 42.9866 110.911 42.9874C111.324 42.9866 111.673 42.9155 111.961 42.7761C112.247 42.6384 112.468 42.44 112.617 42.1785C112.767 41.9195 112.842 41.6068 112.843 41.2431V39.6433H112.354C112.314 39.6407 112.272 39.6407 112.228 39.6442C112.186 39.6459 112.142 39.6563 112.098 39.6745C112.054 39.6944 112.012 39.7282 111.973 39.7784C111.938 39.8287 111.917 39.8815 111.909 39.9369C111.901 39.9906 111.899 40.0374 111.9 40.0747V40.1379C111.9 40.1362 111.888 40.1171 111.861 40.0781C111.835 40.0383 111.791 39.9915 111.733 39.9352C111.672 39.8781 111.592 39.8218 111.494 39.7655C111.394 39.7074 111.271 39.6598 111.126 39.6217C110.981 39.5827 110.808 39.5636 110.612 39.5619C110.485 39.5611 110.351 39.5758 110.209 39.6061C110.067 39.6355 109.928 39.6884 109.791 39.7603C109.654 39.8339 109.53 39.9335 109.42 40.0617C109.307 40.1881 109.22 40.3501 109.155 40.5441C109.092 40.739 109.06 40.9711 109.062 41.2431C109.063 41.4301 109.089 41.5956 109.137 41.7394C109.185 41.8831 109.246 42.007 109.317 42.1101C109.388 42.2131 109.461 42.2971 109.532 42.363C109.603 42.4288 109.663 42.4782 109.712 42.5093C109.76 42.5414 109.785 42.5561 109.786 42.5561C109.784 42.5544 109.754 42.5587 109.694 42.57C109.632 42.5795 109.557 42.6011 109.468 42.6332C109.379 42.6644 109.288 42.7103 109.199 42.7735C109.11 42.8359 109.035 42.9207 108.974 43.0247C108.913 43.1303 108.884 43.262 108.88 43.4196C108.874 43.5409 108.888 43.6431 108.919 43.728C108.951 43.812 108.993 43.883 109.048 43.9376C109.102 43.9947 109.161 44.038 109.224 44.071C109.288 44.1039 109.348 44.1299 109.406 44.1472C109.404 44.1472 109.387 44.1576 109.352 44.181C109.317 44.2009 109.273 44.2364 109.222 44.2823C109.168 44.3299 109.117 44.3897 109.065 44.4642C109.013 44.5387 108.969 44.627 108.934 44.7309C108.899 44.8349 108.882 44.9553 108.88 45.0912C108.882 45.3268 108.961 45.5364 109.117 45.7183C109.274 45.8993 109.506 46.044 109.81 46.1471C110.115 46.2501 110.489 46.3038 110.93 46.3047C111.202 46.3047 111.458 46.2787 111.696 46.2259C111.935 46.1722 112.148 46.0899 112.334 45.979C112.518 45.8664 112.667 45.7235 112.777 45.5503C112.888 45.3771 112.947 45.1692 112.961 44.9293ZM69.9924 44.5612V41.2613C69.9932 41.1114 69.9854 40.9633 69.9688 40.8195C69.9539 40.6758 69.9225 40.5372 69.8753 40.4047C69.8272 40.273 69.7573 40.1466 69.6656 40.0296C69.5415 39.859 69.3782 39.7343 69.1737 39.6537C68.9701 39.574 68.7325 39.5342 68.459 39.5359C68.2459 39.5385 68.0615 39.568 67.9034 39.6269C67.7444 39.6849 67.6124 39.7568 67.5041 39.8425C67.3966 39.9266 67.3136 40.0106 67.2534 40.0929C67.1922 40.1751 67.1529 40.241 67.1345 40.2903V39.6433H66.1647V44.5612H67.1345V41.5306C67.1337 41.4284 67.1415 41.315 67.1564 41.1946C67.1695 41.0724 67.2018 40.952 67.2499 40.8343C67.2979 40.7156 67.3722 40.6091 67.4709 40.5155C67.5556 40.4367 67.6491 40.3787 67.7548 40.3371C67.8588 40.2938 67.9846 40.273 68.1323 40.273C68.349 40.2739 68.5184 40.3085 68.6425 40.3743C68.7657 40.441 68.8557 40.5302 68.9125 40.6428C68.9701 40.7546 69.006 40.881 69.0199 41.0205C69.0348 41.1599 69.0427 41.3011 69.04 41.4501V44.5612H69.9924ZM64.0827 43.0957C64.081 43.2152 64.0522 43.3218 63.9962 43.4136C63.9421 43.5062 63.8661 43.5859 63.7726 43.6526C63.6791 43.7184 63.5734 43.773 63.4572 43.8146C63.3917 43.8414 63.3253 43.8596 63.2571 43.8717C63.1898 43.883 63.1322 43.8873 63.085 43.8873C62.9234 43.8873 62.7766 43.8596 62.6455 43.8033C62.5153 43.7462 62.4105 43.6587 62.3336 43.54C62.2559 43.4196 62.2157 43.2663 62.2148 43.0775C62.2148 43.0307 62.2174 42.9805 62.2218 42.9268C62.2279 42.8714 62.2366 42.822 62.2506 42.7813C62.2978 42.6315 62.3791 42.5093 62.4988 42.4149C62.6167 42.3205 62.7635 42.2521 62.94 42.2079C63.1173 42.1638 63.3165 42.143 63.5384 42.143C63.6398 42.143 63.7306 42.1464 63.8119 42.1568C63.8958 42.1646 63.9604 42.1741 64.0085 42.1828C64.0574 42.1906 64.081 42.1949 64.0827 42.1967V43.0957ZM65.0534 44.5612V41.334C65.0543 41.1192 65.042 40.9347 65.0202 40.7806C64.9957 40.6255 64.9538 40.4878 64.8926 40.3665C64.8324 40.2436 64.7459 40.1258 64.6358 40.0114C64.4908 39.8616 64.2959 39.7421 64.0478 39.6537C63.7997 39.5654 63.4974 39.5186 63.1392 39.5169C62.926 39.5186 62.739 39.5359 62.5756 39.568C62.414 39.5992 62.276 39.6381 62.1659 39.6788C62.0575 39.7213 61.9737 39.7585 61.9177 39.7906C61.8618 39.8226 61.8339 39.8399 61.8339 39.8408L61.6609 40.7043C61.6609 40.7009 61.6888 40.6784 61.743 40.6368C61.7954 40.5935 61.8758 40.5441 61.9833 40.4852C62.0907 40.4289 62.2218 40.3769 62.3808 40.3328C62.5389 40.2877 62.7224 40.26 62.9304 40.2548C63.1925 40.2557 63.4039 40.2843 63.5646 40.3414C63.7228 40.396 63.8399 40.4731 63.9106 40.5692C63.9753 40.6515 64.019 40.7355 64.0434 40.8213C64.0679 40.9079 64.081 40.9902 64.0827 41.0698C64.0845 41.1495 64.0845 41.2188 64.0827 41.2794V41.5306C64.081 41.5306 64.0574 41.5263 64.0067 41.5194C63.9569 41.5116 63.8905 41.5055 63.8049 41.4977C63.7184 41.4908 63.6214 41.4864 63.5114 41.4864C63.3226 41.4864 63.1322 41.4977 62.9417 41.5246C62.7495 41.5505 62.5652 41.5938 62.3887 41.6536C62.2096 41.7125 62.0462 41.7939 61.8985 41.8927C61.7491 41.9914 61.6224 42.1144 61.5159 42.2599C61.4329 42.3811 61.3691 42.4989 61.328 42.6176C61.2861 42.7345 61.259 42.8411 61.2459 42.9381C61.2302 43.0359 61.224 43.1156 61.2258 43.1771C61.224 43.2785 61.2363 43.3928 61.2616 43.5184C61.2861 43.6431 61.328 43.7704 61.3892 43.896C61.4495 44.0233 61.5325 44.142 61.6382 44.2502C61.7456 44.3585 61.8802 44.4469 62.0436 44.5161C62.2052 44.5854 62.4018 44.6244 62.6316 44.6331C62.8762 44.6374 63.0937 44.6106 63.2859 44.5517C63.4782 44.4936 63.6459 44.4113 63.7874 44.3039C63.9298 44.1948 64.0495 44.0684 64.1465 43.9228V44.2104C64.1448 44.2572 64.1474 44.3039 64.1553 44.3516C64.1631 44.4009 64.1841 44.4425 64.219 44.4806C64.247 44.5101 64.2837 44.53 64.3274 44.5413C64.3711 44.5517 64.4121 44.5577 64.4514 44.5594C64.4908 44.5612 64.5196 44.5612 64.5362 44.5612H65.0534ZM59.2434 43.4014C59.198 43.4612 59.1438 43.5184 59.0791 43.5721C59.0154 43.6275 58.9393 43.676 58.8537 43.7167C58.7506 43.7652 58.6528 43.7999 58.5593 43.8206C58.4649 43.8414 58.3671 43.851 58.264 43.851C58.0674 43.8492 57.9014 43.8051 57.766 43.7176C57.6306 43.631 57.5214 43.508 57.4401 43.3521C57.3571 43.1962 57.2968 43.0134 57.2575 42.8038C57.2199 42.5951 57.1972 42.369 57.1946 42.1248C57.192 41.9862 57.1981 41.8364 57.2095 41.6727C57.2208 41.509 57.2453 41.3453 57.2811 41.1807C57.3195 41.017 57.3772 40.8672 57.4523 40.7295C57.5292 40.5935 57.6323 40.4835 57.7607 40.4003C57.8892 40.3172 58.0508 40.2739 58.2456 40.273C58.4186 40.273 58.5663 40.2981 58.6886 40.3475C58.8127 40.396 58.9131 40.4644 58.99 40.551C59.0625 40.6281 59.115 40.713 59.1534 40.8074C59.1892 40.9035 59.2137 41.0023 59.2268 41.1028C59.239 41.205 59.2451 41.3011 59.2434 41.3964V43.4014ZM60.2141 44.5612V37.8894H59.2434V40.1024C59.2434 40.0998 59.2329 40.0799 59.2102 40.0435C59.1857 40.0036 59.149 39.9577 59.0957 39.9023C59.0416 39.8469 58.9699 39.7906 58.8791 39.7343C58.7891 39.6788 58.6772 39.6312 58.5418 39.5931C58.4073 39.5567 58.2491 39.5368 58.0648 39.5359C57.8079 39.5368 57.5825 39.5775 57.3877 39.6581C57.192 39.7395 57.0242 39.8486 56.8827 39.9863C56.742 40.1258 56.6241 40.2825 56.5306 40.4584C56.4354 40.635 56.3594 40.8195 56.3052 41.0144C56.2493 41.2076 56.21 41.3998 56.1855 41.5895C56.1619 41.7792 56.1514 41.9585 56.1514 42.1248C56.1514 42.3924 56.1706 42.6505 56.2126 42.9C56.2554 43.1477 56.3218 43.3789 56.4126 43.5903C56.5053 43.8033 56.6223 43.9869 56.7709 44.1446C56.9168 44.3039 57.0959 44.4243 57.3047 44.5101C57.5144 44.5958 57.759 44.6374 58.0368 44.6331C58.2142 44.6313 58.3758 44.6088 58.52 44.5629C58.6633 44.5161 58.7978 44.452 58.9219 44.368C59.0477 44.2858 59.1691 44.1861 59.2888 44.0762V44.5612H60.2141ZM54.2048 43.0957C54.2031 43.2152 54.1751 43.3218 54.1192 43.4136C54.0651 43.5062 53.989 43.5859 53.8956 43.6526C53.8021 43.7184 53.6964 43.773 53.5793 43.8146C53.5146 43.8414 53.4474 43.8596 53.3801 43.8717C53.3119 43.883 53.2543 43.8873 53.2071 43.8873C53.0455 43.8873 52.8987 43.8596 52.7676 43.8033C52.6374 43.7462 52.5335 43.6587 52.4566 43.54C52.3771 43.4196 52.3386 43.2663 52.3369 43.0775C52.3369 43.0307 52.3395 42.9805 52.3439 42.9268C52.35 42.8714 52.3596 42.822 52.3727 42.7813C52.4199 42.6315 52.5012 42.5093 52.6208 42.4149C52.7388 42.3205 52.8856 42.2521 53.0621 42.2079C53.2394 42.1638 53.4386 42.143 53.6605 42.143C53.7619 42.143 53.8527 42.1464 53.9349 42.1568C54.0179 42.1646 54.0825 42.1741 54.1306 42.1828C54.1795 42.1906 54.2031 42.1949 54.2048 42.1967V43.0957ZM55.1755 44.5612V41.334C55.1773 41.1192 55.165 40.9347 55.1423 40.7806C55.1178 40.6255 55.0759 40.4878 55.0156 40.3665C54.9545 40.2436 54.8688 40.1258 54.7579 40.0114C54.6137 39.8616 54.418 39.7421 54.1708 39.6537C53.9226 39.5654 53.6203 39.5186 53.2621 39.5169C53.049 39.5186 52.8611 39.5359 52.6977 39.568C52.5361 39.5992 52.3989 39.6381 52.288 39.6788C52.1796 39.7213 52.0966 39.7585 52.0407 39.7906C51.9848 39.8226 51.956 39.8399 51.956 39.8408L51.7839 40.7043C51.7839 40.7009 51.8109 40.6784 51.8651 40.6368C51.9184 40.5935 51.9979 40.5441 52.1054 40.4852C52.2128 40.4289 52.3439 40.3769 52.5029 40.3328C52.6619 40.2877 52.8445 40.26 53.0533 40.2548C53.3154 40.2557 53.526 40.2843 53.6867 40.3414C53.8458 40.396 53.962 40.4731 54.0327 40.5692C54.0983 40.6515 54.1411 40.7355 54.1655 40.8213C54.19 40.9079 54.2031 40.9902 54.2048 41.0698C54.2066 41.1495 54.2066 41.2188 54.2048 41.2794V41.5306C54.2031 41.5306 54.1795 41.5263 54.1297 41.5194C54.0799 41.5116 54.0126 41.5055 53.927 41.4977C53.8405 41.4908 53.7444 41.4864 53.6335 41.4864C53.4447 41.4864 53.2543 41.4977 53.0638 41.5246C52.8716 41.5505 52.6881 41.5938 52.5108 41.6536C52.3325 41.7125 52.1692 41.7939 52.0206 41.8927C51.8712 41.9914 51.7445 42.1144 51.6379 42.2599C51.5549 42.3811 51.492 42.4989 51.451 42.6176C51.409 42.7345 51.382 42.8411 51.368 42.9381C51.3523 43.0359 51.347 43.1156 51.3479 43.1771C51.347 43.2785 51.3584 43.3928 51.3846 43.5184C51.409 43.6431 51.451 43.7704 51.5113 43.896C51.5716 44.0233 51.6554 44.142 51.7611 44.2502C51.8686 44.3585 52.0023 44.4469 52.1657 44.5161C52.3282 44.5854 52.5239 44.6244 52.7537 44.6331C52.9992 44.6374 53.2158 44.6106 53.4089 44.5517C53.6003 44.4936 53.768 44.4113 53.9104 44.3039C54.0528 44.1948 54.1716 44.0684 54.2686 43.9228V44.2104C54.2669 44.2572 54.2704 44.3039 54.2774 44.3516C54.2852 44.4009 54.3062 44.4425 54.3411 44.4806C54.37 44.5101 54.4058 44.53 54.4495 44.5413C54.494 44.5517 54.5351 44.5577 54.5735 44.5594C54.6137 44.5612 54.6417 44.5612 54.6583 44.5612H55.1755ZM49.466 42.5743C49.466 42.7536 49.4433 42.9052 49.3996 43.0299C49.355 43.1537 49.2895 43.2525 49.203 43.3296C49.1016 43.4266 48.9837 43.4941 48.8509 43.5331C48.7163 43.5721 48.58 43.5963 48.4411 43.6024C48.3005 43.6084 48.1703 43.6093 48.0506 43.6084H47.0895V41.567H48.0506C48.2035 41.5653 48.352 41.5705 48.497 41.5817C48.6438 41.5938 48.7784 41.6216 48.9024 41.6631C49.0256 41.7056 49.1322 41.7731 49.2213 41.8641C49.3 41.9481 49.3585 42.0486 49.4004 42.1646C49.445 42.2807 49.466 42.4167 49.466 42.5743ZM49.2213 39.7516C49.2196 39.9369 49.1881 40.0903 49.1261 40.2089C49.0641 40.3293 48.9837 40.422 48.8867 40.4895C48.7897 40.5588 48.6901 40.6065 48.5844 40.6376C48.4787 40.668 48.3817 40.6879 48.2926 40.6948C48.2035 40.7026 48.1336 40.7052 48.0873 40.7043H47.0895V38.8153H48.0873C48.1266 38.8145 48.1808 38.8153 48.2472 38.8188C48.3153 38.8205 48.3878 38.8283 48.4665 38.8396C48.5434 38.8508 48.6211 38.8699 48.6954 38.895C48.7688 38.921 48.8325 38.9582 48.885 39.0041C48.9994 39.0873 49.0833 39.1886 49.1383 39.3073C49.1934 39.4242 49.2213 39.5723 49.2213 39.7516ZM50.6175 42.5561C50.6175 42.4288 50.6053 42.3032 50.5764 42.1776C50.5502 42.0512 50.5048 41.9299 50.441 41.8138C50.3772 41.6978 50.2907 41.5912 50.1824 41.4951C50.0496 41.3756 49.9028 41.2872 49.7438 41.2275C49.5839 41.1668 49.4223 41.1253 49.2572 41.0993C49.3681 41.0638 49.4747 41.0187 49.5804 40.965C49.6879 40.9105 49.7866 40.849 49.8775 40.7788C49.9675 40.7087 50.0452 40.6298 50.1099 40.5424C50.1885 40.4176 50.2523 40.2739 50.2986 40.111C50.3466 39.9473 50.3711 39.7585 50.3729 39.5446C50.3711 39.3012 50.3318 39.0873 50.2532 38.9028C50.1763 38.7183 50.0706 38.5624 49.9386 38.4351C49.8076 38.3078 49.6582 38.2108 49.4931 38.1415C49.286 38.0505 49.0702 37.9882 48.843 37.9587C48.6176 37.9284 48.3712 37.9128 48.1056 37.9171H45.9922V44.5612H48.0873C48.2489 44.5629 48.4184 44.5577 48.5949 44.5482C48.7723 44.5369 48.9487 44.5161 49.1244 44.4815C49.3008 44.4469 49.4703 44.3932 49.632 44.3213C49.7936 44.2511 49.9404 44.1541 50.074 44.0311C50.2173 43.8882 50.3292 43.7358 50.4078 43.5721C50.4882 43.4084 50.5415 43.2403 50.5738 43.0689C50.6035 42.8965 50.6192 42.7259 50.6175 42.5561ZM155.281 44.5612V41.2613C155.282 41.1114 155.274 40.9633 155.257 40.8195C155.242 40.6758 155.21 40.5372 155.164 40.4047C155.116 40.273 155.046 40.1466 154.954 40.0296C154.83 39.859 154.667 39.7343 154.462 39.6537C154.259 39.574 154.021 39.5342 153.747 39.5359C153.534 39.5385 153.35 39.568 153.191 39.6269C153.033 39.6849 152.901 39.7568 152.793 39.8425C152.685 39.9266 152.601 40.0106 152.541 40.0929C152.481 40.1751 152.441 40.241 152.423 40.2903V39.6433H151.453V44.5612H152.423V41.5306C152.421 41.4284 152.43 41.315 152.444 41.1946C152.458 41.0724 152.489 40.952 152.537 40.8343C152.586 40.7156 152.661 40.6091 152.758 40.5155C152.843 40.4367 152.938 40.3787 153.042 40.3371C153.148 40.2938 153.273 40.273 153.422 40.273C153.637 40.2739 153.806 40.3085 153.931 40.3743C154.054 40.441 154.143 40.5302 154.201 40.6428C154.259 40.7546 154.294 40.881 154.308 41.0205C154.323 41.1599 154.331 41.3011 154.328 41.4501V44.5612H155.281ZM150.287 39.6433H149.326V44.5612H150.287V39.6433ZM150.369 38.384C150.367 38.2887 150.343 38.2038 150.293 38.1328C150.243 38.0618 150.177 38.0064 150.09 37.9674C150.005 37.9284 149.908 37.9076 149.798 37.9076C149.687 37.9094 149.59 37.9319 149.507 37.9769C149.423 38.0211 149.356 38.08 149.309 38.1519C149.261 38.2238 149.236 38.3017 149.235 38.384C149.235 38.4801 149.256 38.5667 149.299 38.6421C149.341 38.7183 149.403 38.7772 149.486 38.8205C149.569 38.8638 149.673 38.8863 149.798 38.8881C149.91 38.8863 150.009 38.8638 150.095 38.8205C150.179 38.7772 150.246 38.7183 150.295 38.6421C150.343 38.5667 150.367 38.4801 150.369 38.384ZM148.196 44.5612V41.2794C148.198 41.1651 148.191 41.0413 148.179 40.9053C148.167 40.7693 148.142 40.6316 148.103 40.4947C148.063 40.3544 148.004 40.2228 147.924 40.0972C147.845 39.9707 147.74 39.8616 147.607 39.7689C147.482 39.6849 147.347 39.6234 147.198 39.587C147.052 39.5515 146.906 39.5342 146.763 39.5359C146.567 39.5368 146.391 39.5636 146.24 39.6148C146.089 39.665 145.959 39.7282 145.848 39.8053C145.739 39.8832 145.65 39.9603 145.579 40.04C145.509 40.1197 145.455 40.1881 145.419 40.2479C145.383 40.3085 145.362 40.3466 145.357 40.3622C145.351 40.3371 145.335 40.2903 145.306 40.2245C145.275 40.1587 145.232 40.0851 145.17 40.0028C145.109 39.9196 145.031 39.8425 144.931 39.7689C144.845 39.7126 144.754 39.6667 144.656 39.6329C144.558 39.5983 144.459 39.5723 144.36 39.5576C144.262 39.5429 144.167 39.5359 144.078 39.5359C143.87 39.5368 143.69 39.5654 143.535 39.6191C143.381 39.6736 143.252 39.7421 143.146 39.8244C143.041 39.9066 142.958 39.9906 142.898 40.0781C142.836 40.1647 142.795 40.241 142.772 40.3085V39.6433H141.811V44.5612H142.772V41.5497C142.774 41.3444 142.789 41.1755 142.821 41.043C142.853 40.9105 142.895 40.8031 142.948 40.7208C142.998 40.6376 143.055 40.571 143.117 40.5155C143.188 40.4462 143.269 40.3925 143.36 40.351C143.452 40.3111 143.559 40.2903 143.68 40.2903C143.826 40.2903 143.946 40.3068 144.035 40.3414C144.124 40.3743 144.199 40.4194 144.259 40.4791C144.332 40.5441 144.389 40.6195 144.432 40.7069C144.474 40.7935 144.505 40.8975 144.523 41.0187C144.541 41.14 144.55 41.2846 144.55 41.4501V44.5612H145.494V41.5497C145.491 41.4336 145.495 41.3167 145.505 41.1954C145.515 41.0733 145.542 40.9555 145.587 40.8394C145.633 40.7225 145.707 40.6143 145.811 40.5155C145.89 40.4384 145.977 40.3813 146.077 40.3466C146.174 40.3085 146.277 40.2903 146.381 40.2903C146.5 40.2877 146.607 40.2999 146.704 40.3232C146.801 40.3466 146.89 40.3951 146.971 40.4705C147.04 40.5389 147.088 40.6039 147.12 40.6645C147.153 40.7251 147.173 40.7745 147.181 40.8117C147.192 40.855 147.204 40.9105 147.216 40.9798C147.227 41.0473 147.235 41.1235 147.242 41.205C147.25 41.2872 147.252 41.3678 147.252 41.4501V44.5612H148.196ZM139.711 43.0957C139.709 43.2152 139.68 43.3218 139.625 43.4136C139.57 43.5062 139.495 43.5859 139.401 43.6526C139.307 43.7184 139.201 43.773 139.085 43.8146C139.02 43.8414 138.954 43.8596 138.885 43.8717C138.818 43.883 138.761 43.8873 138.713 43.8873C138.551 43.8873 138.405 43.8596 138.274 43.8033C138.143 43.7462 138.039 43.6587 137.963 43.54C137.883 43.4196 137.845 43.2663 137.843 43.0775C137.843 43.0307 137.845 42.9805 137.851 42.9268C137.856 42.8714 137.866 42.822 137.879 42.7813C137.926 42.6315 138.008 42.5093 138.127 42.4149C138.245 42.3205 138.392 42.2521 138.568 42.2079C138.745 42.1638 138.945 42.143 139.167 42.143C139.268 42.143 139.359 42.1464 139.441 42.1568C139.524 42.1646 139.588 42.1741 139.637 42.1828C139.685 42.1906 139.709 42.1949 139.711 42.1967V43.0957ZM140.681 44.5612V41.334C140.683 41.1192 140.671 40.9347 140.648 40.7806C140.624 40.6255 140.582 40.4878 140.522 40.3665C140.461 40.2436 140.375 40.1258 140.264 40.0114C140.119 39.8616 139.924 39.7421 139.676 39.6537C139.429 39.5654 139.126 39.5186 138.767 39.5169C138.555 39.5186 138.367 39.5359 138.204 39.568C138.042 39.5992 137.905 39.6381 137.795 39.6788C137.686 39.7213 137.603 39.7585 137.547 39.7906C137.491 39.8226 137.462 39.8399 137.462 39.8408L137.29 40.7043C137.29 40.7009 137.317 40.6784 137.371 40.6368C137.424 40.5935 137.504 40.5441 137.611 40.4852C137.719 40.4289 137.851 40.3769 138.009 40.3328C138.168 40.2877 138.35 40.26 138.559 40.2548C138.821 40.2557 139.033 40.2843 139.193 40.3414C139.352 40.396 139.467 40.4731 139.539 40.5692C139.604 40.6515 139.648 40.7355 139.671 40.8213C139.696 40.9079 139.709 40.9902 139.711 41.0698C139.713 41.1495 139.713 41.2188 139.711 41.2794V41.5306C139.709 41.5306 139.685 41.5263 139.636 41.5194C139.585 41.5116 139.519 41.5055 139.433 41.4977C139.346 41.4908 139.25 41.4864 139.139 41.4864C138.951 41.4864 138.761 41.4977 138.57 41.5246C138.378 41.5505 138.193 41.5938 138.016 41.6536C137.838 41.7125 137.675 41.7939 137.527 41.8927C137.377 41.9914 137.25 42.1144 137.145 42.2599C137.061 42.3811 136.998 42.4989 136.957 42.6176C136.914 42.7345 136.888 42.8411 136.874 42.9381C136.858 43.0359 136.853 43.1156 136.854 43.1771C136.853 43.2785 136.864 43.3928 136.891 43.5184C136.914 43.6431 136.957 43.7704 137.017 43.896C137.078 44.0233 137.161 44.142 137.266 44.2502C137.375 44.3585 137.508 44.4469 137.672 44.5161C137.833 44.5854 138.03 44.6244 138.26 44.6331C138.505 44.6374 138.723 44.6106 138.915 44.5517C139.106 44.4936 139.274 44.4113 139.416 44.3039C139.559 44.1948 139.678 44.0684 139.775 43.9228V44.2104C139.773 44.2572 139.776 44.3039 139.784 44.3516C139.791 44.4009 139.812 44.4425 139.847 44.4806C139.876 44.5101 139.912 44.53 139.956 44.5413C140 44.5517 140.04 44.5577 140.08 44.5594C140.119 44.5612 140.148 44.5612 140.164 44.5612H140.681ZM136.006 42.143V37.9171H134.891V42.143C134.892 42.2937 134.887 42.4487 134.878 42.6081C134.87 42.7648 134.848 42.9173 134.815 43.0628C134.782 43.21 134.732 43.3399 134.664 43.4551C134.568 43.5955 134.445 43.7029 134.297 43.7765C134.148 43.8492 133.974 43.8873 133.774 43.8873C133.626 43.8856 133.488 43.8709 133.361 43.8414C133.232 43.8137 133.119 43.7791 133.02 43.741C132.923 43.7029 132.845 43.6691 132.789 43.6362C132.732 43.605 132.701 43.5868 132.695 43.5816L132.941 44.543C132.941 44.5447 132.965 44.5569 133.013 44.5802C133.061 44.6045 133.129 44.6331 133.219 44.6651C133.31 44.6963 133.421 44.7249 133.55 44.7491C133.676 44.7725 133.821 44.7846 133.983 44.7855C134.047 44.7872 134.132 44.7846 134.241 44.7768C134.349 44.7699 134.47 44.7517 134.601 44.7231C134.733 44.6946 134.864 44.6495 134.997 44.588C135.129 44.5265 135.252 44.4425 135.362 44.336C135.475 44.2303 135.572 44.1134 135.653 43.9843C135.736 43.8553 135.802 43.7055 135.854 43.5366C135.906 43.3677 135.944 43.1693 135.97 42.9415C135.994 42.7137 136.006 42.447 136.006 42.143ZM164.994 44.5612V41.2613C164.996 41.1114 164.988 40.9633 164.972 40.8195C164.957 40.6758 164.925 40.5372 164.878 40.4047C164.83 40.273 164.76 40.1466 164.668 40.0296C164.544 39.859 164.38 39.7343 164.177 39.6537C163.972 39.574 163.735 39.5342 163.462 39.5359C163.249 39.5385 163.064 39.568 162.905 39.6269C162.746 39.6849 162.615 39.7568 162.506 39.8425C162.4 39.9266 162.316 40.0106 162.255 40.0929C162.195 40.1751 162.156 40.241 162.137 40.2903V39.6433H161.167V44.5612H162.137V41.5306C162.136 41.4284 162.144 41.315 162.158 41.1946C162.172 41.0724 162.204 40.952 162.252 40.8343C162.301 40.7156 162.375 40.6091 162.473 40.5155C162.558 40.4367 162.651 40.3787 162.758 40.3371C162.862 40.2938 162.987 40.273 163.135 40.273C163.352 40.2739 163.521 40.3085 163.645 40.3743C163.769 40.441 163.858 40.5302 163.915 40.6428C163.972 40.7546 164.008 40.881 164.022 41.0205C164.038 41.1599 164.045 41.3011 164.043 41.4501V44.5612H164.994ZM159.086 43.0957C159.084 43.2152 159.055 43.3218 158.998 43.4136C158.945 43.5062 158.869 43.5859 158.776 43.6526C158.682 43.7184 158.575 43.773 158.459 43.8146C158.395 43.8414 158.327 43.8596 158.26 43.8717C158.192 43.883 158.134 43.8873 158.087 43.8873C157.925 43.8873 157.779 43.8596 157.648 43.8033C157.518 43.7462 157.413 43.6587 157.336 43.54C157.258 43.4196 157.219 43.2663 157.217 43.0775C157.217 43.0307 157.219 42.9805 157.224 42.9268C157.231 42.8714 157.24 42.822 157.254 42.7813C157.3 42.6315 157.381 42.5093 157.502 42.4149C157.619 42.3205 157.766 42.2521 157.942 42.2079C158.119 42.1638 158.319 42.143 158.541 42.143C158.643 42.143 158.734 42.1464 158.815 42.1568C158.898 42.1646 158.963 42.1741 159.011 42.1828C159.059 42.1906 159.084 42.1949 159.086 42.1967V43.0957ZM160.055 44.5612V41.334C160.057 41.1192 160.045 40.9347 160.022 40.7806C159.999 40.6255 159.956 40.4878 159.895 40.3665C159.835 40.2436 159.749 40.1258 159.639 40.0114C159.493 39.8616 159.299 39.7421 159.051 39.6537C158.803 39.5654 158.5 39.5186 158.142 39.5169C157.929 39.5186 157.741 39.5359 157.578 39.568C157.416 39.5992 157.279 39.6381 157.169 39.6788C157.06 39.7213 156.977 39.7585 156.921 39.7906C156.865 39.8226 156.836 39.8399 156.836 39.8408L156.664 40.7043C156.664 40.7009 156.691 40.6784 156.746 40.6368C156.798 40.5935 156.879 40.5441 156.985 40.4852C157.094 40.4289 157.224 40.3769 157.383 40.3328C157.542 40.2877 157.724 40.26 157.933 40.2548C158.195 40.2557 158.407 40.2843 158.567 40.3414C158.726 40.396 158.842 40.4731 158.913 40.5692C158.978 40.6515 159.022 40.7355 159.046 40.8213C159.07 40.9079 159.084 40.9902 159.086 41.0698C159.087 41.1495 159.087 41.2188 159.086 41.2794V41.5306C159.084 41.5306 159.059 41.5263 159.01 41.5194C158.96 41.5116 158.893 41.5055 158.807 41.4977C158.72 41.4908 158.624 41.4864 158.514 41.4864C158.325 41.4864 158.134 41.4977 157.944 41.5246C157.752 41.5505 157.568 41.5938 157.391 41.6536C157.212 41.7125 157.049 41.7939 156.901 41.8927C156.751 41.9914 156.624 42.1144 156.519 42.2599C156.436 42.3811 156.372 42.4989 156.331 42.6176C156.289 42.7345 156.262 42.8411 156.248 42.9381C156.233 43.0359 156.227 43.1156 156.229 43.1771C156.227 43.2785 156.239 43.3928 156.264 43.5184C156.289 43.6431 156.331 43.7704 156.391 43.896C156.452 44.0233 156.535 44.142 156.641 44.2502C156.749 44.3585 156.883 44.4469 157.046 44.5161C157.207 44.5854 157.404 44.6244 157.634 44.6331C157.879 44.6374 158.097 44.6106 158.289 44.5517C158.481 44.4936 158.649 44.4113 158.79 44.3039C158.933 44.1948 159.052 44.0684 159.149 43.9228V44.2104C159.147 44.2572 159.15 44.3039 159.157 44.3516C159.166 44.4009 159.186 44.4425 159.221 44.4806C159.25 44.5101 159.286 44.53 159.33 44.5413C159.373 44.5517 159.415 44.5577 159.454 44.5594C159.493 44.5612 159.523 44.5612 159.538 44.5612H160.055ZM190.301 37.8894H189.358V44.5612H190.301V37.8894ZM187.185 43.0957C187.183 43.2152 187.155 43.3218 187.099 43.4136C187.045 43.5062 186.969 43.5859 186.875 43.6526C186.782 43.7184 186.676 43.773 186.56 43.8146C186.495 43.8414 186.428 43.8596 186.36 43.8717C186.291 43.883 186.234 43.8873 186.187 43.8873C186.026 43.8873 185.879 43.8596 185.747 43.8033C185.618 43.7462 185.513 43.6587 185.436 43.54C185.358 43.4196 185.318 43.2663 185.316 43.0775C185.316 43.0307 185.32 42.9805 185.324 42.9268C185.33 42.8714 185.339 42.822 185.353 42.7813C185.4 42.6315 185.481 42.5093 185.6 42.4149C185.719 42.3205 185.866 42.2521 186.042 42.2079C186.219 42.1638 186.419 42.143 186.641 42.143C186.742 42.143 186.832 42.1464 186.914 42.1568C186.997 42.1646 187.063 42.1741 187.111 42.1828C187.159 42.1906 187.183 42.1949 187.185 42.1967V43.0957ZM188.155 44.5612V41.334C188.157 41.1192 188.145 40.9347 188.123 40.7806C188.097 40.6255 188.055 40.4878 187.995 40.3665C187.935 40.2436 187.848 40.1258 187.738 40.0114C187.593 39.8616 187.398 39.7421 187.15 39.6537C186.902 39.5654 186.6 39.5186 186.242 39.5169C186.029 39.5186 185.841 39.5359 185.677 39.568C185.516 39.5992 185.378 39.6381 185.268 39.6788C185.16 39.7213 185.076 39.7585 185.02 39.7906C184.964 39.8226 184.936 39.8399 184.936 39.8408L184.763 40.7043C184.763 40.7009 184.791 40.6784 184.845 40.6368C184.898 40.5935 184.978 40.5441 185.086 40.4852C185.192 40.4289 185.324 40.3769 185.483 40.3328C185.641 40.2877 185.824 40.26 186.033 40.2548C186.295 40.2557 186.506 40.2843 186.666 40.3414C186.825 40.396 186.941 40.4731 187.012 40.5692C187.078 40.6515 187.121 40.7355 187.146 40.8213C187.17 40.9079 187.183 40.9902 187.185 41.0698C187.187 41.1495 187.187 41.2188 187.185 41.2794V41.5306C187.183 41.5306 187.159 41.5263 187.109 41.5194C187.059 41.5116 186.993 41.5055 186.907 41.4977C186.821 41.4908 186.724 41.4864 186.614 41.4864C186.424 41.4864 186.234 41.4977 186.043 41.5246C185.852 41.5505 185.668 41.5938 185.491 41.6536C185.312 41.7125 185.15 41.7939 185 41.8927C184.852 41.9914 184.724 42.1144 184.618 42.2599C184.535 42.3811 184.472 42.4989 184.431 42.6176C184.389 42.7345 184.361 42.8411 184.347 42.9381C184.333 43.0359 184.326 43.1156 184.327 43.1771C184.326 43.2785 184.339 43.3928 184.365 43.5184C184.389 43.6431 184.431 43.7704 184.491 43.896C184.552 44.0233 184.635 44.142 184.741 44.2502C184.848 44.3585 184.983 44.4469 185.146 44.5161C185.308 44.5854 185.504 44.6244 185.733 44.6331C185.979 44.6374 186.197 44.6106 186.388 44.5517C186.581 44.4936 186.748 44.4113 186.89 44.3039C187.032 44.1948 187.152 44.0684 187.249 43.9228V44.2104C187.247 44.2572 187.251 44.3039 187.258 44.3516C187.266 44.4009 187.287 44.4425 187.321 44.4806C187.349 44.5101 187.386 44.53 187.43 44.5413C187.474 44.5517 187.515 44.5577 187.554 44.5594C187.593 44.5612 187.622 44.5612 187.639 44.5612H188.155ZM183.362 39.6433H182.401V44.5612H183.362V39.6433ZM183.443 38.384C183.442 38.2887 183.418 38.2038 183.368 38.1328C183.318 38.0618 183.252 38.0064 183.165 37.9674C183.079 37.9284 182.982 37.9076 182.872 37.9076C182.762 37.9094 182.666 37.9319 182.582 37.9769C182.497 38.0211 182.431 38.08 182.384 38.1519C182.335 38.2238 182.311 38.3017 182.31 38.384C182.31 38.4801 182.331 38.5667 182.374 38.6421C182.415 38.7183 182.478 38.7772 182.56 38.8205C182.644 38.8638 182.748 38.8863 182.872 38.8881C182.985 38.8863 183.083 38.8638 183.17 38.8205C183.254 38.7772 183.321 38.7183 183.37 38.6421C183.418 38.5667 183.442 38.4801 183.443 38.384ZM181.47 43.1676C181.468 42.9285 181.414 42.7241 181.309 42.5535C181.205 42.3811 181.062 42.2339 180.882 42.1101C180.702 41.9862 180.501 41.8771 180.273 41.7827C180.163 41.7385 180.05 41.69 179.933 41.6389C179.818 41.5886 179.711 41.5306 179.611 41.4657C179.512 41.4007 179.431 41.3262 179.371 41.2422C179.309 41.1565 179.277 41.0586 179.276 40.9468C179.277 40.7476 179.346 40.5943 179.481 40.4878C179.617 40.3813 179.81 40.3276 180.055 40.3267C180.254 40.3232 180.426 40.3414 180.574 40.3769C180.723 40.415 180.846 40.4584 180.946 40.5077C181.044 40.5588 181.12 40.6039 181.17 40.6428C181.22 40.6818 181.244 40.7009 181.244 40.7043L181.108 39.8945C181.108 39.8936 181.086 39.8755 181.041 39.8425C180.996 39.8079 180.923 39.7698 180.824 39.7273C180.723 39.6849 180.592 39.6477 180.431 39.6173C180.269 39.587 180.071 39.5758 179.838 39.5801C179.622 39.5801 179.419 39.6078 179.23 39.6667C179.042 39.7239 178.878 39.8088 178.735 39.9231C178.592 40.0357 178.48 40.1751 178.4 40.3432C178.321 40.5095 178.28 40.7009 178.278 40.9191C178.28 41.1443 178.321 41.3349 178.397 41.4942C178.475 41.651 178.577 41.7844 178.704 41.8944C178.831 42.0027 178.972 42.0979 179.125 42.1776C179.277 42.2547 179.43 42.3266 179.581 42.3924C179.734 42.4608 179.874 42.5275 180.001 42.5994C180.128 42.6713 180.232 42.7536 180.308 42.848C180.385 42.9424 180.426 43.0576 180.427 43.1953C180.427 43.4196 180.356 43.5842 180.214 43.6916C180.073 43.7981 179.856 43.8527 179.566 43.851C179.392 43.8475 179.222 43.825 179.058 43.7808C178.895 43.7358 178.744 43.6847 178.613 43.6266C178.482 43.5677 178.377 43.5166 178.297 43.4716C178.22 43.4266 178.179 43.4049 178.178 43.4014L178.314 44.336C178.378 44.3741 178.468 44.4191 178.588 44.4702C178.709 44.5205 178.863 44.5646 179.05 44.6019C179.238 44.6374 179.464 44.6539 179.729 44.6513C179.984 44.6513 180.222 44.614 180.444 44.5369C180.665 44.4624 180.861 44.3507 181.035 44.2009C181.168 44.0891 181.274 43.9462 181.352 43.773C181.429 43.5989 181.469 43.3962 181.47 43.1676ZM176.477 42.143C176.477 42.4903 176.44 42.7926 176.364 43.0533C176.289 43.3157 176.171 43.5184 176.017 43.6647C175.86 43.8103 175.664 43.8847 175.424 43.8873C175.155 43.8882 174.933 43.8267 174.763 43.7029C174.594 43.5781 174.47 43.3885 174.391 43.1303C174.311 42.8722 174.272 42.5422 174.274 42.143C174.272 41.8987 174.285 41.6631 174.316 41.4414C174.345 41.2188 174.401 41.0187 174.482 40.8438C174.563 40.668 174.68 40.5302 174.833 40.4289C174.983 40.3267 175.182 40.2739 175.424 40.273C175.617 40.2773 175.776 40.3172 175.904 40.3925C176.032 40.467 176.134 40.5675 176.212 40.6948C176.289 40.8213 176.346 40.965 176.383 41.1235C176.422 41.2846 176.448 41.4501 176.461 41.625C176.473 41.8 176.479 41.9715 176.477 42.143ZM177.502 42.1248C177.504 41.8537 177.482 41.5912 177.438 41.3392C177.395 41.0863 177.326 40.8516 177.227 40.635C177.129 40.4194 177.001 40.2288 176.838 40.0651C176.676 39.9023 176.477 39.775 176.241 39.6814C176.005 39.5896 175.728 39.5394 175.407 39.5359C175.089 39.5368 174.813 39.5827 174.573 39.6736C174.334 39.7655 174.13 39.8902 173.962 40.0539C173.792 40.215 173.656 40.4055 173.551 40.6229C173.446 40.8403 173.37 41.0759 173.321 41.3305C173.273 41.5852 173.249 41.8502 173.249 42.1248C173.247 42.5015 173.285 42.8428 173.363 43.1494C173.44 43.4569 173.563 43.721 173.732 43.9419C173.902 44.1628 174.125 44.3334 174.401 44.452C174.676 44.5724 175.011 44.6313 175.407 44.6331C175.738 44.6348 176.034 44.5724 176.293 44.4425C176.553 44.3161 176.772 44.135 176.952 43.9055C177.13 43.6734 177.268 43.4075 177.361 43.1026C177.456 42.7995 177.502 42.4738 177.502 42.1248ZM172.554 42.6462C172.554 42.4314 172.521 42.2391 172.457 42.0676C172.393 41.8961 172.302 41.7411 172.182 41.6034C172.056 41.4501 171.911 41.3167 171.747 41.205C171.584 41.0932 171.413 40.9945 171.235 40.9096C171.055 40.8239 170.878 40.7424 170.704 40.6697C170.528 40.5952 170.368 40.5198 170.216 40.4419C170.066 40.3648 169.939 40.2791 169.833 40.1821C169.77 40.1171 169.722 40.0547 169.685 39.9984C169.649 39.9404 169.624 39.8798 169.61 39.8183C169.594 39.7568 169.588 39.6892 169.588 39.6156C169.587 39.4918 169.615 39.3688 169.673 39.2458C169.732 39.1228 169.83 39.0145 169.969 38.9236C170.064 38.8612 170.187 38.8136 170.341 38.7815C170.493 38.7495 170.677 38.7356 170.894 38.7356C171.01 38.7356 171.121 38.7426 171.23 38.759C171.34 38.7737 171.443 38.7919 171.538 38.8153C171.681 38.8456 171.8 38.8785 171.897 38.9123C171.994 38.9461 172.067 38.9782 172.12 39.0059C172.174 39.0353 172.207 39.0535 172.219 39.0674L171.992 38.1146C171.991 38.1086 171.964 38.0921 171.911 38.067C171.857 38.0393 171.774 38.0098 171.663 37.9769C171.552 37.9457 171.407 37.9171 171.23 37.8912C171.052 37.8669 170.837 37.8557 170.586 37.8531C170.393 37.8522 170.201 37.8686 170.013 37.9033C169.826 37.9379 169.644 37.9934 169.472 38.0713C169.3 38.1484 169.138 38.2523 168.99 38.384C168.857 38.4983 168.751 38.623 168.669 38.7547C168.588 38.8863 168.528 39.0232 168.491 39.1618C168.455 39.3012 168.437 39.4407 168.437 39.5801C168.435 39.7369 168.452 39.8919 168.484 40.04C168.515 40.1899 168.57 40.3293 168.646 40.4618C168.735 40.6091 168.845 40.7372 168.979 40.8472C169.114 40.9555 169.264 41.0542 169.427 41.1417C169.592 41.2283 169.762 41.3124 169.938 41.3929C170.115 41.4743 170.29 41.5601 170.462 41.6501C170.635 41.7411 170.797 41.8459 170.949 41.9628C171.046 42.033 171.126 42.1066 171.191 42.1819C171.256 42.2556 171.304 42.3396 171.337 42.4305C171.367 42.5215 171.385 42.6263 171.385 42.7449C171.385 42.9277 171.348 43.0818 171.275 43.21C171.204 43.3365 171.094 43.4482 170.949 43.5452C170.875 43.5989 170.787 43.6396 170.686 43.6699C170.584 43.6994 170.483 43.721 170.381 43.734C170.277 43.7479 170.186 43.7548 170.104 43.7583C170.023 43.7617 169.967 43.7617 169.933 43.7617C169.829 43.7617 169.725 43.7548 169.621 43.7436C169.52 43.7306 169.421 43.7167 169.325 43.6977C169.117 43.6578 168.943 43.6188 168.803 43.5781C168.662 43.54 168.555 43.5062 168.482 43.4794C168.41 43.4517 168.37 43.4396 168.364 43.437L168.609 44.3724C168.613 44.3741 168.646 44.388 168.704 44.4174C168.764 44.446 168.854 44.4798 168.977 44.5161C169.098 44.5534 169.255 44.5872 169.446 44.6157C169.637 44.6435 169.865 44.6582 170.133 44.6599C170.337 44.6617 170.55 44.6452 170.77 44.6106C170.992 44.5768 171.209 44.517 171.42 44.433C171.631 44.3481 171.821 44.2303 171.992 44.077C172.163 43.9263 172.298 43.7323 172.399 43.4967C172.499 43.2637 172.551 42.9796 172.554 42.6462Z" fill="#2B3078"/>
<path d="M5.04807 31.5615C5.45696 28.744 8.29994 27.987 8.57515 25.4164C7.2917 25.9811 5.75663 25.8035 4.6322 24.882C3.38632 27.1079 3.31905 29.2949 5.04807 31.5615Z" fill="#2B3078"/>
<path d="M10.5412 23.3984C11.9958 23.1854 13.24 22.1746 14.4308 21.1768C16.0795 19.7954 18.3729 18.0908 20.5588 18.2563C16.6517 17.061 12.4257 17.9107 9.8457 19.4844C10.8373 20.5749 11.0689 22.1036 10.5412 23.3984Z" fill="#2B3078"/>
<path d="M29.2146 32.4396C28.8057 35.2562 25.9618 36.0141 25.6875 38.5847C26.9701 38.0192 28.506 38.1967 29.6304 39.1191C30.8763 36.8915 30.9436 34.7062 29.2146 32.4396Z" fill="#2B3078"/>
<path d="M23.7208 40.6021C22.2661 40.8151 21.022 41.8259 19.8303 42.8237C18.1825 44.2043 15.8891 45.9097 13.7031 45.7451C17.6103 46.9403 21.8363 46.0898 24.4163 44.5161C23.4246 43.4256 23.1931 41.896 23.7208 40.6021Z" fill="#2B3078"/>
<path d="M17.5742 20.021C20.4154 20.4264 21.1799 23.2456 23.7722 23.5176C23.2016 22.2461 23.3816 20.7235 24.3112 19.6096C22.065 18.3737 19.8598 18.3078 17.5742 20.021Z" fill="#009F3C"/>
<path d="M25.8086 25.4675C26.0244 26.9096 27.0431 28.1429 28.0496 29.3243C29.4431 30.9587 31.1625 33.2323 30.9965 35.3984C32.2022 31.5251 31.3443 27.3366 29.7568 24.778C28.6568 25.7611 27.1156 25.9915 25.8086 25.4675Z" fill="#009F3C"/>
<path d="M16.6882 43.9797C13.8469 43.5743 13.0825 40.7551 10.4894 40.4823C11.0599 41.7546 10.8808 43.2772 9.95117 44.3919C12.1974 45.6279 14.4026 45.6937 16.6882 43.9797Z" fill="#009F3C"/>
<path d="M8.45461 38.5332C8.23881 37.0903 7.22009 35.8569 6.21273 34.6764C4.82007 33.0429 3.10066 30.7693 3.26666 28.6023C2.06097 32.4756 2.91893 36.665 4.50642 39.2227C5.60639 38.2396 7.14845 38.0092 8.45461 38.5332Z" fill="#009F3C"/>
<path d="M29.4609 19.7773C30.6674 20.9734 30.6674 22.9127 29.4609 24.1088C28.2552 25.3049 26.299 25.3049 25.0924 24.1088C23.8859 22.9127 23.8859 20.9734 25.0924 19.7773C26.299 18.5812 28.2552 18.5812 29.4609 19.7773Z" fill="#009F3C"/>
<path d="M9.17006 39.8921C10.3757 41.0882 10.3757 43.0266 9.17006 44.2227C7.9635 45.418 6.00731 45.418 4.80075 44.2227C3.59506 43.0266 3.59506 41.0882 4.80075 39.8921C6.00731 38.696 7.9635 38.696 9.17006 39.8921Z" fill="#009F3C"/>
<path d="M29.4609 44.2227C28.2552 45.418 26.299 45.418 25.0924 44.2227C23.8859 43.0266 23.8859 41.0882 25.0924 39.8921C26.299 38.696 28.2552 38.696 29.4609 39.8921C30.6674 41.0882 30.6674 43.0266 29.4609 44.2227Z" fill="#2B3078"/>
<path d="M9.17006 24.1094C7.9635 25.3047 6.00731 25.3047 4.80075 24.1094C3.59506 22.9133 3.59506 20.9732 4.80075 19.7779C6.00731 18.5818 7.9635 18.5818 9.17006 19.7779C10.3757 20.9732 10.3757 22.9133 9.17006 24.1094Z" fill="#2B3078"/>
<path d="M15.816 34.5819V35.6594H18.4467V33.3044L20.7087 35.4714C20.8991 35.6516 20.8834 35.7521 20.886 35.9192V36.6598C20.886 36.6701 20.8852 36.6814 20.8852 36.6927V36.7022C20.8843 36.71 20.8843 36.7186 20.8843 36.7273L20.8834 36.736C20.8825 36.7464 20.8825 36.7576 20.8817 36.768L20.8808 36.7706C20.8808 36.781 20.8799 36.7905 20.8782 36.8001L20.8773 36.8105C20.8764 36.8183 20.8755 36.826 20.8747 36.8347L20.8738 36.8416C20.872 36.8529 20.8712 36.8633 20.8694 36.8728L20.8686 36.8806C20.8668 36.8893 20.8651 36.8971 20.8642 36.9057L20.8624 36.9144C20.8607 36.9231 20.8589 36.9308 20.8581 36.9395L20.8563 36.9473C20.8537 36.9568 20.852 36.9672 20.8493 36.9768L20.8476 36.9845C20.8458 36.9923 20.8441 37.001 20.8415 37.0088L20.8388 37.0175C20.8371 37.0261 20.8345 37.0356 20.8319 37.0452L20.831 37.0478C20.8284 37.0582 20.8257 37.0677 20.8222 37.0772L20.8196 37.0868C20.817 37.0937 20.8144 37.1015 20.8126 37.1084L20.8091 37.1171C20.8056 37.1266 20.8022 37.1353 20.7995 37.1439L20.7969 37.1508C20.7943 37.1578 20.7908 37.1673 20.7873 37.1751L20.7838 37.1846C20.7812 37.1924 20.7786 37.1985 20.7751 37.2054L20.7724 37.2141C20.7681 37.2227 20.7637 37.2323 20.7593 37.2409L20.7576 37.2478C20.7532 37.2548 20.7506 37.2626 20.7471 37.2695L20.7419 37.279C20.7384 37.2851 20.7349 37.292 20.7323 37.299L20.7279 37.3067C20.7235 37.3154 20.7192 37.3241 20.7139 37.3327L20.7095 37.3414C20.706 37.3475 20.7026 37.3535 20.6991 37.3596L20.6929 37.37C20.6894 37.376 20.686 37.3812 20.6825 37.3873L20.6772 37.3968C20.6728 37.4038 20.6676 37.4124 20.6624 37.4202L20.6554 37.4306C20.6519 37.4358 20.6493 37.4401 20.6458 37.4453L20.6379 37.4566C20.6344 37.4618 20.6309 37.467 20.6265 37.4722L20.6187 37.4843C20.6134 37.4912 20.6091 37.4973 20.6038 37.5034L20.596 37.5146C20.5933 37.5181 20.589 37.5233 20.5864 37.5276L20.5776 37.538C20.5732 37.5432 20.568 37.5493 20.5636 37.5553C20.5601 37.5588 20.5566 37.564 20.5532 37.5683C20.5488 37.5726 20.5453 37.577 20.5409 37.583L20.5322 37.5934C20.5278 37.5969 20.5243 37.6012 20.5199 37.6047C20.5173 37.609 20.5138 37.6125 20.5112 37.616C20.506 37.6211 20.5007 37.6263 20.4955 37.6324C20.4911 37.6367 20.4868 37.6411 20.4824 37.6454C20.4798 37.6489 20.4763 37.6532 20.4719 37.6558L20.4614 37.6671L20.4501 37.6783C20.4466 37.6809 20.4431 37.6844 20.4396 37.6878H20.4387C20.4326 37.6939 20.4265 37.7 20.4204 37.7052C20.4169 37.7086 20.4125 37.713 20.409 37.7156C20.4046 37.719 20.4011 37.7225 20.3976 37.7259L20.3863 37.7355L20.3749 37.7459C20.3679 37.7519 20.3601 37.7571 20.3531 37.7632L20.3426 37.771C20.3382 37.7745 20.3347 37.7779 20.3304 37.7814L20.319 37.79C20.3146 37.7926 20.3103 37.7952 20.3059 37.7987C20.3024 37.8013 20.2989 37.8039 20.2954 37.8065C20.2867 37.8126 20.2788 37.8186 20.2692 37.8247L20.2605 37.8308C20.2561 37.8342 20.2509 37.8377 20.2456 37.8403L20.236 37.8472C20.2308 37.8498 20.2255 37.8533 20.2211 37.8567L20.2107 37.8628C20.2028 37.868 20.1941 37.8732 20.1853 37.8775L20.174 37.8853C20.1687 37.8888 20.1635 37.8905 20.1591 37.894L20.1478 37.9C20.1425 37.9026 20.1373 37.9052 20.1329 37.9078L20.1268 37.9113C20.1154 37.9165 20.1058 37.9226 20.0945 37.9269L20.0831 37.9338L20.0683 37.9407C20.0639 37.9425 20.0595 37.9442 20.0551 37.9468C19.8725 38.03 19.6699 38.0759 19.4558 38.0759H15.816V39.1533L13.4894 36.8676L15.816 34.5819ZM18.4467 30.6965H20.8222V33.3044H19.7354L22.041 35.6117L24.3467 33.3044H23.2598V29.6961C23.2598 29.4839 23.2135 29.283 23.1288 29.102C23.127 29.0976 23.1244 29.0933 23.1227 29.089L23.1157 29.0742L23.1096 29.063C23.1043 29.0526 23.0991 29.0422 23.0938 29.0318L23.0903 29.0257C23.0877 29.0205 23.0851 29.0153 23.0816 29.0102L23.0755 28.9989C23.0729 28.9946 23.0702 28.9894 23.0676 28.9859L23.0606 28.9729C23.0554 28.9642 23.0501 28.9556 23.0449 28.9478L23.0388 28.9383C23.0353 28.9322 23.0318 28.9279 23.0283 28.9227L23.0222 28.9131C23.0187 28.9079 23.0161 28.9028 23.0126 28.8984L23.0065 28.8898C23.0003 28.8802 22.9942 28.8724 22.9881 28.8638C22.9855 28.8612 22.9829 28.8568 22.9803 28.8542C22.9776 28.8499 22.9741 28.8456 22.9706 28.8413L22.9619 28.8291C22.9584 28.8248 22.9558 28.8213 22.9523 28.817L22.9436 28.8075C22.9383 28.7997 22.9322 28.7919 22.9261 28.7858L22.9165 28.7746L22.9069 28.7633C22.9034 28.759 22.8999 28.7555 22.8964 28.752C22.8929 28.7477 22.8894 28.7434 22.8859 28.7408V28.7399C22.8798 28.7339 22.8745 28.7269 22.8684 28.7209C22.8649 28.7183 22.8614 28.7139 22.8579 28.7105L22.8475 28.7001L22.8361 28.6888C22.8326 28.6845 22.8291 28.6819 22.8247 28.6784C22.8204 28.6741 22.8169 28.6698 22.8125 28.6663C22.8073 28.6611 22.8011 28.655 22.7959 28.6498C22.7915 28.6472 22.788 28.6438 22.7854 28.6412C22.7802 28.6369 22.7767 28.6334 22.7723 28.6299L22.7618 28.6213C22.7566 28.6169 22.7522 28.6126 22.747 28.6091C22.7426 28.6048 22.7391 28.6013 22.7347 28.5979C22.7286 28.5927 22.7225 28.5892 22.7173 28.584L22.7068 28.5762C22.7024 28.5719 22.6972 28.5684 22.6928 28.5658L22.6823 28.5572C22.6762 28.5528 22.6692 28.5476 22.6631 28.5442L22.6509 28.5355C22.6456 28.5321 22.6404 28.5277 22.6351 28.5243L22.6229 28.5173C22.6185 28.5139 22.6142 28.5104 22.6089 28.5078L22.5976 28.5C22.5897 28.4957 22.5819 28.4896 22.574 28.4853L22.5653 28.4801C22.5591 28.4766 22.5539 28.474 22.5478 28.4697L22.5373 28.4636C22.5312 28.461 22.5251 28.4567 22.5189 28.4541L22.5093 28.4489C22.5015 28.4446 22.4927 28.4394 22.484 28.4359L22.4761 28.4316C22.4691 28.4273 22.4622 28.4238 22.4552 28.4212L22.4464 28.4169C22.4386 28.4134 22.4316 28.4099 22.4246 28.4065L22.4185 28.4039C22.4089 28.3995 22.3993 28.3961 22.3905 28.3917L22.3818 28.3874C22.3748 28.3848 22.3678 28.3831 22.3608 28.3796L22.3512 28.3753C22.3433 28.3727 22.3346 28.3692 22.3267 28.3658L22.3197 28.364C22.311 28.3606 22.3023 28.358 22.2927 28.3545L22.2831 28.351C22.2761 28.3493 22.2691 28.3467 22.2621 28.345L22.2533 28.3424C22.2429 28.3389 22.2324 28.3354 22.2228 28.3328H22.2201C22.2105 28.3294 22.2009 28.3268 22.1922 28.325L22.1835 28.3224C22.1747 28.3199 22.1668 28.319 22.1581 28.3164L22.152 28.3147C22.1415 28.3129 22.131 28.3103 22.1205 28.3086L22.1136 28.3069C22.1048 28.3051 22.097 28.3034 22.0891 28.3017L22.0786 28.2999C22.0707 28.2991 22.0629 28.2973 22.0541 28.2956L22.0472 28.2947C22.0358 28.293 22.0253 28.2913 22.0148 28.2904L22.0078 28.2895C22 28.2887 21.9904 28.2878 21.9825 28.2878L21.9729 28.2861C21.9633 28.2852 21.9537 28.2843 21.9432 28.2835H21.9406C21.9292 28.2826 21.9178 28.2817 21.9074 28.2809L21.8986 28.28C21.8908 28.28 21.882 28.2791 21.8742 28.2791H21.8637C21.8532 28.2791 21.8418 28.2791 21.8314 28.2791H21.0844C20.9149 28.2809 20.8144 28.2653 20.6327 28.4541L18.4467 30.6965ZM15.816 33.3044H13.4413V30.6965H14.5273L12.2217 28.39L9.91602 30.6965H11.0029V34.3048C11.0029 34.5178 11.0501 34.7188 11.1339 34.8998C11.1357 34.9033 11.1383 34.9076 11.1401 34.9119L11.147 34.9275L11.1532 34.9388C11.1584 34.9483 11.1636 34.9596 11.1689 34.9699L11.1724 34.9751C11.175 34.9812 11.1785 34.9864 11.1811 34.9907L11.1872 35.002C11.1899 35.0072 11.1925 35.0115 11.196 35.0167L11.203 35.0288C11.2073 35.0375 11.2126 35.0462 11.2187 35.054L11.2248 35.0635C11.2274 35.0678 11.2309 35.073 11.2344 35.0782L11.2405 35.0886C11.244 35.0929 11.2475 35.0981 11.251 35.1025L11.2571 35.112C11.2624 35.1207 11.2685 35.1284 11.2746 35.1371C11.2772 35.1406 11.2798 35.144 11.2825 35.1475C11.286 35.1518 11.2886 35.1562 11.2921 35.1605L11.3008 35.1718C11.3043 35.1752 11.3069 35.1795 11.3104 35.1839L11.3192 35.1943C11.3244 35.2012 11.3305 35.209 11.3375 35.2168L11.3462 35.2272L11.3567 35.2384C11.3602 35.2428 11.3628 35.2454 11.3663 35.2506C11.3698 35.2532 11.3733 35.2575 11.3768 35.261C11.3821 35.2679 11.3882 35.274 11.3943 35.28C11.3978 35.2835 11.4013 35.2869 11.4048 35.2904L11.4153 35.3008L11.4266 35.3121C11.4301 35.3164 11.4345 35.3199 11.438 35.3233C11.4423 35.3277 11.4458 35.332 11.4511 35.3354C11.4563 35.3406 11.4616 35.3458 11.4677 35.351C11.4712 35.3536 11.4747 35.3571 11.4782 35.3606C11.4825 35.364 11.486 35.3684 11.4904 35.3718L11.5009 35.3805C11.5053 35.384 11.5105 35.3883 11.5157 35.3917C11.5201 35.3961 11.5245 35.3995 11.5288 35.403C11.5341 35.4073 11.5402 35.4125 11.5463 35.4169L11.5568 35.4255C11.5612 35.4281 11.5655 35.4325 11.5699 35.4359L11.5804 35.4437C11.5874 35.448 11.5935 35.4532 11.5996 35.4576L11.6118 35.4654C11.6171 35.4697 11.6232 35.4732 11.6276 35.4766L11.6398 35.4844C11.6442 35.4879 11.6494 35.4905 11.6538 35.4939L11.6651 35.5009C11.673 35.5061 11.6809 35.5113 11.6887 35.5156L11.6975 35.5208C11.7036 35.5243 11.7097 35.5277 11.7149 35.5312L11.7254 35.5373C11.7315 35.5407 11.7385 35.5442 11.7438 35.5476L11.7534 35.552C11.7612 35.5563 11.77 35.5615 11.7787 35.565L11.7875 35.5702C11.7936 35.5736 11.8006 35.5771 11.8075 35.5806L11.8163 35.5849C11.8241 35.5884 11.8311 35.591 11.839 35.5944L11.8451 35.597C11.8547 35.6022 11.8635 35.6057 11.8731 35.61L11.8818 35.6135C11.8879 35.6161 11.8949 35.6187 11.9019 35.6213L11.9115 35.6256C11.9203 35.6291 11.9281 35.6317 11.9369 35.6351L11.943 35.6369C11.9526 35.6403 11.9604 35.6438 11.9701 35.6464L11.9797 35.6499C11.9867 35.6516 11.9936 35.6542 12.0006 35.6568L12.0102 35.6594C12.0199 35.6628 12.0303 35.6654 12.0399 35.6689H12.0434C12.0522 35.6715 12.0618 35.6741 12.0705 35.6767L12.0793 35.6793C12.088 35.681 12.0959 35.6828 12.1046 35.6845L12.1116 35.6862C12.1221 35.6888 12.1317 35.6914 12.1422 35.6932L12.15 35.694C12.1579 35.6966 12.1658 35.6975 12.1745 35.6992L12.1841 35.701C12.1928 35.7027 12.1998 35.7036 12.2086 35.7053L12.2164 35.7061C12.226 35.7079 12.2374 35.7087 12.2479 35.7105L12.2549 35.7113C12.2636 35.7122 12.2723 35.7131 12.2802 35.7148L12.2898 35.7157C12.2994 35.7157 12.309 35.7174 12.3195 35.7183H12.3221C12.3335 35.7191 12.3449 35.72 12.3553 35.72H12.3641C12.3728 35.7217 12.3807 35.7217 12.3894 35.7217H12.399H12.4322H13.1792C13.3479 35.72 13.4483 35.7365 13.6309 35.5476L15.816 33.3044ZM15.816 30.6956L13.554 28.5303C13.3636 28.3493 13.3793 28.2497 13.3776 28.0817V27.3411C13.3776 27.3307 13.3776 27.3203 13.3776 27.3091V27.2996C13.3784 27.2909 13.3784 27.2831 13.3793 27.2753V27.2666C13.3802 27.2554 13.3811 27.2433 13.3811 27.2337L13.3819 27.2303C13.3828 27.2199 13.3837 27.2112 13.3846 27.2008L13.3854 27.1922C13.3863 27.1835 13.3872 27.1748 13.388 27.167L13.3898 27.1592C13.3907 27.1489 13.3915 27.1385 13.3933 27.1281L13.3942 27.1203C13.3959 27.1125 13.3977 27.1038 13.3994 27.096L13.4003 27.0856C13.402 27.0778 13.4038 27.07 13.4055 27.0614L13.4073 27.0544C13.409 27.0449 13.4108 27.0337 13.4134 27.0241L13.4151 27.0172C13.4169 27.0085 13.4195 26.9999 13.4212 26.9921L13.423 26.9834C13.4256 26.9748 13.4282 26.9652 13.4309 26.9566L13.4317 26.954C13.4344 26.9436 13.4378 26.9332 13.4413 26.9237L13.4431 26.9141C13.4457 26.9072 13.4483 26.9003 13.4501 26.8933L13.4536 26.8838C13.4571 26.8743 13.4597 26.8656 13.4632 26.8578L13.4658 26.8509C13.4684 26.8422 13.4719 26.8344 13.4754 26.8267L13.4789 26.8163C13.4815 26.8093 13.4842 26.8024 13.4876 26.7955L13.4911 26.7877C13.4955 26.779 13.499 26.7695 13.5034 26.7591L13.506 26.7539C13.5095 26.7461 13.513 26.7392 13.5165 26.7314L13.5208 26.7227C13.5243 26.7158 13.5278 26.7097 13.5305 26.7028L13.5348 26.6941C13.5392 26.6855 13.5444 26.6768 13.5488 26.6682L13.554 26.6604C13.5567 26.6534 13.5602 26.6474 13.5637 26.6413L13.5698 26.6309C13.5733 26.6257 13.5768 26.6188 13.5803 26.6145L13.5855 26.6049C13.5907 26.5971 13.5951 26.5893 13.6004 26.5815L13.6073 26.5711C13.6108 26.566 13.6143 26.5608 13.6178 26.5556L13.6248 26.5443C13.6283 26.54 13.6327 26.5348 13.6362 26.5287L13.6449 26.5166C13.6493 26.5097 13.6536 26.5036 13.6589 26.4984L13.6668 26.4871C13.6702 26.4828 13.6737 26.4785 13.6772 26.4741L13.6851 26.4637C13.6895 26.4577 13.6947 26.4525 13.6991 26.4464C13.7026 26.4421 13.7061 26.4378 13.7096 26.4334C13.7139 26.4282 13.7183 26.4239 13.7227 26.4187L13.7305 26.4083C13.7349 26.4049 13.7384 26.3997 13.7428 26.3962C13.7454 26.3927 13.7489 26.3884 13.7515 26.3858C13.7576 26.3797 13.762 26.3745 13.7672 26.3693C13.7716 26.3641 13.776 26.3607 13.7795 26.3563C13.7838 26.352 13.7873 26.3486 13.7908 26.3451L13.8022 26.3338L13.8127 26.3243C13.817 26.32 13.8196 26.3165 13.824 26.313C13.8301 26.3078 13.8362 26.3018 13.8424 26.2966V26.2957C13.8467 26.2923 13.8502 26.2888 13.8537 26.2853C13.8581 26.2819 13.8616 26.2784 13.8651 26.2758L13.8764 26.2663L13.8878 26.2567C13.8957 26.2507 13.9026 26.2446 13.9105 26.2377L13.9201 26.2299C13.9245 26.2264 13.9289 26.2238 13.9324 26.2212L13.9446 26.2117C13.949 26.2091 13.9524 26.2048 13.9568 26.2022C13.9603 26.1996 13.9638 26.197 13.9673 26.1953C13.976 26.1883 13.9848 26.1831 13.9935 26.1771L14.0022 26.171C14.0066 26.1675 14.0119 26.1641 14.0171 26.1606L14.0267 26.1545C14.032 26.1511 14.0372 26.1476 14.0416 26.1441L14.052 26.139C14.0608 26.1338 14.0686 26.1277 14.0774 26.1225L14.0887 26.1164C14.094 26.1138 14.0992 26.1104 14.1036 26.1078L14.115 26.1008C14.1202 26.0982 14.1254 26.0956 14.1307 26.093L14.1368 26.0896C14.1473 26.0844 14.1569 26.0792 14.1682 26.0731L14.1796 26.0688L14.1945 26.061C14.1988 26.0584 14.2032 26.0567 14.2076 26.0549C14.3902 25.9709 14.5929 25.9242 14.8069 25.9242H18.4467V24.8476L20.7742 27.1333L18.4467 29.419V28.3424H15.816V30.6956Z" fill="#009F3C"/>
</g>
<path d="M15.8258 35.6338V33.2953H13.4668V30.7047H15.8258V28.367H18.4389V30.7047H20.797V33.2953H18.4389V35.6338H15.8258Z" fill="white"/>
</g>
<defs>
<clipPath id="clip0_654_212">
<rect width="189" height="30" fill="white" transform="translate(2 17)"/>
</clipPath>
</defs>
</svg>
