<svg width="302" height="106" viewBox="0 0 302 106" fill="none" xmlns="http://www.w3.org/2000/svg">
<path d="M111.136 83V71.8H112.832V81.656H117.92V83H111.136ZM122.369 83.192C121.697 83.192 121.143 83.08 120.705 82.856C120.268 82.632 119.943 82.3387 119.729 81.976C119.516 81.6027 119.409 81.1973 119.409 80.76C119.409 79.992 119.708 79.384 120.305 78.936C120.903 78.488 121.756 78.264 122.865 78.264H124.945V78.12C124.945 77.5013 124.775 77.0373 124.433 76.728C124.103 76.4187 123.671 76.264 123.137 76.264C122.668 76.264 122.257 76.3813 121.905 76.616C121.564 76.84 121.356 77.176 121.281 77.624H119.585C119.639 77.048 119.831 76.5573 120.161 76.152C120.503 75.736 120.929 75.4213 121.441 75.208C121.964 74.984 122.535 74.872 123.153 74.872C124.263 74.872 125.121 75.1653 125.729 75.752C126.337 76.328 126.641 77.1173 126.641 78.12V83H125.169L125.025 81.64C124.801 82.0773 124.476 82.4453 124.049 82.744C123.623 83.0427 123.063 83.192 122.369 83.192ZM122.705 81.816C123.164 81.816 123.548 81.7093 123.857 81.496C124.177 81.272 124.423 80.9787 124.593 80.616C124.775 80.2533 124.887 79.8533 124.929 79.416H123.041C122.369 79.416 121.889 79.5333 121.601 79.768C121.324 80.0027 121.185 80.296 121.185 80.648C121.185 81.0107 121.319 81.2987 121.585 81.512C121.863 81.7147 122.236 81.816 122.705 81.816ZM131.787 83.192C130.784 83.192 129.958 82.9467 129.307 82.456C128.656 81.9653 128.283 81.3147 128.187 80.504H129.899C129.984 80.8667 130.187 81.1813 130.507 81.448C130.827 81.704 131.248 81.832 131.771 81.832C132.283 81.832 132.656 81.7253 132.891 81.512C133.126 81.2987 133.243 81.0533 133.243 80.776C133.243 80.3707 133.078 80.0987 132.747 79.96C132.427 79.8107 131.979 79.6773 131.403 79.56C130.955 79.464 130.507 79.336 130.059 79.176C129.622 79.016 129.254 78.792 128.955 78.504C128.667 78.2053 128.523 77.8053 128.523 77.304C128.523 76.6107 128.79 76.0347 129.323 75.576C129.856 75.1067 130.603 74.872 131.563 74.872C132.448 74.872 133.163 75.0853 133.707 75.512C134.262 75.9387 134.587 76.5413 134.683 77.32H133.051C132.998 76.9787 132.838 76.712 132.571 76.52C132.315 76.328 131.968 76.232 131.531 76.232C131.104 76.232 130.774 76.3227 130.539 76.504C130.304 76.6747 130.187 76.8987 130.187 77.176C130.187 77.4533 130.347 77.672 130.667 77.832C130.998 77.992 131.43 78.136 131.963 78.264C132.496 78.3813 132.987 78.52 133.435 78.68C133.894 78.8293 134.262 79.0533 134.539 79.352C134.816 79.6507 134.955 80.088 134.955 80.664C134.966 81.3893 134.683 81.992 134.107 82.472C133.542 82.952 132.768 83.192 131.787 83.192ZM136.806 83V71.48H138.502V78.344L141.542 75.064H143.574L140.198 78.664L144.07 83H141.926L138.502 78.936V83H136.806ZM147.901 83.192C147.229 83.192 146.674 83.08 146.237 82.856C145.799 82.632 145.474 82.3387 145.261 81.976C145.047 81.6027 144.941 81.1973 144.941 80.76C144.941 79.992 145.239 79.384 145.837 78.936C146.434 78.488 147.287 78.264 148.397 78.264H150.477V78.12C150.477 77.5013 150.306 77.0373 149.965 76.728C149.634 76.4187 149.202 76.264 148.669 76.264C148.199 76.264 147.789 76.3813 147.437 76.616C147.095 76.84 146.887 77.176 146.813 77.624H145.117C145.17 77.048 145.362 76.5573 145.693 76.152C146.034 75.736 146.461 75.4213 146.973 75.208C147.495 74.984 148.066 74.872 148.685 74.872C149.794 74.872 150.653 75.1653 151.261 75.752C151.869 76.328 152.173 77.1173 152.173 78.12V83H150.701L150.557 81.64C150.333 82.0773 150.007 82.4453 149.581 82.744C149.154 83.0427 148.594 83.192 147.901 83.192ZM148.237 81.816C148.695 81.816 149.079 81.7093 149.389 81.496C149.709 81.272 149.954 80.9787 150.125 80.616C150.306 80.2533 150.418 79.8533 150.461 79.416H148.573C147.901 79.416 147.421 79.5333 147.133 79.768C146.855 80.0027 146.717 80.296 146.717 80.648C146.717 81.0107 146.85 81.2987 147.117 81.512C147.394 81.7147 147.767 81.816 148.237 81.816ZM154.15 83V75.064H155.67L155.814 76.568C156.091 76.0453 156.475 75.6347 156.966 75.336C157.467 75.0267 158.07 74.872 158.774 74.872V76.648H158.31C157.841 76.648 157.419 76.728 157.046 76.888C156.683 77.0373 156.39 77.2987 156.166 77.672C155.953 78.0347 155.846 78.5413 155.846 79.192V83H154.15Z" fill="#27AEA1"/>
<path d="M164.324 83V71.8H171.444V73.176H166.02V76.664H170.964V78.008H166.02V81.624H171.444V83H164.324ZM173.4 83V71.48H175.096V78.344L178.136 75.064H180.168L176.792 78.664L180.664 83H178.52L175.096 78.936V83H173.4ZM185.081 83.192C184.324 83.192 183.641 83.0213 183.033 82.68C182.436 82.328 181.961 81.8427 181.609 81.224C181.257 80.5947 181.081 79.864 181.081 79.032C181.081 78.2 181.257 77.4747 181.609 76.856C181.972 76.2267 182.457 75.7413 183.065 75.4C183.673 75.048 184.35 74.872 185.097 74.872C185.854 74.872 186.532 75.048 187.129 75.4C187.737 75.7413 188.217 76.2267 188.569 76.856C188.932 77.4747 189.113 78.2 189.113 79.032C189.113 79.864 188.932 80.5947 188.569 81.224C188.217 81.8427 187.737 82.328 187.129 82.68C186.521 83.0213 185.838 83.192 185.081 83.192ZM185.081 81.736C185.486 81.736 185.86 81.6347 186.201 81.432C186.553 81.2293 186.836 80.9307 187.049 80.536C187.262 80.1307 187.369 79.6293 187.369 79.032C187.369 78.4347 187.262 77.9387 187.049 77.544C186.846 77.1387 186.569 76.8347 186.217 76.632C185.876 76.4293 185.502 76.328 185.097 76.328C184.692 76.328 184.313 76.4293 183.961 76.632C183.62 76.8347 183.342 77.1387 183.129 77.544C182.916 77.9387 182.809 78.4347 182.809 79.032C182.809 79.6293 182.916 80.1307 183.129 80.536C183.342 80.9307 183.62 81.2293 183.961 81.432C184.302 81.6347 184.676 81.736 185.081 81.736ZM194.115 83.192C193.112 83.192 192.286 82.9467 191.635 82.456C190.984 81.9653 190.611 81.3147 190.515 80.504H192.227C192.312 80.8667 192.515 81.1813 192.835 81.448C193.155 81.704 193.576 81.832 194.099 81.832C194.611 81.832 194.984 81.7253 195.219 81.512C195.454 81.2987 195.571 81.0533 195.571 80.776C195.571 80.3707 195.406 80.0987 195.075 79.96C194.755 79.8107 194.307 79.6773 193.731 79.56C193.283 79.464 192.835 79.336 192.387 79.176C191.95 79.016 191.582 78.792 191.283 78.504C190.995 78.2053 190.851 77.8053 190.851 77.304C190.851 76.6107 191.118 76.0347 191.651 75.576C192.184 75.1067 192.931 74.872 193.891 74.872C194.776 74.872 195.491 75.0853 196.035 75.512C196.59 75.9387 196.915 76.5413 197.011 77.32H195.379C195.326 76.9787 195.166 76.712 194.899 76.52C194.643 76.328 194.296 76.232 193.859 76.232C193.432 76.232 193.102 76.3227 192.867 76.504C192.632 76.6747 192.515 76.8987 192.515 77.176C192.515 77.4533 192.675 77.672 192.995 77.832C193.326 77.992 193.758 78.136 194.291 78.264C194.824 78.3813 195.315 78.52 195.763 78.68C196.222 78.8293 196.59 79.0533 196.867 79.352C197.144 79.6507 197.283 80.088 197.283 80.664C197.294 81.3893 197.011 81.992 196.435 82.472C195.87 82.952 195.096 83.192 194.115 83.192ZM200.095 73.56C199.775 73.56 199.508 73.464 199.295 73.272C199.092 73.0693 198.991 72.8187 198.991 72.52C198.991 72.2213 199.092 71.976 199.295 71.784C199.508 71.5813 199.775 71.48 200.095 71.48C200.415 71.48 200.676 71.5813 200.879 71.784C201.092 71.976 201.199 72.2213 201.199 72.52C201.199 72.8187 201.092 73.0693 200.879 73.272C200.676 73.464 200.415 73.56 200.095 73.56ZM199.247 83V75.064H200.943V83H199.247ZM206.349 83.192C205.347 83.192 204.52 82.9467 203.869 82.456C203.219 81.9653 202.845 81.3147 202.749 80.504H204.461C204.547 80.8667 204.749 81.1813 205.069 81.448C205.389 81.704 205.811 81.832 206.333 81.832C206.845 81.832 207.219 81.7253 207.453 81.512C207.688 81.2987 207.805 81.0533 207.805 80.776C207.805 80.3707 207.64 80.0987 207.309 79.96C206.989 79.8107 206.541 79.6773 205.965 79.56C205.517 79.464 205.069 79.336 204.621 79.176C204.184 79.016 203.816 78.792 203.517 78.504C203.229 78.2053 203.085 77.8053 203.085 77.304C203.085 76.6107 203.352 76.0347 203.885 75.576C204.419 75.1067 205.165 74.872 206.125 74.872C207.011 74.872 207.725 75.0853 208.269 75.512C208.824 75.9387 209.149 76.5413 209.245 77.32H207.613C207.56 76.9787 207.4 76.712 207.133 76.52C206.877 76.328 206.531 76.232 206.093 76.232C205.667 76.232 205.336 76.3227 205.101 76.504C204.867 76.6747 204.749 76.8987 204.749 77.176C204.749 77.4533 204.909 77.672 205.229 77.832C205.56 77.992 205.992 78.136 206.525 78.264C207.059 78.3813 207.549 78.52 207.997 78.68C208.456 78.8293 208.824 79.0533 209.101 79.352C209.379 79.6507 209.517 80.088 209.517 80.664C209.528 81.3893 209.245 81.992 208.669 82.472C208.104 82.952 207.331 83.192 206.349 83.192ZM214.4 83C213.621 83 213.003 82.8133 212.544 82.44C212.085 82.056 211.856 81.3787 211.856 80.408V76.488H210.496V75.064H211.856L212.064 73.048H213.552V75.064H215.792V76.488H213.552V80.408C213.552 80.8453 213.643 81.1493 213.824 81.32C214.016 81.48 214.341 81.56 214.8 81.56H215.712V83H214.4ZM221.05 83.192C220.271 83.192 219.578 83.0213 218.97 82.68C218.372 82.328 217.903 81.8427 217.562 81.224C217.22 80.6053 217.05 79.8853 217.05 79.064C217.05 78.232 217.215 77.5013 217.546 76.872C217.887 76.2427 218.356 75.752 218.954 75.4C219.562 75.048 220.266 74.872 221.066 74.872C221.844 74.872 222.522 75.048 223.098 75.4C223.674 75.7413 224.122 76.2 224.442 76.776C224.762 77.352 224.922 77.9867 224.922 78.68C224.922 78.7867 224.916 78.904 224.906 79.032C224.906 79.1493 224.9 79.2827 224.89 79.432H218.714C218.767 80.2 219.018 80.7867 219.466 81.192C219.924 81.5867 220.452 81.784 221.05 81.784C221.53 81.784 221.93 81.6773 222.25 81.464C222.58 81.24 222.826 80.9413 222.986 80.568H224.682C224.468 81.3147 224.042 81.9387 223.402 82.44C222.772 82.9413 221.988 83.192 221.05 83.192ZM221.05 76.264C220.484 76.264 219.983 76.4347 219.546 76.776C219.108 77.1067 218.842 77.608 218.746 78.28H223.226C223.194 77.6613 222.975 77.1707 222.57 76.808C222.164 76.4453 221.658 76.264 221.05 76.264ZM226.681 83V75.064H228.185L228.329 76.184C228.585 75.7787 228.921 75.4587 229.337 75.224C229.764 74.9893 230.255 74.872 230.809 74.872C232.068 74.872 232.943 75.368 233.433 76.36C233.721 75.9013 234.105 75.5387 234.585 75.272C235.076 75.0053 235.604 74.872 236.169 74.872C237.161 74.872 237.94 75.1707 238.505 75.768C239.071 76.3653 239.353 77.256 239.353 78.44V83H237.657V78.616C237.657 77.08 237.071 76.312 235.897 76.312C235.3 76.312 234.809 76.536 234.425 76.984C234.052 77.432 233.865 78.072 233.865 78.904V83H232.169V78.616C232.169 77.08 231.577 76.312 230.393 76.312C229.807 76.312 229.321 76.536 228.937 76.984C228.564 77.432 228.377 78.072 228.377 78.904V83H226.681ZM245.433 83V71.8H249.657C250.82 71.8 251.7 72.072 252.297 72.616C252.894 73.16 253.193 73.8427 253.193 74.664C253.193 75.3787 253.001 75.9493 252.617 76.376C252.233 76.792 251.769 77.0747 251.225 77.224C251.652 77.3093 252.03 77.48 252.361 77.736C252.702 77.992 252.969 78.312 253.161 78.696C253.353 79.08 253.449 79.496 253.449 79.944C253.449 80.52 253.305 81.0427 253.017 81.512C252.74 81.9707 252.329 82.3333 251.785 82.6C251.241 82.8667 250.574 83 249.785 83H245.433ZM247.129 76.6H249.449C250.1 76.6 250.596 76.4507 250.937 76.152C251.278 75.8427 251.449 75.4213 251.449 74.888C251.449 74.3653 251.278 73.9493 250.937 73.64C250.606 73.3307 250.1 73.176 249.417 73.176H247.129V76.6ZM247.129 81.608H249.561C250.244 81.608 250.772 81.448 251.145 81.128C251.529 80.808 251.721 80.36 251.721 79.784C251.721 79.208 251.524 78.7547 251.129 78.424C250.734 78.0827 250.201 77.912 249.529 77.912H247.129V81.608ZM258.172 83.192C257.212 83.192 256.455 82.8933 255.9 82.296C255.356 81.6987 255.084 80.808 255.084 79.624V75.064H256.78V79.448C256.78 80.984 257.409 81.752 258.668 81.752C259.297 81.752 259.815 81.528 260.22 81.08C260.625 80.632 260.828 79.992 260.828 79.16V75.064H262.524V83H261.02L260.892 81.608C260.647 82.0987 260.284 82.488 259.804 82.776C259.335 83.0533 258.791 83.192 258.172 83.192ZM264.681 83V75.064H266.185L266.329 76.184C266.585 75.7787 266.921 75.4587 267.337 75.224C267.764 74.9893 268.255 74.872 268.809 74.872C270.068 74.872 270.943 75.368 271.433 76.36C271.721 75.9013 272.105 75.5387 272.585 75.272C273.076 75.0053 273.604 74.872 274.169 74.872C275.161 74.872 275.94 75.1707 276.505 75.768C277.071 76.3653 277.353 77.256 277.353 78.44V83H275.657V78.616C275.657 77.08 275.071 76.312 273.897 76.312C273.3 76.312 272.809 76.536 272.425 76.984C272.052 77.432 271.865 78.072 271.865 78.904V83H270.169V78.616C270.169 77.08 269.577 76.312 268.393 76.312C267.807 76.312 267.321 76.536 266.937 76.984C266.564 77.432 266.377 78.072 266.377 78.904V83H264.681ZM280.298 73.56C279.978 73.56 279.711 73.464 279.498 73.272C279.295 73.0693 279.194 72.8187 279.194 72.52C279.194 72.2213 279.295 71.976 279.498 71.784C279.711 71.5813 279.978 71.48 280.298 71.48C280.618 71.48 280.879 71.5813 281.082 71.784C281.295 71.976 281.402 72.2213 281.402 72.52C281.402 72.8187 281.295 73.0693 281.082 73.272C280.879 73.464 280.618 73.56 280.298 73.56ZM279.45 83V75.064H281.146V83H279.45Z" fill="#1E1E1E"/>
<g filter="url(#filter0_d_57_93)">
<path d="M64.331 9.74335C61.6693 7.0817 52.3535 10.4361 52.3535 10.4361C52.3535 10.4361 58.1204 6 62.1129 6C66.5619 6 69.5245 6.65706 71.8723 10.4361C73.6468 13.2922 73.9541 16.6498 77.1956 19.0592C79.7201 20.9355 86.5114 21.5263 86.5114 21.5263C86.5114 21.5263 79.5656 24.6336 76.752 24.3825C70.6129 23.8346 68.6892 14.1016 64.331 9.74335Z" fill="url(#paint0_linear_57_93)"/>
<path d="M62.9029 62.4791C62.9029 62.4791 74.09 61.202 79.4133 57.2095C82.758 54.701 83.7407 51.8261 86.9546 49.6681C90.6564 46.7077 94.9396 47.0065 94.9396 47.0065C94.9396 47.0065 95.1139 60.9697 90.1795 67.8874C86.4443 73.1239 83.4405 76.124 77.3642 78.2337C72.0263 80.087 66.5486 80.0827 63.4433 79.1955C55.2501 76.8546 50.3609 72.7447 41.8576 73.2957C36.6335 73.6342 33.5356 74.2692 28.4545 75.5295C24.4057 76.5338 21.3004 77.4211 17.1676 75.9998C16.2281 75.6767 13.7591 74.5336 11.541 71.2105C9.32296 67.8874 7.52679 64.1251 7.52679 64.1251C7.52679 64.1251 13.9103 67.4588 17.1676 67.8874C20.1238 68.2763 22.8111 65.7711 22.8111 65.7711C22.8111 65.7711 15.1636 65.7651 11.5242 63.067C7.60599 60.1622 4.70508 52.6031 4.70508 52.6031C4.70508 52.6031 12.9986 58.7168 19.1664 58.7168C25.9855 58.7168 30.0445 56.2045 36.9196 57.306C44.5857 58.5342 48.1052 62.0295 54.908 65.7711C57.2595 67.0644 63.2774 71.1876 68.899 70.1213C72.8605 69.3698 78.3047 65.1833 78.3047 65.1833C78.3047 65.1833 73.0724 67.0088 69.9572 66.5941C66.9041 66.1877 62.9029 62.4791 62.9029 62.4791Z" fill="url(#paint1_linear_57_93)"/>
<path d="M28.3991 85.8498C23.7105 85.3809 16.8652 80.3501 16.8652 80.3501C16.8652 80.3501 22.9296 80.816 26.51 80.3501C32.8352 79.5271 33.531 78.1798 38.1496 77.7635C41.9451 77.4214 46.077 77.2978 49.6923 78.5029C52.514 79.4435 57.4552 81.6201 62.557 83.8262C65.6346 85.1571 68.7675 84.642 70.9856 84.2698C76.0224 83.4246 79.8578 81.6082 79.8578 81.6082C79.8578 81.6082 77.9049 85.0948 74.0909 87.8187C70.6404 90.2829 69.4227 91.2538 65.191 91.5194C58.1007 91.9644 54.886 87.4445 47.908 86.1111C40.0609 84.6116 33.1019 86.3201 28.3991 85.8498Z" fill="url(#paint2_linear_57_93)"/>
<path d="M37.271 94.2782C30.5876 92.6557 20.8574 85.5835 20.8574 85.5835C20.8574 85.5835 26.6935 88.6375 29.8263 88.6375C37.3974 88.6375 46.1432 86.9944 51.0253 89.8817C55.459 92.5038 62.5567 93.7275 62.5567 93.7275C62.5567 93.7275 59.6618 94.6147 58.9459 94.9717C54.6362 97.1208 41.9301 95.4094 37.271 94.2782Z" fill="url(#paint3_linear_57_93)"/>
<circle cx="38.3956" cy="15.7401" r="8.87219" fill="url(#paint4_linear_57_93)"/>
<circle cx="16.5802" cy="49.7816" r="4.82042" fill="#50A858"/>
<circle cx="56.9063" cy="55.7777" r="5.40828" fill="#50A858"/>
<path d="M85.1805 26.8496C91.647 26.1267 94.0527 42.1268 94.0527 42.1268C94.0527 42.1268 90.8431 42.2325 87.8284 42.8448C80.6096 44.3109 80.1009 53.0884 72.7792 53.8965C67.371 54.4934 63.7682 40.9745 55.6138 41.4339C47.4594 41.8934 45.8924 52.0627 37.743 52.6032C32.3347 52.962 28.1021 41.6691 19.0491 37.6716C13.0831 35.0373 4 46.0192 4 46.0192C4 46.0192 9.40828 23.0928 22.8114 22.505C28.1296 22.2717 32.1913 35.3734 40.212 33.3215C45.2675 32.0282 52.0746 19.8725 56.0841 17.0967C57.6125 16.0385 59.6652 15.8039 62.3154 17.0967C67.1358 19.4481 66.6655 30.0295 71.3684 30.7349C75.3112 31.3264 81.2183 27.2926 85.1805 26.8496Z" fill="url(#paint5_linear_57_93)"/>
</g>
<path d="M113.08 57V22.44H119.896V51.048H133.768V57H113.08ZM150.492 57.576C146.492 57.576 143.468 56.92 141.42 55.608C139.404 54.296 138.396 52.168 138.396 49.224C138.396 47.336 138.86 45.784 139.788 44.568C140.748 43.352 142.076 42.456 143.772 41.88C145.5 41.272 147.484 40.968 149.724 40.968C151.1 40.968 152.3 41.08 153.324 41.304C154.348 41.496 155.276 41.704 156.108 41.928V46.248C155.468 46.024 154.652 45.832 153.66 45.672C152.668 45.48 151.708 45.384 150.78 45.384C148.7 45.384 147.148 45.672 146.124 46.248C145.132 46.824 144.636 47.8 144.636 49.176C144.636 50.488 145.132 51.432 146.124 52.008C147.116 52.584 148.54 52.872 150.396 52.872C151.516 52.872 152.588 52.776 153.612 52.584C154.668 52.36 155.596 52.024 156.396 51.576L155.436 53.448C155.308 53.064 155.196 52.68 155.1 52.296C155.004 51.912 154.924 51.512 154.86 51.096C154.828 50.68 154.796 50.216 154.764 49.704C154.764 49.16 154.764 48.504 154.764 47.736V41.16C154.764 39.528 154.508 38.296 153.996 37.464C153.484 36.632 152.732 36.088 151.74 35.832C150.748 35.544 149.516 35.4 148.044 35.4C146.7 35.4 145.404 35.544 144.156 35.832C142.908 36.088 141.9 36.392 141.132 36.744H140.652V31.416C141.804 31 143.1 30.696 144.54 30.504C145.98 30.28 147.42 30.168 148.859 30.168C150.652 30.168 152.3 30.328 153.804 30.648C155.34 30.968 156.668 31.528 157.788 32.328C158.908 33.128 159.772 34.264 160.38 35.736C161.02 37.176 161.34 39.048 161.34 41.352V47.4C161.34 48.072 161.34 48.92 161.34 49.944C161.372 50.936 161.42 51.912 161.484 52.872C161.548 53.832 161.644 54.6 161.772 55.176L161.628 55.56C160.54 55.976 159.356 56.344 158.076 56.664C156.828 56.952 155.548 57.176 154.236 57.336C152.924 57.496 151.676 57.576 150.492 57.576ZM175.769 57H169.049V28.632C169.049 27.992 169.033 27.176 169.001 26.184C168.969 25.16 168.921 24.168 168.857 23.208C168.825 22.248 168.729 21.48 168.569 20.904L168.713 20.52H175.769V57ZM174.665 43.272L185.705 30.792H192.905V31.368C192.585 31.624 192.201 31.992 191.753 32.472C191.337 32.92 190.889 33.4 190.409 33.912C189.929 34.424 189.465 34.92 189.017 35.4L179.993 45.048L180.041 40.824L189.353 52.248C189.961 52.984 190.633 53.768 191.369 54.6C192.137 55.432 192.745 56.04 193.193 56.424V57H185.465L174.665 43.272ZM195.824 50.376H196.208C197.36 50.856 198.704 51.272 200.24 51.624C201.808 51.976 203.376 52.152 204.944 52.152C205.488 52.152 206.08 52.136 206.72 52.104C207.36 52.04 207.952 51.928 208.496 51.768C209.072 51.608 209.536 51.32 209.888 50.904C210.272 50.488 210.464 49.928 210.464 49.224C210.464 48.328 210.096 47.704 209.36 47.352C208.624 47 207.488 46.696 205.952 46.44L203.696 46.056C201.136 45.608 199.168 44.84 197.792 43.752C196.416 42.632 195.728 40.984 195.728 38.808C195.728 37.24 196.144 35.816 196.976 34.536C197.84 33.256 199.168 32.248 200.96 31.512C202.784 30.744 205.168 30.36 208.112 30.36C209.488 30.36 210.752 30.456 211.904 30.648C213.088 30.808 214.208 31.048 215.264 31.368V36.888H214.88C213.664 36.408 212.496 36.072 211.376 35.88C210.256 35.688 209.104 35.592 207.92 35.592C206.128 35.592 204.72 35.816 203.696 36.264C202.704 36.68 202.208 37.432 202.208 38.52C202.208 39.352 202.576 39.944 203.312 40.296C204.08 40.648 205.184 40.952 206.624 41.208L208.832 41.592C210.336 41.816 211.696 42.216 212.912 42.792C214.16 43.368 215.152 44.168 215.888 45.192C216.624 46.184 216.992 47.464 216.992 49.032C216.992 51.816 215.952 53.912 213.872 55.32C211.824 56.696 208.72 57.384 204.56 57.384C203.024 57.384 201.488 57.256 199.952 57C198.416 56.744 197.04 56.424 195.824 56.04V50.376Z" fill="#1E1E1E"/>
<path d="M222.721 57V40.632C222.721 39.992 222.705 39.176 222.673 38.184C222.641 37.16 222.593 36.168 222.529 35.208C222.497 34.216 222.401 33.432 222.241 32.856L222.385 32.472C223.345 32.056 224.481 31.688 225.793 31.368C227.105 31.016 228.465 30.728 229.873 30.504C231.313 30.28 232.689 30.168 234.001 30.168C235.505 30.168 236.961 30.344 238.369 30.696C239.809 31.016 241.089 31.608 242.209 32.472C243.361 33.336 244.273 34.536 244.945 36.072C245.617 37.576 245.953 39.512 245.953 41.88V57H239.233V42.168C239.233 40.408 238.977 39.064 238.465 38.136C237.985 37.176 237.297 36.52 236.401 36.168C235.537 35.784 234.529 35.592 233.377 35.592C232.417 35.592 231.441 35.704 230.449 35.928C229.489 36.152 228.641 36.408 227.905 36.696L228.913 35.016C229.073 35.496 229.201 36.12 229.297 36.888C229.393 37.656 229.441 38.536 229.441 39.528V57H222.721ZM255.313 57V42.168C255.313 40.408 255.073 39.064 254.593 38.136C254.145 37.176 253.457 36.52 252.529 36.168C251.633 35.784 250.545 35.592 249.265 35.592C248.465 35.592 247.649 35.688 246.817 35.88C246.017 36.04 245.233 36.264 244.465 36.552L240.817 32.232C242.257 31.624 243.777 31.128 245.377 30.744C247.009 30.36 248.625 30.168 250.225 30.168C251.761 30.168 253.233 30.328 254.641 30.648C256.049 30.968 257.313 31.56 258.433 32.424C259.553 33.256 260.433 34.44 261.073 35.976C261.713 37.48 262.033 39.448 262.033 41.88V57H255.313ZM273.378 26.664C272.29 26.664 271.378 26.344 270.642 25.704C269.938 25.032 269.586 24.104 269.586 22.92C269.586 21.768 269.938 20.872 270.642 20.232C271.378 19.56 272.29 19.224 273.378 19.224C274.498 19.224 275.41 19.56 276.114 20.232C276.818 20.872 277.17 21.768 277.17 22.92C277.17 24.104 276.818 25.032 276.114 25.704C275.41 26.344 274.498 26.664 273.378 26.664ZM270.018 57V38.904C270.018 38.264 270.002 37.448 269.97 36.456C269.938 35.464 269.89 34.488 269.826 33.528C269.794 32.536 269.698 31.752 269.538 31.176L269.682 30.792H276.738V57H270.018Z" fill="#27AEA1"/>
<defs>
<filter id="filter0_d_57_93" x="0" y="0" width="106.939" height="106" filterUnits="userSpaceOnUse" color-interpolation-filters="sRGB">
<feFlood flood-opacity="0" result="BackgroundImageFix"/>
<feColorMatrix in="SourceAlpha" type="matrix" values="0 0 0 0 0 0 0 0 0 0 0 0 0 0 0 0 0 0 127 0" result="hardAlpha"/>
<feOffset dx="4" dy="2"/>
<feGaussianBlur stdDeviation="4"/>
<feComposite in2="hardAlpha" operator="out"/>
<feColorMatrix type="matrix" values="0 0 0 0 0.188235 0 0 0 0 0.188235 0 0 0 0 0.188235 0 0 0 0.15 0"/>
<feBlend mode="normal" in2="BackgroundImageFix" result="effect1_dropShadow_57_93"/>
<feBlend mode="normal" in="SourceGraphic" in2="effect1_dropShadow_57_93" result="shape"/>
</filter>
<linearGradient id="paint0_linear_57_93" x1="69.4325" y1="6" x2="50.5791" y2="19.9464" gradientUnits="userSpaceOnUse">
<stop stop-color="#FFA231"/>
<stop offset="1" stop-color="#FFA231" stop-opacity="0"/>
</linearGradient>
<linearGradient id="paint1_linear_57_93" x1="48.3606" y1="70.9614" x2="-10.6395" y2="39.4651" gradientUnits="userSpaceOnUse">
<stop stop-color="#25C9C2"/>
<stop offset="1" stop-color="#27CDC7" stop-opacity="0"/>
</linearGradient>
<linearGradient id="paint2_linear_57_93" x1="78.527" y1="94.0292" x2="2.66973" y2="53.6608" gradientUnits="userSpaceOnUse">
<stop stop-color="#D83F31" stop-opacity="0.88"/>
<stop offset="0.457759" stop-color="#FC831F"/>
<stop offset="1" stop-color="#FC831F" stop-opacity="0"/>
</linearGradient>
<linearGradient id="paint3_linear_57_93" x1="65.2184" y1="99.3524" x2="19.083" y2="71.405" gradientUnits="userSpaceOnUse">
<stop stop-color="#D83F31" stop-opacity="0.88"/>
<stop offset="0.553162" stop-color="#FFA231"/>
<stop offset="1" stop-color="#FFA231" stop-opacity="0"/>
</linearGradient>
<linearGradient id="paint4_linear_57_93" x1="43.0372" y1="6.63805" x2="20.4131" y2="27.4877" gradientUnits="userSpaceOnUse">
<stop stop-color="#FCC21A"/>
<stop offset="1" stop-color="#FCC21A" stop-opacity="0"/>
</linearGradient>
<linearGradient id="paint5_linear_57_93" x1="59.4512" y1="35.0291" x2="21.7444" y2="93.5855" gradientUnits="userSpaceOnUse">
<stop stop-color="#50A858"/>
<stop offset="1" stop-color="#C6E2E1"/>
</linearGradient>
</defs>
</svg>
