<svg width="298" height="106" viewBox="0 0 298 106" fill="none" xmlns="http://www.w3.org/2000/svg">
<path d="M107.136 72V60.8H108.832V70.656H113.92V72H107.136ZM118.369 72.192C117.697 72.192 117.143 72.08 116.705 71.856C116.268 71.632 115.943 71.3387 115.729 70.976C115.516 70.6027 115.409 70.1973 115.409 69.76C115.409 68.992 115.708 68.384 116.305 67.936C116.903 67.488 117.756 67.264 118.865 67.264H120.945V67.12C120.945 66.5013 120.775 66.0373 120.433 65.728C120.103 65.4187 119.671 65.264 119.137 65.264C118.668 65.264 118.257 65.3813 117.905 65.616C117.564 65.84 117.356 66.176 117.281 66.624H115.585C115.639 66.048 115.831 65.5573 116.161 65.152C116.503 64.736 116.929 64.4213 117.441 64.208C117.964 63.984 118.535 63.872 119.153 63.872C120.263 63.872 121.121 64.1653 121.729 64.752C122.337 65.328 122.641 66.1173 122.641 67.12V72H121.169L121.025 70.64C120.801 71.0773 120.476 71.4453 120.049 71.744C119.623 72.0427 119.063 72.192 118.369 72.192ZM118.705 70.816C119.164 70.816 119.548 70.7093 119.857 70.496C120.177 70.272 120.423 69.9787 120.593 69.616C120.775 69.2533 120.887 68.8533 120.929 68.416H119.041C118.369 68.416 117.889 68.5333 117.601 68.768C117.324 69.0027 117.185 69.296 117.185 69.648C117.185 70.0107 117.319 70.2987 117.585 70.512C117.863 70.7147 118.236 70.816 118.705 70.816ZM127.787 72.192C126.784 72.192 125.958 71.9467 125.307 71.456C124.656 70.9653 124.283 70.3147 124.187 69.504H125.899C125.984 69.8667 126.187 70.1813 126.507 70.448C126.827 70.704 127.248 70.832 127.771 70.832C128.283 70.832 128.656 70.7253 128.891 70.512C129.126 70.2987 129.243 70.0533 129.243 69.776C129.243 69.3707 129.078 69.0987 128.747 68.96C128.427 68.8107 127.979 68.6773 127.403 68.56C126.955 68.464 126.507 68.336 126.059 68.176C125.622 68.016 125.254 67.792 124.955 67.504C124.667 67.2053 124.523 66.8053 124.523 66.304C124.523 65.6107 124.79 65.0347 125.323 64.576C125.856 64.1067 126.603 63.872 127.563 63.872C128.448 63.872 129.163 64.0853 129.707 64.512C130.262 64.9387 130.587 65.5413 130.683 66.32H129.051C128.998 65.9787 128.838 65.712 128.571 65.52C128.315 65.328 127.968 65.232 127.531 65.232C127.104 65.232 126.774 65.3227 126.539 65.504C126.304 65.6747 126.187 65.8987 126.187 66.176C126.187 66.4533 126.347 66.672 126.667 66.832C126.998 66.992 127.43 67.136 127.963 67.264C128.496 67.3813 128.987 67.52 129.435 67.68C129.894 67.8293 130.262 68.0533 130.539 68.352C130.816 68.6507 130.955 69.088 130.955 69.664C130.966 70.3893 130.683 70.992 130.107 71.472C129.542 71.952 128.768 72.192 127.787 72.192ZM132.806 72V60.48H134.502V67.344L137.542 64.064H139.574L136.198 67.664L140.07 72H137.926L134.502 67.936V72H132.806ZM143.901 72.192C143.229 72.192 142.674 72.08 142.237 71.856C141.799 71.632 141.474 71.3387 141.261 70.976C141.047 70.6027 140.941 70.1973 140.941 69.76C140.941 68.992 141.239 68.384 141.837 67.936C142.434 67.488 143.287 67.264 144.397 67.264H146.477V67.12C146.477 66.5013 146.306 66.0373 145.965 65.728C145.634 65.4187 145.202 65.264 144.669 65.264C144.199 65.264 143.789 65.3813 143.437 65.616C143.095 65.84 142.887 66.176 142.813 66.624H141.117C141.17 66.048 141.362 65.5573 141.693 65.152C142.034 64.736 142.461 64.4213 142.973 64.208C143.495 63.984 144.066 63.872 144.685 63.872C145.794 63.872 146.653 64.1653 147.261 64.752C147.869 65.328 148.173 66.1173 148.173 67.12V72H146.701L146.557 70.64C146.333 71.0773 146.007 71.4453 145.581 71.744C145.154 72.0427 144.594 72.192 143.901 72.192ZM144.237 70.816C144.695 70.816 145.079 70.7093 145.389 70.496C145.709 70.272 145.954 69.9787 146.125 69.616C146.306 69.2533 146.418 68.8533 146.461 68.416H144.573C143.901 68.416 143.421 68.5333 143.133 68.768C142.855 69.0027 142.717 69.296 142.717 69.648C142.717 70.0107 142.85 70.2987 143.117 70.512C143.394 70.7147 143.767 70.816 144.237 70.816ZM150.15 72V64.064H151.67L151.814 65.568C152.091 65.0453 152.475 64.6347 152.966 64.336C153.467 64.0267 154.07 63.872 154.774 63.872V65.648H154.31C153.841 65.648 153.419 65.728 153.046 65.888C152.683 66.0373 152.39 66.2987 152.166 66.672C151.953 67.0347 151.846 67.5413 151.846 68.192V72H150.15Z" fill="#F9F9F9"/>
<path d="M160.324 72V60.8H167.444V62.176H162.02V65.664H166.964V67.008H162.02V70.624H167.444V72H160.324ZM169.4 72V60.48H171.096V67.344L174.136 64.064H176.168L172.792 67.664L176.664 72H174.52L171.096 67.936V72H169.4ZM181.081 72.192C180.324 72.192 179.641 72.0213 179.033 71.68C178.436 71.328 177.961 70.8427 177.609 70.224C177.257 69.5947 177.081 68.864 177.081 68.032C177.081 67.2 177.257 66.4747 177.609 65.856C177.972 65.2267 178.457 64.7413 179.065 64.4C179.673 64.048 180.35 63.872 181.097 63.872C181.854 63.872 182.532 64.048 183.129 64.4C183.737 64.7413 184.217 65.2267 184.569 65.856C184.932 66.4747 185.113 67.2 185.113 68.032C185.113 68.864 184.932 69.5947 184.569 70.224C184.217 70.8427 183.737 71.328 183.129 71.68C182.521 72.0213 181.838 72.192 181.081 72.192ZM181.081 70.736C181.486 70.736 181.86 70.6347 182.201 70.432C182.553 70.2293 182.836 69.9307 183.049 69.536C183.262 69.1307 183.369 68.6293 183.369 68.032C183.369 67.4347 183.262 66.9387 183.049 66.544C182.846 66.1387 182.569 65.8347 182.217 65.632C181.876 65.4293 181.502 65.328 181.097 65.328C180.692 65.328 180.313 65.4293 179.961 65.632C179.62 65.8347 179.342 66.1387 179.129 66.544C178.916 66.9387 178.809 67.4347 178.809 68.032C178.809 68.6293 178.916 69.1307 179.129 69.536C179.342 69.9307 179.62 70.2293 179.961 70.432C180.302 70.6347 180.676 70.736 181.081 70.736ZM190.115 72.192C189.112 72.192 188.286 71.9467 187.635 71.456C186.984 70.9653 186.611 70.3147 186.515 69.504H188.227C188.312 69.8667 188.515 70.1813 188.835 70.448C189.155 70.704 189.576 70.832 190.099 70.832C190.611 70.832 190.984 70.7253 191.219 70.512C191.454 70.2987 191.571 70.0533 191.571 69.776C191.571 69.3707 191.406 69.0987 191.075 68.96C190.755 68.8107 190.307 68.6773 189.731 68.56C189.283 68.464 188.835 68.336 188.387 68.176C187.95 68.016 187.582 67.792 187.283 67.504C186.995 67.2053 186.851 66.8053 186.851 66.304C186.851 65.6107 187.118 65.0347 187.651 64.576C188.184 64.1067 188.931 63.872 189.891 63.872C190.776 63.872 191.491 64.0853 192.035 64.512C192.59 64.9387 192.915 65.5413 193.011 66.32H191.379C191.326 65.9787 191.166 65.712 190.899 65.52C190.643 65.328 190.296 65.232 189.859 65.232C189.432 65.232 189.102 65.3227 188.867 65.504C188.632 65.6747 188.515 65.8987 188.515 66.176C188.515 66.4533 188.675 66.672 188.995 66.832C189.326 66.992 189.758 67.136 190.291 67.264C190.824 67.3813 191.315 67.52 191.763 67.68C192.222 67.8293 192.59 68.0533 192.867 68.352C193.144 68.6507 193.283 69.088 193.283 69.664C193.294 70.3893 193.011 70.992 192.435 71.472C191.87 71.952 191.096 72.192 190.115 72.192ZM196.095 62.56C195.775 62.56 195.508 62.464 195.295 62.272C195.092 62.0693 194.991 61.8187 194.991 61.52C194.991 61.2213 195.092 60.976 195.295 60.784C195.508 60.5813 195.775 60.48 196.095 60.48C196.415 60.48 196.676 60.5813 196.879 60.784C197.092 60.976 197.199 61.2213 197.199 61.52C197.199 61.8187 197.092 62.0693 196.879 62.272C196.676 62.464 196.415 62.56 196.095 62.56ZM195.247 72V64.064H196.943V72H195.247ZM202.349 72.192C201.347 72.192 200.52 71.9467 199.869 71.456C199.219 70.9653 198.845 70.3147 198.749 69.504H200.461C200.547 69.8667 200.749 70.1813 201.069 70.448C201.389 70.704 201.811 70.832 202.333 70.832C202.845 70.832 203.219 70.7253 203.453 70.512C203.688 70.2987 203.805 70.0533 203.805 69.776C203.805 69.3707 203.64 69.0987 203.309 68.96C202.989 68.8107 202.541 68.6773 201.965 68.56C201.517 68.464 201.069 68.336 200.621 68.176C200.184 68.016 199.816 67.792 199.517 67.504C199.229 67.2053 199.085 66.8053 199.085 66.304C199.085 65.6107 199.352 65.0347 199.885 64.576C200.419 64.1067 201.165 63.872 202.125 63.872C203.011 63.872 203.725 64.0853 204.269 64.512C204.824 64.9387 205.149 65.5413 205.245 66.32H203.613C203.56 65.9787 203.4 65.712 203.133 65.52C202.877 65.328 202.531 65.232 202.093 65.232C201.667 65.232 201.336 65.3227 201.101 65.504C200.867 65.6747 200.749 65.8987 200.749 66.176C200.749 66.4533 200.909 66.672 201.229 66.832C201.56 66.992 201.992 67.136 202.525 67.264C203.059 67.3813 203.549 67.52 203.997 67.68C204.456 67.8293 204.824 68.0533 205.101 68.352C205.379 68.6507 205.517 69.088 205.517 69.664C205.528 70.3893 205.245 70.992 204.669 71.472C204.104 71.952 203.331 72.192 202.349 72.192ZM210.4 72C209.621 72 209.003 71.8133 208.544 71.44C208.085 71.056 207.856 70.3787 207.856 69.408V65.488H206.496V64.064H207.856L208.064 62.048H209.552V64.064H211.792V65.488H209.552V69.408C209.552 69.8453 209.643 70.1493 209.824 70.32C210.016 70.48 210.341 70.56 210.8 70.56H211.712V72H210.4ZM217.05 72.192C216.271 72.192 215.578 72.0213 214.97 71.68C214.372 71.328 213.903 70.8427 213.562 70.224C213.22 69.6053 213.05 68.8853 213.05 68.064C213.05 67.232 213.215 66.5013 213.546 65.872C213.887 65.2427 214.356 64.752 214.954 64.4C215.562 64.048 216.266 63.872 217.066 63.872C217.844 63.872 218.522 64.048 219.098 64.4C219.674 64.7413 220.122 65.2 220.442 65.776C220.762 66.352 220.922 66.9867 220.922 67.68C220.922 67.7867 220.916 67.904 220.906 68.032C220.906 68.1493 220.9 68.2827 220.89 68.432H214.714C214.767 69.2 215.018 69.7867 215.466 70.192C215.924 70.5867 216.452 70.784 217.05 70.784C217.53 70.784 217.93 70.6773 218.25 70.464C218.58 70.24 218.826 69.9413 218.986 69.568H220.682C220.468 70.3147 220.042 70.9387 219.402 71.44C218.772 71.9413 217.988 72.192 217.05 72.192ZM217.05 65.264C216.484 65.264 215.983 65.4347 215.546 65.776C215.108 66.1067 214.842 66.608 214.746 67.28H219.226C219.194 66.6613 218.975 66.1707 218.57 65.808C218.164 65.4453 217.658 65.264 217.05 65.264ZM222.681 72V64.064H224.185L224.329 65.184C224.585 64.7787 224.921 64.4587 225.337 64.224C225.764 63.9893 226.255 63.872 226.809 63.872C228.068 63.872 228.943 64.368 229.433 65.36C229.721 64.9013 230.105 64.5387 230.585 64.272C231.076 64.0053 231.604 63.872 232.169 63.872C233.161 63.872 233.94 64.1707 234.505 64.768C235.071 65.3653 235.353 66.256 235.353 67.44V72H233.657V67.616C233.657 66.08 233.071 65.312 231.897 65.312C231.3 65.312 230.809 65.536 230.425 65.984C230.052 66.432 229.865 67.072 229.865 67.904V72H228.169V67.616C228.169 66.08 227.577 65.312 226.393 65.312C225.807 65.312 225.321 65.536 224.937 65.984C224.564 66.432 224.377 67.072 224.377 67.904V72H222.681ZM241.433 72V60.8H245.657C246.82 60.8 247.7 61.072 248.297 61.616C248.894 62.16 249.193 62.8427 249.193 63.664C249.193 64.3787 249.001 64.9493 248.617 65.376C248.233 65.792 247.769 66.0747 247.225 66.224C247.652 66.3093 248.03 66.48 248.361 66.736C248.702 66.992 248.969 67.312 249.161 67.696C249.353 68.08 249.449 68.496 249.449 68.944C249.449 69.52 249.305 70.0427 249.017 70.512C248.74 70.9707 248.329 71.3333 247.785 71.6C247.241 71.8667 246.574 72 245.785 72H241.433ZM243.129 65.6H245.449C246.1 65.6 246.596 65.4507 246.937 65.152C247.278 64.8427 247.449 64.4213 247.449 63.888C247.449 63.3653 247.278 62.9493 246.937 62.64C246.606 62.3307 246.1 62.176 245.417 62.176H243.129V65.6ZM243.129 70.608H245.561C246.244 70.608 246.772 70.448 247.145 70.128C247.529 69.808 247.721 69.36 247.721 68.784C247.721 68.208 247.524 67.7547 247.129 67.424C246.734 67.0827 246.201 66.912 245.529 66.912H243.129V70.608ZM254.172 72.192C253.212 72.192 252.455 71.8933 251.9 71.296C251.356 70.6987 251.084 69.808 251.084 68.624V64.064H252.78V68.448C252.78 69.984 253.409 70.752 254.668 70.752C255.297 70.752 255.815 70.528 256.22 70.08C256.625 69.632 256.828 68.992 256.828 68.16V64.064H258.524V72H257.02L256.892 70.608C256.647 71.0987 256.284 71.488 255.804 71.776C255.335 72.0533 254.791 72.192 254.172 72.192ZM260.681 72V64.064H262.185L262.329 65.184C262.585 64.7787 262.921 64.4587 263.337 64.224C263.764 63.9893 264.255 63.872 264.809 63.872C266.068 63.872 266.943 64.368 267.433 65.36C267.721 64.9013 268.105 64.5387 268.585 64.272C269.076 64.0053 269.604 63.872 270.169 63.872C271.161 63.872 271.94 64.1707 272.505 64.768C273.071 65.3653 273.353 66.256 273.353 67.44V72H271.657V67.616C271.657 66.08 271.071 65.312 269.897 65.312C269.3 65.312 268.809 65.536 268.425 65.984C268.052 66.432 267.865 67.072 267.865 67.904V72H266.169V67.616C266.169 66.08 265.577 65.312 264.393 65.312C263.807 65.312 263.321 65.536 262.937 65.984C262.564 66.432 262.377 67.072 262.377 67.904V72H260.681ZM276.298 62.56C275.978 62.56 275.711 62.464 275.498 62.272C275.295 62.0693 275.194 61.8187 275.194 61.52C275.194 61.2213 275.295 60.976 275.498 60.784C275.711 60.5813 275.978 60.48 276.298 60.48C276.618 60.48 276.879 60.5813 277.082 60.784C277.295 60.976 277.402 61.2213 277.402 61.52C277.402 61.8187 277.295 62.0693 277.082 62.272C276.879 62.464 276.618 62.56 276.298 62.56ZM275.45 72V64.064H277.146V72H275.45Z" fill="#1E1E1E"/>
<g filter="url(#filter0_d_714_126)">
<path d="M64.331 9.74335C61.6693 7.0817 52.3535 10.4361 52.3535 10.4361C52.3535 10.4361 58.1204 6 62.1129 6C66.5619 6 69.5245 6.65706 71.8723 10.4361C73.6468 13.2922 73.9541 16.6498 77.1956 19.0592C79.7201 20.9355 86.5114 21.5263 86.5114 21.5263C86.5114 21.5263 79.5656 24.6336 76.752 24.3825C70.6129 23.8346 68.6892 14.1016 64.331 9.74335Z" fill="url(#paint0_linear_714_126)"/>
<path d="M62.9029 62.4791C62.9029 62.4791 74.09 61.202 79.4133 57.2095C82.758 54.701 83.7407 51.8261 86.9546 49.6681C90.6564 46.7077 94.9396 47.0065 94.9396 47.0065C94.9396 47.0065 95.1139 60.9697 90.1795 67.8874C86.4443 73.1239 83.4405 76.124 77.3642 78.2337C72.0263 80.087 66.5486 80.0827 63.4433 79.1955C55.2501 76.8546 50.3609 72.7447 41.8576 73.2957C36.6335 73.6342 33.5356 74.2692 28.4545 75.5295C24.4057 76.5338 21.3004 77.4211 17.1676 75.9998C16.2281 75.6767 13.7591 74.5336 11.541 71.2105C9.32296 67.8874 7.52679 64.1251 7.52679 64.1251C7.52679 64.1251 13.9103 67.4588 17.1676 67.8874C20.1238 68.2763 22.8111 65.7711 22.8111 65.7711C22.8111 65.7711 15.1636 65.7651 11.5242 63.067C7.60599 60.1622 4.70508 52.6031 4.70508 52.6031C4.70508 52.6031 12.9986 58.7168 19.1664 58.7168C25.9855 58.7168 30.0445 56.2045 36.9196 57.306C44.5857 58.5342 48.1052 62.0295 54.908 65.7711C57.2595 67.0644 63.2774 71.1876 68.899 70.1213C72.8605 69.3698 78.3047 65.1833 78.3047 65.1833C78.3047 65.1833 73.0724 67.0088 69.9572 66.5941C66.9041 66.1877 62.9029 62.4791 62.9029 62.4791Z" fill="url(#paint1_linear_714_126)"/>
<path d="M28.3991 85.8498C23.7105 85.3809 16.8652 80.3501 16.8652 80.3501C16.8652 80.3501 22.9296 80.816 26.51 80.3501C32.8352 79.5271 33.531 78.1798 38.1496 77.7635C41.9451 77.4214 46.077 77.2978 49.6923 78.5029C52.514 79.4435 57.4552 81.6201 62.557 83.8262C65.6346 85.1571 68.7675 84.642 70.9856 84.2698C76.0224 83.4246 79.8578 81.6082 79.8578 81.6082C79.8578 81.6082 77.9049 85.0948 74.0909 87.8187C70.6404 90.2829 69.4227 91.2538 65.191 91.5194C58.1007 91.9644 54.886 87.4445 47.908 86.1111C40.0609 84.6116 33.1019 86.3201 28.3991 85.8498Z" fill="url(#paint2_linear_714_126)"/>
<path d="M37.271 94.2782C30.5876 92.6557 20.8574 85.5835 20.8574 85.5835C20.8574 85.5835 26.6935 88.6375 29.8263 88.6375C37.3974 88.6375 46.1432 86.9944 51.0253 89.8817C55.459 92.5038 62.5567 93.7275 62.5567 93.7275C62.5567 93.7275 59.6618 94.6147 58.9459 94.9717C54.6362 97.1208 41.9301 95.4094 37.271 94.2782Z" fill="url(#paint3_linear_714_126)"/>
<circle cx="38.3956" cy="15.7404" r="8.87219" fill="url(#paint4_linear_714_126)"/>
<circle cx="16.5802" cy="49.7814" r="4.82042" fill="#50A858"/>
<circle cx="56.9063" cy="55.7774" r="5.40828" fill="#50A858"/>
<path d="M85.1805 26.8496C91.647 26.1267 94.0527 42.1268 94.0527 42.1268C94.0527 42.1268 90.8431 42.2325 87.8284 42.8448C80.6096 44.3109 80.1009 53.0884 72.7792 53.8965C67.371 54.4934 63.7682 40.9745 55.6138 41.4339C47.4594 41.8934 45.8924 52.0627 37.743 52.6032C32.3347 52.962 28.1021 41.6691 19.0491 37.6716C13.0831 35.0373 4 46.0192 4 46.0192C4 46.0192 9.40828 23.0928 22.8114 22.505C28.1296 22.2717 32.1913 35.3734 40.212 33.3215C45.2675 32.0282 52.0746 19.8725 56.0841 17.0967C57.6125 16.0385 59.6652 15.8039 62.3154 17.0967C67.1358 19.4481 66.6655 30.0295 71.3684 30.7349C75.3112 31.3264 81.2183 27.2926 85.1805 26.8496Z" fill="url(#paint5_linear_714_126)"/>
</g>
<path d="M109.4 50V21.2H115.08V45.04H126.64V50H109.4ZM140.576 50.48C137.243 50.48 134.723 49.9333 133.016 48.84C131.336 47.7467 130.496 45.9733 130.496 43.52C130.496 41.9467 130.883 40.6533 131.656 39.64C132.456 38.6267 133.563 37.88 134.976 37.4C136.416 36.8933 138.07 36.64 139.936 36.64C141.083 36.64 142.083 36.7333 142.936 36.92C143.79 37.08 144.563 37.2533 145.256 37.44V41.04C144.723 40.8533 144.043 40.6933 143.216 40.56C142.39 40.4 141.59 40.32 140.816 40.32C139.083 40.32 137.79 40.56 136.936 41.04C136.11 41.52 135.696 42.3333 135.696 43.48C135.696 44.5733 136.11 45.36 136.936 45.84C137.763 46.32 138.95 46.56 140.496 46.56C141.43 46.56 142.323 46.48 143.176 46.32C144.056 46.1333 144.83 45.8533 145.496 45.48L144.696 47.04C144.59 46.72 144.496 46.4 144.416 46.08C144.336 45.76 144.27 45.4267 144.216 45.08C144.19 44.7333 144.163 44.3467 144.136 43.92C144.136 43.4667 144.136 42.92 144.136 42.28V36.8C144.136 35.44 143.923 34.4133 143.496 33.72C143.07 33.0267 142.443 32.5733 141.616 32.36C140.79 32.12 139.763 32 138.536 32C137.416 32 136.336 32.12 135.296 32.36C134.256 32.5733 133.416 32.8267 132.776 33.12H132.376V28.68C133.336 28.3333 134.416 28.08 135.616 27.92C136.816 27.7333 138.016 27.64 139.216 27.64C140.71 27.64 142.083 27.7733 143.336 28.04C144.616 28.3067 145.723 28.7733 146.656 29.44C147.59 30.1067 148.31 31.0533 148.816 32.28C149.35 33.48 149.616 35.04 149.616 36.96V42C149.616 42.56 149.616 43.2667 149.616 44.12C149.643 44.9467 149.683 45.76 149.736 46.56C149.79 47.36 149.87 48 149.976 48.48L149.856 48.8C148.95 49.1467 147.963 49.4533 146.896 49.72C145.856 49.96 144.79 50.1467 143.696 50.28C142.603 50.4133 141.563 50.48 140.576 50.48ZM161.641 50H156.041V26.36C156.041 25.8267 156.027 25.1467 156.001 24.32C155.974 23.4667 155.934 22.64 155.881 21.84C155.854 21.04 155.774 20.4 155.641 19.92L155.761 19.6H161.641V50ZM160.721 38.56L169.921 28.16H175.921V28.64C175.654 28.8533 175.334 29.16 174.961 29.56C174.614 29.9333 174.241 30.3333 173.841 30.76C173.441 31.1867 173.054 31.6 172.681 32L165.161 40.04L165.201 36.52L172.961 46.04C173.467 46.6533 174.027 47.3067 174.641 48C175.281 48.6933 175.787 49.2 176.161 49.52V50H169.721L160.721 38.56ZM178.353 44.48H178.673C179.633 44.88 180.753 45.2267 182.033 45.52C183.34 45.8133 184.647 45.96 185.953 45.96C186.407 45.96 186.9 45.9467 187.433 45.92C187.967 45.8667 188.46 45.7733 188.913 45.64C189.393 45.5067 189.78 45.2667 190.073 44.92C190.393 44.5733 190.553 44.1067 190.553 43.52C190.553 42.7733 190.247 42.2533 189.633 41.96C189.02 41.6667 188.073 41.4133 186.793 41.2L184.913 40.88C182.78 40.5067 181.14 39.8667 179.993 38.96C178.847 38.0267 178.273 36.6533 178.273 34.84C178.273 33.5333 178.62 32.3467 179.313 31.28C180.033 30.2133 181.14 29.3733 182.633 28.76C184.153 28.12 186.14 27.8 188.593 27.8C189.74 27.8 190.793 27.88 191.753 28.04C192.74 28.1733 193.673 28.3733 194.553 28.64V33.24H194.233C193.22 32.84 192.247 32.56 191.313 32.4C190.38 32.24 189.42 32.16 188.433 32.16C186.94 32.16 185.767 32.3467 184.913 32.72C184.087 33.0667 183.673 33.6933 183.673 34.6C183.673 35.2933 183.98 35.7867 184.593 36.08C185.233 36.3733 186.153 36.6267 187.353 36.84L189.193 37.16C190.447 37.3467 191.58 37.68 192.593 38.16C193.633 38.64 194.46 39.3067 195.073 40.16C195.687 40.9867 195.993 42.0533 195.993 43.36C195.993 45.68 195.127 47.4267 193.393 48.6C191.687 49.7467 189.1 50.32 185.633 50.32C184.353 50.32 183.073 50.2133 181.793 50C180.513 49.7867 179.367 49.52 178.353 49.2V44.48Z" fill="#1E1E1E"/>
<path d="M200.767 50V36.36C200.767 35.8267 200.754 35.1467 200.727 34.32C200.701 33.4667 200.661 32.64 200.607 31.84C200.581 31.0133 200.501 30.36 200.367 29.88L200.487 29.56C201.287 29.2133 202.234 28.9067 203.327 28.64C204.421 28.3467 205.554 28.1067 206.727 27.92C207.927 27.7333 209.074 27.64 210.167 27.64C211.421 27.64 212.634 27.7867 213.807 28.08C215.007 28.3467 216.074 28.84 217.007 29.56C217.967 30.28 218.727 31.28 219.287 32.56C219.847 33.8133 220.127 35.4267 220.127 37.4V50H214.527V37.64C214.527 36.1733 214.314 35.0533 213.887 34.28C213.487 33.48 212.914 32.9333 212.167 32.64C211.447 32.32 210.607 32.16 209.647 32.16C208.847 32.16 208.034 32.2533 207.207 32.44C206.407 32.6267 205.701 32.84 205.087 33.08L205.927 31.68C206.061 32.08 206.167 32.6 206.247 33.24C206.327 33.88 206.367 34.6133 206.367 35.44V50H200.767ZM227.927 50V37.64C227.927 36.1733 227.727 35.0533 227.327 34.28C226.954 33.48 226.381 32.9333 225.607 32.64C224.861 32.32 223.954 32.16 222.887 32.16C222.221 32.16 221.541 32.24 220.847 32.4C220.181 32.5333 219.527 32.72 218.887 32.96L215.847 29.36C217.047 28.8533 218.314 28.44 219.647 28.12C221.007 27.8 222.354 27.64 223.687 27.64C224.967 27.64 226.194 27.7733 227.367 28.04C228.541 28.3067 229.594 28.8 230.527 29.52C231.461 30.2133 232.194 31.2 232.727 32.48C233.261 33.7333 233.527 35.3733 233.527 37.4V50H227.927ZM242.981 24.72C242.075 24.72 241.315 24.4533 240.701 23.92C240.115 23.36 239.821 22.5867 239.821 21.6C239.821 20.64 240.115 19.8933 240.701 19.36C241.315 18.8 242.075 18.52 242.981 18.52C243.915 18.52 244.675 18.8 245.261 19.36C245.848 19.8933 246.141 20.64 246.141 21.6C246.141 22.5867 245.848 23.36 245.261 23.92C244.675 24.4533 243.915 24.72 242.981 24.72ZM240.181 50V34.92C240.181 34.3867 240.168 33.7067 240.141 32.88C240.115 32.0533 240.075 31.24 240.021 30.44C239.995 29.6133 239.915 28.96 239.781 28.48L239.901 28.16H245.781V50H240.181Z" fill="#F9F9F9"/>
<defs>
<filter id="filter0_d_714_126" x="0" y="0" width="106.939" height="106" filterUnits="userSpaceOnUse" color-interpolation-filters="sRGB">
<feFlood flood-opacity="0" result="BackgroundImageFix"/>
<feColorMatrix in="SourceAlpha" type="matrix" values="0 0 0 0 0 0 0 0 0 0 0 0 0 0 0 0 0 0 127 0" result="hardAlpha"/>
<feOffset dx="4" dy="2"/>
<feGaussianBlur stdDeviation="4"/>
<feComposite in2="hardAlpha" operator="out"/>
<feColorMatrix type="matrix" values="0 0 0 0 0.188235 0 0 0 0 0.188235 0 0 0 0 0.188235 0 0 0 0.15 0"/>
<feBlend mode="normal" in2="BackgroundImageFix" result="effect1_dropShadow_714_126"/>
<feBlend mode="normal" in="SourceGraphic" in2="effect1_dropShadow_714_126" result="shape"/>
</filter>
<linearGradient id="paint0_linear_714_126" x1="69.4325" y1="6" x2="50.5791" y2="19.9464" gradientUnits="userSpaceOnUse">
<stop stop-color="#FFA231"/>
<stop offset="1" stop-color="#FFA231" stop-opacity="0"/>
</linearGradient>
<linearGradient id="paint1_linear_714_126" x1="48.3606" y1="70.9614" x2="-10.6395" y2="39.4651" gradientUnits="userSpaceOnUse">
<stop stop-color="#25C9C2"/>
<stop offset="1" stop-color="#27CDC7" stop-opacity="0"/>
</linearGradient>
<linearGradient id="paint2_linear_714_126" x1="78.527" y1="94.0292" x2="2.66973" y2="53.6608" gradientUnits="userSpaceOnUse">
<stop stop-color="#D83F31" stop-opacity="0.88"/>
<stop offset="0.457759" stop-color="#FC831F"/>
<stop offset="1" stop-color="#FC831F" stop-opacity="0"/>
</linearGradient>
<linearGradient id="paint3_linear_714_126" x1="65.2184" y1="99.3524" x2="19.083" y2="71.405" gradientUnits="userSpaceOnUse">
<stop stop-color="#D83F31" stop-opacity="0.88"/>
<stop offset="0.553162" stop-color="#FFA231"/>
<stop offset="1" stop-color="#FFA231" stop-opacity="0"/>
</linearGradient>
<linearGradient id="paint4_linear_714_126" x1="43.0372" y1="6.63829" x2="20.4131" y2="27.4879" gradientUnits="userSpaceOnUse">
<stop stop-color="#FCC21A"/>
<stop offset="1" stop-color="#FCC21A" stop-opacity="0"/>
</linearGradient>
<linearGradient id="paint5_linear_714_126" x1="59.4512" y1="35.0291" x2="21.7444" y2="93.5855" gradientUnits="userSpaceOnUse">
<stop stop-color="#50A858"/>
<stop offset="1" stop-color="#C6E2E1"/>
</linearGradient>
</defs>
</svg>
