<svg width="107" height="106" viewBox="0 0 107 106" fill="none" xmlns="http://www.w3.org/2000/svg">
<g filter="url(#filter0_d_46_1756)">
<path d="M64.331 9.74335C61.6693 7.0817 52.3535 10.4361 52.3535 10.4361C52.3535 10.4361 58.1204 6 62.1129 6C66.5619 6 69.5245 6.65706 71.8723 10.4361C73.6468 13.2922 73.9541 16.6498 77.1956 19.0592C79.7201 20.9355 86.5114 21.5263 86.5114 21.5263C86.5114 21.5263 79.5656 24.6336 76.752 24.3825C70.6129 23.8346 68.6892 14.1016 64.331 9.74335Z" fill="url(#paint0_linear_46_1756)"/>
<path d="M62.9029 62.4791C62.9029 62.4791 74.09 61.202 79.4133 57.2095C82.758 54.701 83.7407 51.8261 86.9546 49.6681C90.6564 46.7077 94.9396 47.0065 94.9396 47.0065C94.9396 47.0065 95.1139 60.9697 90.1795 67.8874C86.4443 73.1239 83.4405 76.124 77.3642 78.2337C72.0263 80.087 66.5486 80.0827 63.4433 79.1955C55.2501 76.8546 50.3609 72.7447 41.8576 73.2957C36.6335 73.6342 33.5356 74.2692 28.4545 75.5295C24.4057 76.5338 21.3004 77.4211 17.1676 75.9998C16.2281 75.6767 13.7591 74.5336 11.541 71.2105C9.32296 67.8874 7.52679 64.1251 7.52679 64.1251C7.52679 64.1251 13.9103 67.4588 17.1676 67.8874C20.1238 68.2763 22.8111 65.7711 22.8111 65.7711C22.8111 65.7711 15.1636 65.7651 11.5242 63.067C7.60599 60.1622 4.70508 52.6031 4.70508 52.6031C4.70508 52.6031 12.9986 58.7168 19.1664 58.7168C25.9855 58.7168 30.0445 56.2045 36.9196 57.306C44.5857 58.5342 48.1052 62.0295 54.908 65.7711C57.2595 67.0644 63.2774 71.1876 68.899 70.1213C72.8605 69.3698 78.3047 65.1833 78.3047 65.1833C78.3047 65.1833 73.0724 67.0088 69.9572 66.5941C66.9041 66.1877 62.9029 62.4791 62.9029 62.4791Z" fill="url(#paint1_linear_46_1756)"/>
<path d="M28.3991 85.8498C23.7105 85.3809 16.8652 80.3501 16.8652 80.3501C16.8652 80.3501 22.9296 80.816 26.51 80.3501C32.8352 79.5271 33.531 78.1798 38.1496 77.7635C41.9451 77.4214 46.077 77.2978 49.6923 78.5029C52.514 79.4435 57.4552 81.6201 62.557 83.8262C65.6346 85.1571 68.7675 84.642 70.9856 84.2698C76.0224 83.4246 79.8578 81.6082 79.8578 81.6082C79.8578 81.6082 77.9049 85.0948 74.0909 87.8187C70.6404 90.2829 69.4227 91.2538 65.191 91.5194C58.1007 91.9644 54.886 87.4445 47.908 86.1111C40.0609 84.6116 33.1019 86.3201 28.3991 85.8498Z" fill="url(#paint2_linear_46_1756)"/>
<path d="M37.271 94.2782C30.5876 92.6557 20.8574 85.5835 20.8574 85.5835C20.8574 85.5835 26.6935 88.6375 29.8263 88.6375C37.3974 88.6375 46.1432 86.9944 51.0253 89.8817C55.459 92.5038 62.5567 93.7275 62.5567 93.7275C62.5567 93.7275 59.6618 94.6147 58.9459 94.9717C54.6362 97.1208 41.9301 95.4094 37.271 94.2782Z" fill="url(#paint3_linear_46_1756)"/>
<circle cx="38.3956" cy="15.7404" r="8.87219" fill="url(#paint4_linear_46_1756)"/>
<circle cx="16.5802" cy="49.7814" r="4.82042" fill="#50A858"/>
<circle cx="56.9063" cy="55.7774" r="5.40828" fill="#50A858"/>
<path d="M85.1805 26.8496C91.647 26.1267 94.0527 42.1268 94.0527 42.1268C94.0527 42.1268 90.8431 42.2325 87.8284 42.8448C80.6096 44.3109 80.1009 53.0884 72.7792 53.8965C67.371 54.4934 63.7682 40.9745 55.6138 41.4339C47.4594 41.8934 45.8924 52.0627 37.743 52.6032C32.3347 52.962 28.1021 41.6691 19.0491 37.6716C13.0831 35.0373 4 46.0192 4 46.0192C4 46.0192 9.40828 23.0928 22.8114 22.505C28.1296 22.2717 32.1913 35.3734 40.212 33.3215C45.2675 32.0282 52.0746 19.8725 56.0841 17.0967C57.6125 16.0385 59.6652 15.8039 62.3154 17.0967C67.1358 19.4481 66.6655 30.0295 71.3684 30.7349C75.3112 31.3264 81.2183 27.2926 85.1805 26.8496Z" fill="url(#paint5_linear_46_1756)"/>
</g>
<defs>
<filter id="filter0_d_46_1756" x="0" y="0" width="106.939" height="106" filterUnits="userSpaceOnUse" color-interpolation-filters="sRGB">
<feFlood flood-opacity="0" result="BackgroundImageFix"/>
<feColorMatrix in="SourceAlpha" type="matrix" values="0 0 0 0 0 0 0 0 0 0 0 0 0 0 0 0 0 0 127 0" result="hardAlpha"/>
<feOffset dx="4" dy="2"/>
<feGaussianBlur stdDeviation="4"/>
<feComposite in2="hardAlpha" operator="out"/>
<feColorMatrix type="matrix" values="0 0 0 0 0.188235 0 0 0 0 0.188235 0 0 0 0 0.188235 0 0 0 0.15 0"/>
<feBlend mode="normal" in2="BackgroundImageFix" result="effect1_dropShadow_46_1756"/>
<feBlend mode="normal" in="SourceGraphic" in2="effect1_dropShadow_46_1756" result="shape"/>
</filter>
<linearGradient id="paint0_linear_46_1756" x1="69.4325" y1="6" x2="50.5791" y2="19.9464" gradientUnits="userSpaceOnUse">
<stop stop-color="#FFA231"/>
<stop offset="1" stop-color="#FFA231" stop-opacity="0"/>
</linearGradient>
<linearGradient id="paint1_linear_46_1756" x1="48.3606" y1="70.9614" x2="-10.6395" y2="39.4651" gradientUnits="userSpaceOnUse">
<stop stop-color="#25C9C2"/>
<stop offset="1" stop-color="#27CDC7" stop-opacity="0"/>
</linearGradient>
<linearGradient id="paint2_linear_46_1756" x1="78.527" y1="94.0292" x2="2.66973" y2="53.6608" gradientUnits="userSpaceOnUse">
<stop stop-color="#D83F31" stop-opacity="0.88"/>
<stop offset="0.457759" stop-color="#FC831F"/>
<stop offset="1" stop-color="#FC831F" stop-opacity="0"/>
</linearGradient>
<linearGradient id="paint3_linear_46_1756" x1="65.2184" y1="99.3524" x2="19.083" y2="71.405" gradientUnits="userSpaceOnUse">
<stop stop-color="#D83F31" stop-opacity="0.88"/>
<stop offset="0.553162" stop-color="#FFA231"/>
<stop offset="1" stop-color="#FFA231" stop-opacity="0"/>
</linearGradient>
<linearGradient id="paint4_linear_46_1756" x1="43.0372" y1="6.63829" x2="20.4131" y2="27.4879" gradientUnits="userSpaceOnUse">
<stop stop-color="#FCC21A"/>
<stop offset="1" stop-color="#FCC21A" stop-opacity="0"/>
</linearGradient>
<linearGradient id="paint5_linear_46_1756" x1="59.4512" y1="35.0291" x2="21.7444" y2="93.5855" gradientUnits="userSpaceOnUse">
<stop stop-color="#50A858"/>
<stop offset="1" stop-color="#C6E2E1"/>
</linearGradient>
</defs>
</svg>
