<svg width="215" height="81" viewBox="0 0 215 81" fill="none" xmlns="http://www.w3.org/2000/svg">
<path d="M78.0122 53.8682V45.4682H79.2842V52.8602H83.1002V53.8682H78.0122ZM86.4372 54.0122C85.9332 54.0122 85.5172 53.9282 85.1892 53.7602C84.8612 53.5922 84.6172 53.3722 84.4572 53.1002C84.2972 52.8202 84.2172 52.5162 84.2172 52.1882C84.2172 51.6122 84.4412 51.1562 84.8892 50.8202C85.3372 50.4842 85.9772 50.3162 86.8092 50.3162H88.3692V50.2082C88.3692 49.7442 88.2412 49.3962 87.9852 49.1642C87.7372 48.9322 87.4132 48.8162 87.0132 48.8162C86.6612 48.8162 86.3532 48.9042 86.0892 49.0802C85.8332 49.2482 85.6772 49.5002 85.6212 49.8362H84.3492C84.3892 49.4042 84.5332 49.0362 84.7812 48.7322C85.0372 48.4202 85.3572 48.1842 85.7412 48.0242C86.1332 47.8562 86.5612 47.7722 87.0252 47.7722C87.8572 47.7722 88.5012 47.9922 88.9572 48.4322C89.4132 48.8642 89.6412 49.4562 89.6412 50.2082V53.8682H88.5372L88.4292 52.8482C88.2612 53.1762 88.0172 53.4522 87.6972 53.6762C87.3772 53.9002 86.9572 54.0122 86.4372 54.0122ZM86.6892 52.9802C87.0332 52.9802 87.3212 52.9002 87.5532 52.7402C87.7932 52.5722 87.9772 52.3522 88.1052 52.0802C88.2412 51.8082 88.3252 51.5082 88.3572 51.1802H86.9412C86.4372 51.1802 86.0772 51.2682 85.8612 51.4442C85.6532 51.6202 85.5492 51.8402 85.5492 52.1042C85.5492 52.3762 85.6492 52.5922 85.8492 52.7522C86.0572 52.9042 86.3372 52.9802 86.6892 52.9802ZM93.5003 54.0122C92.7483 54.0122 92.1283 53.8282 91.6403 53.4602C91.1523 53.0922 90.8723 52.6042 90.8003 51.9962H92.0843C92.1483 52.2682 92.3003 52.5042 92.5403 52.7042C92.7803 52.8962 93.0963 52.9922 93.4883 52.9922C93.8723 52.9922 94.1523 52.9122 94.3283 52.7522C94.5043 52.5922 94.5923 52.4082 94.5923 52.2002C94.5923 51.8962 94.4683 51.6922 94.2203 51.5882C93.9803 51.4762 93.6443 51.3762 93.2123 51.2882C92.8763 51.2162 92.5403 51.1202 92.2043 51.0002C91.8763 50.8802 91.6003 50.7122 91.3763 50.4962C91.1603 50.2722 91.0523 49.9722 91.0523 49.5962C91.0523 49.0762 91.2523 48.6442 91.6523 48.3002C92.0523 47.9482 92.6123 47.7722 93.3323 47.7722C93.9963 47.7722 94.5323 47.9322 94.9403 48.2522C95.3563 48.5722 95.6003 49.0242 95.6723 49.6082H94.4483C94.4083 49.3522 94.2883 49.1522 94.0883 49.0082C93.8963 48.8642 93.6363 48.7922 93.3083 48.7922C92.9883 48.7922 92.7403 48.8602 92.5643 48.9962C92.3883 49.1242 92.3003 49.2922 92.3003 49.5002C92.3003 49.7082 92.4203 49.8722 92.6603 49.9922C92.9083 50.1122 93.2323 50.2202 93.6323 50.3162C94.0323 50.4042 94.4003 50.5082 94.7363 50.6282C95.0803 50.7402 95.3563 50.9082 95.5643 51.1322C95.7723 51.3562 95.8763 51.6842 95.8763 52.1162C95.8843 52.6602 95.6723 53.1122 95.2403 53.4722C94.8163 53.8322 94.2363 54.0122 93.5003 54.0122ZM97.2649 53.8682V45.2282H98.5369V50.3762L100.817 47.9162H102.341L99.8089 50.6162L102.713 53.8682H101.105L98.5369 50.8202V53.8682H97.2649ZM105.586 54.0122C105.082 54.0122 104.666 53.9282 104.338 53.7602C104.01 53.5922 103.766 53.3722 103.606 53.1002C103.446 52.8202 103.366 52.5162 103.366 52.1882C103.366 51.6122 103.59 51.1562 104.038 50.8202C104.486 50.4842 105.126 50.3162 105.958 50.3162H107.518V50.2082C107.518 49.7442 107.39 49.3962 107.134 49.1642C106.886 48.9322 106.562 48.8162 106.162 48.8162C105.81 48.8162 105.502 48.9042 105.238 49.0802C104.982 49.2482 104.826 49.5002 104.77 49.8362H103.498C103.538 49.4042 103.682 49.0362 103.93 48.7322C104.186 48.4202 104.506 48.1842 104.89 48.0242C105.282 47.8562 105.71 47.7722 106.174 47.7722C107.006 47.7722 107.65 47.9922 108.106 48.4322C108.562 48.8642 108.79 49.4562 108.79 50.2082V53.8682H107.686L107.578 52.8482C107.41 53.1762 107.166 53.4522 106.846 53.6762C106.526 53.9002 106.106 54.0122 105.586 54.0122ZM105.838 52.9802C106.182 52.9802 106.47 52.9002 106.702 52.7402C106.942 52.5722 107.126 52.3522 107.254 52.0802C107.39 51.8082 107.474 51.5082 107.506 51.1802H106.09C105.586 51.1802 105.226 51.2682 105.01 51.4442C104.802 51.6202 104.698 51.8402 104.698 52.1042C104.698 52.3762 104.798 52.5922 104.998 52.7522C105.206 52.9042 105.486 52.9802 105.838 52.9802ZM110.273 53.8682V47.9162H111.413L111.521 49.0442C111.729 48.6522 112.017 48.3442 112.385 48.1202C112.761 47.8882 113.213 47.7722 113.741 47.7722V49.1042H113.393C113.041 49.1042 112.725 49.1642 112.445 49.2842C112.173 49.3962 111.953 49.5922 111.785 49.8722C111.625 50.1442 111.545 50.5242 111.545 51.0122V53.8682H110.273Z" fill="#27AEA1"/>
<path d="M117.903 53.8682V45.4682H123.243V46.5002H119.175V49.1162H122.883V50.1242H119.175V52.8362H123.243V53.8682H117.903ZM124.71 53.8682V45.2282H125.982V50.3762L128.262 47.9162H129.786L127.254 50.6162L130.158 53.8682H128.55L125.982 50.8202V53.8682H124.71ZM133.471 54.0122C132.903 54.0122 132.391 53.8842 131.935 53.6282C131.487 53.3642 131.131 53.0002 130.867 52.5362C130.603 52.0642 130.471 51.5162 130.471 50.8922C130.471 50.2682 130.603 49.7242 130.867 49.2602C131.139 48.7882 131.503 48.4242 131.959 48.1682C132.415 47.9042 132.923 47.7722 133.483 47.7722C134.051 47.7722 134.559 47.9042 135.007 48.1682C135.463 48.4242 135.823 48.7882 136.087 49.2602C136.359 49.7242 136.495 50.2682 136.495 50.8922C136.495 51.5162 136.359 52.0642 136.087 52.5362C135.823 53.0002 135.463 53.3642 135.007 53.6282C134.551 53.8842 134.039 54.0122 133.471 54.0122ZM133.471 52.9202C133.775 52.9202 134.055 52.8442 134.311 52.6922C134.575 52.5402 134.787 52.3162 134.947 52.0202C135.107 51.7162 135.187 51.3402 135.187 50.8922C135.187 50.4442 135.107 50.0722 134.947 49.7762C134.795 49.4722 134.587 49.2442 134.323 49.0922C134.067 48.9402 133.787 48.8642 133.483 48.8642C133.179 48.8642 132.895 48.9402 132.631 49.0922C132.375 49.2442 132.167 49.4722 132.007 49.7762C131.847 50.0722 131.767 50.4442 131.767 50.8922C131.767 51.3402 131.847 51.7162 132.007 52.0202C132.167 52.3162 132.375 52.5402 132.631 52.6922C132.887 52.8442 133.167 52.9202 133.471 52.9202ZM140.246 54.0122C139.494 54.0122 138.874 53.8282 138.386 53.4602C137.898 53.0922 137.618 52.6042 137.546 51.9962H138.83C138.894 52.2682 139.046 52.5042 139.286 52.7042C139.526 52.8962 139.842 52.9922 140.234 52.9922C140.618 52.9922 140.898 52.9122 141.074 52.7522C141.25 52.5922 141.338 52.4082 141.338 52.2002C141.338 51.8962 141.214 51.6922 140.966 51.5882C140.726 51.4762 140.39 51.3762 139.958 51.2882C139.622 51.2162 139.286 51.1202 138.95 51.0002C138.622 50.8802 138.346 50.7122 138.122 50.4962C137.906 50.2722 137.798 49.9722 137.798 49.5962C137.798 49.0762 137.998 48.6442 138.398 48.3002C138.798 47.9482 139.358 47.7722 140.078 47.7722C140.742 47.7722 141.278 47.9322 141.686 48.2522C142.102 48.5722 142.346 49.0242 142.418 49.6082H141.194C141.154 49.3522 141.034 49.1522 140.834 49.0082C140.642 48.8642 140.382 48.7922 140.054 48.7922C139.734 48.7922 139.486 48.8602 139.31 48.9962C139.134 49.1242 139.046 49.2922 139.046 49.5002C139.046 49.7082 139.166 49.8722 139.406 49.9922C139.654 50.1122 139.978 50.2202 140.378 50.3162C140.778 50.4042 141.146 50.5082 141.482 50.6282C141.826 50.7402 142.102 50.9082 142.31 51.1322C142.518 51.3562 142.622 51.6842 142.622 52.1162C142.63 52.6602 142.418 53.1122 141.986 53.4722C141.562 53.8322 140.982 54.0122 140.246 54.0122ZM144.731 46.7882C144.491 46.7882 144.291 46.7162 144.131 46.5722C143.979 46.4202 143.903 46.2322 143.903 46.0082C143.903 45.7842 143.979 45.6002 144.131 45.4562C144.291 45.3042 144.491 45.2282 144.731 45.2282C144.971 45.2282 145.167 45.3042 145.319 45.4562C145.479 45.6002 145.559 45.7842 145.559 46.0082C145.559 46.2322 145.479 46.4202 145.319 46.5722C145.167 46.7162 144.971 46.7882 144.731 46.7882ZM144.095 53.8682V47.9162H145.367V53.8682H144.095ZM149.422 54.0122C148.67 54.0122 148.05 53.8282 147.562 53.4602C147.074 53.0922 146.794 52.6042 146.722 51.9962H148.006C148.07 52.2682 148.222 52.5042 148.462 52.7042C148.702 52.8962 149.018 52.9922 149.41 52.9922C149.794 52.9922 150.074 52.9122 150.25 52.7522C150.426 52.5922 150.514 52.4082 150.514 52.2002C150.514 51.8962 150.39 51.6922 150.142 51.5882C149.902 51.4762 149.566 51.3762 149.134 51.2882C148.798 51.2162 148.462 51.1202 148.126 51.0002C147.798 50.8802 147.522 50.7122 147.298 50.4962C147.082 50.2722 146.974 49.9722 146.974 49.5962C146.974 49.0762 147.174 48.6442 147.574 48.3002C147.974 47.9482 148.534 47.7722 149.254 47.7722C149.918 47.7722 150.454 47.9322 150.862 48.2522C151.278 48.5722 151.522 49.0242 151.594 49.6082H150.37C150.33 49.3522 150.21 49.1522 150.01 49.0082C149.818 48.8642 149.558 48.7922 149.23 48.7922C148.91 48.7922 148.662 48.8602 148.486 48.9962C148.31 49.1242 148.222 49.2922 148.222 49.5002C148.222 49.7082 148.342 49.8722 148.582 49.9922C148.83 50.1122 149.154 50.2202 149.554 50.3162C149.954 50.4042 150.322 50.5082 150.658 50.6282C151.002 50.7402 151.278 50.9082 151.486 51.1322C151.694 51.3562 151.798 51.6842 151.798 52.1162C151.806 52.6602 151.594 53.1122 151.162 53.4722C150.738 53.8322 150.158 54.0122 149.422 54.0122ZM155.46 53.8682C154.876 53.8682 154.412 53.7282 154.068 53.4482C153.724 53.1602 153.552 52.6522 153.552 51.9242V48.9842H152.532V47.9162H153.552L153.708 46.4042H154.824V47.9162H156.504V48.9842H154.824V51.9242C154.824 52.2522 154.892 52.4802 155.028 52.6082C155.172 52.7282 155.416 52.7882 155.76 52.7882H156.444V53.8682H155.46ZM160.447 54.0122C159.863 54.0122 159.343 53.8842 158.887 53.6282C158.439 53.3642 158.087 53.0002 157.831 52.5362C157.575 52.0722 157.447 51.5322 157.447 50.9162C157.447 50.2922 157.571 49.7442 157.819 49.2722C158.075 48.8002 158.427 48.4322 158.875 48.1682C159.331 47.9042 159.859 47.7722 160.459 47.7722C161.043 47.7722 161.551 47.9042 161.983 48.1682C162.415 48.4242 162.751 48.7682 162.991 49.2002C163.231 49.6322 163.351 50.1082 163.351 50.6282C163.351 50.7082 163.347 50.7962 163.339 50.8922C163.339 50.9802 163.335 51.0802 163.327 51.1922H158.695C158.735 51.7682 158.923 52.2082 159.259 52.5122C159.603 52.8082 159.999 52.9562 160.447 52.9562C160.807 52.9562 161.107 52.8762 161.347 52.7162C161.595 52.5482 161.779 52.3242 161.899 52.0442H163.171C163.011 52.6042 162.691 53.0722 162.211 53.4482C161.739 53.8242 161.151 54.0122 160.447 54.0122ZM160.447 48.8162C160.023 48.8162 159.647 48.9442 159.319 49.2002C158.991 49.4482 158.791 49.8242 158.719 50.3282H162.079C162.055 49.8642 161.891 49.4962 161.587 49.2242C161.283 48.9522 160.903 48.8162 160.447 48.8162ZM164.671 53.8682V47.9162H165.799L165.907 48.7562C166.099 48.4522 166.351 48.2122 166.663 48.0362C166.983 47.8602 167.351 47.7722 167.767 47.7722C168.711 47.7722 169.367 48.1442 169.735 48.8882C169.951 48.5442 170.239 48.2722 170.599 48.0722C170.967 47.8722 171.363 47.7722 171.787 47.7722C172.531 47.7722 173.115 47.9962 173.539 48.4442C173.963 48.8922 174.175 49.5602 174.175 50.4482V53.8682H172.903V50.5802C172.903 49.4282 172.463 48.8522 171.583 48.8522C171.135 48.8522 170.767 49.0202 170.479 49.3562C170.199 49.6922 170.059 50.1722 170.059 50.7962V53.8682H168.787V50.5802C168.787 49.4282 168.343 48.8522 167.455 48.8522C167.015 48.8522 166.651 49.0202 166.363 49.3562C166.083 49.6922 165.943 50.1722 165.943 50.7962V53.8682H164.671ZM178.735 53.8682V45.4682H181.903C182.775 45.4682 183.435 45.6722 183.883 46.0802C184.331 46.4882 184.555 47.0002 184.555 47.6162C184.555 48.1522 184.411 48.5802 184.123 48.9002C183.835 49.2122 183.487 49.4242 183.079 49.5362C183.399 49.6002 183.683 49.7282 183.931 49.9202C184.187 50.1122 184.387 50.3522 184.531 50.6402C184.675 50.9282 184.747 51.2402 184.747 51.5762C184.747 52.0082 184.639 52.4002 184.423 52.7522C184.215 53.0962 183.907 53.3682 183.499 53.5682C183.091 53.7682 182.591 53.8682 181.999 53.8682H178.735ZM180.007 49.0682H181.747C182.235 49.0682 182.607 48.9562 182.863 48.7322C183.119 48.5002 183.247 48.1842 183.247 47.7842C183.247 47.3922 183.119 47.0802 182.863 46.8482C182.615 46.6162 182.235 46.5002 181.723 46.5002H180.007V49.0682ZM180.007 52.8242H181.831C182.343 52.8242 182.739 52.7042 183.019 52.4642C183.307 52.2242 183.451 51.8882 183.451 51.4562C183.451 51.0242 183.303 50.6842 183.007 50.4362C182.711 50.1802 182.311 50.0522 181.807 50.0522H180.007V52.8242ZM188.289 54.0122C187.569 54.0122 187.001 53.7882 186.585 53.3402C186.177 52.8922 185.973 52.2242 185.973 51.3362V47.9162H187.245V51.2042C187.245 52.3562 187.717 52.9322 188.661 52.9322C189.133 52.9322 189.521 52.7642 189.825 52.4282C190.129 52.0922 190.281 51.6122 190.281 50.9882V47.9162H191.553V53.8682H190.425L190.329 52.8242C190.145 53.1922 189.873 53.4842 189.513 53.7002C189.161 53.9082 188.753 54.0122 188.289 54.0122ZM193.171 53.8682V47.9162H194.299L194.407 48.7562C194.599 48.4522 194.851 48.2122 195.163 48.0362C195.483 47.8602 195.851 47.7722 196.267 47.7722C197.211 47.7722 197.867 48.1442 198.235 48.8882C198.451 48.5442 198.739 48.2722 199.099 48.0722C199.467 47.8722 199.863 47.7722 200.287 47.7722C201.031 47.7722 201.615 47.9962 202.039 48.4442C202.463 48.8922 202.675 49.5602 202.675 50.4482V53.8682H201.403V50.5802C201.403 49.4282 200.963 48.8522 200.083 48.8522C199.635 48.8522 199.267 49.0202 198.979 49.3562C198.699 49.6922 198.559 50.1722 198.559 50.7962V53.8682H197.287V50.5802C197.287 49.4282 196.843 48.8522 195.955 48.8522C195.515 48.8522 195.151 49.0202 194.863 49.3562C194.583 49.6922 194.443 50.1722 194.443 50.7962V53.8682H193.171ZM204.883 46.7882C204.643 46.7882 204.443 46.7162 204.283 46.5722C204.131 46.4202 204.055 46.2322 204.055 46.0082C204.055 45.7842 204.131 45.6002 204.283 45.4562C204.443 45.3042 204.643 45.2282 204.883 45.2282C205.123 45.2282 205.319 45.3042 205.471 45.4562C205.631 45.6002 205.711 45.7842 205.711 46.0082C205.711 46.2322 205.631 46.4202 205.471 46.5722C205.319 46.7162 205.123 46.7882 204.883 46.7882ZM204.247 53.8682V47.9162H205.519V53.8682H204.247Z" fill="#1E1E1E"/>
<g filter="url(#filter0_d_150_424)">
<path d="M47.3927 9.10788C45.4912 7.20637 38.8359 9.60278 38.8359 9.60278C38.8359 9.60278 42.9559 6.43359 45.8082 6.43359C48.9865 6.43359 51.1031 6.903 52.7804 9.60278C54.048 11.6432 54.2676 14.0419 56.5834 15.7632C58.3869 17.1037 63.2387 17.5258 63.2387 17.5258C63.2387 17.5258 58.2765 19.7456 56.2665 19.5662C51.8807 19.1748 50.5063 12.2215 47.3927 9.10788Z" fill="url(#paint0_linear_150_424)"/>
<path d="M46.372 46.7835C46.372 46.7835 54.3642 45.8711 58.1672 43.0188C60.5567 41.2267 61.2587 39.1729 63.5548 37.6312C66.1994 35.5162 69.2593 35.7296 69.2593 35.7296C69.2593 35.7296 69.3839 45.7051 65.8586 50.6472C63.1902 54.3882 61.0442 56.5315 56.7033 58.0387C52.8898 59.3627 48.9765 59.3596 46.7581 58.7258C40.9048 57.0534 37.4119 54.1173 31.3371 54.5109C27.6049 54.7527 25.3917 55.2064 21.7617 56.1068C18.8692 56.8243 16.6508 57.4581 13.6983 56.4428C13.0271 56.2119 11.2632 55.3953 9.67858 53.0213C8.09398 50.6472 6.81078 47.9594 6.81078 47.9594C6.81078 47.9594 11.3713 50.341 13.6983 50.6472C15.8102 50.9251 17.73 49.1353 17.73 49.1353C17.73 49.1353 12.2666 49.131 9.66658 47.2034C6.86736 45.1282 4.79492 39.728 4.79492 39.728C4.79492 39.728 10.7199 44.0956 15.1262 44.0956C19.9979 44.0956 22.8976 42.3008 27.8093 43.0877C33.2861 43.9652 35.8004 46.4623 40.6604 49.1353C42.3403 50.0592 46.6396 53.0049 50.6557 52.2431C53.4858 51.7062 57.3752 48.7153 57.3752 48.7153C57.3752 48.7153 53.6372 50.0195 51.4117 49.7233C49.2305 49.4329 46.372 46.7835 46.372 46.7835Z" fill="url(#paint1_linear_150_424)"/>
<path d="M21.7223 63.4797C18.3727 63.1448 13.4824 59.5507 13.4824 59.5507C13.4824 59.5507 17.8148 59.8835 20.3728 59.5507C24.8915 58.9628 25.3886 58.0002 28.6882 57.7028C31.3997 57.4585 34.3516 57.3701 36.9344 58.2311C38.9503 58.903 42.4803 60.458 46.1251 62.0341C48.3237 62.9849 50.5619 62.6169 52.1465 62.351C55.7449 61.7472 58.4849 60.4495 58.4849 60.4495C58.4849 60.4495 57.0898 62.9404 54.365 64.8864C51.8999 66.6468 51.03 67.3404 48.0068 67.5302C42.9414 67.8481 40.6449 64.619 35.6597 63.6664C30.0536 62.5952 25.0821 63.8157 21.7223 63.4797Z" fill="url(#paint2_linear_150_424)"/>
<path d="M28.06 69.5007C23.2853 68.3415 16.334 63.2891 16.334 63.2891C16.334 63.2891 20.5033 65.4709 22.7414 65.4709C28.1503 65.4709 34.3984 64.297 37.8862 66.3598C41.0537 68.233 46.1244 69.1072 46.1244 69.1072C46.1244 69.1072 44.0562 69.7411 43.5447 69.9961C40.4659 71.5314 31.3885 70.3088 28.06 69.5007Z" fill="url(#paint3_linear_150_424)"/>
<circle cx="28.8638" cy="13.3921" r="6.33838" fill="url(#paint4_linear_150_424)"/>
<circle cx="13.2777" cy="37.7113" r="3.44376" fill="#50A858"/>
<circle cx="42.0883" cy="41.9956" r="3.86373" fill="#50A858"/>
<path d="M62.2872 21.3294C66.9069 20.813 68.6256 32.2436 68.6256 32.2436C68.6256 32.2436 66.3326 32.3191 64.1788 32.7566C59.0217 33.8039 58.6582 40.0747 53.4276 40.652C49.5638 41.0785 46.99 31.4204 41.1644 31.7486C35.3388 32.0768 34.2194 39.3419 28.3973 39.7281C24.5336 39.9844 21.5098 31.9166 15.0423 29.0608C10.78 27.1788 4.29102 35.0244 4.29102 35.0244C4.29102 35.0244 8.15474 18.6455 17.7301 18.2256C21.5294 18.0589 24.4311 27.4189 30.1612 25.953C33.7729 25.0291 38.636 16.3449 41.5004 14.3618C42.5923 13.6059 44.0588 13.4383 45.9521 14.3618C49.3958 16.0417 49.0599 23.6012 52.4196 24.1052C55.2364 24.5277 59.4565 21.6459 62.2872 21.3294Z" fill="url(#paint5_linear_150_424)"/>
</g>
<path d="M79.2852 37.293V19.293H82.8352V34.193H90.0602V37.293H79.2852ZM98.7703 37.593C96.687 37.593 95.112 37.2513 94.0453 36.568C92.9953 35.8846 92.4703 34.7763 92.4703 33.243C92.4703 32.2596 92.712 31.4513 93.1953 30.818C93.6953 30.1846 94.387 29.718 95.2703 29.418C96.1703 29.1013 97.2036 28.943 98.3703 28.943C99.087 28.943 99.712 29.0013 100.245 29.118C100.779 29.218 101.262 29.3263 101.695 29.443V31.693C101.362 31.5763 100.937 31.4763 100.42 31.393C99.9036 31.293 99.4036 31.243 98.9203 31.243C97.837 31.243 97.0286 31.393 96.4953 31.693C95.9786 31.993 95.7203 32.5013 95.7203 33.218C95.7203 33.9013 95.9786 34.393 96.4953 34.693C97.012 34.993 97.7536 35.143 98.7203 35.143C99.3036 35.143 99.862 35.093 100.395 34.993C100.945 34.8763 101.429 34.7013 101.845 34.468L101.345 35.443C101.279 35.243 101.22 35.043 101.17 34.843C101.12 34.643 101.079 34.4346 101.045 34.218C101.029 34.0013 101.012 33.7596 100.995 33.493C100.995 33.2096 100.995 32.868 100.995 32.468V29.043C100.995 28.193 100.862 27.5513 100.595 27.118C100.329 26.6846 99.937 26.4013 99.4203 26.268C98.9036 26.118 98.262 26.043 97.4953 26.043C96.7953 26.043 96.1203 26.118 95.4703 26.268C94.8203 26.4013 94.2953 26.5596 93.8953 26.743H93.6453V23.968C94.2453 23.7513 94.9203 23.593 95.6703 23.493C96.4203 23.3763 97.1703 23.318 97.9203 23.318C98.8536 23.318 99.712 23.4013 100.495 23.568C101.295 23.7346 101.987 24.0263 102.57 24.443C103.154 24.8596 103.604 25.4513 103.92 26.218C104.254 26.968 104.42 27.943 104.42 29.143V32.293C104.42 32.643 104.42 33.0846 104.42 33.618C104.437 34.1346 104.462 34.643 104.495 35.143C104.529 35.643 104.579 36.043 104.645 36.343L104.57 36.543C104.004 36.7596 103.387 36.9513 102.72 37.118C102.07 37.268 101.404 37.3846 100.72 37.468C100.037 37.5513 99.387 37.593 98.7703 37.593ZM111.936 37.293H108.436V22.518C108.436 22.1846 108.427 21.7596 108.411 21.243C108.394 20.7096 108.369 20.193 108.336 19.693C108.319 19.193 108.269 18.793 108.186 18.493L108.261 18.293H111.936V37.293ZM111.361 30.143L117.111 23.643H120.861V23.943C120.694 24.0763 120.494 24.268 120.261 24.518C120.044 24.7513 119.811 25.0013 119.561 25.268C119.311 25.5346 119.069 25.793 118.836 26.043L114.136 31.068L114.161 28.868L119.011 34.818C119.327 35.2013 119.677 35.6096 120.061 36.043C120.461 36.4763 120.777 36.793 121.011 36.993V37.293H116.986L111.361 30.143ZM122.381 33.843H122.581C123.181 34.093 123.881 34.3096 124.681 34.493C125.498 34.6763 126.314 34.768 127.131 34.768C127.414 34.768 127.723 34.7596 128.056 34.743C128.389 34.7096 128.698 34.6513 128.981 34.568C129.281 34.4846 129.523 34.3346 129.706 34.118C129.906 33.9013 130.006 33.6096 130.006 33.243C130.006 32.7763 129.814 32.4513 129.431 32.268C129.048 32.0846 128.456 31.9263 127.656 31.793L126.481 31.593C125.148 31.3596 124.123 30.9596 123.406 30.393C122.689 29.8096 122.331 28.9513 122.331 27.818C122.331 27.0013 122.548 26.2596 122.981 25.593C123.431 24.9263 124.123 24.4013 125.056 24.018C126.006 23.618 127.248 23.418 128.781 23.418C129.498 23.418 130.156 23.468 130.756 23.568C131.373 23.6513 131.956 23.7763 132.506 23.943V26.818H132.306C131.673 26.568 131.064 26.393 130.481 26.293C129.898 26.193 129.298 26.143 128.681 26.143C127.748 26.143 127.014 26.2596 126.481 26.493C125.964 26.7096 125.706 27.1013 125.706 27.668C125.706 28.1013 125.898 28.4096 126.281 28.593C126.681 28.7763 127.256 28.9346 128.006 29.068L129.156 29.268C129.939 29.3846 130.648 29.593 131.281 29.893C131.931 30.193 132.448 30.6096 132.831 31.143C133.214 31.6596 133.406 32.3263 133.406 33.143C133.406 34.593 132.864 35.6846 131.781 36.418C130.714 37.1346 129.098 37.493 126.931 37.493C126.131 37.493 125.331 37.4263 124.531 37.293C123.731 37.1596 123.014 36.993 122.381 36.793V33.843Z" fill="#1E1E1E"/>
<path d="M136.39 37.293V28.768C136.39 28.4346 136.381 28.0096 136.365 27.493C136.348 26.9596 136.323 26.443 136.29 25.943C136.273 25.4263 136.223 25.018 136.14 24.718L136.215 24.518C136.715 24.3013 137.306 24.1096 137.99 23.943C138.673 23.7596 139.381 23.6096 140.115 23.493C140.865 23.3763 141.581 23.318 142.265 23.318C143.048 23.318 143.806 23.4096 144.54 23.593C145.29 23.7596 145.956 24.068 146.54 24.518C147.14 24.968 147.615 25.593 147.965 26.393C148.315 27.1763 148.49 28.1846 148.49 29.418V37.293H144.99V29.568C144.99 28.6513 144.856 27.9513 144.59 27.468C144.34 26.968 143.981 26.6263 143.515 26.443C143.065 26.243 142.54 26.143 141.94 26.143C141.44 26.143 140.931 26.2013 140.415 26.318C139.915 26.4346 139.473 26.568 139.09 26.718L139.615 25.843C139.698 26.093 139.765 26.418 139.815 26.818C139.865 27.218 139.89 27.6763 139.89 28.193V37.293H136.39ZM153.365 37.293V29.568C153.365 28.6513 153.24 27.9513 152.99 27.468C152.756 26.968 152.398 26.6263 151.915 26.443C151.448 26.243 150.881 26.143 150.215 26.143C149.798 26.143 149.373 26.193 148.94 26.293C148.523 26.3763 148.115 26.493 147.715 26.643L145.815 24.393C146.565 24.0763 147.356 23.818 148.19 23.618C149.04 23.418 149.881 23.318 150.715 23.318C151.515 23.318 152.281 23.4013 153.015 23.568C153.748 23.7346 154.406 24.043 154.99 24.493C155.573 24.9263 156.031 25.543 156.365 26.343C156.698 27.1263 156.865 28.1513 156.865 29.418V37.293H153.365ZM162.773 21.493C162.207 21.493 161.732 21.3263 161.348 20.993C160.982 20.643 160.798 20.1596 160.798 19.543C160.798 18.943 160.982 18.4763 161.348 18.143C161.732 17.793 162.207 17.618 162.773 17.618C163.357 17.618 163.832 17.793 164.198 18.143C164.565 18.4763 164.748 18.943 164.748 19.543C164.748 20.1596 164.565 20.643 164.198 20.993C163.832 21.3263 163.357 21.493 162.773 21.493ZM161.023 37.293V27.868C161.023 27.5346 161.015 27.1096 160.998 26.593C160.982 26.0763 160.957 25.568 160.923 25.068C160.907 24.5513 160.857 24.143 160.773 23.843L160.848 23.643H164.523V37.293H161.023Z" fill="#27AEA1"/>
<defs>
<filter id="filter0_d_150_424" x="0.291016" y="0.433594" width="80.9688" height="80.2969" filterUnits="userSpaceOnUse" color-interpolation-filters="sRGB">
<feFlood flood-opacity="0" result="BackgroundImageFix"/>
<feColorMatrix in="SourceAlpha" type="matrix" values="0 0 0 0 0 0 0 0 0 0 0 0 0 0 0 0 0 0 127 0" result="hardAlpha"/>
<feOffset dx="4" dy="2"/>
<feGaussianBlur stdDeviation="4"/>
<feComposite in2="hardAlpha" operator="out"/>
<feColorMatrix type="matrix" values="0 0 0 0 0.188235 0 0 0 0 0.188235 0 0 0 0 0.188235 0 0 0 0.15 0"/>
<feBlend mode="normal" in2="BackgroundImageFix" result="effect1_dropShadow_150_424"/>
<feBlend mode="normal" in="SourceGraphic" in2="effect1_dropShadow_150_424" result="shape"/>
</filter>
<linearGradient id="paint0_linear_150_424" x1="51.0373" y1="6.43359" x2="37.5683" y2="16.397" gradientUnits="userSpaceOnUse">
<stop stop-color="#FFA231"/>
<stop offset="1" stop-color="#FFA231" stop-opacity="0"/>
</linearGradient>
<linearGradient id="paint1_linear_150_424" x1="35.9829" y1="52.8433" x2="-6.16736" y2="30.342" gradientUnits="userSpaceOnUse">
<stop stop-color="#25C9C2"/>
<stop offset="1" stop-color="#27CDC7" stop-opacity="0"/>
</linearGradient>
<linearGradient id="paint2_linear_150_424" x1="57.5342" y1="69.3232" x2="3.34102" y2="40.4836" gradientUnits="userSpaceOnUse">
<stop stop-color="#D83F31" stop-opacity="0.88"/>
<stop offset="0.457759" stop-color="#FC831F"/>
<stop offset="1" stop-color="#FC831F" stop-opacity="0"/>
</linearGradient>
<linearGradient id="paint3_linear_150_424" x1="48.0259" y1="73.1257" x2="15.0663" y2="53.1598" gradientUnits="userSpaceOnUse">
<stop stop-color="#D83F31" stop-opacity="0.88"/>
<stop offset="0.553162" stop-color="#FFA231"/>
<stop offset="1" stop-color="#FFA231" stop-opacity="0"/>
</linearGradient>
<linearGradient id="paint4_linear_150_424" x1="32.1798" y1="6.88949" x2="16.0169" y2="21.7847" gradientUnits="userSpaceOnUse">
<stop stop-color="#FCC21A"/>
<stop offset="1" stop-color="#FCC21A" stop-opacity="0"/>
</linearGradient>
<linearGradient id="paint5_linear_150_424" x1="43.9059" y1="27.1729" x2="16.9678" y2="69.0062" gradientUnits="userSpaceOnUse">
<stop stop-color="#50A858"/>
<stop offset="1" stop-color="#C6E2E1"/>
</linearGradient>
</defs>
</svg>
