<svg width="254" height="76" viewBox="0 0 254 76" fill="none" xmlns="http://www.w3.org/2000/svg">
<g style="mix-blend-mode:luminosity" clip-path="url(#clip0_279_1489)">
<path d="M0.297785 52.2257C0.297785 48.4508 0.233586 45.2905 0.0351562 42.463H6.98313L7.31287 47.3144H7.50547C9.07832 44.7537 11.9614 41.7194 17.3365 41.7194C21.5327 41.7194 24.8068 44.1481 26.1842 47.7821H26.3184C27.4331 45.9651 28.7404 44.6158 30.2461 43.6773C32.0174 42.394 34.0542 41.7194 36.6718 41.7194C41.9827 41.7194 47.352 45.4224 47.352 55.9347V75.2563H39.4877V57.1401C39.4877 51.689 37.6522 48.4508 33.7858 48.4508C31.034 48.4508 29.0001 50.4777 28.1509 52.8344C27.9146 53.7338 27.7824 54.6587 27.757 55.5899V75.2593H19.8928V56.2615C19.8928 51.692 18.1244 48.4537 14.3863 48.4537C11.3778 48.4537 9.34678 50.8824 8.61726 53.1672C8.29335 53.9768 8.15912 54.9243 8.15912 55.8598V75.2593H0.297785V52.2257ZM77.9948 67.3825C77.9948 70.3419 78.1261 73.2354 78.4501 75.2593H71.1753L70.6529 71.6252H70.4545C68.4877 74.1859 65.1436 75.9969 61.0232 75.9969C54.5976 75.9969 50.9937 71.2205 50.9937 66.2342C50.9937 57.9436 58.1314 53.7759 69.9351 53.8418V53.3051C69.9351 51.1463 69.0801 47.5782 63.4423 47.5782C60.2937 47.5782 57.0196 48.5917 54.8573 50.0009L53.2845 44.6128C55.6452 43.1286 59.7743 41.7164 64.8167 41.7164C75.0446 41.7164 77.9978 48.3908 77.9978 55.5209L77.9948 67.3825ZM70.1277 59.2359C64.4228 59.098 58.9864 60.3783 58.9864 65.3616C58.9864 68.5939 61.0232 70.0781 63.5766 70.0781C66.7835 70.0781 69.1472 67.9162 69.868 65.5625C70.0444 64.974 70.133 64.3613 70.1306 63.7455L70.1277 59.2359ZM83.5625 52.2257C83.5625 48.4508 83.4954 45.2905 83.3058 42.463H90.3763L90.7673 47.3863H90.9657C92.3402 44.8227 95.8156 41.7194 101.124 41.7194C106.697 41.7194 112.46 45.4224 112.46 55.7998V75.2563H104.401V56.7413C104.401 52.0278 102.694 48.4478 98.3047 48.4478C95.0978 48.4478 92.8625 50.8075 92.0133 53.3021C91.7507 54.0397 91.6865 55.0532 91.6865 55.9887V75.2533H83.5596L83.5625 52.2257ZM147.413 29.2881V66.0333C147.413 69.4004 147.548 73.0435 147.676 75.2593H140.471L140.141 70.0781H140.007C138.11 73.7121 134.238 75.9999 129.59 75.9999C121.985 75.9999 115.959 69.3345 115.959 59.2389C115.889 48.2589 122.572 41.7224 130.246 41.7224C134.635 41.7224 137.781 43.6084 139.222 46.0431H139.359V29.2911H147.416L147.413 29.2881ZM139.356 56.1326C139.356 55.464 139.292 54.6544 139.158 53.9768C138.437 50.7505 135.887 48.1209 132.213 48.1209C127.036 48.1209 124.147 52.8374 124.147 58.9631C124.147 64.9508 127.033 69.3315 132.149 69.3315C135.42 69.3315 138.306 67.0377 139.091 63.4696C139.289 62.732 139.359 61.9195 139.359 61.047L139.356 56.1326ZM153.115 75.2593V42.463H161.248V75.2593H153.115ZM166.944 53.0383C166.944 48.5947 166.883 45.4254 166.687 42.466H173.699L173.956 48.7236H174.222C175.795 44.0791 179.527 42.466 182.944 42.466C183.729 42.466 184.184 42.3281 184.838 42.466V49.7431C184.064 49.5672 183.275 49.4767 182.483 49.4732C178.608 49.4732 175.987 52.0338 175.269 55.7308C175.111 56.577 175.024 57.4358 175.01 58.2974V75.2623H166.944V53.0383ZM188.579 75.2593V42.463H196.7V75.2593H188.579Z" fill="#0D2B5B"/>
<path d="M247.288 7.77772C243.264 3.06126 238.986 5.19611 235.587 6.93218C234.157 7.65779 223.835 13.6695 223.835 13.6695C218.18 16.0652 213.777 13.4507 212.049 11.2498C211.884 11.0411 211.735 10.8196 211.603 10.5872L211.2 9.87059C210.519 8.66104 209.763 7.49822 208.936 6.38947C208.434 5.71742 207.89 5.07943 207.307 4.4795C203.438 0.464665 197.255 -2.34482 186.919 2.75843C182.025 5.67286 166.084 15.0308 166.084 15.0308C160.093 17.5644 155.511 14.4791 154.023 12.2153C153.956 12.1306 153.897 12.0392 153.848 11.9425L153.652 11.6007L152.643 9.90357C152.187 9.16016 151.698 8.43879 151.178 7.74174C150.671 7.07397 150.126 6.43723 149.547 5.83477C145.704 1.84392 139.552 -0.959567 129.307 4.04773C123.112 7.68177 108.702 16.1462 108.702 16.1462L108.696 16.1522L98.1504 22.3439L103.607 29.2282C105.904 31.4769 110.22 35.1649 116.896 32.0556C116.896 32.0556 135.324 21.0905 135.397 21.0576C151.152 12.1734 158.925 20.6618 162.363 26.3197C162.483 26.4966 162.579 26.6885 162.687 26.8594L162.693 26.8684C162.736 26.9374 162.763 27.0004 162.801 27.0663L163.189 27.72C164.864 30.3286 167.505 32.0136 170.653 31.9357C172.389 31.8997 173.568 31.318 175.284 30.3376L193.114 19.7113L193.152 19.6933C209.105 10.7011 217.01 19.7443 220.386 25.4022C220.649 25.8909 220.947 26.3587 221.253 26.7935C222.925 29.1232 225.23 30.6494 228.16 30.5744C230.095 30.5354 232.263 29.3421 232.587 29.1232L253.962 16.446C253.968 16.452 251.785 13.0609 247.288 7.77772Z" fill="#FDD213"/>
</g>
<defs>
<clipPath id="clip0_279_1489">
<rect width="254" height="76" fill="white"/>
</clipPath>
</defs>
</svg>
