<svg width="22" height="22" viewBox="0 0 22 22" fill="none" xmlns="http://www.w3.org/2000/svg">
<g clip-path="url(#clip0_388_1533)">
<path d="M4.58911 9.34399C4.26722 9.43608 3.86232 9.65548 3.6634 9.85093C3.61722 9.8963 3.55849 9.95402 3.48798 10.0452L4.5983 6.15214C4.63494 6.02645 4.71844 5.8776 4.82375 5.77411C4.92921 5.67049 5.0908 5.57852 5.21726 5.54396L7.11626 5.02327L6.80899 3.82345L9.29918 6.26348L8.25608 9.66409L7.94982 8.44132L4.58911 9.34399ZM12.7431 3.48441C13.3417 3.32179 13.8996 3.46907 14.3251 3.90209C14.7849 4.37002 14.9214 4.95341 14.724 5.66254L14.4394 6.70449L10.7334 7.70026L9.8899 4.24807L12.7431 3.48441ZM3.80109 12.5837C3.16242 11.9337 3.1848 10.8584 3.85046 10.2043C4.0374 10.0206 4.43176 9.79051 4.74221 9.70966L5.76613 9.42013L8.42237 12.1234L5.84103 14.6598L3.80109 12.5837ZM15.0998 5.7417C15.2352 5.2728 15.2218 4.83756 15.0697 4.44892L17.8261 7.2542C18.0727 7.50516 18.1576 7.80247 18.0713 8.11233L17.5402 10.0014L18.7355 10.306L15.3276 11.2778L12.9321 8.76844L14.1264 9.09674L15.0998 5.7417ZM12.7361 16.5605C13.0719 16.9022 13.4458 17.0958 13.8675 17.1519L9.95509 18.216C9.64463 18.2969 9.32644 18.2069 9.09121 17.9675L7.77954 16.6326L6.8802 17.5162L7.80927 14.0931L11.2488 13.2237L10.3374 14.1192L12.7361 16.5605ZM15.9138 15.5888C15.8279 15.8753 15.6858 16.1275 15.4755 16.3342C15.0549 16.7475 14.353 16.921 13.7849 16.7626C13.5225 16.6837 13.2284 16.5014 12.9937 16.2626L12.2534 15.5092L13.315 11.8222L16.7285 12.7493L15.9138 15.5888Z" fill="#F9F9F9" fill-opacity="0.5"/>
</g>
<defs>
<clipPath id="clip0_388_1533">
<rect width="15" height="15" fill="white" transform="translate(10.6992) rotate(45.5033)"/>
</clipPath>
</defs>
</svg>
