<svg width="238" height="74" viewBox="0 0 238 74" fill="none" xmlns="http://www.w3.org/2000/svg">
<g style="mix-blend-mode:luminosity" clip-path="url(#clip0_279_1562)">
<path d="M81.4697 24.5322L80.7148 28.943H86.7945L83.2826 49.4761H87.4854L90.9973 28.943H97.0773L97.8321 24.5322H81.4697Z" fill="black"/>
<path d="M98.891 24.5322L94.623 49.4761H109.894L110.648 45.0636H99.4976L100.603 38.6023H110.408L111.163 34.1895H101.357L102.255 28.943H112.929L113.684 24.5322H98.891Z" fill="black"/>
<path d="M116.135 24.5322L111.869 49.4761H126.073L126.847 44.9597H116.844L120.339 24.5322H116.135Z" fill="black"/>
<path d="M132.129 24.5322L127.861 49.4761H132.063L133.509 41.0337L135.898 38.5329L140.246 49.4761H145.653L139.487 34.7458L149.446 24.5322H144.008L134.596 34.6763L136.331 24.5322H132.129Z" fill="black"/>
<path fill-rule="evenodd" clip-rule="evenodd" d="M158.701 28.2829C162.177 28.2829 163.612 31.687 162.707 36.9699C161.727 42.7035 158.996 45.7241 155.745 45.7241C152.298 45.7241 150.863 42.3203 151.774 37.0047C152.766 31.2037 155.59 28.2829 158.701 28.2829ZM159.483 23.8721C155.058 23.8721 149.282 26.9969 147.57 37.0047C145.895 46.8003 150.369 50.137 154.992 50.137C159.446 50.137 165.185 47.0452 166.909 36.9699C168.617 26.9969 163.854 23.8721 159.483 23.8721Z" fill="black"/>
<path d="M170.735 24.5322L166.467 49.4761H170.391L173.951 28.6658H174.007L174.118 49.4761H178.236L185.557 28.631L185.619 28.5983L182.046 49.4761H185.969L190.235 24.5322H184.156L177.206 44.1952H177.149L176.87 24.5322H170.735Z" fill="black"/>
<path d="M199.914 23.8721C193.385 23.8721 191.343 28.77 190.861 31.5849C189.934 37.0047 192.882 38.1173 196.001 38.878L198.08 39.5075C200.102 40.1312 201.499 40.6511 201.16 42.632C200.69 45.3777 198.091 45.8301 196.438 45.8301C194.113 45.8301 192.441 44.7866 192.841 41.7987H188.806C187.898 47.1164 190.603 50.137 195.898 50.137C199.904 50.137 204.284 47.9479 205.307 41.9738C206.138 37.1086 203.308 35.9609 201.051 35.2313L196.538 33.7722C195.739 33.5314 194.516 33.1481 194.862 31.1325C195.242 28.9087 197.272 28.179 198.869 28.179C202.54 28.179 202.423 30.8204 202.346 31.9313H206.381C206.875 28.876 206.076 23.8721 199.914 23.8721Z" fill="black"/>
<path d="M210.041 24.5322L205.773 49.4761H221.046L221.799 45.0636H210.649L211.755 38.6023H221.56L222.316 34.1895H212.508L213.407 28.943H224.082L224.837 24.5322H210.041Z" fill="black"/>
<path d="M227.289 24.5322L223.02 49.4761H237.227L237.999 44.9597H227.996L231.489 24.5322H227.289Z" fill="black"/>
<path d="M16.498 34.0646L25.0195 14.2053L46.6613 11.5771L59.7844 28.8065L51.2642 48.6661L29.6223 51.2939L16.498 34.0646Z" fill="white"/>
<mask id="mask0_279_1562" style="mask-type:luminance" maskUnits="userSpaceOnUse" x="16" y="11" width="44" height="41">
<path d="M16.498 34.0646L25.0195 14.2053L46.6613 11.5772L59.7843 28.8065L51.2642 48.6661L29.6223 51.2939L16.498 34.0646Z" fill="white"/>
</mask>
<g mask="url(#mask0_279_1562)">
<path d="M52.6955 51.6347C48.2635 65.697 40.9365 74.8115 33.798 73.9429C25.2155 72.9015 19.3977 55.4197 22.4624 34.8805C25.5338 14.3032 34.6316 -0.575653 43.7774 0.0174179C49.7616 0.404404 54.417 8.42921 55.7388 19.2607C54.0832 13.1327 51.5852 6.78691 47.324 6.23031C41.4501 5.46387 33.7534 17.2182 30.5861 33.4327C27.6446 48.4945 29.9815 63.5004 36.851 64.3878C41.289 64.9597 48.867 60.3602 52.6955 51.6347Z" fill="white"/>
<path d="M56.6312 50.314C64.6279 46.7371 72.7398 42.5842 71.973 37.617C70.8088 30.0834 53.1814 27.255 37.7349 28.7624C30.9218 29.4267 6.54032 34.2997 6.92364 44.4864C7.03533 47.4514 15.0317 51.3598 21.7238 53.2773C11.307 52.1239 0.790343 46.9909 0.0530154 40.8052C-1.05919 31.4484 15.4597 21.8372 37.2074 19.5425C58.7916 17.2686 77.4591 22.8346 78.7398 32.1703C79.7035 39.1936 70.4834 45.9651 56.6312 50.314Z" fill="white"/>
</g>
<path d="M56.0957 50.5792L35.1984 53.1187L22.5273 36.4839L30.7536 17.308L51.6533 14.7725L64.3229 31.407L56.0957 50.5792Z" fill="#656263"/>
<path d="M52.6955 51.6344C48.2635 65.6966 40.9365 74.8129 33.798 73.9426C25.2155 72.9012 19.3977 55.4194 22.4624 34.8826C25.5338 14.3029 34.6316 -0.57595 43.7774 0.0171196C49.7616 0.404104 54.417 8.42891 55.7388 19.2604C54.0832 13.1324 51.5852 6.78661 47.324 6.23001C41.4501 5.46357 33.7534 17.2178 30.586 33.4324C27.6446 48.4962 29.9815 63.5001 36.851 64.3875C41.289 64.9594 48.867 60.3599 52.6955 51.6344Z" fill="#B0AEAF"/>
<path d="M56.6312 50.3135C64.6279 46.7366 72.7398 42.5837 71.973 37.6165C70.8088 30.0829 53.1814 27.2545 37.7349 28.7619C30.9218 29.4262 6.54032 34.2992 6.92364 44.4879C7.03533 47.4509 15.0317 51.3593 21.7238 53.2769C11.307 52.1234 0.790343 46.9904 0.0530154 40.8048C-1.05919 31.4479 15.4597 21.8367 37.2074 19.542C58.7916 17.2681 77.4591 22.8341 78.7398 32.1698C79.7035 39.1931 70.4834 45.9647 56.6312 50.3135Z" fill="#B0AEAF"/>
<path d="M50.8386 48.1074L29.8972 50.649L17.1992 33.9777L25.4441 14.7653L46.3851 12.2217L59.0824 28.893L50.8386 48.1074Z" fill="#ED1C24"/>
<mask id="mask1_279_1562" style="mask-type:luminance" maskUnits="userSpaceOnUse" x="17" y="12" width="43" height="39">
<path d="M50.8386 48.1068L29.8972 50.6484L17.1992 33.9771L25.4441 14.7647L46.3851 12.2211L59.0824 28.8925L50.8386 48.1068Z" fill="white"/>
</mask>
<g mask="url(#mask1_279_1562)">
<path d="M52.6955 51.6337C48.2635 65.696 40.9365 74.8105 33.798 73.9419C25.2155 72.9005 19.3977 55.4187 22.4624 34.8796C25.5338 14.3022 34.6316 -0.57663 43.7774 0.0164413C49.7616 0.403427 54.417 8.42823 55.7388 19.2598C54.0832 13.1317 51.5852 6.78593 47.324 6.22933C41.4501 5.46289 33.7534 17.2172 30.5861 33.4318C27.6446 48.4935 29.9815 63.4994 36.851 64.3868C41.289 64.9588 48.867 60.3592 52.6955 51.6337Z" fill="white"/>
<path d="M56.6312 50.313C64.6279 46.7361 72.7398 42.5832 71.973 37.6161C70.8088 30.0824 53.1814 27.254 37.7349 28.7614C30.9218 29.4257 6.54032 34.2987 6.92364 44.4854C7.03533 47.4505 15.0317 51.3588 21.7238 53.2764C11.307 52.1229 0.790343 46.99 0.0530154 40.8043C-1.05919 31.4474 15.4597 21.8362 37.2074 19.5415C58.7916 17.2676 77.4591 22.8336 78.7398 32.1693C79.7035 39.1926 70.4834 45.9642 56.6312 50.313Z" fill="white"/>
</g>
</g>
<defs>
<clipPath id="clip0_279_1562">
<rect width="238" height="74" fill="white"/>
</clipPath>
</defs>
</svg>
