<svg width="192" height="63" viewBox="0 0 192 63" fill="none" xmlns="http://www.w3.org/2000/svg">
<path d="M154.378 12C145.908 12 138.933 18.8345 138.933 27.4088C138.933 35.8588 145.783 42.8176 154.378 42.8176C162.848 42.8176 169.823 35.983 169.823 27.4088C169.823 18.8345 162.848 12 154.378 12ZM166.336 18.8345C165.588 19.3316 164.716 19.8287 163.844 20.3257C163.346 19.3316 162.723 18.3375 161.976 17.4676C162.599 17.0948 163.222 16.5978 163.72 16.225C164.841 16.8463 165.713 17.8404 166.336 18.8345ZM159.858 13.7397C161.104 14.2368 162.225 14.8581 163.346 15.7279C162.848 16.225 162.225 16.5978 161.602 16.9706C160.855 16.1007 159.983 15.3551 159.111 14.6096C159.36 14.2368 159.609 13.9882 159.858 13.7397ZM161.104 17.2191C160.232 17.7162 159.36 17.9647 158.488 18.3375C158.115 17.4676 157.741 16.5978 157.243 15.8522C157.741 15.6037 158.239 15.3551 158.613 14.9823C159.485 15.6037 160.357 16.3493 161.104 17.2191ZM159.236 13.4912C158.987 13.7397 158.737 13.9882 158.613 14.2368C157.741 13.7397 156.994 13.2426 155.997 12.8699C157.118 12.8699 158.239 13.1184 159.236 13.4912ZM158.115 14.6096C157.741 14.8581 157.367 15.1066 156.994 15.2309C156.495 14.4853 155.997 13.864 155.499 13.1184C156.371 13.4912 157.243 13.9882 158.115 14.6096ZM154.627 13.2426C155.25 13.864 155.748 14.6096 156.246 15.4794C155.748 15.6037 155.25 15.7279 154.627 15.7279V13.2426ZM154.627 16.3493C155.25 16.3493 155.997 16.225 156.62 15.9765C157.118 16.7221 157.492 17.5919 157.866 18.4618C156.869 18.7103 155.748 18.8345 154.627 18.9588V16.3493ZM154.004 13.2426V15.7279C153.506 15.7279 153.008 15.6037 152.385 15.4794C153.008 14.7338 153.506 13.9882 154.004 13.2426ZM151.887 15.2309C151.513 15.1066 151.015 14.8581 150.766 14.6096C151.638 14.1125 152.51 13.6154 153.381 13.2426C152.759 13.864 152.26 14.4853 151.887 15.2309ZM152.759 12.7456C151.887 13.1184 151.015 13.6154 150.143 14.1125C149.894 13.864 149.645 13.6154 149.52 13.3669C150.517 13.1184 151.638 12.8699 152.759 12.7456ZM163.346 39.0897C161.353 37.9713 161.229 36.3558 161.353 35.8588C161.478 35.2375 161.851 35.486 162.101 35.486C163.471 35.486 164.841 35.1132 166.585 33.2492C168.578 31.261 169.2 26.7875 166.086 23.9294C162.848 20.8228 159.36 21.3198 157.118 24.1779C156.62 24.7992 155.499 25.172 154.627 25.172C153.132 25.172 154.129 26.2904 154.129 26.5389C154.129 26.7875 153.88 26.9117 153.755 26.9117C153.257 26.7875 153.506 27.5331 153.506 27.6573C153.506 27.7816 153.257 28.0301 153.257 28.0301C152.634 28.0301 152.759 28.5272 152.883 28.7757C152.883 28.9 152.883 29.1485 152.634 29.2728C152.385 29.397 152.26 29.8941 152.26 30.2669C152.26 30.8882 152.883 31.3853 153.88 32.1309C154.876 32.8764 155.001 33.622 155.001 34.1191C155.001 34.6161 155.125 35.486 155.25 35.983C155.499 36.6044 155.499 37.847 154.129 37.847C152.385 37.9713 149.396 39.2139 149.146 39.3382C148.15 39.711 146.904 39.8352 145.908 39.5867C145.41 39.2139 144.912 38.8411 144.413 38.3441C144.164 37.7228 144.538 36.9772 144.912 36.4801C145.534 37.1014 146.282 36.9772 146.78 36.9772C147.278 36.9772 149.52 36.6044 149.894 36.4801C150.268 36.3558 150.392 36.3558 150.517 36.4801C151.389 36.8529 152.634 36.8529 153.132 35.2375C153.631 33.4978 152.51 33.9948 152.26 34.1191C152.136 34.2433 151.887 34.1191 152.011 33.9948C152.26 33.622 151.887 33.622 151.762 33.622C151.264 33.622 150.641 34.1191 150.517 34.2433C150.268 34.3676 150.143 34.3676 150.018 34.3676C149.396 33.9948 147.527 34.4919 146.904 33.4978C146.904 33.2492 146.406 29.1485 146.157 28.4029C146.157 28.2786 146.033 28.0301 146.282 27.7816C146.78 27.036 148.025 27.7816 148.773 27.7816C149.645 27.7816 149.769 27.4088 150.018 27.1603C150.268 26.9117 150.392 27.036 150.517 26.9117C150.641 26.7875 150.517 26.6632 150.517 26.5389C150.517 26.4147 150.641 26.5389 150.766 26.4147C150.89 26.2904 150.766 26.0419 150.766 25.9176C151.015 25.5448 151.513 25.7934 151.264 25.0478C151.139 24.5507 151.389 24.0537 151.638 23.8051C152.011 23.3081 153.631 21.0713 150.89 18.7103C148.275 16.4735 145.534 16.7221 143.79 18.586C142.047 20.45 142.919 23.1838 143.043 23.9294C143.168 24.675 142.669 25.2963 142.047 25.5448C141.548 25.7934 140.427 26.5389 139.68 27.1603C139.805 21.1956 143.417 15.9765 148.897 13.864C149.146 14.1125 149.396 14.4853 149.645 14.7338C149.022 15.2309 147.652 16.3493 147.652 16.3493C147.652 16.3493 147.776 16.3493 148.025 16.4735C148.15 16.4735 148.399 16.5978 148.399 16.5978C148.399 16.5978 149.52 15.6037 150.143 15.2309C150.517 15.6037 151.015 15.8522 151.513 16.1007C151.264 16.5978 150.517 17.8404 150.517 17.8404C150.517 17.8404 150.641 17.9647 150.766 17.9647C150.89 18.089 151.015 18.089 151.015 18.089C151.015 18.089 151.762 16.7221 152.011 16.225C152.634 16.4735 153.257 16.5978 153.88 16.5978V19.0831C153.506 19.0831 152.634 19.0831 152.26 18.9588H152.011L152.136 19.2073C152.26 19.3316 152.26 19.4559 152.385 19.5801H153.88V24.1779H154.502V23.0595C155.499 23.0595 156.246 22.9353 157.118 22.811L157.99 22.0654H157.492C156.495 22.1897 155.624 22.314 154.876 22.314H154.502V19.4559C155.624 19.4559 156.869 19.3316 157.99 18.9588L158.862 21.5684L159.485 21.3198L158.613 18.7103C159.609 18.4618 160.481 17.9647 161.353 17.5919C162.101 18.4618 162.723 19.4559 163.222 20.45C162.723 20.6985 161.976 20.947 161.976 20.947C162.599 21.0713 163.097 21.1956 163.097 21.1956C163.097 21.1956 163.346 21.0713 163.471 21.0713C163.471 21.1956 163.595 21.4441 163.595 21.4441L164.467 21.8169L164.343 21.5684C164.343 21.5684 164.093 20.947 163.969 20.8228C164.841 20.45 165.713 19.9529 166.585 19.3316C168.204 21.6926 168.951 24.5507 168.951 27.4088C169.2 32.1308 166.834 36.3558 163.346 39.0897ZM137.563 16.1007L137.313 16.3493C136.442 17.0948 134.324 19.2073 134.698 21.5684V21.6926L134.822 22.1897L135.071 21.9412C136.317 20.8228 137.313 18.8345 137.687 16.5978L137.812 15.9765L137.563 16.1007ZM133.328 20.0772L133.203 20.3257C133.078 20.6985 132.829 21.5684 132.705 22.5625C132.456 24.0537 132.58 26.2904 133.826 27.9059L133.95 28.1544L134.075 28.4029L134.324 27.4088C134.573 25.6691 134.199 22.0654 133.577 20.45L133.328 19.9529V20.0772ZM131.833 26.2904V26.5389C131.708 28.0301 131.833 31.8823 134.947 33.9948L135.321 34.2433V33.7463C135.321 32.2551 133.577 27.9059 132.331 26.4147L131.957 25.9176L131.833 26.2904ZM132.331 33.125V33.3735C132.829 35.6103 134.822 39.0897 138.061 40.208L138.559 40.3323L138.434 39.8352C137.812 38.2198 134.698 34.3676 132.705 33.125L132.331 32.8764V33.125ZM138.933 19.4559L138.559 19.5801C136.192 21.0713 135.071 22.811 135.071 25.0478V25.5448L135.445 25.2963C136.691 24.1779 138.434 21.4441 138.808 19.9529L138.933 19.3316V19.4559ZM137.438 24.1779L137.313 24.4265C136.691 25.0478 134.698 27.1603 134.822 29.7698C134.822 30.1426 134.947 30.6397 135.071 31.0125L135.196 31.3853L135.445 31.0125C136.442 29.6456 137.687 26.1662 137.563 24.5507V24.0537L137.438 24.1779ZM137.563 28.7757L137.438 29.0242C136.442 30.5154 135.943 32.0066 135.943 33.4978C135.943 34.4919 136.317 35.486 136.94 36.4801L137.189 36.8529L137.313 36.4801C137.687 35.6103 138.061 33.0007 138.061 30.8882C138.061 30.1426 137.936 29.5213 137.812 29.1485L137.687 28.6514L137.563 28.7757ZM138.684 33.622L138.559 33.8706C138.31 34.8647 138.061 35.7345 138.185 36.7286C138.185 38.7169 139.182 40.3323 140.926 41.4507L141.175 41.575L141.299 41.2022V40.8294C141.299 39.2139 140.054 34.9889 139.057 33.7463L138.808 33.3735L138.684 33.622ZM135.321 40.0838L135.445 40.3323C136.691 42.4448 138.933 45.3029 143.043 44.5573H143.417L143.168 44.3088C142.42 43.1904 137.438 40.3323 135.694 40.0838L135.196 39.9595L135.321 40.0838ZM141.424 45.5514L140.801 45.6757L141.424 45.9242C144.04 47.0426 147.278 47.2911 149.271 46.6698C150.018 46.4213 150.392 46.0485 150.89 45.5514C154.253 45.9242 157.367 48.658 159.236 50.8948L159.36 51.0191H159.485C159.734 50.8948 159.983 50.6463 160.108 50.522L160.232 50.3977L160.108 50.2735C158.239 47.7882 155.25 46.297 155.125 46.1727C152.385 44.9301 147.652 43.936 141.424 45.5514Z" fill="#00AEEF"/>
<path d="M141.548 38.5929V38.8414C141.921 41.3267 142.918 44.5576 147.153 44.1848H147.402L147.277 43.9362C147.028 42.8179 143.167 39.587 141.797 38.7171L141.423 38.4686L141.548 38.5929ZM170.943 15.8525L171.068 16.4738C171.442 18.7105 172.438 20.6988 173.684 21.8171L173.933 22.0657L174.057 21.5686V21.4444C174.431 19.0833 172.314 16.9708 171.442 16.2252L171.193 15.9767L170.943 15.8525ZM175.303 19.8289L175.054 20.326C174.431 21.9414 174.182 25.5451 174.307 27.2848L174.556 28.2789L174.68 28.1546L174.805 27.9061C176.175 26.2907 176.175 24.1782 175.926 22.5627C175.801 21.4444 175.552 20.6988 175.428 20.326L175.303 20.0774V19.8289ZM176.922 26.0421L176.549 26.5392C175.303 28.1546 173.559 32.3796 173.559 33.8708V34.3679L173.933 34.1193C177.047 32.1311 177.171 28.2789 177.047 26.6635V26.4149L176.922 26.0421ZM176.424 32.8767L175.926 33.1252C173.933 34.3679 170.819 38.2201 170.196 39.8355L170.072 40.3326L170.57 40.2083C173.808 39.2142 175.926 35.6105 176.299 33.3737V33.1252L176.424 32.8767ZM169.822 19.2076L169.947 19.8289C170.445 21.4444 171.94 24.1782 173.31 25.2966L173.684 25.5451V25.048C173.808 22.8113 172.687 21.0716 170.321 19.5804L170.072 19.4561L169.822 19.2076ZM171.193 24.0539V24.551C171.068 26.1664 172.438 29.7701 173.31 31.0127L173.559 31.3855L173.684 31.0127C173.808 30.5157 173.933 30.1429 173.933 29.7701C174.057 27.1605 172.064 25.048 171.442 24.4267L171.317 24.3024L171.193 24.0539ZM171.068 28.5274L170.943 29.0245C170.819 29.3973 170.694 30.0186 170.694 30.7642C170.694 32.8767 170.943 35.4862 171.442 36.3561L171.566 36.7289L171.815 36.3561C172.438 35.4862 172.812 34.4921 172.812 33.3737C172.812 32.0068 172.314 30.3914 171.317 28.9002L171.193 28.6517L171.068 28.5274ZM169.947 33.3737L169.698 33.7465C168.701 34.9892 167.456 39.2142 167.456 40.8296V41.2024L167.58 41.5752L167.829 41.4509C169.573 40.3326 170.445 38.7171 170.57 36.7289C170.57 35.859 170.445 34.8649 170.196 33.8708L170.072 33.6223L169.947 33.3737ZM173.559 39.8355L173.061 39.9598C171.317 40.2083 166.335 43.0664 165.587 44.1848L165.338 44.4333H165.712C169.822 45.1789 172.064 42.3208 173.31 40.2083L173.435 39.9598L173.559 39.8355ZM153.754 46.173C153.63 46.173 150.64 47.7884 148.772 50.2737L148.648 50.398L148.772 50.5223C148.897 50.6465 149.27 50.895 149.395 51.0193H149.519L149.644 50.895C151.512 48.6583 154.626 45.8002 157.989 45.5517C158.488 46.0487 158.986 46.4215 159.609 46.6701C161.477 47.2914 164.84 47.0428 167.456 45.9245L168.079 45.6759L167.456 45.5517C161.103 43.9362 156.37 44.9303 153.754 46.173ZM167.207 38.3443L166.833 38.5929C165.463 39.4627 161.726 42.6936 161.352 43.812L161.228 44.0605H161.477C165.587 44.4333 166.584 41.2024 167.082 38.7171V38.4686L167.207 38.3443ZM62.0795 13.4914H67.3109V18.2135H62.0795V13.4914ZM62.5777 23.6811H66.9373V46.7943H62.5777V23.6811ZM29.5698 23.6811H33.9293V46.7943H29.6943V43.4392H29.5698C27.826 46.2973 24.8366 47.5399 21.5981 47.5399C16.7403 47.5399 14 43.812 14 39.2142V23.6811H18.3595V37.3502C18.3595 41.3267 19.2314 44.309 23.4664 44.309C25.2102 44.309 27.7014 43.4392 28.5733 40.9539C29.4452 38.8414 29.4452 36.1076 29.4452 35.4862V23.6811H29.5698ZM42.6484 27.0363C44.2677 24.1782 47.3816 22.9355 49.7482 22.9355C51.3675 22.9355 58.4673 23.3083 58.4673 30.7642V46.6701H54.1078V32.1311C54.1078 28.2789 52.4885 26.2907 48.7518 26.2907C48.7518 26.2907 46.3852 26.1664 44.5168 28.0304C43.894 28.6517 42.6484 29.6458 42.6484 34.2436V46.7943H38.2889V23.6811H42.6484V27.0363ZM85.2473 31.0127C84.9982 28.1546 83.6281 26.1664 80.5141 26.1664C76.4037 26.1664 74.7844 29.7701 74.7844 35.1135C74.7844 40.4568 76.4037 44.0605 80.5141 44.0605C83.379 44.0605 85.1228 42.1965 85.3719 38.8414H89.7314C89.3578 44.0605 85.4965 47.1671 80.3896 47.1671C73.0406 47.1671 70.0512 41.948 70.0512 35.2377C70.0512 28.5274 73.4143 22.9355 80.7632 22.9355C85.621 22.9355 89.2332 26.0421 89.4823 31.0127H85.2473ZM96.2085 35.9833C95.8348 39.9598 97.5786 44.1848 101.938 44.1848C105.301 44.1848 107.045 42.8179 107.543 39.4627H112.152C111.405 44.6818 107.419 47.2914 101.938 47.2914C94.5892 47.2914 91.5998 42.0723 91.5998 35.362C91.5998 28.6517 94.9629 23.0598 102.312 23.0598C109.163 23.1841 112.401 27.5333 112.401 33.8708V35.9833H96.2085ZM107.917 33.001C108.042 29.1488 106.298 26.1664 102.063 26.1664C98.4505 26.1664 96.333 29.273 96.333 33.001H107.917ZM117.383 46.5458V26.6635H113.398V23.6811H117.383V18.7105C117.508 13.74 121.369 12.373 124.608 12.373C125.604 12.373 126.725 12.6216 127.722 12.8701V16.4738C126.974 16.4738 126.227 16.3495 125.48 16.3495C122.988 16.3495 121.618 16.9708 121.743 19.4561V23.6811H127.099V26.6635H121.743V46.5458H117.383Z" fill="#00AEEF"/>
</svg>
