<svg width="242" height="58" viewBox="0 0 242 58" fill="none" xmlns="http://www.w3.org/2000/svg">
<path d="M188.892 39.4484V39.815C189.444 43.4813 190.914 48.2474 197.163 47.6974H197.531L197.347 47.3308C196.979 45.681 191.282 40.9149 189.26 39.6317L188.708 39.2651L188.892 39.4484ZM232.269 5.90227L232.453 6.81883C233.004 10.1185 234.474 13.0514 236.312 14.7013L236.68 15.0679L236.864 14.3346V14.1513C237.415 10.6684 234.291 7.55208 233.004 6.45221L232.636 6.08558L232.269 5.90227ZM238.702 11.7683L238.334 12.5015C237.415 14.8846 237.048 20.2006 237.231 22.767L237.599 24.2335L237.783 24.0502L237.967 23.6836C239.988 21.3005 239.988 18.1842 239.621 15.8011C239.437 14.1513 239.069 13.0514 238.886 12.5015L238.702 12.1349V11.7683ZM241.091 20.9339L240.54 21.6671C238.702 24.0502 236.129 30.2828 236.129 32.4825V33.2158L236.68 32.8492C241.275 29.9162 241.459 24.2335 241.275 21.8504V21.4838L241.091 20.9339ZM240.356 31.016L239.621 31.3827C236.68 33.2158 232.085 38.8985 231.166 41.2815L230.982 42.0148L231.717 41.8315C236.496 40.365 239.621 35.0489 240.172 31.7493V31.3827L240.356 31.016ZM230.615 10.8517L230.798 11.7683C231.534 14.1513 233.739 18.1842 235.761 19.834L236.312 20.2006V19.4674C236.496 16.1678 234.842 13.6014 231.35 11.4016L230.982 11.2183L230.615 10.8517ZM232.636 18.0009V18.7341C232.453 21.1172 234.474 26.4332 235.761 28.2664L236.129 28.8163L236.312 28.2664C236.496 27.5331 236.68 26.9832 236.68 26.4332C236.864 22.5837 233.923 19.4674 233.004 18.5508L232.82 18.3675L232.636 18.0009ZM232.453 24.6001L232.269 25.3334C232.085 25.8833 231.901 26.7999 231.901 27.8997C231.901 31.016 232.269 34.8656 233.004 36.1488L233.188 36.6987L233.555 36.1488C234.474 34.8656 235.026 33.3991 235.026 31.7493C235.026 29.7329 234.291 27.3498 232.82 25.15L232.636 24.7834L232.453 24.6001ZM230.798 31.7493L230.431 32.2992C228.961 34.1323 227.123 40.365 227.123 42.748V43.298L227.306 43.8479L227.674 43.6646C230.247 42.0148 231.534 39.6317 231.717 36.6987C231.717 35.4155 231.534 33.949 231.166 32.4825L230.982 32.1159L230.798 31.7493ZM236.129 41.2815L235.393 41.4648C232.82 41.8315 225.468 46.0476 224.366 47.6974L223.998 48.0641H224.549C230.615 49.1639 233.923 44.9478 235.761 41.8315L235.945 41.4648L236.129 41.2815ZM206.905 50.6304C206.721 50.6304 202.31 53.0135 199.553 56.6797L199.369 56.8631L199.553 57.0464C199.736 57.2297 200.288 57.5963 200.472 57.7796H200.655L200.839 57.5963C203.596 54.2967 208.191 50.0805 213.154 49.7139C213.889 50.4471 214.624 50.9971 215.543 51.3637C218.3 52.2803 223.263 51.9136 227.123 50.2638L228.042 49.8972L227.123 49.7139C217.749 47.3308 210.764 48.7973 206.905 50.6304ZM226.755 39.0818L226.204 39.4484C224.182 40.7316 218.668 45.4977 218.116 47.1475L217.933 47.5141H218.3C224.366 48.0641 225.836 43.298 226.571 39.6317V39.2651L226.755 39.0818ZM71.6282 2.41934H79.3478V9.3852H71.6282V2.41934ZM72.3634 17.4509H78.7964V51.547H72.3634V17.4509ZM23.6566 17.4509H30.0895V51.547H23.8404V46.5976H23.6566C21.0834 50.8138 16.6722 52.6469 11.8934 52.6469C4.72523 52.6469 0.681641 47.1475 0.681641 40.365V17.4509H7.11462V37.6153C7.11462 43.4813 8.40122 47.8808 14.6504 47.8808C17.2236 47.8808 20.8996 46.5976 22.1862 42.9313C23.4728 39.815 23.4728 35.7822 23.4728 34.8656V17.4509H23.6566ZM42.9555 22.4004C45.3449 18.1842 49.9399 16.3511 53.4321 16.3511C55.8215 16.3511 66.298 16.901 66.298 27.8997V51.3637H59.8651V29.9162C59.8651 24.2335 57.4757 21.3005 51.9617 21.3005C51.9617 21.3005 48.4695 21.1172 45.7125 23.8669C44.7935 24.7834 42.9555 26.2499 42.9555 33.0325V51.547H36.5225V17.4509H42.9555V22.4004ZM105.815 28.2664C105.447 24.0502 103.426 21.1172 98.8305 21.1172C92.7651 21.1172 90.3757 26.4332 90.3757 34.3157C90.3757 42.1981 92.7651 47.5141 98.8305 47.5141C103.058 47.5141 105.631 44.7645 105.999 39.815H112.432C111.88 47.5141 106.183 52.0969 98.6467 52.0969C87.8026 52.0969 83.3914 44.3978 83.3914 34.499C83.3914 24.6001 88.354 16.3511 99.1981 16.3511C106.366 16.3511 111.696 20.9339 112.064 28.2664H105.815ZM121.989 35.5988C121.438 41.4648 124.011 47.6974 130.444 47.6974C135.407 47.6974 137.98 45.681 138.715 40.7316H145.516C144.413 48.4307 138.531 52.2803 130.444 52.2803C119.6 52.2803 115.189 44.5811 115.189 34.6823C115.189 24.7834 120.151 16.5344 130.995 16.5344C141.104 16.7177 145.883 23.1336 145.883 32.4825V35.5988H121.989ZM139.266 31.1994C139.45 25.5167 136.877 21.1172 130.628 21.1172C125.298 21.1172 122.173 25.7 122.173 31.1994H139.266ZM153.235 51.1804V21.8504H147.354V17.4509H153.235V10.1185C153.419 2.78596 159.117 0.769531 163.896 0.769531C165.366 0.769531 167.02 1.13616 168.491 1.50278V6.81883C167.388 6.81883 166.285 6.63552 165.182 6.63552C161.506 6.63552 159.484 7.55208 159.668 11.2183V17.4509H167.572V21.8504H159.668V51.1804H153.235Z" fill="#00AEEF"/>
</svg>
